<svg id="Layer_2" data-name="Layer 2" xmlns="http://www.w3.org/2000/svg" viewBox="0 0 143.34 153.62"><defs><style>.cls-1{fill:#fefeeb;}</style></defs><title>Icons</title><g id="YfWlYi"><path class="cls-1" d="M61.6,85.33C54.95,72.8,48.15,60.58,42,48.06c-2.34-4.74-5.26-7.64-10.51-8.21a20.71,20.71,0,0,1-3.9-1.05A2.63,2.63,0,1,1,29,33.75c4.11,1.09,8.22,2.17,12.3,3.37a3.06,3.06,0,0,1,1.49,1.46c2,3.61,3.94,7.24,5.78,10.92a2.8,2.8,0,0,0,2.94,1.79c20.47-.06,40.94.06,61.41-.12,4.41,0,5.86,2.89,4.29,6.41-4.08,9.19-7.88,18.51-11.7,27.81a4.56,4.56,0,0,1-4.78,3.19q-16.42,0-32.83.14A6.59,6.59,0,0,0,64.45,90a69.17,69.17,0,0,0-5.67,4.58,9,9,0,0,0-2,2.28c-.92,1.62-.41,2.75,1.41,3.17a14.11,14.11,0,0,0,3.21.27q21.79-.08,43.58-.2a4.35,4.35,0,0,1,2.36.27,3.76,3.76,0,0,1,1.64,2.42c0,.82-.93,1.77-1.68,2.41-.42.36-1.29.24-2,.25q-22.19.09-44.39.13a18,18,0,0,1-4-.37c-5-1.15-7.33-5.9-5-10.48a16.09,16.09,0,0,1,3.39-4.21C57.29,88.68,59.42,87.11,61.6,85.33Zm31.59-2.11c0-3.78,0-7.34,0-10.9,0-1.25-.76-1.19-1.6-1.19H73.88V83.21Zm-.12-26.5H73.89V67.79H93.07Zm-22.55-.07H52.41c2,3.78,3.89,7.32,5.8,10.85a1.1,1.1,0,0,0,.82.44c3.81,0,7.63,0,11.48,0Zm26,0V68c1.57,0,3,0,4.39,0,2,0,4.48.57,5.89-.38s1.8-3.47,2.6-5.33,1.49-3.67,2.29-5.64ZM70.43,83.17V71.26H60.18l4.9,9.27C66.75,83.67,66.74,83.67,70.43,83.17Zm26,.38c1.65-.32,3.85-.16,4.26-.93,1.9-3.6,3.29-7.46,4.91-11.33H96.43Z"/><path class="cls-1" d="M105.8,113.52a6.3,6.3,0,0,1-12.61.3,6.31,6.31,0,1,1,12.61-.3Zm-6.26,3.26a3.15,3.15,0,1,0-3.17-3A3.17,3.17,0,0,0,99.54,116.78Z"/><path class="cls-1" d="M71.44,113.75a6.31,6.31,0,0,1-12.62-.06,6.31,6.31,0,1,1,12.62.06Zm-6.34,3.08a3.16,3.16,0,1,0-3.1-3.31A3.22,3.22,0,0,0,65.1,116.84Z"/></g></svg>