<svg id="Layer_2" data-name="Layer 2" xmlns="http://www.w3.org/2000/svg" viewBox="0 0 766.67 666.99"><defs><style>.cls-1{fill:#fdc25c;}.cls-2{fill:#fcad56;}.cls-13,.cls-3{fill:#fff;}.cls-3{opacity:0.26;}.cls-4{fill:#bf362b;}.cls-5{fill:#f4d798;}.cls-6{fill:#f4ab69;}.cls-7{fill:#f09d16;}.cls-8{fill:#f2bf1f;}.cls-9{fill:#ffd420;}.cls-10{fill:#e98679;}.cls-11{fill:#efa8ac;}.cls-12{fill:#ffc77d;}.cls-13{opacity:0.39;}.cls-14{fill:#f2e8bb;}.cls-15{fill:#3d7a36;}</style></defs><title>Icons</title><path class="cls-1" d="M145.54,230.94c-6.65,17.28-8.56,36-10.41,54.39-2.71,27-5.41,54-6.79,81.13-.91,17.91-1.21,36.09,3,53.51,5.69,23.34,19.44,44.28,37,60.65,10.85,10.09,23.11,18.53,34.22,28.34,9.84,8.7,18.72,18.42,28.25,27.46,35.24,33.41,84.83,43.09,132.82,50.52s88.23-8,134-24.18c34.26-12.09,44.93-29.71,67.22-49.1,26-22.63,41.56-39.16,60.76-67.79,18.24-27.21,12-64,11.94-92.39-.06-26.28,4.41-53.23-3.11-78.41-4.44-14.88-12.83-28.22-19.06-42.44-11.06-25.25-15.66-54-33-75.43-13.16-16.32-32.22-26.56-50.75-36.37-19.35-10.24-38.78-20.5-59.32-28.08C425.16,75.3,372.86,74,324.15,86.09c-46,11.41-98.8,36.22-128.89,74.2C177.58,182.61,156,203.9,145.54,230.94Z"/><path class="cls-2" d="M634.52,275.05c-4.44-14.88-12.83-28.22-19.06-42.44-11.06-25.25-15.66-54-33-75.43-10.59-13.14-25-22.33-39.88-30.53,10.42,6.5,20.11,14,27.79,23.48,17.3,21.46,21.9,50.18,33,75.43C609.6,239.78,618,253.12,622.43,268c7.51,25.18,3,52.13,3.1,78.41.07,28.35,6.3,65.18-11.94,92.39-19.2,28.63-34.75,45.16-60.76,67.79-22.28,19.39-33,37-67.22,49.1-45.79,16.16-86,31.61-134,24.18-34.81-5.39-70.46-12-100.86-27.93,32.79,21.2,73.41,28.86,113,35,48,7.43,88.23-8,134-24.18,34.26-12.09,44.93-29.71,67.22-49.1,26-22.63,41.56-39.16,60.76-67.79,18.24-27.21,12-64,11.94-92.39C637.56,327.18,642,300.23,634.52,275.05Z"/><path class="cls-2" d="M154.86,329.09A269.22,269.22,0,0,1,239.6,157.3c11-10.19,23-19.49,36.14-26.66s27.12-12,41.22-16.65c29-9.55,59-18.13,89.48-16.86,53.18,2.2,100.13,33.57,143.91,63.84-11.81-10.4-28.78-11.81-43.44-17.53s-27-15.69-41-22.43c-42.26-20.26-92.17-8.54-137.45,3.53-16.06,4.28-32.28,8.63-46.89,16.56-18.31,9.95-33.19,25-47.78,39.92-18.73,19.1-37.92,38.89-47.84,63.73-6.48,16.23-8.67,33.87-14.42,50.38-4,11.44-9.69,22.33-12.44,34.13-5.11,21.9.31,44.72,5.72,66.54,6.82,27.53,14.28,56.28,33.34,77.28-15.78-19.74-28.74-37.83-36.16-62.47C154,384.3,152.26,356.34,154.86,329.09Z"/><path class="cls-3" d="M155.39,244.88c-7,30.24-14.08,60.57-17.51,91.42-3.41,30.69-2.94,63,10.51,90.8a28.47,28.47,0,0,0,5.88,8.74,4.26,4.26,0,0,0,3.4,1.45c2.66-.46,2.59-4.3,1.81-6.88-9.82-32.17-22.1-65.46-16.06-98.56,2.34-12.8,7.35-24.93,10.71-37.5,7.43-27.81,7.08-58.57,22.61-82.8,6.7-10.45,16-19,23.73-28.64,8-9.91,14.43-21.11,23.62-29.91,18.69-17.91,46-23.55,67.07-38.58,2.92-2.08,6-5,5.54-8.57-6.86-2.06-14,1.42-20.29,4.91C224.08,140.07,169.56,184,155.39,244.88Z"/><path class="cls-3" d="M402.22,90.69c2.43.33,6-.25,5.74-2.69-.19-1.91-2.68-2.47-4.6-2.53-21.27-.67-42.88-1.31-63.47,4-7.23,1.88-23.23,2.32-27.67,8.92-8.65,12.88,10.62,5.24,15.34,3.12A137.75,137.75,0,0,1,402.22,90.69Z"/><path class="cls-3" d="M428,560.57c28.88-7.37,58.3-15,83.47-30.92,13.6-8.61,25.62-19.46,37.27-30.56,22.64-21.57,44.2-44.35,63.31-69.1,1.21-1.56,2.45-3.25,2.59-5.22s-1.36-4.18-3.32-4a5,5,0,0,0-2.94,1.86c-5.67,6-9.85,13.32-15.12,19.7C577,462,551.36,472.13,535.81,492.28c-5.53,7.17-9.63,15.42-15.71,22.14-11.94,13.18-29.89,18.79-46.94,23.86l-31.28,9.29c-9.69,2.88-19.42,5.77-29.41,7.34-6.22,1-12.53,1.45-18.68,2.78-4.41,1-26.44,11.06-13.47,14.86,5.19,1.52,17.32-4.25,22.62-5.6Z"/><path class="cls-3" d="M607.84,306a212,212,0,0,1,2.7,80c-1.06,6.72-2.45,13.63-.87,20.24.34,1.42,1,3,2.36,3.45s3.16-.64,3.79-2.09a10.08,10.08,0,0,0,.41-4.69,150.1,150.1,0,0,1,1.12-30.7c1-7.29,2.58-14.53,2.85-21.88.63-16.86-5.5-33.56-3.79-50.35.37-3.64.11-11.6-5.82-10.13C604.36,291.4,606.9,301.88,607.84,306Z"/><path class="cls-4" d="M243.3,173.25c-5.64,10.55-9.31,22.13-15.72,32.24-9.66,15.23-24.84,26.08-36,40.25-18.36,23.33-24.48,53.71-30.06,82.87-2.45,12.81-4.91,25.86-3.4,38.81,1.68,14.35,8.13,27.65,12.13,41.53,3.8,13.16,5.51,27.17,12.3,39.07s17.83,20.41,26.32,31,14.54,23.6,24.46,33.12,23.26,15,36.23,20q20,7.61,40.19,14.44c13.86,4.68,27.9,9.11,42.4,11,37.42,4.92,74.76-7.19,110.56-19.13,11.72-3.91,23.62-7.9,33.78-14.93,18.19-12.56,28.8-33.28,44.18-49.17,19.25-19.9,47.32-34.22,54.61-60.93,4.44-16.27-.15-33.58,1.18-50.39,1.4-17.75,9.36-34.59,9.86-52.38.41-14.64-4.26-28.89-8.87-42.78C589.87,245,582,221.64,567.37,202.51,555.47,187,539.62,175,523.68,163.63Q506,151,487.72,139.15c-11.76-7.65-23.88-15.17-37.38-19-12.47-3.52-25.6-3.74-38.55-3.86C356.95,115.8,273.41,116.88,243.3,173.25Z"/><path class="cls-5" d="M267.8,158.56c-8.79,14.8-9.91,33.82-21.29,46.73-13,14.79-36.64,18-47.23,34.66-3.7,5.82-5.36,12.67-6.95,19.38-6.38,26.88-12.79,54-14.08,81.55S181.1,397,194.66,421c7.66,13.59,18.07,25.4,26.91,38.26a192.62,192.62,0,0,1,21,39.93c2.23,5.8,4.29,11.9,8.52,16.45,7.1,7.64,18.64,9.18,29,8.42s20.81-3.33,31.16-2c9,1.15,17.35,5.16,26.09,7.62,22.4,6.3,46.24,2.16,69.13-2,17.15-3.13,34.49-6.32,50.44-13.36,18.58-8.2,34.85-21.46,54.2-27.64,9-2.89,18.65-4.2,27.18-8.35,11.77-5.73,20.34-16.28,28.51-26.51,6.23-7.8,12.67-16,14.45-25.86,1.43-7.93-.34-16-1-24.06-1.83-22.71,5.37-45,10-67.35s6.22-47-5.5-66.52c-2.61-4.36-5.85-8.37-8-13-5.62-12.07-3.15-26.72-8.77-38.79-7.66-16.46-27.32-22.91-41-34.81-14.38-12.48-22.8-31.69-39.53-40.78-7.2-3.91-15.37-5.59-23.4-7.21-12.84-2.6-25.71-5.21-38.75-6.42-18.37-1.71-36.88-.65-55.3.41-20.11,1.16-44.47-1.12-63.82,4.55C296.94,134.68,267.8,146.06,267.8,158.56Z"/><path class="cls-6" d="M300.63,520.16c-10.35-1.32-20.75,1.25-31.16,2a58.19,58.19,0,0,1-9.89-.07c6.28,2.64,13.68,3.16,20.59,2.65,10.41-.76,20.81-3.33,31.16-2l.34,0A61.61,61.61,0,0,0,300.63,520.16Z"/><path class="cls-6" d="M584.82,268.68c-2.62-4.36-5.85-8.37-8-13-5.62-12.07-3.15-26.72-8.77-38.79-7.66-16.46-27.32-22.91-41-34.81-14.38-12.48-22.8-31.69-39.53-40.78-6.49-3.53-13.78-5.24-21-6.73a53.2,53.2,0,0,1,10.33,4.16c16.73,9.09,25.15,28.29,39.53,40.78,13.71,11.9,33.37,18.35,41,34.81,5.62,12.07,3.15,26.72,8.77,38.79,2.15,4.61,5.38,8.62,8,13,11.72,19.54,10.08,44.2,5.5,66.52s-11.79,44.63-10,67.35c.65,8,2.42,16.13,1,24.06-1.78,9.82-8.21,18.06-14.45,25.86-8.17,10.23-16.74,20.78-28.51,26.51-8.53,4.16-18.14,5.46-27.18,8.35-19.35,6.19-35.62,19.44-54.2,27.64-16,7-33.29,10.23-50.44,13.36-20.07,3.66-40.87,7.3-60.79,3.89.78.24,1.57.48,2.36.7,22.4,6.3,46.24,2.16,69.13-2C423.71,525.21,441.05,522,457,515c18.58-8.2,34.85-21.46,54.2-27.64,9-2.89,18.65-4.2,27.18-8.35,11.77-5.73,20.34-16.28,28.51-26.51,6.23-7.8,12.67-16,14.45-25.86,1.43-7.93-.34-16-1-24.06-1.83-22.71,5.37-45,10-67.35S596.54,288.22,584.82,268.68Z"/><path class="cls-7" d="M488.36,291.15a6.89,6.89,0,0,0-1.45,2c-.62,1.53-.06,3.29.71,4.75,2.55,4.79,7.2,8,11.34,11.52,10.25,8.66,18.27,20,29.67,27.11,1.78,1.11,3.78,2.14,5.86,1.93a9.69,9.69,0,0,0,3.74-1.42,51.56,51.56,0,0,0,9.46-6.89,14.56,14.56,0,0,0,3.72-4.71,16.24,16.24,0,0,0,1-4.74q.63-5.74.93-11.52a33.48,33.48,0,0,0-.49-9.56,8.39,8.39,0,0,0-2-4.09c-1.39-1.37-3.39-1.89-5.28-2.35l-32.63-7.9-8.09-2c-1.82-.44-4.43-1.69-6.31-1.62C494.94,281.86,490.68,288.64,488.36,291.15Z"/><path class="cls-8" d="M491.49,292.8c-1.58,2.85.06,6.41,2.08,9a58,58,0,0,0,8.18,8q12.85,10.91,26.5,20.83c2.28,1.65,4.8,3.36,7.61,3.25a10.73,10.73,0,0,0,5-1.82c4.54-2.75,8.44-6.78,10.25-11.76,1.27-3.53,1.45-7.34,1.61-11.09.34-7.84.68-15.69.71-23.54a17.79,17.79,0,0,0-1-7.12,3.28,3.28,0,0,0-1.11-1.5,4,4,0,0,0-2.5-.37l-28.9,2-14.73,1c-3.41.23-8.14-.48-8.14,3.87,0,1.89.51,2.87-.72,4.57C495,289.91,492.63,290.75,491.49,292.8Z"/><path class="cls-9" d="M521.31,281.45c-6.8-.33-13.9-1.36-20.2,1.21a41.17,41.17,0,0,0,5.54,1,15.22,15.22,0,0,0-5.1,1.23c.32.26,0,.78-.29,1s-.77.5-.75.92.38.6.7.76a43.76,43.76,0,0,0,11.38,3.92c-4.69.65-9.6-2.26-14.05-.65-.53.19-1.13.6-1,1.16a1.35,1.35,0,0,0,.69.8l11.27,7.46c9,5.94,18.05,11.93,28.21,15.46,0-.8-.69-1.4-1.35-1.86a166,166,0,0,0-21.64-12.67,8.91,8.91,0,0,1-3.8-2.76,4.09,4.09,0,0,1,3.78.25l-1.18-1.37a1,1,0,0,0,1.16-.54l-3-1.08a.56.56,0,0,1-.33-.22c-.14-.26.19-.53.48-.62a7.12,7.12,0,0,1,3.7.21c10,2.4,19.94,5.47,30.1,7.3-2.89-3-7.19-4.09-11.21-5.23a129.21,129.21,0,0,1-13.23-4.54,32,32,0,0,1,9-.51q-9.95-2.36-19.73-5.36c2.38-1.18,5.18-1,7.83-.85,7.37.29,14.73-.5,22.06-1.3a78.54,78.54,0,0,0-10.4-.64l10.63-1.77c2.66-.44,5.49-1,7.42-2.86-.36.36-2.83.27-3.45.41-1.17.25-2.3.68-3.46.95a20.71,20.71,0,0,1-4.35.4C531.54,281.2,526.47,281.7,521.31,281.45Z"/><path class="cls-7" d="M303.84,422.81a6.89,6.89,0,0,0-2.06-1.39c-1.55-.57-3.29,0-4.72.87-4.7,2.7-7.77,7.46-11.13,11.72-8.31,10.54-19.39,18.94-26.1,30.56-1,1.82-2,3.85-1.73,5.93a9.69,9.69,0,0,0,1.55,3.69,51.56,51.56,0,0,0,7.2,9.22,14.56,14.56,0,0,0,4.83,3.56,16.23,16.23,0,0,0,4.77.87q5.76.44,11.54.54a33.49,33.49,0,0,0,9.53-.81,8.39,8.39,0,0,0,4-2.18c1.33-1.43,1.77-3.45,2.17-5.36l6.8-32.87,1.69-8.15c.38-1.83,1.54-4.49,1.4-6.36C313.35,429.08,306.43,425,303.84,422.81Z"/><path class="cls-8" d="M302.3,426c-2.9-1.49-6.4.27-8.89,2.38a58,58,0,0,0-7.72,8.44Q275.22,450,265.77,464c-1.58,2.33-3.2,4.91-3,7.71a10.73,10.73,0,0,0,2,4.95c2.9,4.44,7.06,8.21,12.1,9.85,3.57,1.16,7.38,1.2,11.13,1.24,7.85.08,15.71.16,23.55-.08a17.79,17.79,0,0,0,7.09-1.22,3.28,3.28,0,0,0,1.47-1.16,4,4,0,0,0,.29-2.51L317.44,454l-1.5-14.69c-.35-3.4.2-8.15-4.14-8-1.89.07-2.85.61-4.59-.56C305.3,429.42,304.39,427.07,302.3,426Z"/><path class="cls-9" d="M314.65,455.42c.11-6.81.89-13.94-1.89-20.15a41.14,41.14,0,0,0-.83,5.57,15.22,15.22,0,0,0-1.4-5.05c-.25.33-.78.07-1-.25s-.53-.75-.94-.72-.58.4-.74.73a43.76,43.76,0,0,0-3.53,11.51c-.81-4.67,1.93-9.67.18-14.07-.21-.53-.64-1.11-1.2-1-.36.07-.58.41-.77.72l-7.08,11.51c-5.63,9.16-11.32,18.44-14.5,28.72.8,0,1.38-.73,1.81-1.41a166,166,0,0,0,11.93-22.06,8.91,8.91,0,0,1,2.63-3.89,4.09,4.09,0,0,1-.12,3.79l1.33-1.23a1,1,0,0,0,.58,1.15l1-3.08a.56.56,0,0,1,.21-.34c.26-.15.53.17.63.46a7.12,7.12,0,0,1-.08,3.71c-2.06,10.12-4.8,20.11-6.29,30.33,2.92-3,3.85-7.33,4.85-11.38a129.22,129.22,0,0,1,4.09-13.38,32,32,0,0,1,.81,9q2-10,4.69-19.9c1.26,2.34,1.13,5.14,1.12,7.8,0,7.37,1,14.71,2,22a78.56,78.56,0,0,0,.29-10.42l2.13,10.57c.53,2.64,1.16,5.46,3.11,7.31-.37-.35-.37-2.82-.52-3.44-.29-1.16-.76-2.27-1.07-3.43a20.71,20.71,0,0,1-.54-4.34C315.24,465.63,314.57,460.59,314.65,455.42Z"/><path class="cls-7" d="M214.1,370.15a6.89,6.89,0,0,0,1.71,1.8c1.39.89,3.22.67,4.8.18,5.18-1.61,9.22-5.58,13.43-9,10.42-8.46,23.07-14.23,32.16-24.1,1.42-1.54,2.8-3.31,3-5.4a9.69,9.69,0,0,0-.7-3.94,51.57,51.57,0,0,0-5-10.58,14.56,14.56,0,0,0-3.94-4.54,16.23,16.23,0,0,0-4.47-1.89q-5.53-1.69-11.14-3.06a33.49,33.49,0,0,0-9.48-1.3,8.39,8.39,0,0,0-4.4,1.24c-1.61,1.11-2.48,3-3.29,4.76l-13.84,30.58-3.43,7.58c-.77,1.71-2.49,4-2.76,5.9C206.2,361.95,212.07,367.4,214.1,370.15Z"/><path class="cls-8" d="M216.31,367.38c2.5,2.09,6.31,1.14,9.19-.37a58,58,0,0,0,9.38-6.55q13.11-10.59,25.4-22.16c2-1.93,4.19-4.09,4.61-6.87a10.73,10.73,0,0,0-.85-5.26c-1.85-5-5.08-9.56-9.65-12.26-3.23-1.91-6.94-2.79-10.59-3.65-7.64-1.8-15.29-3.59-23-5.08a17.79,17.79,0,0,0-7.18-.36,3.28,3.28,0,0,0-1.68.81,4,4,0,0,0-.83,2.39l-3.44,28.77-1.76,14.66c-.41,3.4-2,7.91,2.29,8.72,1.86.35,2.92,0,4.36,1.55S214.5,365.88,216.31,367.38Z"/><path class="cls-9" d="M210.71,336c-1.6,6.62-3.93,13.4-2.57,20.07a41.15,41.15,0,0,0,2-5.25,15.22,15.22,0,0,0,.26,5.24c.31-.27.78.1,1,.47s.35.85.76.91.66-.26.88-.55a43.76,43.76,0,0,0,6-10.45c-.23,4.73-4,9-3.26,13.69.09.56.38,1.23.95,1.24a1.35,1.35,0,0,0,.91-.53l9.43-9.68c7.5-7.7,15.09-15.52,20.44-24.84-.78-.19-1.51.41-2.08,1a165.94,165.94,0,0,0-16.48,18.91,8.91,8.91,0,0,1-3.42,3.22,4.09,4.09,0,0,1,1-3.67l-1.56.91a1,1,0,0,0-.32-1.25l-1.63,2.79a.56.56,0,0,1-.28.28c-.29.09-.48-.29-.52-.58a7.12,7.12,0,0,1,.89-3.6c4.23-9.42,9.09-18.57,12.78-28.21-3.5,2.28-5.36,6.31-7.23,10a129.21,129.21,0,0,1-6.93,12.15,32,32,0,0,1,1.18-9q-4.17,9.33-8.94,18.39c-.72-2.56,0-5.27.62-7.85,1.66-7.18,2.25-14.57,2.83-21.92a78.54,78.54,0,0,0-2.57,10.1l.24-10.78c.06-2.69.07-5.58-1.43-7.82.28.42-.26,2.84-.24,3.47,0,1.2.24,2.38.29,3.58a20.71,20.71,0,0,1-.42,4.35C212.36,325.87,211.92,330.94,210.71,336Z"/><path class="cls-7" d="M327.3,207.48a5.59,5.59,0,0,0,1.38,1.46,4.7,4.7,0,0,0,3.89.15c4.2-1.3,7.48-4.52,10.89-7.3,8.45-6.86,18.71-11.54,26.08-19.54a6.19,6.19,0,0,0,1.86-7.58,41.82,41.82,0,0,0-4.06-8.58,11.81,11.81,0,0,0-3.19-3.68,13.17,13.17,0,0,0-3.62-1.53q-4.48-1.37-9-2.48a27.16,27.16,0,0,0-7.69-1.05,6.81,6.81,0,0,0-3.57,1,8.84,8.84,0,0,0-2.67,3.86L326.35,187l-2.78,6.15c-.63,1.38-2,3.28-2.24,4.78C320.9,200.84,325.66,205.26,327.3,207.48Z"/><path class="cls-8" d="M329.09,205.24c2,1.69,5.11.92,7.46-.3a47.06,47.06,0,0,0,7.61-5.31q10.63-8.59,20.6-18c1.66-1.56,3.4-3.32,3.74-5.57a8.7,8.7,0,0,0-.69-4.27,19.16,19.16,0,0,0-7.82-9.94,30.15,30.15,0,0,0-8.59-3c-6.2-1.46-12.4-2.92-18.65-4.12a14.43,14.43,0,0,0-5.82-.29,2.66,2.66,0,0,0-1.37.65,3.25,3.25,0,0,0-.68,1.94l-2.79,23.33-1.42,11.89c-.33,2.76-1.61,6.42,1.85,7.07,1.51.28,2.37,0,3.54,1.26S327.63,204,329.09,205.24Z"/><path class="cls-9" d="M324.55,179.76c-1.29,5.37-3.18,10.87-2.09,16.28a33.36,33.36,0,0,0,1.65-4.26,12.34,12.34,0,0,0,.21,4.25c.26-.22.63.08.78.38s.29.69.62.73.53-.21.71-.45a35.49,35.49,0,0,0,4.84-8.48c-.19,3.84-3.25,7.31-2.64,11.1.07.45.31,1,.77,1a1.1,1.1,0,0,0,.74-.43l7.65-7.85c6.08-6.25,12.24-12.58,16.58-20.15-.63-.15-1.22.34-1.69.79A134.58,134.58,0,0,0,339.31,188a7.23,7.23,0,0,1-2.77,2.61,3.31,3.31,0,0,1,.77-3l-1.27.74a.8.8,0,0,0-.26-1l-1.32,2.27a.45.45,0,0,1-.23.23c-.23.07-.39-.23-.42-.47a5.78,5.78,0,0,1,.72-2.92c3.43-7.64,7.37-15.06,10.37-22.88-2.84,1.85-4.35,5.11-5.86,8.14a104.76,104.76,0,0,1-5.62,9.86,26,26,0,0,1,1-7.27q-3.38,7.57-7.25,14.91c-.58-2.07,0-4.27.5-6.37a121.11,121.11,0,0,0,2.3-17.78,63.71,63.71,0,0,0-2.08,8.19l.19-8.74c0-2.18.05-4.52-1.16-6.34.23.34-.21,2.3-.2,2.81,0,1,.19,1.93.23,2.9a16.79,16.79,0,0,1-.34,3.53C325.89,171.58,325.53,175.69,324.55,179.76Z"/><path class="cls-7" d="M472.07,223.62a5.58,5.58,0,0,0,2-.4,4.7,4.7,0,0,0,2.18-3.23c1.11-4.26.1-8.74-.45-13.1-1.37-10.8.07-22-2.84-32.47a6.19,6.19,0,0,0-5.46-5.58,41.82,41.82,0,0,0-9.43-1.08,11.81,11.81,0,0,0-4.81.77A13.16,13.16,0,0,0,450,170.8q-3.53,3.08-6.88,6.37a27.16,27.16,0,0,0-4.95,6,6.81,6.81,0,0,0-1,3.57A8.84,8.84,0,0,0,439,191l15.15,22.62,3.76,5.61c.85,1.26,1.72,3.44,2.88,4.43C463,225.55,469.31,223.84,472.07,223.62Z"/><path class="cls-8" d="M471.11,220.91c2.51-.83,3.48-3.86,3.68-6.49a47.06,47.06,0,0,0-.5-9.26q-1.69-13.56-4.4-27c-.45-2.24-1-4.64-2.76-6.11a8.7,8.7,0,0,0-4-1.66,19.16,19.16,0,0,0-12.57,1.4,30.15,30.15,0,0,0-7,5.73c-4.51,4.5-9,9-13.34,13.67a14.42,14.42,0,0,0-3.32,4.79,2.66,2.66,0,0,0-.16,1.5,3.25,3.25,0,0,0,1.29,1.6l18.35,14.68,9.35,7.48c2.17,1.73,4.6,4.75,7,2.15,1-1.13,1.27-2,2.94-2.34C467.42,220.7,469.3,221.51,471.11,220.91Z"/><path class="cls-9" d="M447.07,211.33c3.88,3.93,7.55,8.44,12.73,10.36A33.36,33.36,0,0,0,457,218a12.34,12.34,0,0,0,3.72,2.06c0-.33.4-.49.73-.46s.73.12.95-.14.1-.56,0-.84a35.49,35.49,0,0,0-4.65-8.58c3.16,2.18,4.49,6.61,8,8.1.42.18,1,.26,1.26-.12a1.1,1.1,0,0,0,0-.86l-2.64-10.64c-2.1-8.46-4.23-17-8.37-24.71a2,2,0,0,0-.22,1.85,134.6,134.6,0,0,0,6,19.44,7.22,7.22,0,0,1,.76,3.73,3.31,3.31,0,0,1-2.12-2.22l0,1.47a.8.8,0,0,0-1-.32l1.23,2.32a.45.45,0,0,1,.08.31c-.06.23-.41.21-.62.11a5.78,5.78,0,0,1-2.1-2.15c-4.68-6.95-8.9-14.21-14-20.88.07,3.39,2.05,6.39,3.83,9.28a104.76,104.76,0,0,1,5.41,10,26,26,0,0,1-5.67-4.65q4.65,6.87,8.84,14c-2.07-.6-3.62-2.27-5.15-3.79A121.11,121.11,0,0,0,437.46,199a63.72,63.72,0,0,0,5.86,6.09L436,200.34c-1.83-1.19-3.81-2.43-6-2.36.41,0,1.84,1.39,2.29,1.65.84.49,1.74.85,2.59,1.33a16.79,16.79,0,0,1,2.82,2.15C440.82,205.87,444.13,208.35,447.07,211.33Z"/><path class="cls-7" d="M536.45,444.16a5.59,5.59,0,0,1-.37,2,4.7,4.7,0,0,1-3.19,2.24c-4.24,1.19-8.73.26-13.11-.22-10.82-1.18-22,.47-32.52-2.26a6.19,6.19,0,0,1-5.67-5.36,41.82,41.82,0,0,1-1.25-9.41,11.81,11.81,0,0,1,.68-4.82,13.17,13.17,0,0,1,2.21-3.25q3-3.58,6.24-7a27.16,27.16,0,0,1,5.89-5.06,6.81,6.81,0,0,1,3.55-1.09,8.84,8.84,0,0,1,4.33,1.79l22.89,14.74,5.68,3.65c1.28.82,3.47,1.66,4.48,2.8C538.23,435.09,536.63,441.39,536.45,444.16Z"/><path class="cls-8" d="M533.74,443.24c-.79,2.52-3.79,3.55-6.43,3.79a47.06,47.06,0,0,1-9.27-.33q-13.59-1.44-27.05-3.91c-2.24-.41-4.66-.94-6.16-2.65a8.7,8.7,0,0,1-1.74-4,19.16,19.16,0,0,1,1.17-12.6,30.15,30.15,0,0,1,5.61-7.15c4.41-4.59,8.83-9.18,13.43-13.59a14.42,14.42,0,0,1,4.73-3.41,2.66,2.66,0,0,1,1.5-.19,3.25,3.25,0,0,1,1.62,1.26l15,18.08,7.65,9.21c1.77,2.14,4.84,4.51,2.28,6.94-1.11,1.06-2,1.3-2.28,3C533.46,439.56,534.3,441.43,533.74,443.24Z"/><path class="cls-9" d="M523.72,419.38c4,3.81,8.57,7.4,10.59,12.54a33.37,33.37,0,0,1-3.69-2.69,12.34,12.34,0,0,1,2.13,3.68c-.33,0-.49.41-.44.74s.13.73-.12,1-.56.11-.84,0a35.49,35.49,0,0,1-8.67-4.49c2.24,3.12,6.69,4.37,8.24,7.89.19.42.28,1-.1,1.26a1.1,1.1,0,0,1-.86,0l-10.68-2.44c-8.5-1.94-17.11-3.93-24.86-7.92a2,2,0,0,1,1.85-.25,134.57,134.57,0,0,1,19.55,5.62,7.23,7.23,0,0,0,3.75.69,3.32,3.32,0,0,0-2.26-2.08l1.46-.07a.8.8,0,0,1-.33-1l2.34,1.19a.45.45,0,0,0,.31.07c.23-.07.2-.41.09-.63a5.78,5.78,0,0,0-2.19-2.06c-7-4.55-14.37-8.65-21.13-13.59,3.39,0,6.43,1.94,9.34,3.66a104.77,104.77,0,0,0,10.07,5.23,26,26,0,0,0-4.75-5.59q7,4.52,14.18,8.59c-.64-2.06-2.33-3.58-3.88-5.08A121.12,121.12,0,0,1,511.24,410a63.71,63.71,0,0,1,6.2,5.75l-4.91-7.24c-1.23-1.81-2.5-3.77-2.47-6,0,.41,1.42,1.82,1.69,2.25.51.83.89,1.73,1.38,2.56a16.81,16.81,0,0,0,2.2,2.78C518.15,413.23,520.69,416.49,523.72,419.38Z"/><path class="cls-7" d="M403.19,359.78a5.59,5.59,0,0,0,2-.4,4.7,4.7,0,0,0,2.18-3.23c1.11-4.26.1-8.74-.45-13.1-1.37-10.8.07-22-2.84-32.47a6.19,6.19,0,0,0-5.46-5.58,41.82,41.82,0,0,0-9.43-1.08,11.81,11.81,0,0,0-4.81.77,13.17,13.17,0,0,0-3.21,2.27q-3.53,3.08-6.88,6.37a27.16,27.16,0,0,0-4.95,6,6.81,6.81,0,0,0-1,3.57,8.84,8.84,0,0,0,1.87,4.3l15.15,22.62,3.76,5.61c.84,1.26,1.72,3.44,2.88,4.43C394.16,361.71,400.43,360,403.19,359.78Z"/><path class="cls-8" d="M402.23,357.08c2.51-.83,3.48-3.86,3.68-6.49a47.06,47.06,0,0,0-.5-9.26q-1.69-13.57-4.4-27c-.45-2.24-1-4.64-2.76-6.11a8.7,8.7,0,0,0-4-1.66,19.16,19.16,0,0,0-12.57,1.4,30.15,30.15,0,0,0-7,5.73c-4.51,4.5-9,9-13.34,13.67a14.43,14.43,0,0,0-3.32,4.79,2.66,2.66,0,0,0-.16,1.5,3.25,3.25,0,0,0,1.29,1.6l18.35,14.68,9.35,7.48c2.17,1.73,4.6,4.75,7,2.15,1-1.13,1.27-2,2.94-2.34C398.54,356.87,400.42,357.68,402.23,357.08Z"/><path class="cls-9" d="M378.19,347.49c3.88,3.93,7.55,8.44,12.73,10.36a33.37,33.37,0,0,0-2.75-3.65,12.34,12.34,0,0,0,3.72,2.06c0-.33.4-.49.73-.46s.73.12.95-.14.1-.56,0-.84a35.49,35.49,0,0,0-4.65-8.58c3.16,2.18,4.49,6.61,8,8.1.42.18,1,.26,1.26-.12a1.1,1.1,0,0,0,0-.86l-2.64-10.64c-2.1-8.46-4.23-17-8.37-24.71a2,2,0,0,0-.22,1.85,134.6,134.6,0,0,0,6,19.44,7.22,7.22,0,0,1,.76,3.73,3.31,3.31,0,0,1-2.12-2.22l0,1.47a.8.8,0,0,0-1-.32l1.23,2.32a.45.45,0,0,1,.08.31c-.06.23-.41.21-.62.11a5.78,5.78,0,0,1-2.1-2.15c-4.68-6.95-8.9-14.21-14-20.88.07,3.39,2.05,6.39,3.83,9.28a104.76,104.76,0,0,1,5.41,10,26,26,0,0,1-5.67-4.65q4.65,6.87,8.84,14c-2.07-.6-3.62-2.27-5.15-3.79a121.12,121.12,0,0,0-13.89-11.33,63.7,63.7,0,0,0,5.86,6.09l-7.32-4.78c-1.83-1.19-3.81-2.43-6-2.36.41,0,1.84,1.39,2.29,1.65.84.49,1.74.85,2.59,1.33a16.8,16.8,0,0,1,2.82,2.15C371.94,342,375.25,344.51,378.19,347.49Z"/><path class="cls-7" d="M252.74,234.21a5.32,5.32,0,0,0-1.29,1.55c-.49,1.11.24,2.22,1.15,3.09,3,2.87,8,4.4,12.5,6.19,11.15,4.42,20.28,10.95,32.43,14.16a13.51,13.51,0,0,0,6.1.5,13.24,13.24,0,0,0,3.65-1.47,57.18,57.18,0,0,0,8.93-5.92,11.85,11.85,0,0,0,3.33-3.67,8,8,0,0,0,.61-3.32q.11-3.95-.11-7.86a15.27,15.27,0,0,0-1.37-6.35,5.33,5.33,0,0,0-2.44-2.47,14.32,14.32,0,0,0-5.55-.85L277,226.92l-8.35-.21c-1.88,0-4.63-.53-6.52-.22C258.55,227.07,254.86,232.21,252.74,234.21Z"/><path class="cls-8" d="M256,234.9c-1.34,2.13.64,4.3,2.91,5.74a55.14,55.14,0,0,0,9,4.25q14,5.57,28.66,10.37c2.45.8,5.15,1.6,8,1.14a14.76,14.76,0,0,0,4.9-1.91c4.33-2.46,7.91-5.71,9.28-9.3,1-2.54.8-5.13.62-7.67-.37-5.32-.73-10.63-1.42-15.91a8.4,8.4,0,0,0-1.64-4.65,2.56,2.56,0,0,0-1.25-.86,5.94,5.94,0,0,0-2.56.09l-29,5.28-14.79,2.69c-3.43.62-8.27.79-7.87,3.71.17,1.27.78,1.86-.31,3.17S257,233.36,256,234.9Z"/><path class="cls-9" d="M285.15,223.19c-6.9.7-14.16,1-20.3,3.58,1.88.06,3.78,0,5.69-.08a22.17,22.17,0,0,0-5,1.52c.35.13.12.52-.19.73s-.73.44-.67.72.44.35.78.41a61.07,61.07,0,0,0,11.85,1.07c-4.68,1.08-9.9-.2-14.26,1.48-.52.2-1.09.56-.94.92s.45.35.77.44l12.06,3.47c9.6,2.76,19.32,5.55,29.91,6.53,0-.54-.82-.85-1.53-1.07a201.93,201.93,0,0,0-23-5.55,9.82,9.82,0,0,1-4.09-1.33,6,6,0,0,1,3.84-.35l-1.32-.76a1.22,1.22,0,0,0,1.13-.52l-3.18-.31a.63.63,0,0,1-.35-.1c-.16-.16.15-.38.43-.48a10.79,10.79,0,0,1,3.76-.37c10.36.24,20.64,1,31.07.79-3.2-1.63-7.64-1.76-11.8-2-4.65-.24-9.25-.66-13.78-1.24a48.85,48.85,0,0,1,9.07-1.58q-10.26-.23-20.42-.9c2.3-1.12,5.14-1.35,7.83-1.64,7.47-.81,14.84-2.35,22.17-3.89-3.52.17-7.06.5-10.57,1l10.58-2.64c2.64-.66,5.46-1.4,7.23-2.93a24.12,24.12,0,0,1-3.45.75c-1.16.33-2.26.77-3.41,1.11a31.5,31.5,0,0,1-4.36.86C295.45,221.63,290.38,222.66,285.15,223.19Z"/><path class="cls-7" d="M369.85,496.1a5.32,5.32,0,0,0-.28,2c.17,1.2,1.36,1.76,2.6,2,4.06.87,9.12-.44,13.89-1.27,11.81-2.07,23-1.29,35-4.92a13.51,13.51,0,0,0,5.46-2.77A13.24,13.24,0,0,0,428.9,488a57.19,57.19,0,0,0,4.51-9.72,11.85,11.85,0,0,0,.92-4.88,8,8,0,0,0-1.22-3.15q-2-3.42-4.21-6.65a15.27,15.27,0,0,0-4.49-4.7,5.33,5.33,0,0,0-3.37-.83,14.32,14.32,0,0,0-5.18,2.18l-29.14,16.91-7.22,4.19c-1.62.94-4.22,2-5.67,3.22C371.06,487,370.6,493.29,369.85,496.1Z"/><path class="cls-8" d="M373,495c0,2.52,2.79,3.33,5.49,3.36a55.15,55.15,0,0,0,9.89-1.08q14.82-2.57,29.85-6.17c2.51-.6,5.23-1.33,7.4-3.21a14.76,14.76,0,0,0,3.17-4.19c2.4-4.37,3.76-9,3-12.78-.51-2.67-2-4.79-3.48-6.86-3.1-4.34-6.19-8.68-9.54-12.81a8.4,8.4,0,0,0-3.83-3.1,2.56,2.56,0,0,0-1.52-.08,5.94,5.94,0,0,0-2.13,1.42l-22,19.69-11.19,10c-2.59,2.33-6.63,5-4.76,7.28.81,1,1.64,1.17,1.4,2.86C374.57,491.16,373,493.14,373,495Z"/><path class="cls-9" d="M391.69,469.75c-5.51,4.21-11.55,8.25-15.42,13.67,1.64-.93,3.24-1.95,4.81-3a22.16,22.16,0,0,0-3.49,3.93c.36-.07.37.38.22.72s-.39.76-.2,1,.56.07.88-.06a61.08,61.08,0,0,0,10.66-5.29c-3.42,3.37-8.54,5-11.37,8.73-.34.44-.63,1-.32,1.28s.56.06.89,0l12.09-3.36c9.62-2.67,19.37-5.39,28.9-10.1-.31-.45-1.15-.29-1.86-.11A201.94,201.94,0,0,0,395,484.39a9.82,9.82,0,0,1-4.18,1,6,6,0,0,1,3.09-2.31l-1.52,0a1.22,1.22,0,0,0,.69-1l-2.87,1.4a.63.63,0,0,1-.36.1c-.22,0-.08-.4.11-.63a10.79,10.79,0,0,1,3-2.28c9-5.22,18.08-10,26.89-15.59-3.58.28-7.43,2.5-11.09,4.49q-6.13,3.34-12.39,6.15a48.84,48.84,0,0,1,6.9-6.09q-8.86,5.18-17.87,9.92c1.37-2.15,3.67-3.84,5.81-5.5,5.94-4.6,11.41-9.77,16.85-14.92-2.91,2-5.75,4.12-8.48,6.38l7.63-7.79c1.91-1.95,3.92-4.05,4.62-6.29a24.12,24.12,0,0,1-2.55,2.44c-.82.89-1.52,1.84-2.32,2.73a31.47,31.47,0,0,1-3.27,3C399.65,463,395.87,466.55,391.69,469.75Z"/><path class="cls-10" d="M362.94,214a20,20,0,0,0,.77,7.16l3.26,14c1,4.09,2.22,8.63,5.85,10.74,4,2.33,9.05.66,13.45-.84a145.56,145.56,0,0,1,26.07-6.3c1.69-.25,3.66-.65,4.42-2.18.59-1.19.2-2.61-.2-3.88l-9.71-30.84c-.51-1.63-1.11-3.37-2.5-4.37-4.87-3.48-16.55.79-21.94,2.38C375.06,202,364.19,204.81,362.94,214Z"/><path class="cls-10" d="M260.73,284.63c-1.82,1.17-3.91,2.42-4.43,4.53-.57,2.29,1,4.52,2.4,6.39L278,320.43a16.53,16.53,0,0,0,4.52,4.49c4,2.3,9.2.84,13-1.84s6.61-6.43,10.18-9.35c4.19-3.43,9.27-5.64,13.42-9.12s7.38-9,5.89-14.17-7.13-8.15-12.38-9.68-11-2.48-15-6.18c-1.91-1.75-3.33-4-5.48-5.48C279.25,260.52,269.21,279.19,260.73,284.63Z"/><path class="cls-10" d="M359,400.68c-1.91,0-4,.14-5.44,1.36a8.81,8.81,0,0,0-2.34,4.2l-9.76,29.31c-.4,1.21-.8,2.58-.22,3.73a4.89,4.89,0,0,0,1.63,1.63Q350,446,357.19,451.06a4.09,4.09,0,0,0,6.14-.1q12.22-9.53,24-19.57c4.74-4,9.83-9,9.56-15.21-.21-4.7-3.66-8.78-7.78-11C380.52,400.37,368.58,400.57,359,400.68Z"/><path class="cls-10" d="M441.11,357.85c-1.27,2.37-2.49,5.3-1.13,7.62a7.34,7.34,0,0,0,2.62,2.35c6.47,4,13.93,6,21.27,8l16.89,4.56a5.38,5.38,0,0,0,2.49.27,5.24,5.24,0,0,0,2.92-2.51,77.11,77.11,0,0,0,11.49-26.48c.65-2.89,1.11-6,0-8.74-2.11-5.06-8.47-6.51-13.9-7.28-7.72-1.1-24-6.76-30.33-.32-2.1,2.12-2.84,5.84-4.21,8.43C446.66,348.56,443.65,353.09,441.11,357.85Z"/><path class="cls-10" d="M495.86,224.11c-4,3.21-8.68,6.14-10.34,11-1.27,3.7-.42,7.87,1.42,11.32s4.57,6.33,7.27,9.16a6.06,6.06,0,0,0,5.9,2.42l26.19-.6a13.72,13.72,0,0,0,4.37-.57,9.07,9.07,0,0,0,4.52-4c3-5,2.26-11.6-.39-16.82s-6.95-9.38-11.17-13.43L518.89,218c-2.92-2.8-8.13-7.24-12.5-5C502.63,214.89,499.36,221.28,495.86,224.11Z"/><path class="cls-10" d="M373.54,146.57l7.58,13.07a10.42,10.42,0,0,0,3.3,4c1.79,1.08,4,1,6.11.81a205.77,205.77,0,0,0,22.71-3.1,8.85,8.85,0,0,0,4.36-1.72,8,8,0,0,0,2.06-4,32.49,32.49,0,0,0,1-10.7,12.71,12.71,0,0,0-1.89-6.45c-4.89-7-21.38-6.48-29.16-6.73C380.73,131.47,367.13,135.52,373.54,146.57Z"/><path class="cls-10" d="M215.48,393.77c-.79,3.81.25,7.74,1.46,11.44a132.1,132.1,0,0,0,13,28.21,10.1,10.1,0,0,0,3.57,3.94,10.31,10.31,0,0,0,5.22.73c7.38-.28,15-.91,21.5-4.41a9.93,9.93,0,0,0,3.81-3.18,11.44,11.44,0,0,0,1.39-4.89,91.21,91.21,0,0,0-1.22-28.93c-.46-2.25-1.06-4.58-2.62-6.27-1.89-2-4.82-2.75-7.6-3-8.65-.77-17,.93-25.63-.74C222.44,385.53,217,386.65,215.48,393.77Z"/><path class="cls-10" d="M314.88,346.76a5.46,5.46,0,0,0-2.69,5.71,38.2,38.2,0,0,0,3.81,15,8.31,8.31,0,0,0,2.85,3.65c1.86,1.14,4.23.83,6.38.46q6.49-1.12,12.93-2.51c3.68-.8,7.72-1.92,9.71-5.11,1.38-2.21,1.47-5,1.35-7.58a61.67,61.67,0,0,0-1.45-10.69,12,12,0,0,0-1.55-4.14,9,9,0,0,0-6.64-3.51C331.73,337.28,320.94,342.19,314.88,346.76Z"/><path class="cls-10" d="M451.83,445c-1.35,3.32-1.19,7.05-.88,10.63.45,5.12,1.17,10.21,2,15.28q1.1,6.95,2.38,13.87a7.28,7.28,0,0,0,1.54,3.86c1.76,1.82,4.76,1.34,7.2.64a112.65,112.65,0,0,0,19.58-7.67,15.4,15.4,0,0,0,4.64-3.16c2.94-3.24,2.8-8.4.86-12.32s-5.34-6.89-8.64-9.75C474.53,451.24,457.77,430.15,451.83,445Z"/><path class="cls-10" d="M414.86,268.38a10.15,10.15,0,0,0-3.47,2.42c-2,2.47-1.4,6.23.22,9s4.07,4.92,5.8,7.6c2.45,3.81,3.63,8.8,7.56,11,2.63,1.5,5.87,1.35,8.88,1a71,71,0,0,0,9.73-2c3-.83,6.19-2,7.9-4.63,1.43-2.18,1.57-5,1.49-7.56a61.34,61.34,0,0,0-1.09-9.85,17.3,17.3,0,0,0-2.38-6.58,13.53,13.53,0,0,0-8.69-5.19C430.93,261.69,423.71,264,414.86,268.38Z"/><path class="cls-10" d="M210,272.72a14.46,14.46,0,0,0,2.34,5.56c3.27,4.38,9.35,5.28,14.79,5.82a6.24,6.24,0,0,0,3.83-.42,6,6,0,0,0,1.83-2c6.59-10.21,22.55-40.6.11-42.7-4.93-.46-15.58,3.31-19,6.64C208.5,250.78,208.46,266,210,272.72Z"/><path class="cls-10" d="M531.25,351.32a17.23,17.23,0,0,0-5.79,4.12c-1.9,2.33-2.55,5.43-2.91,8.43a59.94,59.94,0,0,0,6,33.93,6.15,6.15,0,0,0,2.08,2.65,6.46,6.46,0,0,0,3,.67l13.25.84c2,.13,4.25.14,5.6-1.31a6.42,6.42,0,0,0,1.33-3.49c1.54-9.91.4-20.17,2.82-29.9,1.58-6.37,4.68-12.53,4.47-19.09a5.09,5.09,0,0,0-1.14-3.5c-1-1-2.65-1.14-4.11-1.18C547.23,343.25,538.77,347.14,531.25,351.32Z"/><path class="cls-11" d="M266,287.27c-1,1.19-2,2.59-1.83,4.14.2,2,2.12,3.23,3.6,4.56,2.06,1.86,3.48,4.31,5.06,6.6,4.22,6.13,9.71,11.26,15.15,16.33a23,23,0,0,1-2.46-15.48c1.35-6.87,5.83-13,6-20a11.07,11.07,0,0,0-1.73-6.6C283.58,267.92,270.13,282.31,266,287.27Z"/><path class="cls-11" d="M443.33,350.18c-2.17,4.53-4.27,9.53-3.18,14.43,2.8-1.73,4.78-4.48,7-6.88a36.62,36.62,0,0,1,16.16-10c9.29-2.77,19.68-1.83,28.26-6.35,1.13-.6,2.39-1.79,1.81-2.94a2.52,2.52,0,0,0-1.3-1c-4.71-2.14-9.9-2.91-15-3.66-5.42-.79-18.61-5.32-23.5-2.44C449,334.06,445.56,345.53,443.33,350.18Z"/><path class="cls-11" d="M422.4,292.85c1.91,2.26,5.21,3.68,7.87,2.39.37-1.1-.65-2.13-1.53-2.88a38.74,38.74,0,0,1-5-5.06c-1.67-2-3.19-4.56-2.76-7.16.53-3.15,3.67-5.11,6.62-6.35,4.23-1.77,8.45-2.34,12.85-3.35,3.65-.85,5.58-1.07,1.48-3.58s-11.17-1.93-15.68-1.42-20.53,3.46-15.34,10.87c1.59,2.27,4.53,3.1,6.16,5.69C419.26,285.44,419.73,289.69,422.4,292.85Z"/><path class="cls-11" d="M345.76,436.26a4.77,4.77,0,0,0,0,2.82c.88,2,4.11,1.73,5.55,0s1.71-4,2.28-6.16a19.85,19.85,0,0,1,10.51-12.61c6.21-2.95,21.73-2.23,22.41-11.36.48-6.38-6-6.53-10.8-6.32-6.23.27-17.44.2-21.76,5.09C348.1,414.42,347.43,427.92,345.76,436.26Z"/><path class="cls-11" d="M377.14,205.33c-3.65,1.23-7.46,2.79-9.68,5.94s-2.4,7.12-2.13,10.88a92.5,92.5,0,0,0,3.07,16.35c.57,2.23,1.46,4.79,3.65,5.52s4.67-1,5.44-3.24.26-4.66-.48-6.88c-1.58-4.77-4.14-10.16-1.54-14.46,1.75-2.88,5.41-4.14,8.78-3.94s6.53,1.6,9.6,3l9.44,4.22c1,.46,2.26.92,3.25.37s1.27-2.1,1.12-3.34c-.57-4.94-5.16-17.28-10.36-18.91S382.11,203.67,377.14,205.33Z"/><path class="cls-11" d="M490,242.52c-.72-2.37-1.23-5.44.79-6.87a9.78,9.78,0,0,1,2.57-1c3.43-1.19,5.51-4.57,7.76-7.42s5.61-5.61,9.14-4.74a10.45,10.45,0,0,1,4.3,2.72,110.31,110.31,0,0,1,8.4,8.47c2.5,2.81,5,6,5.11,9.81a2.42,2.42,0,0,1-.65,2,2.46,2.46,0,0,1-1.91.31,10.78,10.78,0,0,1-8.72-8.06c-.49-2.16-.37-4.62-1.84-6.27a5.43,5.43,0,0,0-3.16-1.6,8,8,0,0,0-8.57,11.45c.72,1.46,1.91,2.91,1.55,4.5a4.64,4.64,0,0,1-1.82,2.38,30.8,30.8,0,0,1-4.75,3.17,4.28,4.28,0,0,1-1.68.6,2.38,2.38,0,0,1-2.44-2Z"/><path class="cls-11" d="M220,248.74a10.31,10.31,0,0,0-3.72,2.36c-1.56,1.78-1.74,4.33-1.85,6.69l-.67,14.58c-.1,2.16,0,4.69,1.73,5.94s4,.57,5.73-.54a8.89,8.89,0,0,0,3-3c2.42-4.32-.25-9.66,0-14.6.09-2,.86-4.19,2.66-5.05s4.51.64,4.05,2.59a9.16,9.16,0,0,0-.58,1.81,1.9,1.9,0,0,0,2,1.72,4,4,0,0,0,2.57-1.26c3.13-3,4.21-10.85,1-14.26C231.94,241.5,224.17,246.88,220,248.74Z"/><path class="cls-11" d="M377.65,145.93c3.2,1.28,6.65-.85,10-1.46a11.59,11.59,0,0,1,7.81,1.37c1.28.75,2.54,2,2.25,3.51a4.33,4.33,0,0,1-2.12,2.44l-4.25,2.89c-.49.33-1,.76-1,1.35s.76,1.13,1.42,1.36a27.37,27.37,0,0,0,18.3-1.22c3.22-1.73,5.86-4.88,6.2-8.52.4-4.26-2.39-8.32-6-10.58s-8-3-12.22-3.56c-5.91-.73-13.48-.87-19,1.88C375.14,137.31,371.69,143.55,377.65,145.93Z"/><path class="cls-11" d="M253.23,395.36A45.83,45.83,0,0,1,230,393.25a19.39,19.39,0,0,0-5.17-1.47,5.14,5.14,0,0,0-4.74,2,6,6,0,0,0-.64,3.82c.73,7.49,6.59,13.44,8.88,20.6,1.44,4.53,1.45,9.52,3.62,13.75,1.09,2.13,3.22,4.17,5.57,3.69s3.48-3.27,3.15-5.61-1.72-4.37-2.84-6.45a27.17,27.17,0,0,1-3.28-15.87c.19-1.65.74-3.52,2.26-4.2s3.44.27,5.07,1a16.18,16.18,0,0,0,9.71,1,8.56,8.56,0,0,0,5.07-2.81,4.5,4.5,0,0,0,.21-5.47c-1.46-1.74-4.11-1.66-6.37-1.44l-4.76.47Z"/><path class="cls-12" d="M328.62,237.54a33.13,33.13,0,0,1-12.76,24.15,19.81,19.81,0,0,0-4,3.49,4.81,4.81,0,0,0-.77,5c1.93,3.61,8.1,1.45,11.08,4.27,1.23,1.17,1.63,3,2.55,4.38,1.13,1.75,3,2.88,4.38,4.42,3.37,3.72,3.63,9.32,2.74,14.26a16.14,16.14,0,0,1-3.17,7.72c-2.23,2.62-5.58,3.91-8.7,5.36a64.37,64.37,0,0,0-9.43,5.41c-2.8,1.94-5.76,5.15-4.46,8.3s5.59,3.34,9,3c4.12-.41,8.55-1,11.58-3.8s4.07-7.37,7.28-10c3-2.41,7-2.64,10.67-3.81a18.29,18.29,0,0,0,11.86-11.53c1.7-5.47.09-12-4.34-15.6-4.64-3.8-11.86-4.51-14.88-9.69-3.12-5.35.16-12.09,3.82-17.09s8-10.57,6.89-16.66c-.76-4.21-4-7.48-7.18-10.33a148.47,148.47,0,0,0-19.82-14.91c-1.33,1.67-.67,4.13.25,6.06,1.85,3.88,4.5,7.33,6.38,11.18s3,8.41,1.49,12.44Z"/><path class="cls-12" d="M349.5,256.35c-4.53,2.56-9.13,7.06-8,12.14,1.07,4.76,6.61,7,11.47,7.45,8.86.81,18.56-1.58,26.19,3,4.17,2.5,7.11,6.81,11.5,8.89,1.87.89,4.27,1.26,5.86-.06a4.87,4.87,0,0,0,1.53-3.56c.21-4.34-3.07-8.14-3.48-12.47-.52-5.57,3.91-10.53,8.93-13s10.69-3.2,16-5c8.84-3,16.93-9.6,19.45-18.59s-2.15-20-11.1-22.67a4.47,4.47,0,0,0-3.66.16c-1.72,1.12-1.51,3.68-.95,5.66,1,3.35,2.37,6.63,2.6,10.11a15.56,15.56,0,0,1-7.51,14.13c-5.43,3.17-12.15,2.69-18.28,4.09-6.77,1.54-12.84,5.4-19.61,7s-15.24-.14-18-6.48c-.28-.62-.5-1-1.18-1.16C361.46,251,353.29,254.21,349.5,256.35Z"/><path class="cls-12" d="M262.25,359.36c-6.1,2.81-12.87,4.45-18.1,8.67-2.33,1.88-4.33,4.27-7,5.56-4.1,2-9.44,1.24-12.8,4.31a2.4,2.4,0,0,0-.85,1.33c-.19,1.22,1.16,2.09,2.35,2.4,7.15,1.88,14-3.54,21.22-5.15a20.95,20.95,0,0,1,25.5,20.67c-.07,6.71-3.22,14,.23,19.75a6.47,6.47,0,0,0,3.85,3.11,6.31,6.31,0,0,0,4.48-.8c5.3-3,6.27-10.25,5.37-16.27a44.87,44.87,0,0,0-4.13-13.2c-2-4.1-4.74-8.74-2.85-12.9,2.24-5,9-5.23,13.95-7.47a16,16,0,0,0,5.72-4.36c1.55-1.87,2.67-4.55,1.5-6.67-2.35-4.26-10-1.09-13.19-4.81-1.43-1.69-1.31-4.22-.64-6.33,1.54-4.91,4.12-10.55-1.23-14.3-2.79-2-7.59-2-9.92.76-3.22,3.81.24,10.08-1.5,14.69C272.21,353.55,267.11,357.13,262.25,359.36Z"/><path class="cls-12" d="M361.93,370.09c.75,3.53-2.39,6.57-5.15,8.9s-5.72,5.69-4.51,9.09c1.37,3.88,6.69,4.14,10.78,3.68l11.27-1.26c6.5-.73,13.23-1.43,19.48.51s11.94,7.28,12.14,13.82c.06,1.78-.27,3.66.5,5.26,1.64,3.45,6.89,3,10,.8a15.1,15.1,0,0,0-2.36-26c-2.86-1.34-6.12-1.77-8.88-3.32s-5-4.91-3.71-7.81a7.12,7.12,0,0,1,2.82-2.93c5.49-3.53,12.46-4,18.2-7.05A21.7,21.7,0,0,0,429,331a8.11,8.11,0,0,0-4.48-3.14c-4.09-.79-7.36,3.76-7.77,7.91s.79,8.38,0,12.47-3.49,7.45-6.35,10.43c-6.13,6.38-14.75,11.89-23.35,9.8a8.54,8.54,0,0,1-3.82-1.86,17.84,17.84,0,0,1-2.64-3.78c-3-4.78-12.53-10.57-18.52-9.84-3.21.39-5.5,3.64-5.61,6.81C356.31,364.34,361.07,366,361.93,370.09Z"/><path class="cls-12" d="M459.77,296.81c-2.37,5.95-9.22,8.51-15.29,10.56s-12.87,5-14.73,11.11a5.16,5.16,0,0,0,.55,4.77c1.25,1.5,3.5,1.62,5.42,1.32,4.25-.66,8.15-2.75,12.34-3.69,9.35-2.1,18.88,1.68,28.34,3.21,3.93.64,8.35.76,11.47-1.72a2,2,0,0,0,.77-1c.21-.81-.48-1.56-1.16-2-4.65-3.33-11.63-3-15.27-7.41-2.31-2.8-2.56-6.88-1.47-10.35s3.33-6.44,5.63-9.25c2.75-3.36,5.83-7.08,5.56-11.42-.5-8-14.82-18.38-22.65-14.15C450.24,271.65,463,288.75,459.77,296.81Z"/><path class="cls-12" d="M498.27,371c-2.49,7.1-9,11.91-15.23,16.08-2.43,1.62-5,3.24-7.84,3.75-7.2,1.28-13.43-4.56-19.83-8.11a34.12,34.12,0,0,0-17.16-4.23c-2.2,0-4.65.44-6,2.19-1.64,2.13-.83,5.31.75,7.48s3.81,3.84,5.29,6.08c2.72,4.12,2.49,9.51,1.48,14.34s-2.69,9.61-2.56,14.54,2.7,10.27,7.43,11.68c6.79,2,14.14-4.78,20.75-2.2,2.52,1,5.29,3.26,7.53,1.74a5.54,5.54,0,0,0,1.76-2.79c4.56-12.09,9.57-24.37,18.3-33.89,5.55-6.06,12.58-11,16.48-18.21,4.65-8.61,4.08-19,3.4-28.74-.16-2.23-.95-7.31-3.58-8.15-4.7-1.5-2.89,5.87-3.7,8.86C503.83,357.78,500.51,364.61,498.27,371Z"/><path class="cls-12" d="M441.2,159.71c5-1.42,9.38-4.55,14.49-5.27,6.82-1,13.56,2.63,18.55,7.37,9.65,9.15,14.42,24.37,8.47,36.26-1.33,2.67-3.16,5.14-3.87,8s.13,6.51,2.85,7.73c3.93,1.77,7.89-2.45,9.76-6.34s4.13-8.66,8.44-8.93c2-.12,3.8.8,5.54,1.69l14.93,7.66c2.59,1.33,6.25,2.45,8,.12,2-2.74-1.22-6.26-4.11-8.09L507.14,189.1a32.23,32.23,0,0,1-6.2-4.68c-2.39-2.49-3.9-5.67-5.48-8.74-3.91-7.6-8.52-15-14.83-20.75s-14.53-9.79-23.08-9.75a19.92,19.92,0,0,1-5.6-.31c-2.47-.71-4.36-2.63-6.54-4C423.39,127.25,417.08,166.62,441.2,159.71Z"/><path class="cls-12" d="M326.47,492.16c-6.69,8.59-19.56,9.42-30.08,6.6-5-1.35-10.23-3.38-15.34-2.29s-9.51,7.14-6.68,11.54c2.19,3.41,7,3.65,11.06,3.06,7.28-1.06,14.5-3.6,21.82-2.82,6.11.65,11.71,3.56,17.52,5.57,6.75,2.34,13.85,3.47,20.91,4.58,11.06,1.75,22.28,3.51,33.42,2.35s22.39-5.6,29.47-14.28c-6.1-1.85-12.59.44-18.66,2.41-7.33,2.38-15.21,4.34-22.67,2.42s-14.14-8.95-13.07-16.58c.8-5.73,5.43-10,9.39-14.22s7.71-9.79,6.2-15.37c-2.2-3-7-1.22-9.87,1.12s-6.56,5.2-9.89,3.54c-4.67-2.33-10.1-25.53-19.91-13.72-3.94,4.75,0,12.78.56,18.06C331.26,480.38,330.43,487.07,326.47,492.16Z"/><path class="cls-13" d="M298.5,140.61c-7.72,3.8-15.74,8-20.54,15.13-3.34,5-4.81,10.9-6.68,16.58-2.9,8.81-6.87,17.22-10.82,25.6-2.39,5.07-5,10.35-9.43,13.73-2.1,1.58-4.52,2.67-6.66,4.19s-4,3.68-4.35,6.29a2.39,2.39,0,0,0,.37,1.81,2.69,2.69,0,0,0,2.53.56c4.68-.74,8.62-3.77,13-5.64,7-3,15.59-3.22,21.07-8.57a22.56,22.56,0,0,0,5.28-9.45c4.4-13.73,3-29.71,11.6-41.29,5.65-7.63,14.81-11.95,24-14.17s18.79-2.63,28.17-4.1c1.93-.3,4.27-1,4.6-3a3.29,3.29,0,0,0-2.07-3.3,9.43,9.43,0,0,0-4.12-.55q-12.74.23-25.43,1.56C312,136.77,304.87,137.47,298.5,140.61Z"/><path class="cls-13" d="M200.12,248.28c-5.87,17.1-3,36.1-7.71,53.54-1.27,4.67-3.08,9.17-4.38,13.84-2.81,10.07-3.17,20.64-3.51,31.09-.2,6.23-.35,12.73,2.31,18.37.8,1.7,2.27,3.5,4.14,3.25a4.26,4.26,0,0,0,1.81-.81c4.87-3.36,6.92-9.66,7-15.57s-1.52-11.71-2.41-17.55a75.28,75.28,0,0,1-.19-21.29c1.51-11.28,5.57-22.14,6.57-33.47.58-6.58.11-13.22.66-19.8s2.25-13.33,6.53-18.36c3.45-4.06.66-6.79-3.54-4C203.67,239.94,201.53,244.18,200.12,248.28Z"/><path class="cls-13" d="M189.54,385.08c1.05,8.54,3.28,17.07,7.78,24.4,1.9,3.1,4.19,5.95,6,9.1,3.59,6.27,5.46,13.95,11.23,18.29,1.31,1,3.28,1.7,4.46.57s.36-3.46-.66-5c-7.37-11-15.44-22.11-17.63-35.14-1-6.12.46-16.49-3.65-21.57a3.73,3.73,0,0,0-6.19,0C188.85,378.23,189.18,382.13,189.54,385.08Z"/><path class="cls-14" d="M326.34,409.35a49.32,49.32,0,0,0-4.2,34.12,17.84,17.84,0,0,0,3.29,7.4,8,8,0,0,0,7.18,3c-5.54-24.07,5.54-51.06,26.39-64.31,3.24-2.06,6.8-3.93,8.9-7.14.12-.19-11.72,1.89-13.15,2.53a94.36,94.36,0,0,0-10,5A49.59,49.59,0,0,0,326.34,409.35Z"/><path class="cls-14" d="M296.3,398c.37,2.06,1.61,4.77,3.62,4.19,1.57-.45,1.82-2.55,1.72-4.19a88.19,88.19,0,0,0-13.3-41.11c-5-7.91-12.06-15.5-21.31-16.84a3.14,3.14,0,0,0-2.58.44,2.78,2.78,0,0,0-.74,1.91c-.36,5.38,4.09,7.06,7.65,9.86a58.56,58.56,0,0,1,12,12.91C290,374.93,294.19,386.38,296.3,398Z"/><path class="cls-14" d="M341.12,284.71c-3.44,2.69-6.87,6.34-6.61,10.7a2.86,2.86,0,0,0,.54,1.68c1.16,1.39,3.38.3,4.81-.8,12.13-9.36,26.73-16.34,42.05-16.4,4.09,0,8.18.46,12.25.2,3.05-.19,4.44-1.82,2.88-4.17-1.15-1.74-8-2.24-10-2.61-4.84-.92-10.08-2.1-15-1.8C361.23,272.16,349.49,278.19,341.12,284.71Z"/><path class="cls-14" d="M441,424.07c-7.64,7.56-15.65,15.77-17.79,26.31a7.71,7.71,0,0,0,.25,5c.75,1.51,2.72,2.51,4.2,1.69a4.6,4.6,0,0,0,1.44-1.51c3.44-5,5.83-10.7,9.54-15.51,9.28-12,25.52-17,35-29,1.66-2.1-13.77-1-15.42-.26C451.51,413.75,446.15,419,441,424.07Z"/><path class="cls-14" d="M460,269.76a66.2,66.2,0,0,1,1.12,11.53l.75,19.53c0,1.18.25,2.61,1.34,3.07,1.6.68,2.93-1.38,3.42-3,4.39-14.94,5.08-32.56-3.39-46.26-2.28-3.7-9.06-13.32-10.27-4.74C452.06,256.26,458.65,263.58,460,269.76Z"/><path class="cls-14" d="M380.9,180.32c-8,3.07-16.39,8.08-18.26,16.41q10-4,20.15-7.55c11.33-4,23-7.73,35-8.37,3.79-.2,8.58-.77,9.7-4.4-5.71-3.41-15.66-1.93-22.09-1.63A78.6,78.6,0,0,0,380.9,180.32Z"/><path class="cls-14" d="M342.83,238.22a68,68,0,0,0-16.91,33.57c-.35,1.88-.28,4.38,1.53,5s3.42-1.37,4.33-3.08c6.33-12,12.17-25,23.06-33a17.89,17.89,0,0,0,3.72-3.19c2.87-3.72-.1-6.81-4-6.79C350.22,230.72,345.51,235.34,342.83,238.22Z"/><path class="cls-14" d="M517.09,268.71a4.13,4.13,0,0,0,2.44,1.17c4.17.84,8.47.36,12.72.25A74.92,74.92,0,0,1,557.92,274c5.28,1.76,10.42,4.13,15.95,4.78a5.84,5.84,0,0,0,3.35-.34c2.18-1.12,2.35-4.42.93-6.42s-3.84-3-6.16-3.81a115.19,115.19,0,0,0-32.28-6.38C537.73,261.67,510.77,261.15,517.09,268.71Z"/><path class="cls-14" d="M519.18,441.11c-6,5.88-11.41,13.2-11.94,21.6-.07,1.08.12,2.42,1.13,2.79s2.19-.76,2.86-1.78a77.24,77.24,0,0,1,40.27-30.62c4.25-1.38,13.17-4,11.77-10.32-1.16-5.23-7.06-3.21-10.81-2A85.07,85.07,0,0,0,519.18,441.11Z"/><path class="cls-14" d="M324.24,474.28c5.93-1.7,12.06-3,18.22-2.67,1.8.1,4,.74,4.26,2.53s-1.92,3-3.69,3.67a122.78,122.78,0,0,0-45.36,29.08,15.87,15.87,0,0,1-4.84,3.83c-5.79,2.43-7.22-3-5.44-6.92a65.86,65.86,0,0,1,8.19-13.07C302.72,482.06,313.7,477.29,324.24,474.28Z"/><path class="cls-14" d="M494.23,197.94l-13.52,29.92c3.39-1.56,5.85-4.55,8.14-7.49q6.8-8.72,13-17.91c3.69-5.49,15.14-25.77,2.59-28.2-3.94-.76-5.62,1-6.3,4.29-.61,3,.53,6.5-.24,9.76A53.87,53.87,0,0,1,494.23,197.94Z"/><path class="cls-14" d="M355.57,176.68c-7.48-3.23-16-3.44-24-2S315.86,179,308.26,182c-3.51,1.36-7.1,2.76-10,5.2-1.9,1.61-3.33,4.88-1.31,6.34,1.41,1,3.36.23,4.92-.54a102.88,102.88,0,0,1,46.77-10.51c2.32,0,5.15-.14,6.18-2.22.93-1.87-.41-4.23-2.29-5.16s-4.07-.81-6.16-.68Z"/><path class="cls-14" d="M215.9,290.45c-1.15,1.73-2.19,4.12-.87,5.72,1.67,2,4.92.44,6.92-1.26,8-6.82,15.62-14.38,24.86-19.47,8.09-4.45,17.33-6.92,24.51-12.73,1.25-1,2.53-2.42,2.25-4-.7-3.9-13.72-.33-15.83.58-5,2.18-10.29,4.43-15.16,7A73.65,73.65,0,0,0,215.9,290.45Z"/><path class="cls-14" d="M396.61,376.91c.39,3.38,3.15,6.08,6.24,7.49s6.53,1.8,9.88,2.41a46.91,46.91,0,0,1,12.83,4.1,70,70,0,0,1,10.88,7.37l11.41,8.82a30.39,30.39,0,0,0-4.71-8.13c-5-6.85-10.07-13.77-16.59-19.19C422.26,376.23,394.9,362,396.61,376.91Z"/><path class="cls-15" d="M349.68,307.89a0,0,0,0,0,0-.08,0,0,0,0,0,0,.08Z"/><path class="cls-15" d="M350.54,308.86l5.34-.24a8.59,8.59,0,0,0,4.34-.88.86.86,0,0,0-.2-1.56,9,9,0,0,0-4.5-.19l-5,.5c-1.49.15-1.55,2.44,0,2.37Z"/><path class="cls-15" d="M360.23,297.81c.76,1.72,1.35,3.79,2.77,5.08a1.08,1.08,0,0,0,1.79-1c-.39-1.87-1.87-3.44-3-5a.93.93,0,0,0-1.6.93Z"/><path class="cls-15" d="M370.32,306a11.18,11.18,0,0,1,0,1.79c0,.61.23,1.21.27,1.82a.67.67,0,0,0,1.14.47,4.56,4.56,0,0,0,1.29-2.07,8,8,0,0,0-.1-2.74,1.38,1.38,0,0,0-1.68-1,1.4,1.4,0,0,0-1,1.68Z"/><path class="cls-15" d="M358.21,318.85a25.22,25.22,0,0,1,0,3.33,10.8,10.8,0,0,0-.17,3.07.94.94,0,0,0,1.69.22,6.54,6.54,0,0,0,.71-3.06,25.25,25.25,0,0,0,.08-3.57c-.06-1.47-2.38-1.47-2.29,0Z"/><path class="cls-15" d="M332.35,322.52a17.33,17.33,0,0,0,0,7.51c.19.81,1.33.57,1.38-.19a62.36,62.36,0,0,1,.66-6.77c.23-1.3-1.74-1.87-2-.55Z"/><path class="cls-15" d="M318.88,339.21a7.44,7.44,0,0,0,4.64-1,.48.48,0,0,0-.37-.88c-.68.17-1.32.49-2,.64a8.63,8.63,0,0,1-2.26.17c-.71,0-.71,1.08,0,1.11Z"/><path class="cls-15" d="M353.07,343.37c.67,1.12,1.31,2.25,2,3.37a28.1,28.1,0,0,0,2.19,2.83c.38.49,1.06-.13.81-.63a23.41,23.41,0,0,0-1.69-3.25c-.72-1-1.39-2-2.07-3-.5-.74-1.68-.08-1.21.71Z"/><path class="cls-15" d="M362,361.81c.62,1.38.93,2.89,1.44,4.32a.78.78,0,0,0,1.5,0,8.41,8.41,0,0,0-.44-5.37,1.36,1.36,0,1,0-2.5,1.05Z"/><path class="cls-15" d="M371.3,377.72c2.38,2.44,5.28,4.24,8.75,4.16a.74.74,0,0,0,.2-1.45,23.31,23.31,0,0,1-7.38-4.27,1.11,1.11,0,0,0-1.57,1.57Z"/><path class="cls-15" d="M369.65,358.7c2.31,1.85,5.77,3.92,8.86,3.2.69-.16.93-1.32.21-1.62a39,39,0,0,0-3.82-1.08,14.28,14.28,0,0,1-4-2.06c-.91-.65-2.1.86-1.21,1.57Z"/><path class="cls-15" d="M395.51,395a12.18,12.18,0,0,1,3-1.74c1-.38,2.11-.41,2.87-1.14a.94.94,0,0,0-.41-1.55c-1.1-.43-2.48.3-3.48.77a13.88,13.88,0,0,0-3.17,2.1c-.85.73.31,2.27,1.21,1.57Z"/><path class="cls-15" d="M406.74,417.27c.74-.82,1.5-1.62,2.22-2.46a7.66,7.66,0,0,0,1.65-2.55c.14-.5-.37-1.13-.91-.91a7.49,7.49,0,0,0-2.36,1.84c-.76.79-1.48,1.64-2.22,2.46-1,1.09.63,2.72,1.62,1.62Z"/><path class="cls-15" d="M424.56,418.4a13.15,13.15,0,0,0,1.57-3c.24-.79-.74-1.23-1.3-.76a13.44,13.44,0,0,0-2.12,2.66c-.79,1.12,1.12,2.27,1.85,1.08Z"/><path class="cls-15" d="M429.73,366.4a0,0,0,0,0,0-.08,0,0,0,0,0,0,.08Z"/><path class="cls-15" d="M429.52,367.88c1.11,1.57,2.08,3.33,3.8,4.32a.6.6,0,0,0,.87-.67c-.3-1.87-1.53-3.35-2.56-4.88-.88-1.3-3,0-2.11,1.23Z"/><path class="cls-15" d="M416.82,338.64a22.77,22.77,0,0,1-1.43,6.09c-.12.33.36.49.54.23a12.26,12.26,0,0,0,2.07-6.32c.05-.76-1.13-.76-1.18,0Z"/><path class="cls-15" d="M432.37,326.89c2.81.33,6.37.57,8.85-1.06a1,1,0,0,0-.49-1.79c-2.75-.35-5.57.33-8.36,0-1.81-.19-1.77,2.6,0,2.81Z"/><path class="cls-15" d="M408.46,306.26A73.21,73.21,0,0,1,413,299.9c.31-.4-.19-1-.58-.58a29.36,29.36,0,0,0-4.73,6.48.44.44,0,0,0,.77.45Z"/><path class="cls-15" d="M397.13,295.05l3.44-3.6a.44.44,0,0,0-.63-.63l-3.6,3.44c-.52.49.29,1.3.78.78Z"/><path class="cls-15" d="M423.59,305.9c.66,1.16,1.28,2.37,2,3.5a7,7,0,0,0,2.54,2.46.56.56,0,0,0,.82-.63,7,7,0,0,0-1.7-3.11c-.9-1-1.9-1.9-2.84-2.85a.52.52,0,0,0-.81.63Z"/><path class="cls-15" d="M369.29,260c4.37-3.14,9.32-4.69,14.09-7a.52.52,0,0,0-.26-1c-5.53.22-10.47,3.48-14.63,6.94-.58.48.19,1.49.81,1Z"/><path class="cls-15" d="M396.75,260.36l2.57-2.78a13.77,13.77,0,0,0,2.3-2.67c.26-.5-.28-1.15-.81-.81a13.69,13.69,0,0,0-2.46,2.51l-2.54,2.81c-.57.63.36,1.57.94.94Z"/><path class="cls-15" d="M418.7,259.9a28,28,0,0,1,.54-3.09c.21-1,.24-2,.4-2.93a.48.48,0,0,0-.88-.37,10.17,10.17,0,0,0-1.4,3,21.74,21.74,0,0,0-.43,3.38c-.08,1.15,1.66,1.12,1.78,0Z"/><path class="cls-15" d="M432.41,255.78a8.74,8.74,0,0,1,.87-2.77c.44-.83.82-1.69,1.27-2.52a.48.48,0,0,0-.66-.66,5.18,5.18,0,0,0-2.37,2.15,10.41,10.41,0,0,0-1.18,3.23c-.26,1.36,1.86,1.92,2.07.57Z"/><path class="cls-15" d="M323.51,277.69c.47-2.11.93-4.18,1.21-6.32.07-.56-.79-.62-.94-.13-.64,2-1.09,4-1.55,6.1-.19.83,1.1,1.19,1.28.35Z"/><path class="cls-15" d="M320.73,259.59l1.66-2.48a11.47,11.47,0,0,0,.83-1.24c.22-.46.35-.92.6-1.38.41-.74-.62-1.63-1.22-.94-.33.38-.72.66-1.06,1a11.15,11.15,0,0,0-.93,1.28l-1.86,2.58c-.86,1.19,1.16,2.39,2,1.16Z"/><path class="cls-15" d="M306.24,330.29c0,2.15.06,5,1.54,6.72a.82.82,0,0,0,1.39-.58,13.93,13.93,0,0,0-.76-3.06,30.61,30.61,0,0,1-.79-3.27c-.13-.8-1.37-.58-1.38.19Z"/><path class="cls-15" d="M299.77,354.85l1.2,2.09a10.05,10.05,0,0,0,1.19,1.9.52.52,0,0,0,.87-.5,10.11,10.11,0,0,0-1-2l-1.17-2.12c-.39-.71-1.49-.07-1.09.63Z"/><path class="cls-15" d="M315.27,374.74l2.78,1.9a8.49,8.49,0,0,0,2.75,1.54.75.75,0,0,0,.84-1.09,8.55,8.55,0,0,0-2.41-2.08L316.32,373c-1.09-.77-2.14,1-1,1.79Z"/><path class="cls-15" d="M316.9,405.87a16.43,16.43,0,0,0,6.08-4.62.37.37,0,0,0-.52-.52,67,67,0,0,1-5.89,4.57.33.33,0,0,0,.34.57Z"/><path class="cls-15" d="M339.12,443.11c1.67-.17,2.7.58,3.94,1.55a.59.59,0,0,0,.93-.72c-.82-1.68-3.13-2.37-4.87-2.17-.84.1-.86,1.42,0,1.33Z"/><path class="cls-15" d="M378.94,460.47a44.53,44.53,0,0,0,8.43-3.41.59.59,0,0,0-.46-1.08,43.78,43.78,0,0,0-8.46,2.71c-1.09.42-.65,2.18.49,1.78Z"/><path class="cls-15" d="M397.9,433.79a20.59,20.59,0,0,0,9.4,1.31.56.56,0,0,0,0-1.11,60.92,60.92,0,0,1-9.08-1.35.59.59,0,0,0-.31,1.14Z"/><path class="cls-15" d="M451.44,401.26a26,26,0,0,1,3.7-3.37c1.16-.86,2.67-1.45,3.68-2.46a.75.75,0,0,0-.72-1.24c-1.49.28-2.94,1.53-4.11,2.44a27.37,27.37,0,0,0-3.7,3.48c-.69.78.44,1.93,1.15,1.15Z"/><path class="cls-15" d="M460.24,383.61l2.37.91a5.55,5.55,0,0,0,2.3.67.79.79,0,0,0,.55-1.33,5.56,5.56,0,0,0-2.2-1.07l-2.53-1c-1.11-.43-1.59,1.36-.49,1.78Z"/><path class="cls-15" d="M483.66,392.48a37.55,37.55,0,0,0,2.54,5.72.41.41,0,0,0,.74-.31,36.62,36.62,0,0,0-2.07-5.74c-.3-.73-1.51-.43-1.21.33Z"/><path class="cls-15" d="M508.74,371.8l.89,2.84a10.72,10.72,0,0,0,.9,2.61c.33.52,1.29.36,1.24-.34a10.61,10.61,0,0,0-.83-2.63l-1-2.81c-.27-.75-1.46-.45-1.21.33Z"/><path class="cls-15" d="M338.77,228.51a0,0,0,0,0,0-.08,0,0,0,0,0,0,.08Z"/><path class="cls-15" d="M341.42,229a69.62,69.62,0,0,1,12.28-.88c.49,0,.62-.77.12-.87a30.49,30.49,0,0,0-12.77.4c-.89.19-.51,1.52.37,1.36Z"/><path class="cls-15" d="M277.84,263.73,281,261c.44-.38-.14-1.15-.63-.81l-3.39,2.34a.74.74,0,1,0,.9,1.16Z"/><path class="cls-15" d="M248.38,286.52c.37-2.81,1.94-4.62,3.28-7a.89.89,0,0,0-1.21-1.21c-2.67,1.61-3.76,5.27-4,8.18-.09,1.26,1.77,1.19,1.92,0Z"/><path class="cls-15" d="M283.32,330.5a51.71,51.71,0,0,1-.44,10.83c-.08.64.92.72,1.09.15a25,25,0,0,0,.58-11.14c-.1-.7-1.29-.54-1.24.17Z"/><path class="cls-15" d="M271.18,367.81l.07,1.66a.33.33,0,0,0,.67,0l.07-1.66a.41.41,0,0,0-.81,0Z"/><path class="cls-15" d="M429.5,216.9a51.85,51.85,0,0,0,8.67,4.58.48.48,0,0,0,.47-.8,51.84,51.84,0,0,0-8.28-5.24.85.85,0,0,0-.86,1.47Z"/><path class="cls-15" d="M395.17,192.84a0,0,0,0,0,0-.08,0,0,0,0,0,0,.08Z"/><path class="cls-15" d="M397,193.42c2.23-.43,4.49-.77,6.67-1.4.73-.21.63-1.45-.19-1.38-2.33.21-4.64.72-6.94,1.14-1.07.19-.62,1.85.45,1.64Z"/><path class="cls-15" d="M365.52,194c2.18-1.46,4.49-2.81,6.54-4.46.3-.25-.08-.69-.4-.52-2.28,1.22-4.42,2.8-6.58,4.22-.48.31,0,1.08.45.77Z"/><path class="cls-15" d="M418.39,177.14c3.06,0,6.07-.13,9.12-.37a.56.56,0,0,0,0-1.11c-3.05-.24-6.06-.37-9.12-.37a.93.93,0,0,0,0,1.85Z"/><path class="cls-15" d="M477.42,230.82l3.1,3.49a15.72,15.72,0,0,0,3.09,3.12c.85.54,1.74-.5,1.32-1.32a16,16,0,0,0-2.87-3.33l-3.22-3.37c-.89-.94-2.26.46-1.41,1.41Z"/><path class="cls-15" d="M488,266.62a104.52,104.52,0,0,0,.41,12.44.52.52,0,0,0,1,0,104.52,104.52,0,0,0,.41-12.44.93.93,0,0,0-1.85,0Z"/><path class="cls-15" d="M518.57,270.14l3,2.41c.91.74,1.78,1.75,3,1.83a1.08,1.08,0,0,0,1-1.36c-.28-1.12-1.44-1.78-2.28-2.49l-2.77-2.33c-1.35-1.13-3.29.82-1.94,1.94Z"/><path class="cls-15" d="M509.63,334a38.55,38.55,0,0,0,1.61,5.82c.27.65,1.49.68,1.38-.19a39.58,39.58,0,0,0-1.56-6,.74.74,0,0,0-1.43.39Z"/><path class="cls-15" d="M486,314.62a53.35,53.35,0,0,0-1.56,7.57c0,.35.48.38.58.08a52.71,52.71,0,0,0,1.77-7.44c.09-.51-.65-.73-.78-.22Z"/><path class="cls-15" d="M430.22,437.77c3.92,1.77,8.07,3,12.39,2.38.58-.09.55-1,0-1.14-3.9-.78-7.74-1.31-11.42-2.89-1.12-.48-2.11,1.15-1,1.66Z"/><path class="cls-15" d="M437.94,415.9a8.16,8.16,0,0,1,3.76-.72c1.12.06,2.14.5,3.25.63a.75.75,0,0,0,.52-1.26c-2.26-1.81-6-1.23-8.39-.12-1,.45-.13,1.91.86,1.47Z"/><path class="cls-15" d="M469,433.38a0,0,0,0,0,0-.08,0,0,0,0,0,0,.08Z"/><path class="cls-15" d="M471.07,432.1l2.41-2.57a.48.48,0,0,0-.68-.68l-2.57,2.41c-.56.52.31,1.39.84.84Z"/><path class="cls-15" d="M275.61,371.67c-1.2,2.85-2.17,6.29-1.78,9.41.08.66,1.2,1,1.31.18.43-3.13.7-6,2-9a.81.81,0,1,0-1.49-.63Z"/><path class="cls-15" d="M281.54,401.86a0,0,0,0,0,0-.08,0,0,0,0,0,0,.08Z"/><path class="cls-15" d="M280.87,403.87a33.81,33.81,0,0,0,2.85,4.07c.28.33.9,0,.74-.43a33.87,33.87,0,0,0-2.25-4.42c-.5-.87-1.88-.06-1.34.78Z"/><path class="cls-15" d="M297.73,410.77l2.58,1.5c.39.23.86-.34.49-.64l-2.31-1.85c-.72-.58-1.54.53-.76,1Z"/><path class="cls-15" d="M268.44,202.58a48.72,48.72,0,0,0,5.78-2.16c.45-.2.1-.81-.31-.74A47.8,47.8,0,0,0,268,201a.81.81,0,0,0,.43,1.57Z"/><path class="cls-15" d="M297.38,175.7a69.31,69.31,0,0,0,8.41-3.31.45.45,0,0,0-.34-.81,69.36,69.36,0,0,0-8.35,3.45c-.38.16-.11.83.29.68Z"/><path class="cls-15" d="M309.54,158.61c1.37-1.76,2.69-3.53,4-5.37.39-.56-.47-1.19-.93-.72-1.52,1.54-3,3.11-4.4,4.73-.83.94.62,2.32,1.36,1.36Z"/><path class="cls-15" d="M445.46,143.56c3,1.4,6.09,3.08,9.25,4.17.49.17.76-.56.34-.81-2.82-1.71-6-3-9-4.38-.69-.33-1.29.71-.6,1Z"/><path class="cls-15" d="M205,381.08c-.06,3.58-.28,7.21,0,10.78a.26.26,0,0,0,.52,0c.25-3.58,0-7.2,0-10.78a.22.22,0,0,0-.44,0Z"/><path class="cls-15" d="M242.8,456.16c3.6-1.53,7.49-2.84,10.76-5a.41.41,0,0,0-.31-.74c-3.82,1.09-7.36,3.23-10.89,5-.52.26-.06,1,.45.77Z"/><path class="cls-15" d="M261,493.65a6.25,6.25,0,0,1-1.42-6.26c.14-.46-.56-.65-.71-.2a7.08,7.08,0,0,0,1.5,7.08c.38.42,1-.21.63-.63Z"/><path class="cls-15" d="M272.42,516.58a77,77,0,0,0,9.12,0,.33.33,0,0,0,0-.67,77.06,77.06,0,0,0-9.12,0,.3.3,0,0,0,0,.59Z"/><path class="cls-15" d="M347.56,513.54l3.39,1.53c.59.27,1.12-.57.52-.89l-3.24-1.79c-.76-.42-1.44.8-.67,1.15Z"/><path class="cls-15" d="M410.93,506.37a0,0,0,0,0,0-.08,0,0,0,0,0,0,.08Z"/><path class="cls-15" d="M411,508.44a52.4,52.4,0,0,0,2.73,4.84c.33.5,1.23.2,1-.43a54.14,54.14,0,0,0-2.27-5.27c-.46-1-2-.12-1.47.86Z"/><path class="cls-15" d="M566.87,326a40.16,40.16,0,0,1,8.32.71c.48.06.65-.69.24-.9-2.78-1.41-5.68-1.28-8.68-.62a.41.41,0,0,0,.11.8Z"/></svg>