<svg id="Layer_2" data-name="Layer 2" xmlns="http://www.w3.org/2000/svg" viewBox="0 0 766.67 666.99"><defs><style>.cls-1{fill:#fdc25c;}.cls-2{fill:#fcad56;}.cls-11,.cls-14,.cls-17,.cls-20,.cls-3{fill:#fff;}.cls-3{opacity:0.26;}.cls-4{fill:#bf362b;}.cls-5{fill:#f4d798;}.cls-6{fill:#f4ab69;}.cls-7{fill:#7f211f;}.cls-8{fill:#a12b25;}.cls-9{fill:#ce4829;}.cls-10{fill:#ee7044;}.cls-11{opacity:0.12;}.cls-12{fill:#f2c383;}.cls-13{fill:#f7b86d;}.cls-14{opacity:0.62;}.cls-15{fill:#479941;}.cls-16{fill:#328432;}.cls-17{opacity:0.08;}.cls-18{fill:#54b24d;}.cls-19{fill:#4d9e46;}.cls-20{opacity:0.18;}</style></defs><title>Icons</title><path class="cls-1" d="M145.54,230.94c-6.65,17.28-8.56,36-10.41,54.39-2.71,27-5.41,54-6.79,81.13-.91,17.91-1.21,36.09,3,53.51,5.69,23.34,19.44,44.28,37,60.65,10.85,10.09,23.11,18.53,34.22,28.34,9.84,8.7,18.72,18.42,28.25,27.46,35.24,33.41,84.83,43.09,132.82,50.52s88.23-8,134-24.18c34.26-12.09,44.93-29.71,67.22-49.1,26-22.63,41.56-39.16,60.76-67.79,18.24-27.21,12-64,11.94-92.39-.06-26.28,4.41-53.23-3.1-78.41-4.44-14.88-12.83-28.22-19.06-42.44-11.06-25.25-15.66-54-33-75.43-13.16-16.32-32.22-26.56-50.75-36.37-19.35-10.24-38.78-20.5-59.32-28.08C425.16,75.3,372.86,74,324.15,86.09c-46,11.41-98.8,36.22-128.89,74.2C177.58,182.61,156,203.9,145.54,230.94Z"/><path class="cls-2" d="M634.52,275.05c-4.44-14.88-12.83-28.22-19.06-42.44-11.06-25.25-15.66-54-33-75.43-10.59-13.14-25-22.33-39.88-30.53,10.42,6.5,20.11,14,27.79,23.48,17.3,21.46,21.9,50.18,33,75.43C609.6,239.78,618,253.12,622.43,268c7.51,25.18,3,52.13,3.11,78.41.07,28.35,6.3,65.18-11.94,92.39-19.2,28.63-34.75,45.16-60.76,67.79-22.28,19.39-33,37-67.22,49.1-45.79,16.16-86,31.61-134,24.18-34.81-5.39-70.46-12-100.87-27.93,32.79,21.2,73.41,28.86,113,35,48,7.43,88.23-8,134-24.18,34.26-12.09,44.93-29.71,67.22-49.1,26-22.63,41.56-39.16,60.76-67.79,18.24-27.21,12-64,11.94-92.39C637.56,327.18,642,300.23,634.52,275.05Z"/><path class="cls-2" d="M154.86,329.09A269.22,269.22,0,0,1,239.6,157.3c11-10.19,23-19.49,36.14-26.66s27.12-12,41.22-16.65c29-9.55,59-18.13,89.48-16.86,53.18,2.2,100.13,33.57,143.91,63.83-11.81-10.4-28.78-11.81-43.44-17.53s-27-15.69-41-22.43c-42.26-20.26-92.17-8.54-137.45,3.53-16.06,4.28-32.28,8.63-46.89,16.56-18.31,9.95-33.19,25-47.78,39.92-18.73,19.1-37.92,38.89-47.84,63.73-6.48,16.23-8.67,33.87-14.42,50.38-4,11.44-9.69,22.33-12.44,34.13-5.11,21.9.31,44.72,5.72,66.54,6.82,27.53,14.28,56.28,33.34,77.28-15.78-19.74-28.74-37.83-36.16-62.48C154,384.3,152.26,356.34,154.86,329.09Z"/><path class="cls-3" d="M155.39,244.88c-7,30.24-14.09,60.57-17.51,91.42-3.41,30.69-2.94,63,10.51,90.8a28.47,28.47,0,0,0,5.88,8.74,4.26,4.26,0,0,0,3.4,1.45c2.66-.46,2.59-4.3,1.81-6.88-9.82-32.17-22.1-65.46-16.06-98.55,2.34-12.8,7.35-24.93,10.71-37.5,7.43-27.81,7.08-58.57,22.61-82.8,6.7-10.45,16-19,23.73-28.64,8-9.91,14.43-21.11,23.62-29.91,18.69-17.91,46-23.55,67.07-38.58,2.92-2.08,6-5,5.54-8.57-6.86-2.06-14,1.42-20.29,4.91C224.08,140.07,169.56,184,155.39,244.88Z"/><path class="cls-3" d="M402.22,90.69c2.43.33,6-.25,5.74-2.69-.19-1.91-2.68-2.47-4.6-2.53-21.27-.67-42.88-1.31-63.47,4-7.23,1.88-23.23,2.32-27.67,8.92-8.65,12.88,10.62,5.24,15.34,3.12A137.75,137.75,0,0,1,402.22,90.69Z"/><path class="cls-3" d="M428,560.57c28.88-7.37,58.3-15,83.47-30.92,13.6-8.61,25.62-19.46,37.27-30.56,22.64-21.57,44.2-44.35,63.31-69.1,1.21-1.56,2.45-3.25,2.59-5.22s-1.36-4.18-3.32-4a5,5,0,0,0-2.94,1.86c-5.67,6-9.85,13.32-15.12,19.7C577,462,551.36,472.13,535.81,492.28c-5.53,7.17-9.63,15.42-15.71,22.14-11.94,13.18-29.89,18.79-46.94,23.86l-31.28,9.29c-9.69,2.88-19.42,5.77-29.41,7.34-6.22,1-12.53,1.45-18.68,2.78-4.41,1-26.44,11.06-13.47,14.86,5.19,1.52,17.32-4.25,22.62-5.6Z"/><path class="cls-3" d="M607.84,306a212,212,0,0,1,2.7,80c-1.06,6.72-2.45,13.63-.87,20.24.34,1.42,1,3,2.36,3.45s3.16-.64,3.79-2.09a10.08,10.08,0,0,0,.41-4.69,150.11,150.11,0,0,1,1.12-30.7c1-7.29,2.58-14.53,2.85-21.88.63-16.86-5.5-33.56-3.79-50.35.37-3.64.11-11.6-5.82-10.13C604.36,291.4,606.9,301.88,607.84,306Z"/><path class="cls-4" d="M243.3,173.25c-5.64,10.55-9.31,22.13-15.72,32.24-9.66,15.23-24.84,26.08-36,40.25-18.36,23.33-24.48,53.71-30.06,82.87-2.45,12.81-4.91,25.86-3.4,38.81,1.68,14.35,8.13,27.65,12.13,41.53,3.8,13.16,5.51,27.17,12.3,39.07s17.83,20.41,26.32,31,14.54,23.6,24.46,33.12,23.26,15,36.23,20q20,7.61,40.19,14.44c13.86,4.68,27.9,9.11,42.4,11,37.42,4.91,74.76-7.19,110.56-19.13,11.72-3.91,23.62-7.9,33.78-14.93,18.19-12.56,28.8-33.28,44.18-49.17,19.25-19.9,47.32-34.22,54.61-60.93,4.44-16.27-.15-33.58,1.18-50.39,1.4-17.75,9.36-34.59,9.86-52.38.41-14.64-4.26-28.89-8.87-42.78C589.87,245,582,221.64,567.37,202.51,555.47,187,539.62,175,523.68,163.63Q506,151,487.72,139.15c-11.76-7.65-23.88-15.17-37.38-19-12.47-3.52-25.6-3.74-38.55-3.86C356.95,115.8,273.41,116.88,243.3,173.25Z"/><path class="cls-5" d="M263.89,161c-8.79,14.8-9.91,33.82-21.29,46.73-13,14.79-36.64,18-47.23,34.66-3.7,5.82-5.36,12.67-6.95,19.38-6.38,26.88-12.79,54-14.08,81.55s2.85,56.07,16.41,80.14c7.66,13.59,18.07,25.4,26.91,38.26a192.61,192.61,0,0,1,21,39.93c2.23,5.8,4.29,11.9,8.52,16.45,7.1,7.64,18.64,9.18,29,8.42s20.81-3.33,31.16-2c9,1.15,17.35,5.16,26.09,7.62,22.4,6.3,46.24,2.16,69.13-2,17.15-3.13,34.49-6.32,50.44-13.36,18.58-8.2,34.85-21.46,54.2-27.64,9-2.89,18.65-4.2,27.18-8.35,11.77-5.73,20.34-16.28,28.51-26.51,6.23-7.8,12.67-16,14.45-25.86,1.43-7.93-.34-16-1-24.06-1.83-22.71,5.37-45,10-67.35s6.22-47-5.5-66.52c-2.61-4.36-5.85-8.37-8-13-5.62-12.07-3.15-26.72-8.77-38.79-7.66-16.46-27.32-22.91-41-34.81-14.38-12.48-22.8-31.69-39.53-40.78-7.2-3.91-15.37-5.59-23.4-7.21-12.84-2.6-25.71-5.21-38.75-6.42-18.37-1.71-36.88-.65-55.3.41-20.11,1.16-44.47-1.12-63.82,4.55C293,137.15,263.89,148.52,263.89,161Z"/><path class="cls-6" d="M296.73,522.63c-10.35-1.32-20.75,1.25-31.16,2a58.2,58.2,0,0,1-9.89-.07c6.28,2.64,13.68,3.16,20.59,2.65,10.41-.76,20.81-3.33,31.16-2l.34,0A61.62,61.62,0,0,0,296.73,522.63Z"/><path class="cls-6" d="M580.92,271.15c-2.61-4.36-5.85-8.37-8-13-5.62-12.07-3.15-26.72-8.77-38.79-7.66-16.46-27.32-22.91-41-34.81-14.38-12.48-22.8-31.69-39.53-40.78-6.49-3.53-13.78-5.24-21-6.73a53.21,53.21,0,0,1,10.33,4.15c16.73,9.09,25.15,28.29,39.53,40.78,13.71,11.9,33.37,18.35,41,34.81,5.62,12.07,3.15,26.72,8.77,38.79,2.15,4.61,5.38,8.62,8,13,11.72,19.54,10.08,44.2,5.5,66.52s-11.79,44.63-10,67.35c.65,8,2.42,16.13,1,24.06-1.78,9.82-8.21,18.06-14.45,25.86-8.17,10.23-16.74,20.78-28.51,26.51-8.53,4.16-18.14,5.46-27.18,8.35-19.35,6.19-35.62,19.44-54.2,27.64-16,7-33.29,10.23-50.44,13.36-20.07,3.66-40.87,7.3-60.79,3.89.78.24,1.57.48,2.36.7,22.4,6.3,46.24,2.16,69.13-2,17.15-3.13,34.49-6.32,50.44-13.36,18.58-8.2,34.85-21.46,54.2-27.64,9-2.89,18.65-4.2,27.18-8.35,11.77-5.73,20.34-16.28,28.51-26.51,6.23-7.8,12.67-16,14.45-25.86,1.43-7.93-.34-16-1-24.06-1.83-22.71,5.37-45,10-67.35S592.64,290.69,580.92,271.15Z"/><path class="cls-7" d="M251.31,469.54c-4.66,8.8-4.63,20.12.79,28.48a31.71,31.71,0,0,0,10.36,9.69,41.19,41.19,0,0,0,30,4.84c7.75-1.76,15.19-6.08,19.26-12.9,2.73-4.58,3.78-10,4.26-15.26.62-6.78.09-14.35-4.66-19.23-3.07-3.14-7.4-4.63-11.57-6l-11.83-3.95c-7.55-2.52-13.81-3.56-21.14-.09A33.83,33.83,0,0,0,251.31,469.54Z"/><path class="cls-8" d="M250,466.58c-4.66,8.8-4.63,20.12.79,28.48a31.71,31.71,0,0,0,10.36,9.69,41.19,41.19,0,0,0,30,4.84c7.75-1.76,15.19-6.08,19.26-12.9,2.73-4.58,3.78-10,4.26-15.26.62-6.78.09-14.35-4.66-19.23-3.07-3.14-7.4-4.63-11.57-6l-11.83-3.95c-7.55-2.52-13.81-3.56-21.14-.09A33.83,33.83,0,0,0,250,466.58Z"/><path class="cls-9" d="M252.65,472.91c-2.39,8.22-.75,17.79,5.17,24s14.7,8.14,23,9.68a25.32,25.32,0,0,0,8.3.58c6.49-1,11.17-6.57,14.88-12,3.18-4.64,6.17-9.59,7.23-15.11s-.16-11.78-4.33-15.55c-2.81-2.53-6.56-3.66-10.19-4.72l-14.87-4.36c-6.79-2-12.38-3.82-18.08,1A34.69,34.69,0,0,0,252.65,472.91Z"/><path class="cls-10" d="M260.5,475.58a2.26,2.26,0,0,0,.05,1c.33.95,1.53,1.26,2.53,1.16a6,6,0,0,0,4.58-3c1.33-2.34-.39-4.15-2.87-3.91C262.54,471.13,260.78,473.42,260.5,475.58Z"/><path class="cls-10" d="M273.25,465.17a3.05,3.05,0,0,0,3.69-.55,3.1,3.1,0,0,0,.66-1.47c.46-2.63-2.67-5.79-5.29-4.17C270.08,460.34,271.24,464.08,273.25,465.17Z"/><path class="cls-10" d="M277.59,489.92a5.2,5.2,0,0,0-.09,4.16,2.56,2.56,0,0,0,2.15,1.76,2.58,2.58,0,0,0,2.14-1.87,3.88,3.88,0,0,0-.37-3.69,2.52,2.52,0,0,0-3.42-.56Z"/><path class="cls-10" d="M262.24,493.59a2.75,2.75,0,0,0,3.19,1.19,5.72,5.72,0,0,0,2.86-2.23,5.36,5.36,0,0,0,1.06-2.11C270.28,485.81,259,486.92,262.24,493.59Z"/><path class="cls-10" d="M281.62,478.1a11.42,11.42,0,0,0,2.75,2.25,2.33,2.33,0,0,0,1.42.53,1.59,1.59,0,0,0,1.07-.66,3,3,0,0,0,.34-2.75,4.67,4.67,0,0,0-1.79-2.2c-.69-.48-3.31-1.65-4.16-1.18C279.88,474.85,280.95,477.26,281.62,478.1Z"/><path class="cls-10" d="M294.2,485.47c-.11.9.13,2.09,1,2.22a1.8,1.8,0,0,0,1.15-.35,10.19,10.19,0,0,0,4.18-4.93c.85-2.13-.43-4.71-2.84-3.33C295.79,480.19,294.46,483.39,294.2,485.47Z"/><path class="cls-10" d="M295.58,464.47a1.41,1.41,0,0,0-2.17-.25,2,2,0,0,0-.23,2.36,3.82,3.82,0,0,0,1.93,1.59,7,7,0,0,0,3.26.54,2.09,2.09,0,0,0,1.79-.91,1.64,1.64,0,0,0-.55-1.9,4.81,4.81,0,0,0-1.94-.82l-2.3-.59Z"/><path class="cls-10" d="M288.33,500.7c-.56.4-1.15,1-1.1,1.64a1.49,1.49,0,0,0,.67,1,4,4,0,0,0,3.47.22,12.5,12.5,0,0,0,3.87-1.91,4,4,0,0,0,1.46-1.68C298.55,495.13,289.28,500,288.33,500.7Z"/><path class="cls-11" d="M260.16,464.94a37.8,37.8,0,0,0-3.72,5.56,19.37,19.37,0,0,0,2.68,21.06,6.94,6.94,0,0,0,2.57,2,3.11,3.11,0,0,0,3.11-.37c1.15-1,1.1-2.77.85-4.26a33.2,33.2,0,0,0-1.45-5.6c-.69-2-1.58-3.9-1.56-6,0-3.11,2.14-5.9,4.78-7.54a25.12,25.12,0,0,1,8.81-2.88,13,13,0,0,0,4.85-1.55c6.75-4.42-3.7-9.55-7.78-9.88C267.66,455.06,263.16,461,260.16,464.94Z"/><path class="cls-7" d="M195.56,358.16c-4.66,8.8-4.63,20.12.79,28.48a31.71,31.71,0,0,0,10.36,9.69,41.19,41.19,0,0,0,30,4.84c7.75-1.76,15.19-6.08,19.26-12.9,2.73-4.58,3.78-10,4.26-15.26.62-6.78.09-14.35-4.66-19.23-3.07-3.14-7.4-4.63-11.57-6l-11.83-3.95c-7.55-2.52-13.81-3.56-21.14-.09A33.82,33.82,0,0,0,195.56,358.16Z"/><path class="cls-8" d="M194.25,355.2c-4.66,8.8-4.63,20.12.79,28.48a31.71,31.71,0,0,0,10.36,9.69,41.19,41.19,0,0,0,30,4.84c7.75-1.76,15.19-6.08,19.26-12.9,2.73-4.58,3.78-10,4.26-15.26.62-6.78.09-14.35-4.66-19.23-3.07-3.14-7.4-4.63-11.57-6l-11.83-3.95c-7.55-2.52-13.81-3.56-21.14-.09A33.82,33.82,0,0,0,194.25,355.2Z"/><path class="cls-9" d="M196.89,361.52c-2.39,8.22-.75,17.79,5.17,24s14.7,8.14,23,9.68a25.32,25.32,0,0,0,8.3.58c6.49-1,11.17-6.57,14.88-12,3.18-4.64,6.17-9.59,7.23-15.11s-.16-11.78-4.33-15.55c-2.81-2.53-6.56-3.66-10.19-4.72L226.12,344c-6.79-2-12.38-3.82-18.08,1A34.69,34.69,0,0,0,196.89,361.52Z"/><path class="cls-10" d="M204.74,364.2a2.26,2.26,0,0,0,.05,1c.33.95,1.53,1.26,2.53,1.16a6,6,0,0,0,4.58-3c1.33-2.34-.39-4.15-2.87-3.91C206.78,359.75,205,362,204.74,364.2Z"/><path class="cls-10" d="M217.49,353.79a3.05,3.05,0,0,0,3.69-.55,3.1,3.1,0,0,0,.66-1.47c.46-2.63-2.67-5.79-5.29-4.17C214.32,349,215.49,352.7,217.49,353.79Z"/><path class="cls-10" d="M221.83,378.54a5.2,5.2,0,0,0-.09,4.16,2.56,2.56,0,0,0,2.15,1.76,2.58,2.58,0,0,0,2.14-1.87,3.88,3.88,0,0,0-.37-3.69,2.52,2.52,0,0,0-3.42-.56Z"/><path class="cls-10" d="M206.48,382.21a2.75,2.75,0,0,0,3.19,1.19,5.71,5.71,0,0,0,2.86-2.23,5.36,5.36,0,0,0,1.06-2.11C214.52,374.43,203.21,375.53,206.48,382.21Z"/><path class="cls-10" d="M225.86,366.72a11.42,11.42,0,0,0,2.75,2.25,2.33,2.33,0,0,0,1.42.53,1.59,1.59,0,0,0,1.07-.66,3,3,0,0,0,.34-2.75,4.67,4.67,0,0,0-1.79-2.2c-.69-.48-3.31-1.65-4.16-1.18C224.12,363.47,225.19,365.88,225.86,366.72Z"/><path class="cls-10" d="M238.45,374.09c-.11.9.13,2.09,1,2.22a1.8,1.8,0,0,0,1.15-.35A10.19,10.19,0,0,0,244.8,371c.85-2.13-.43-4.71-2.84-3.33C240,368.81,238.7,372,238.45,374.09Z"/><path class="cls-10" d="M239.83,353.09a1.41,1.41,0,0,0-2.17-.25,2,2,0,0,0-.23,2.36,3.82,3.82,0,0,0,1.93,1.59,7,7,0,0,0,3.26.54,2.09,2.09,0,0,0,1.79-.91,1.64,1.64,0,0,0-.55-1.9,4.81,4.81,0,0,0-1.94-.82l-2.3-.59Z"/><path class="cls-10" d="M232.57,389.32c-.56.4-1.15,1-1.1,1.64a1.49,1.49,0,0,0,.67,1,4,4,0,0,0,3.47.22,12.5,12.5,0,0,0,3.87-1.91,4,4,0,0,0,1.46-1.68C242.79,383.75,233.53,388.62,232.57,389.32Z"/><path class="cls-11" d="M204.4,353.56a37.78,37.78,0,0,0-3.72,5.56,19.37,19.37,0,0,0,2.68,21.06,6.94,6.94,0,0,0,2.57,2,3.11,3.11,0,0,0,3.11-.37c1.15-1,1.1-2.77.85-4.26a33.2,33.2,0,0,0-1.45-5.6c-.69-2-1.58-3.9-1.56-6,0-3.11,2.14-5.9,4.78-7.54a25.12,25.12,0,0,1,8.81-2.88,13,13,0,0,0,4.85-1.55c6.75-4.42-3.7-9.55-7.78-9.88C211.9,343.67,207.41,349.59,204.4,353.56Z"/><path class="cls-7" d="M434,309.89c-4.66,8.8-4.63,20.12.79,28.48a31.71,31.71,0,0,0,10.36,9.69,41.19,41.19,0,0,0,30,4.84c7.75-1.76,15.19-6.08,19.26-12.9,2.73-4.58,3.78-10,4.26-15.26.62-6.78.09-14.35-4.66-19.23-3.07-3.14-7.4-4.63-11.57-6l-11.83-3.95c-7.55-2.52-13.81-3.56-21.14-.09A33.83,33.83,0,0,0,434,309.89Z"/><path class="cls-8" d="M432.66,306.93c-4.66,8.8-4.63,20.12.79,28.48a31.71,31.71,0,0,0,10.36,9.69,41.19,41.19,0,0,0,30,4.84c7.75-1.76,15.19-6.08,19.26-12.9,2.73-4.58,3.78-10,4.26-15.26.62-6.78.09-14.35-4.66-19.23-3.07-3.14-7.4-4.63-11.57-6l-11.83-3.95c-7.55-2.52-13.81-3.56-21.14-.09A33.83,33.83,0,0,0,432.66,306.93Z"/><path class="cls-9" d="M435.3,313.25c-2.39,8.22-.75,17.79,5.17,24s14.7,8.14,23,9.68a25.31,25.31,0,0,0,8.3.58c6.49-1,11.17-6.57,14.88-12,3.18-4.64,6.17-9.59,7.23-15.11s-.16-11.78-4.33-15.55c-2.81-2.53-6.56-3.66-10.19-4.72l-14.87-4.36c-6.79-2-12.38-3.82-18.08,1A34.69,34.69,0,0,0,435.3,313.25Z"/><path class="cls-10" d="M443.14,315.93a2.26,2.26,0,0,0,.05,1c.33.95,1.53,1.26,2.53,1.16a6,6,0,0,0,4.58-3c1.33-2.34-.39-4.15-2.87-3.91C445.19,311.48,443.43,313.77,443.14,315.93Z"/><path class="cls-10" d="M455.89,305.52a3.05,3.05,0,0,0,3.69-.55,3.1,3.1,0,0,0,.66-1.47c.46-2.63-2.67-5.79-5.29-4.17C452.73,300.69,453.89,304.43,455.89,305.52Z"/><path class="cls-10" d="M460.24,330.27a5.2,5.2,0,0,0-.09,4.16,2.56,2.56,0,0,0,2.15,1.76,2.58,2.58,0,0,0,2.14-1.87,3.88,3.88,0,0,0-.37-3.69,2.52,2.52,0,0,0-3.42-.56Z"/><path class="cls-10" d="M444.88,333.94a2.75,2.75,0,0,0,3.19,1.19,5.71,5.71,0,0,0,2.86-2.23,5.36,5.36,0,0,0,1.06-2.11C452.92,326.16,441.61,327.26,444.88,333.94Z"/><path class="cls-10" d="M464.27,318.45A11.42,11.42,0,0,0,467,320.7a2.33,2.33,0,0,0,1.42.53,1.59,1.59,0,0,0,1.07-.66,3,3,0,0,0,.34-2.75,4.67,4.67,0,0,0-1.79-2.2c-.69-.48-3.31-1.65-4.16-1.18C462.53,315.2,463.6,317.61,464.27,318.45Z"/><path class="cls-10" d="M476.85,325.82c-.11.9.13,2.09,1,2.22a1.8,1.8,0,0,0,1.15-.35,10.19,10.19,0,0,0,4.18-4.93c.85-2.13-.43-4.71-2.84-3.33C478.43,320.54,477.11,323.74,476.85,325.82Z"/><path class="cls-10" d="M478.23,304.81a1.41,1.41,0,0,0-2.17-.25,2,2,0,0,0-.23,2.36,3.82,3.82,0,0,0,1.93,1.59,7,7,0,0,0,3.26.54,2.09,2.09,0,0,0,1.79-.91,1.64,1.64,0,0,0-.55-1.9,4.81,4.81,0,0,0-1.94-.82l-2.3-.59Z"/><path class="cls-10" d="M471,341c-.56.4-1.15,1-1.1,1.64a1.49,1.49,0,0,0,.67,1A4,4,0,0,0,474,344a12.49,12.49,0,0,0,3.87-1.91,4,4,0,0,0,1.46-1.68C481.2,335.48,471.93,340.35,471,341Z"/><path class="cls-11" d="M442.81,305.29a37.79,37.79,0,0,0-3.72,5.56,19.37,19.37,0,0,0,2.68,21.06,6.94,6.94,0,0,0,2.57,2,3.11,3.11,0,0,0,3.11-.37c1.15-1,1.1-2.77.85-4.26a33.18,33.18,0,0,0-1.45-5.6c-.69-2-1.58-3.9-1.56-6,0-3.11,2.14-5.9,4.78-7.54a25.12,25.12,0,0,1,8.81-2.88,13,13,0,0,0,4.85-1.55c6.75-4.42-3.7-9.55-7.78-9.88C450.3,295.4,445.81,301.32,442.81,305.29Z"/><path class="cls-7" d="M372,381c-4.66,8.8-4.63,20.12.79,28.48a31.71,31.71,0,0,0,10.36,9.69,41.19,41.19,0,0,0,30,4.84c7.75-1.76,15.19-6.08,19.26-12.9,2.73-4.58,3.78-10,4.26-15.26.62-6.78.09-14.35-4.66-19.23-3.07-3.14-7.4-4.63-11.57-6l-11.83-3.95c-7.55-2.52-13.81-3.56-21.14-.09A33.82,33.82,0,0,0,372,381Z"/><path class="cls-8" d="M370.74,378.07c-4.66,8.8-4.63,20.12.79,28.48a31.71,31.71,0,0,0,10.36,9.69,41.19,41.19,0,0,0,30,4.84c7.75-1.76,15.19-6.08,19.26-12.9,2.73-4.58,3.78-10,4.26-15.26.62-6.78.09-14.35-4.66-19.23-3.07-3.14-7.4-4.63-11.57-6l-11.83-3.95c-7.55-2.52-13.81-3.56-21.14-.09A33.83,33.83,0,0,0,370.74,378.07Z"/><path class="cls-9" d="M373.38,384.39c-2.39,8.22-.75,17.79,5.17,24s14.7,8.14,23,9.68a25.32,25.32,0,0,0,8.3.58c6.49-1,11.17-6.57,14.88-12,3.18-4.64,6.17-9.59,7.23-15.11s-.16-11.78-4.33-15.55c-2.81-2.53-6.56-3.66-10.19-4.72l-14.87-4.36c-6.79-2-12.38-3.82-18.08,1A34.69,34.69,0,0,0,373.38,384.39Z"/><path class="cls-10" d="M381.23,387.07a2.26,2.26,0,0,0,.05,1c.33.95,1.53,1.26,2.53,1.16a6,6,0,0,0,4.58-3c1.33-2.34-.39-4.15-2.87-3.91C383.27,382.62,381.52,384.91,381.23,387.07Z"/><path class="cls-10" d="M394,376.66a3.05,3.05,0,0,0,3.69-.55,3.1,3.1,0,0,0,.66-1.47c.46-2.63-2.67-5.79-5.29-4.17C390.81,371.83,392,375.57,394,376.66Z"/><path class="cls-10" d="M398.32,401.41a5.2,5.2,0,0,0-.09,4.16,2.56,2.56,0,0,0,2.15,1.76,2.58,2.58,0,0,0,2.14-1.87,3.88,3.88,0,0,0-.37-3.69,2.52,2.52,0,0,0-3.42-.56Z"/><path class="cls-10" d="M383,405.07a2.75,2.75,0,0,0,3.19,1.19A5.71,5.71,0,0,0,389,404a5.36,5.36,0,0,0,1.06-2.11C391,397.29,379.7,398.4,383,405.07Z"/><path class="cls-10" d="M402.35,389.59a11.41,11.41,0,0,0,2.75,2.25,2.33,2.33,0,0,0,1.42.53,1.59,1.59,0,0,0,1.07-.66,3,3,0,0,0,.34-2.75,4.67,4.67,0,0,0-1.79-2.2c-.69-.48-3.31-1.65-4.16-1.18C400.61,386.34,401.68,388.74,402.35,389.59Z"/><path class="cls-10" d="M414.93,397c-.11.9.13,2.09,1,2.22a1.8,1.8,0,0,0,1.15-.35,10.19,10.19,0,0,0,4.18-4.93c.85-2.13-.43-4.71-2.84-3.33C416.52,391.67,415.19,394.88,414.93,397Z"/><path class="cls-10" d="M416.31,376a1.41,1.41,0,0,0-2.17-.25,2,2,0,0,0-.23,2.36,3.82,3.82,0,0,0,1.93,1.59,7,7,0,0,0,3.26.54,2.09,2.09,0,0,0,1.79-.91,1.64,1.64,0,0,0-.55-1.9,4.81,4.81,0,0,0-1.94-.82l-2.3-.59Z"/><path class="cls-10" d="M409.06,412.18c-.56.4-1.15,1-1.1,1.64a1.49,1.49,0,0,0,.67,1,4,4,0,0,0,3.47.22,12.49,12.49,0,0,0,3.87-1.91,4,4,0,0,0,1.46-1.68C419.28,406.61,410,411.49,409.06,412.18Z"/><path class="cls-11" d="M380.89,376.42a37.81,37.81,0,0,0-3.72,5.56A19.37,19.37,0,0,0,379.85,403a6.94,6.94,0,0,0,2.57,2,3.11,3.11,0,0,0,3.11-.37c1.15-1,1.1-2.77.85-4.26a33.18,33.18,0,0,0-1.45-5.6c-.69-2-1.58-3.9-1.56-6,0-3.11,2.14-5.9,4.78-7.54a25.12,25.12,0,0,1,8.81-2.88,13,13,0,0,0,4.85-1.55c6.75-4.42-3.7-9.55-7.78-9.88C388.39,366.54,383.89,372.46,380.89,376.42Z"/><path class="cls-7" d="M279.7,387.53c-4.66,8.8-4.63,20.12.79,28.48a31.71,31.71,0,0,0,10.36,9.69,41.19,41.19,0,0,0,30,4.84c7.75-1.76,15.19-6.08,19.26-12.9,2.73-4.58,3.78-10,4.26-15.26.62-6.78.09-14.35-4.66-19.23-3.07-3.14-7.4-4.63-11.57-6l-11.83-3.95c-7.55-2.52-13.81-3.56-21.14-.09A33.83,33.83,0,0,0,279.7,387.53Z"/><path class="cls-8" d="M278.4,384.57c-4.66,8.8-4.63,20.12.79,28.48a31.71,31.71,0,0,0,10.36,9.69,41.19,41.19,0,0,0,30,4.84c7.75-1.76,15.19-6.08,19.26-12.9,2.73-4.58,3.78-10,4.26-15.26.62-6.78.09-14.35-4.66-19.23-3.07-3.14-7.4-4.63-11.57-6L315,370.21c-7.55-2.52-13.81-3.56-21.14-.09A33.83,33.83,0,0,0,278.4,384.57Z"/><path class="cls-9" d="M281,390.89c-2.39,8.22-.75,17.79,5.17,24s14.7,8.14,23,9.68a25.32,25.32,0,0,0,8.3.58c6.49-1,11.17-6.57,14.88-12,3.18-4.64,6.17-9.59,7.23-15.11s-.16-11.78-4.33-15.55c-2.81-2.53-6.56-3.66-10.19-4.72l-14.87-4.36c-6.79-2-12.38-3.82-18.08,1A34.69,34.69,0,0,0,281,390.89Z"/><path class="cls-10" d="M288.89,393.57a2.26,2.26,0,0,0,.05,1c.33.95,1.53,1.26,2.53,1.16a6,6,0,0,0,4.58-3c1.33-2.34-.39-4.14-2.87-3.91C290.93,389.12,289.17,391.41,288.89,393.57Z"/><path class="cls-10" d="M301.64,383.16a3.05,3.05,0,0,0,3.69-.55,3.1,3.1,0,0,0,.66-1.47c.46-2.63-2.67-5.79-5.29-4.17C298.47,378.33,299.63,382.07,301.64,383.16Z"/><path class="cls-10" d="M306,407.91a5.2,5.2,0,0,0-.09,4.16,2.56,2.56,0,0,0,2.15,1.76,2.58,2.58,0,0,0,2.14-1.87,3.88,3.88,0,0,0-.37-3.69,2.52,2.52,0,0,0-3.42-.56Z"/><path class="cls-10" d="M290.62,411.57a2.75,2.75,0,0,0,3.19,1.19,5.71,5.71,0,0,0,2.86-2.23,5.36,5.36,0,0,0,1.06-2.11C298.67,403.79,287.36,404.9,290.62,411.57Z"/><path class="cls-10" d="M310,396.09a11.42,11.42,0,0,0,2.75,2.25,2.33,2.33,0,0,0,1.42.53,1.59,1.59,0,0,0,1.07-.66,3,3,0,0,0,.34-2.75,4.67,4.67,0,0,0-1.79-2.2c-.69-.48-3.31-1.65-4.16-1.18C308.27,392.84,309.34,395.24,310,396.09Z"/><path class="cls-10" d="M322.59,403.45c-.11.9.13,2.09,1,2.22a1.8,1.8,0,0,0,1.15-.35A10.19,10.19,0,0,0,329,400.4c.85-2.13-.43-4.71-2.84-3.33C324.18,398.17,322.85,401.38,322.59,403.45Z"/><path class="cls-10" d="M324,382.45a1.41,1.41,0,0,0-2.17-.25,2,2,0,0,0-.23,2.36,3.82,3.82,0,0,0,1.93,1.59,7,7,0,0,0,3.26.54,2.09,2.09,0,0,0,1.79-.91,1.64,1.64,0,0,0-.55-1.9,4.81,4.81,0,0,0-1.94-.82l-2.3-.59Z"/><path class="cls-10" d="M316.72,418.68c-.56.4-1.15,1-1.1,1.64a1.49,1.49,0,0,0,.67,1,4,4,0,0,0,3.47.22,12.5,12.5,0,0,0,3.87-1.91,4,4,0,0,0,1.46-1.68C326.94,413.11,317.67,418,316.72,418.68Z"/><path class="cls-11" d="M288.55,382.92a37.81,37.81,0,0,0-3.72,5.56,19.36,19.36,0,0,0,2.68,21.06,6.94,6.94,0,0,0,2.57,2,3.11,3.11,0,0,0,3.11-.37c1.15-1,1.1-2.77.85-4.26a33.2,33.2,0,0,0-1.45-5.6c-.69-2-1.58-3.9-1.56-6,0-3.11,2.14-5.9,4.78-7.54a25.12,25.12,0,0,1,8.81-2.88,13,13,0,0,0,4.85-1.55c6.75-4.42-3.7-9.55-7.78-9.88C296,373,291.55,379,288.55,382.92Z"/><path class="cls-7" d="M359.83,479.19c-4.66,8.8-4.63,20.12.79,28.48A31.71,31.71,0,0,0,371,517.36a41.19,41.19,0,0,0,30,4.84c7.75-1.76,15.19-6.08,19.26-12.9,2.73-4.58,3.78-10,4.26-15.26.62-6.78.09-14.35-4.66-19.23-3.07-3.14-7.4-4.63-11.57-6l-11.83-3.95c-7.55-2.52-13.81-3.56-21.14-.09A33.83,33.83,0,0,0,359.83,479.19Z"/><path class="cls-8" d="M358.53,476.23c-4.66,8.8-4.63,20.12.79,28.48a31.71,31.71,0,0,0,10.36,9.69,41.19,41.19,0,0,0,30,4.84c7.75-1.76,15.19-6.08,19.26-12.9,2.73-4.58,3.78-10,4.26-15.26.62-6.78.09-14.35-4.66-19.23-3.07-3.14-7.4-4.63-11.57-6l-11.83-3.95c-7.55-2.52-13.81-3.56-21.14-.09A33.83,33.83,0,0,0,358.53,476.23Z"/><path class="cls-9" d="M361.17,482.55c-2.39,8.22-.75,17.79,5.17,24s14.7,8.14,23,9.68a25.32,25.32,0,0,0,8.3.58c6.49-1,11.17-6.57,14.88-12,3.18-4.64,6.17-9.59,7.23-15.11s-.16-11.78-4.33-15.55c-2.81-2.53-6.56-3.66-10.19-4.72l-14.87-4.36c-6.79-2-12.38-3.82-18.08,1A34.69,34.69,0,0,0,361.17,482.55Z"/><path class="cls-10" d="M369,485.23a2.26,2.26,0,0,0,.05,1c.33.95,1.53,1.26,2.53,1.16a6,6,0,0,0,4.58-3c1.33-2.34-.39-4.15-2.87-3.91C371.06,480.78,369.3,483.07,369,485.23Z"/><path class="cls-10" d="M381.76,474.82a3.05,3.05,0,0,0,3.69-.55,3.1,3.1,0,0,0,.66-1.47c.46-2.63-2.67-5.79-5.29-4.17C378.6,470,379.76,473.73,381.76,474.82Z"/><path class="cls-10" d="M386.11,499.57a5.2,5.2,0,0,0-.09,4.16,2.56,2.56,0,0,0,2.15,1.76,2.58,2.58,0,0,0,2.14-1.87,3.88,3.88,0,0,0-.37-3.69,2.52,2.52,0,0,0-3.42-.56Z"/><path class="cls-10" d="M370.75,503.24a2.75,2.75,0,0,0,3.19,1.19,5.71,5.71,0,0,0,2.86-2.23,5.36,5.36,0,0,0,1.06-2.11C378.8,495.46,367.48,496.56,370.75,503.24Z"/><path class="cls-10" d="M390.14,487.75a11.42,11.42,0,0,0,2.75,2.25,2.33,2.33,0,0,0,1.42.53,1.59,1.59,0,0,0,1.07-.66,3,3,0,0,0,.34-2.75,4.67,4.67,0,0,0-1.79-2.2c-.69-.48-3.31-1.65-4.16-1.18C388.4,484.5,389.47,486.91,390.14,487.75Z"/><path class="cls-10" d="M402.72,495.12c-.11.9.13,2.09,1,2.22a1.8,1.8,0,0,0,1.15-.35,10.19,10.19,0,0,0,4.18-4.93c.85-2.13-.43-4.71-2.84-3.33C404.31,489.84,403,493,402.72,495.12Z"/><path class="cls-10" d="M404.1,474.11a1.41,1.41,0,0,0-2.17-.25,2,2,0,0,0-.23,2.36,3.82,3.82,0,0,0,1.93,1.59,7,7,0,0,0,3.26.54,2.09,2.09,0,0,0,1.79-.91,1.64,1.64,0,0,0-.55-1.9,4.81,4.81,0,0,0-1.94-.82l-2.3-.59Z"/><path class="cls-10" d="M396.85,510.34c-.56.4-1.15,1-1.1,1.64a1.49,1.49,0,0,0,.67,1,4,4,0,0,0,3.47.22,12.5,12.5,0,0,0,3.87-1.91,4,4,0,0,0,1.46-1.68C407.07,504.78,397.8,509.65,396.85,510.34Z"/><path class="cls-11" d="M368.68,474.58a37.79,37.79,0,0,0-3.72,5.56,19.37,19.37,0,0,0,2.68,21.06,6.94,6.94,0,0,0,2.57,2,3.11,3.11,0,0,0,3.11-.37c1.15-1,1.1-2.77.85-4.26a33.2,33.2,0,0,0-1.45-5.6c-.69-2-1.58-3.9-1.56-6,0-3.11,2.14-5.9,4.78-7.54a25.12,25.12,0,0,1,8.81-2.88,13,13,0,0,0,4.85-1.55c6.75-4.42-3.7-9.55-7.78-9.88C376.18,464.7,371.68,470.62,368.68,474.58Z"/><path class="cls-7" d="M470.77,429.7c-4.66,8.8-4.63,20.12.79,28.48a31.71,31.71,0,0,0,10.36,9.69,41.19,41.19,0,0,0,30,4.84c7.75-1.76,15.19-6.08,19.26-12.9,2.73-4.58,3.78-10,4.26-15.26.62-6.78.09-14.35-4.66-19.23-3.07-3.14-7.4-4.63-11.57-6l-11.83-3.95c-7.55-2.52-13.81-3.56-21.14-.09A33.83,33.83,0,0,0,470.77,429.7Z"/><path class="cls-8" d="M469.46,426.74c-4.66,8.8-4.63,20.12.79,28.48a31.71,31.71,0,0,0,10.36,9.69,41.19,41.19,0,0,0,30,4.84c7.75-1.76,15.19-6.08,19.26-12.9,2.73-4.58,3.78-10,4.26-15.26.62-6.78.09-14.35-4.66-19.23-3.07-3.14-7.4-4.63-11.57-6l-11.83-3.95c-7.55-2.52-13.81-3.56-21.14-.09A33.83,33.83,0,0,0,469.46,426.74Z"/><path class="cls-9" d="M472.11,433.07c-2.39,8.22-.75,17.79,5.17,24s14.7,8.14,23,9.68a25.32,25.32,0,0,0,8.3.58c6.49-1,11.17-6.57,14.88-12,3.18-4.64,6.17-9.59,7.23-15.11s-.16-11.78-4.33-15.55c-2.81-2.53-6.56-3.66-10.19-4.72l-14.87-4.36c-6.79-2-12.38-3.82-18.08,1A34.69,34.69,0,0,0,472.11,433.07Z"/><path class="cls-10" d="M480,435.74a2.26,2.26,0,0,0,.05,1c.33.95,1.53,1.26,2.53,1.16a6,6,0,0,0,4.58-3c1.33-2.34-.39-4.15-2.87-3.91C482,431.29,480.24,433.58,480,435.74Z"/><path class="cls-10" d="M492.7,425.33a3.05,3.05,0,0,0,3.69-.55,3.1,3.1,0,0,0,.66-1.47c.46-2.63-2.67-5.79-5.29-4.17C489.54,420.5,490.7,424.24,492.7,425.33Z"/><path class="cls-10" d="M497,450.08a5.2,5.2,0,0,0-.09,4.16A2.56,2.56,0,0,0,499.1,456a2.58,2.58,0,0,0,2.14-1.87,3.88,3.88,0,0,0-.37-3.69,2.52,2.52,0,0,0-3.42-.56Z"/><path class="cls-10" d="M481.69,453.75a2.75,2.75,0,0,0,3.19,1.19,5.71,5.71,0,0,0,2.86-2.23,5.36,5.36,0,0,0,1.06-2.11C489.73,446,478.42,447.08,481.69,453.75Z"/><path class="cls-10" d="M501.08,438.26a11.41,11.41,0,0,0,2.75,2.25,2.33,2.33,0,0,0,1.42.53,1.59,1.59,0,0,0,1.07-.66,3,3,0,0,0,.34-2.75,4.67,4.67,0,0,0-1.79-2.2c-.69-.48-3.31-1.65-4.16-1.18C499.33,435,500.4,437.42,501.08,438.26Z"/><path class="cls-10" d="M513.66,445.63c-.11.9.13,2.09,1,2.22a1.8,1.8,0,0,0,1.15-.35,10.19,10.19,0,0,0,4.18-4.93c.85-2.13-.43-4.71-2.84-3.33C515.24,440.35,513.92,443.55,513.66,445.63Z"/><path class="cls-10" d="M515,424.63a1.41,1.41,0,0,0-2.17-.25,2,2,0,0,0-.23,2.36,3.82,3.82,0,0,0,1.93,1.59,7,7,0,0,0,3.26.54,2.09,2.09,0,0,0,1.79-.91,1.64,1.64,0,0,0-.55-1.9,4.81,4.81,0,0,0-1.94-.82l-2.3-.59Z"/><path class="cls-10" d="M507.78,460.86c-.56.4-1.15,1-1.1,1.64a1.49,1.49,0,0,0,.67,1,4,4,0,0,0,3.47.22,12.49,12.49,0,0,0,3.87-1.91,4,4,0,0,0,1.46-1.68C518,455.29,508.74,460.16,507.78,460.86Z"/><path class="cls-11" d="M479.62,425.1a37.8,37.8,0,0,0-3.72,5.56,19.37,19.37,0,0,0,2.68,21.06,6.94,6.94,0,0,0,2.57,2,3.11,3.11,0,0,0,3.11-.37c1.15-1,1.1-2.77.85-4.26a33.18,33.18,0,0,0-1.45-5.6c-.69-2-1.58-3.9-1.56-6,0-3.11,2.14-5.9,4.78-7.54a25.12,25.12,0,0,1,8.81-2.88,13,13,0,0,0,4.85-1.55c6.75-4.42-3.7-9.55-7.78-9.88C487.11,415.22,482.62,421.13,479.62,425.1Z"/><path class="cls-7" d="M499.38,383.4c6.23,7.77,16.63,12.24,26.45,10.59a31.71,31.71,0,0,0,13-5.66,41.19,41.19,0,0,0,16.36-25.63c1.47-7.81.46-16.36-4.19-22.8-3.12-4.32-7.64-7.42-12.31-10-6-3.26-13.14-5.79-19.5-3.36-4.1,1.57-7.19,5-10.12,8.22l-8.32,9.29c-5.31,5.93-8.76,11.26-8.48,19.37A33.83,33.83,0,0,0,499.38,383.4Z"/><path class="cls-8" d="M496.14,383.42c6.23,7.77,16.63,12.24,26.45,10.59a31.71,31.71,0,0,0,13-5.66A41.19,41.19,0,0,0,552,362.72c1.47-7.81.46-16.36-4.19-22.8-3.12-4.32-7.64-7.42-12.31-10-6-3.26-13.14-5.79-19.5-3.36-4.1,1.57-7.19,5-10.12,8.22l-8.32,9.29c-5.31,5.93-8.76,11.26-8.48,19.37A33.83,33.83,0,0,0,496.14,383.42Z"/><path class="cls-9" d="M503,383.51c6.6,5.46,16,7.76,24.05,4.78s13.31-10.26,18-17.3a25.32,25.32,0,0,0,3.83-7.39c1.68-6.34-1.59-12.86-5.08-18.41-3-4.76-6.35-9.47-11-12.64s-10.87-4.54-16-2.2c-3.43,1.57-6,4.57-8.38,7.47l-9.9,11.91c-4.52,5.44-8.42,9.84-6.26,17A34.69,34.69,0,0,0,503,383.51Z"/><path class="cls-10" d="M508.57,377.37a2.26,2.26,0,0,0,1,.36c1,.07,1.76-.91,2.07-1.86a6,6,0,0,0-.9-5.38c-1.62-2.15-4-1.29-4.72,1.08C505.29,373.73,506.7,376.25,508.57,377.37Z"/><path class="cls-10" d="M504.08,361.53a3.05,3.05,0,0,0,1-3.61,3.1,3.1,0,0,0-1.09-1.19c-2.23-1.47-6.37.15-5.93,3.2C498.39,362.52,502.28,362.94,504.08,361.53Z"/><path class="cls-10" d="M528.52,367.38a5.2,5.2,0,0,0,3.78,1.74,2.56,2.56,0,0,0,2.47-1.27,2.58,2.58,0,0,0-.87-2.71,3.88,3.88,0,0,0-3.53-1.12,2.52,2.52,0,0,0-1.88,2.92Z"/><path class="cls-10" d="M525.78,382.93a2.75,2.75,0,0,0,2.36-2.45,5.71,5.71,0,0,0-.91-3.51,5.36,5.36,0,0,0-1.51-1.81C521.84,372.46,518.36,383.28,525.78,382.93Z"/><path class="cls-10" d="M519.27,359a11.42,11.42,0,0,0,3.16-1.63,2.33,2.33,0,0,0,1.05-1.09,1.59,1.59,0,0,0-.18-1.25,3,3,0,0,0-2.38-1.41,4.67,4.67,0,0,0-2.73.77c-.71.44-2.83,2.39-2.73,3.36C515.6,359.29,518.23,359.27,519.27,359Z"/><path class="cls-10" d="M531,350.36c.78.46,2,.71,2.45-.06a1.8,1.8,0,0,0,.14-1.19,10.19,10.19,0,0,0-2.86-5.8c-1.62-1.62-4.49-1.48-4.19,1.28C526.81,346.81,529.23,349.3,531,350.36Z"/><path class="cls-10" d="M512.3,340.75a1.41,1.41,0,0,0-1.09,1.89,2,2,0,0,0,2.08,1.15,3.82,3.82,0,0,0,2.23-1.14,7,7,0,0,0,1.79-2.78,2.09,2.09,0,0,0-.12-2,1.64,1.64,0,0,0-2-.25,4.81,4.81,0,0,0-1.53,1.46L512.25,341Z"/><path class="cls-10" d="M542.67,361.81c.15.67.42,1.44,1.07,1.66a1.49,1.49,0,0,0,1.22-.2,4,4,0,0,0,1.58-3.09,12.49,12.49,0,0,0-.22-4.31,4,4,0,0,0-1-2C541.62,350.21,542.41,360.65,542.67,361.81Z"/><path class="cls-11" d="M498.67,373.45a37.79,37.79,0,0,0,3.63,5.62A19.36,19.36,0,0,0,522.69,385a6.94,6.94,0,0,0,2.85-1.57,3.11,3.11,0,0,0,.9-3c-.45-1.45-2.1-2.11-3.58-2.47a33.18,33.18,0,0,0-5.71-.89c-2.07-.14-4.21-.1-6.1-.94-2.84-1.26-4.56-4.31-5-7.38a25.12,25.12,0,0,1,.86-9.22,13,13,0,0,0,.5-5.07c-1.38-7.95-10.23-.4-12.15,3.22C492.57,362.65,496.22,369.12,498.67,373.45Z"/><path class="cls-7" d="M512.63,298.69c6.23,7.77,16.63,12.24,26.45,10.59a31.71,31.71,0,0,0,13-5.66A41.19,41.19,0,0,0,568.45,278c1.47-7.81.46-16.36-4.19-22.8-3.12-4.32-7.64-7.42-12.31-10-6-3.26-13.14-5.79-19.5-3.36-4.1,1.57-7.19,5-10.12,8.22L514,259.37c-5.31,5.93-8.76,11.26-8.48,19.37A33.83,33.83,0,0,0,512.63,298.69Z"/><path class="cls-8" d="M509.39,298.72c6.23,7.77,16.63,12.24,26.45,10.59a31.71,31.71,0,0,0,13-5.66A41.19,41.19,0,0,0,565.22,278c1.47-7.81.46-16.36-4.19-22.8-3.12-4.32-7.64-7.42-12.31-10-6-3.26-13.14-5.79-19.5-3.36-4.1,1.57-7.19,5-10.12,8.22l-8.32,9.29c-5.31,5.93-8.76,11.26-8.48,19.37A33.83,33.83,0,0,0,509.39,298.72Z"/><path class="cls-9" d="M516.25,298.8c6.6,5.46,16,7.76,24.05,4.78s13.31-10.26,18-17.3a25.32,25.32,0,0,0,3.83-7.39c1.68-6.34-1.59-12.86-5.08-18.41-3-4.76-6.35-9.47-11-12.64s-10.87-4.54-16-2.2c-3.43,1.57-6,4.57-8.38,7.47L511.81,265c-4.52,5.44-8.42,9.84-6.26,17A34.69,34.69,0,0,0,516.25,298.8Z"/><path class="cls-10" d="M521.82,292.67a2.26,2.26,0,0,0,1,.36c1,.07,1.76-.91,2.07-1.86a6,6,0,0,0-.9-5.38c-1.62-2.15-4-1.29-4.72,1.08C518.55,289,520,291.54,521.82,292.67Z"/><path class="cls-10" d="M517.33,276.83a3.05,3.05,0,0,0,1-3.61A3.1,3.1,0,0,0,517.2,272c-2.23-1.47-6.37.15-5.93,3.2C511.64,277.81,515.53,278.23,517.33,276.83Z"/><path class="cls-10" d="M541.77,282.67a5.2,5.2,0,0,0,3.78,1.74,2.56,2.56,0,0,0,2.47-1.27,2.58,2.58,0,0,0-.87-2.71,3.88,3.88,0,0,0-3.53-1.12,2.52,2.52,0,0,0-1.88,2.92Z"/><path class="cls-10" d="M539,298.22a2.75,2.75,0,0,0,2.36-2.45,5.71,5.71,0,0,0-.91-3.51,5.36,5.36,0,0,0-1.51-1.81C535.09,287.75,531.61,298.57,539,298.22Z"/><path class="cls-10" d="M532.52,274.28a11.41,11.41,0,0,0,3.16-1.63,2.33,2.33,0,0,0,1.05-1.09,1.59,1.59,0,0,0-.18-1.25,3,3,0,0,0-2.38-1.41,4.67,4.67,0,0,0-2.73.77c-.71.44-2.83,2.39-2.73,3.36C528.85,274.59,531.48,274.56,532.52,274.28Z"/><path class="cls-10" d="M544.28,265.66c.78.46,2,.71,2.45-.06a1.8,1.8,0,0,0,.14-1.19,10.19,10.19,0,0,0-2.86-5.8c-1.62-1.62-4.49-1.48-4.19,1.28C540.07,262.11,542.48,264.6,544.28,265.66Z"/><path class="cls-10" d="M525.56,256a1.41,1.41,0,0,0-1.09,1.89,2,2,0,0,0,2.08,1.15,3.82,3.82,0,0,0,2.23-1.14,7,7,0,0,0,1.79-2.78,2.09,2.09,0,0,0-.12-2,1.64,1.64,0,0,0-2-.25,4.81,4.81,0,0,0-1.53,1.46l-1.46,1.87Z"/><path class="cls-10" d="M555.92,277.1c.15.67.42,1.44,1.07,1.66a1.49,1.49,0,0,0,1.22-.2,4,4,0,0,0,1.58-3.09,12.5,12.5,0,0,0-.22-4.31,4,4,0,0,0-1-2C554.87,265.51,555.67,275.95,555.92,277.1Z"/><path class="cls-11" d="M511.92,288.74a37.79,37.79,0,0,0,3.63,5.62,19.36,19.36,0,0,0,20.39,5.91,6.94,6.94,0,0,0,2.85-1.57,3.11,3.11,0,0,0,.9-3c-.45-1.45-2.1-2.11-3.58-2.47a33.19,33.19,0,0,0-5.71-.89c-2.07-.14-4.21-.1-6.1-.94-2.84-1.26-4.56-4.31-5-7.38a25.12,25.12,0,0,1,.86-9.22,13,13,0,0,0,.5-5.07c-1.38-7.95-10.23-.4-12.15,3.22C505.83,277.94,509.47,284.41,511.92,288.74Z"/><path class="cls-7" d="M215.38,304.13c6.23,7.77,16.63,12.24,26.45,10.59a31.71,31.71,0,0,0,13-5.66,41.19,41.19,0,0,0,16.36-25.63c1.47-7.81.46-16.36-4.19-22.8-3.12-4.32-7.64-7.42-12.31-10-6-3.26-13.14-5.79-19.5-3.36-4.1,1.57-7.19,5-10.12,8.22l-8.32,9.29c-5.31,5.93-8.76,11.26-8.48,19.37A33.83,33.83,0,0,0,215.38,304.13Z"/><path class="cls-8" d="M212.14,304.15c6.23,7.77,16.63,12.24,26.45,10.59a31.71,31.71,0,0,0,13-5.66A41.19,41.19,0,0,0,268,283.44c1.47-7.81.46-16.36-4.19-22.8-3.12-4.32-7.64-7.42-12.31-10-6-3.26-13.14-5.79-19.5-3.36-4.1,1.57-7.19,5-10.12,8.22l-8.32,9.29c-5.31,5.93-8.76,11.26-8.48,19.37A33.83,33.83,0,0,0,212.14,304.15Z"/><path class="cls-9" d="M219,304.24c6.6,5.46,16,7.76,24.05,4.78s13.31-10.26,18-17.3a25.32,25.32,0,0,0,3.83-7.39c1.68-6.34-1.59-12.86-5.08-18.41-3-4.76-6.35-9.47-11-12.64s-10.87-4.54-16-2.2c-3.43,1.57-6,4.57-8.38,7.47l-9.9,11.91c-4.52,5.44-8.42,9.84-6.26,17A34.69,34.69,0,0,0,219,304.24Z"/><path class="cls-10" d="M224.57,298.1a2.26,2.26,0,0,0,1,.36c1,.07,1.76-.91,2.07-1.86a6,6,0,0,0-.9-5.38c-1.62-2.15-4-1.29-4.72,1.08C221.29,294.46,222.7,297,224.57,298.1Z"/><path class="cls-10" d="M220.08,282.26a3.05,3.05,0,0,0,1-3.61,3.1,3.1,0,0,0-1.09-1.19c-2.23-1.47-6.37.15-5.93,3.2C214.39,283.25,218.28,283.66,220.08,282.26Z"/><path class="cls-10" d="M244.52,288.11a5.2,5.2,0,0,0,3.78,1.74,2.56,2.56,0,0,0,2.47-1.27,2.58,2.58,0,0,0-.87-2.71,3.88,3.88,0,0,0-3.53-1.12,2.52,2.52,0,0,0-1.88,2.92Z"/><path class="cls-10" d="M241.78,303.65a2.75,2.75,0,0,0,2.36-2.45,5.71,5.71,0,0,0-.91-3.51,5.36,5.36,0,0,0-1.51-1.81C237.84,293.18,234.36,304,241.78,303.65Z"/><path class="cls-10" d="M235.27,279.71a11.42,11.42,0,0,0,3.16-1.63,2.33,2.33,0,0,0,1.05-1.09,1.59,1.59,0,0,0-.18-1.25,3,3,0,0,0-2.38-1.41,4.67,4.67,0,0,0-2.73.77c-.71.44-2.83,2.39-2.73,3.36C231.6,280,234.23,280,235.27,279.71Z"/><path class="cls-10" d="M247,271.09c.78.46,2,.71,2.45-.06a1.8,1.8,0,0,0,.14-1.19,10.19,10.19,0,0,0-2.86-5.8c-1.62-1.62-4.49-1.48-4.19,1.28C242.81,267.54,245.23,270,247,271.09Z"/><path class="cls-10" d="M228.31,261.48a1.41,1.41,0,0,0-1.09,1.89,2,2,0,0,0,2.08,1.15,3.82,3.82,0,0,0,2.23-1.14,7,7,0,0,0,1.79-2.78,2.09,2.09,0,0,0-.12-2,1.64,1.64,0,0,0-2-.25,4.81,4.81,0,0,0-1.53,1.46l-1.46,1.87Z"/><path class="cls-10" d="M258.67,282.53c.15.67.42,1.44,1.07,1.66A1.49,1.49,0,0,0,261,284a4,4,0,0,0,1.58-3.09,12.5,12.5,0,0,0-.22-4.31,4,4,0,0,0-1-2C257.62,270.94,258.42,281.38,258.67,282.53Z"/><path class="cls-11" d="M214.67,294.18a37.8,37.8,0,0,0,3.63,5.62,19.37,19.37,0,0,0,20.39,5.91,6.93,6.93,0,0,0,2.85-1.57,3.11,3.11,0,0,0,.9-3c-.45-1.45-2.1-2.11-3.58-2.47a33.17,33.17,0,0,0-5.71-.89c-2.07-.14-4.21-.1-6.1-.94-2.84-1.26-4.56-4.31-5-7.38a25.13,25.13,0,0,1,.86-9.22,13,13,0,0,0,.5-5.07c-1.38-7.95-10.23-.4-12.15,3.22C208.57,283.37,212.22,289.85,214.67,294.18Z"/><path class="cls-7" d="M279.08,214.1c6.23,7.77,16.63,12.24,26.45,10.59a31.71,31.71,0,0,0,13-5.66,41.19,41.19,0,0,0,16.36-25.63c1.47-7.81.46-16.36-4.19-22.8-3.12-4.32-7.64-7.42-12.31-10-6-3.26-13.14-5.79-19.5-3.36-4.1,1.57-7.19,5-10.12,8.22l-8.32,9.29c-5.31,5.93-8.76,11.26-8.48,19.37A33.83,33.83,0,0,0,279.08,214.1Z"/><path class="cls-8" d="M275.85,214.12c6.23,7.77,16.63,12.24,26.45,10.59a31.71,31.71,0,0,0,13-5.66,41.19,41.19,0,0,0,16.36-25.63c1.47-7.81.46-16.36-4.19-22.8-3.12-4.32-7.64-7.42-12.31-10-6-3.26-13.14-5.79-19.5-3.36-4.1,1.57-7.19,5-10.12,8.22l-8.32,9.29c-5.31,5.93-8.76,11.26-8.48,19.37A33.83,33.83,0,0,0,275.85,214.12Z"/><path class="cls-9" d="M282.7,214.21c6.6,5.46,16,7.76,24.05,4.78s13.31-10.26,18-17.3a25.32,25.32,0,0,0,3.83-7.39c1.68-6.34-1.59-12.86-5.08-18.41-3-4.76-6.35-9.47-11-12.64s-10.87-4.54-16-2.2c-3.43,1.57-6,4.57-8.38,7.47l-9.9,11.91c-4.52,5.44-8.42,9.84-6.26,17A34.69,34.69,0,0,0,282.7,214.21Z"/><path class="cls-10" d="M288.27,208.07a2.26,2.26,0,0,0,1,.36c1,.08,1.76-.91,2.07-1.86a6,6,0,0,0-.9-5.38c-1.62-2.15-4-1.29-4.72,1.08C285,204.43,286.4,207,288.27,208.07Z"/><path class="cls-10" d="M283.78,192.24a3.05,3.05,0,0,0,1-3.61,3.1,3.1,0,0,0-1.09-1.19c-2.23-1.47-6.37.15-5.93,3.2C278.1,193.22,282,193.64,283.78,192.24Z"/><path class="cls-10" d="M308.22,198.08a5.2,5.2,0,0,0,3.78,1.74,2.56,2.56,0,0,0,2.47-1.27,2.58,2.58,0,0,0-.87-2.71,3.88,3.88,0,0,0-3.53-1.12,2.52,2.52,0,0,0-1.88,2.92Z"/><path class="cls-10" d="M305.49,213.63a2.75,2.75,0,0,0,2.36-2.45,5.71,5.71,0,0,0-.91-3.51,5.36,5.36,0,0,0-1.51-1.81C301.54,203.16,298.07,214,305.49,213.63Z"/><path class="cls-10" d="M299,189.69a11.42,11.42,0,0,0,3.16-1.63,2.33,2.33,0,0,0,1.05-1.09,1.59,1.59,0,0,0-.18-1.25,3,3,0,0,0-2.38-1.41,4.67,4.67,0,0,0-2.73.77c-.71.44-2.83,2.39-2.73,3.36C295.3,190,297.94,190,299,189.69Z"/><path class="cls-10" d="M310.74,181.07c.78.46,2,.71,2.45-.06a1.8,1.8,0,0,0,.14-1.19,10.19,10.19,0,0,0-2.86-5.8c-1.62-1.62-4.49-1.48-4.19,1.28C306.52,177.52,308.93,180,310.74,181.07Z"/><path class="cls-10" d="M292,171.46a1.41,1.41,0,0,0-1.09,1.89A2,2,0,0,0,293,174.5a3.82,3.82,0,0,0,2.23-1.14,7,7,0,0,0,1.79-2.78,2.09,2.09,0,0,0-.12-2,1.64,1.64,0,0,0-2-.25,4.8,4.8,0,0,0-1.53,1.46L292,171.66Z"/><path class="cls-10" d="M322.38,192.51c.15.67.42,1.44,1.07,1.66a1.49,1.49,0,0,0,1.22-.2,4,4,0,0,0,1.58-3.09,12.5,12.5,0,0,0-.22-4.31,4,4,0,0,0-1-2C321.33,180.92,322.12,191.36,322.38,192.51Z"/><path class="cls-11" d="M278.37,204.15a37.81,37.81,0,0,0,3.63,5.62,19.37,19.37,0,0,0,20.39,5.91,6.94,6.94,0,0,0,2.85-1.57,3.11,3.11,0,0,0,.9-3c-.45-1.45-2.1-2.11-3.58-2.47a33.17,33.17,0,0,0-5.71-.89c-2.07-.14-4.21-.1-6.1-.94-2.84-1.26-4.56-4.31-5-7.38a25.12,25.12,0,0,1,.86-9.22,13,13,0,0,0,.5-5.07c-1.38-7.95-10.23-.4-12.15,3.22C272.28,193.35,275.92,199.82,278.37,204.15Z"/><path class="cls-7" d="M454.22,209.36c-1,9.91,3.35,20.38,11.53,26.05a31.71,31.71,0,0,0,13.26,5,41.19,41.19,0,0,0,29.61-6.91c6.5-4.56,11.75-11.39,12.93-19.24.79-5.27-.28-10.65-1.84-15.74-2-6.51-5.36-13.32-11.61-16-4-1.74-8.61-1.48-13-1.19l-12.45.84c-7.94.53-14.13,1.94-19.6,7.94A33.83,33.83,0,0,0,454.22,209.36Z"/><path class="cls-8" d="M451.89,207.11c-1,9.91,3.35,20.38,11.53,26.05a31.71,31.71,0,0,0,13.26,5,41.19,41.19,0,0,0,29.61-6.91c6.5-4.56,11.75-11.39,12.93-19.24.79-5.27-.28-10.65-1.84-15.74-2-6.51-5.36-13.32-11.61-16-4-1.74-8.61-1.48-13-1.19l-12.45.84c-7.94.53-14.13,1.94-19.6,7.94A33.82,33.82,0,0,0,451.89,207.11Z"/><path class="cls-9" d="M456.73,212c.91,8.51,6,16.75,13.87,20.22s16.69,2,25,.22a25.32,25.32,0,0,0,7.9-2.61c5.63-3.36,7.85-10.32,9.22-16.73,1.18-5.5,2.07-11.21,1-16.72s-4.61-10.84-9.91-12.74c-3.56-1.27-7.46-.9-11.22-.51l-15.41,1.61c-7,.73-12.9,1.16-16.34,7.79A34.69,34.69,0,0,0,456.73,212Z"/><path class="cls-10" d="M465,211.46a2.26,2.26,0,0,0,.44.94c.66.75,1.89.58,2.78.11a6,6,0,0,0,3.12-4.48c.34-2.67-1.93-3.69-4.14-2.53C465.21,206.57,464.45,209.35,465,211.46Z"/><path class="cls-10" d="M472.86,197a3.05,3.05,0,0,0,3.21-1.91,3.1,3.1,0,0,0,.05-1.61c-.57-2.61-4.66-4.35-6.48-1.85C468.1,193.73,470.59,196.74,472.86,197Z"/><path class="cls-10" d="M486.26,218.25a5.2,5.2,0,0,0,1.49,3.88,2.56,2.56,0,0,0,2.65.81,2.58,2.58,0,0,0,1.27-2.55,3.88,3.88,0,0,0-1.74-3.27,2.52,2.52,0,0,0-3.38.78Z"/><path class="cls-10" d="M473.44,227.46a2.75,2.75,0,0,0,3.4-.11,5.71,5.71,0,0,0,1.8-3.15,5.36,5.36,0,0,0,.18-2.35C477.93,217.22,467.89,222.53,473.44,227.46Z"/><path class="cls-10" d="M485.51,205.78a11.41,11.41,0,0,0,3.39,1,2.33,2.33,0,0,0,1.51,0,1.59,1.59,0,0,0,.74-1,3,3,0,0,0-.72-2.67,4.67,4.67,0,0,0-2.49-1.36c-.82-.18-3.69-.27-4.3.49C482.67,203.44,484.57,205.26,485.51,205.78Z"/><path class="cls-10" d="M499.95,207.83c.24.88.91,1.89,1.79,1.67a1.8,1.8,0,0,0,.93-.76,10.19,10.19,0,0,0,2-6.15c0-2.29-2.18-4.19-3.89-2C499.41,202.34,499.4,205.81,499.95,207.83Z"/><path class="cls-10" d="M493.26,187.87a1.41,1.41,0,0,0-2.1.59,2,2,0,0,0,.68,2.28,3.82,3.82,0,0,0,2.39.74,7,7,0,0,0,3.22-.73,2.09,2.09,0,0,0,1.32-1.52,1.64,1.64,0,0,0-1.23-1.55,4.81,4.81,0,0,0-2.11,0l-2.35.32Z"/><path class="cls-10" d="M500.28,224.15a2.07,2.07,0,0,0-.39,1.94,1.49,1.49,0,0,0,1,.71,4,4,0,0,0,3.29-1.11,12.5,12.5,0,0,0,2.85-3.23,4,4,0,0,0,.72-2.11C507.63,215.12,500.91,223.14,500.28,224.15Z"/><path class="cls-11" d="M460.66,201.74a37.79,37.79,0,0,0-1.33,6.56,19.37,19.37,0,0,0,10.47,18.47,6.94,6.94,0,0,0,3.14.87,3.11,3.11,0,0,0,2.73-1.52c.69-1.35,0-3-.83-4.27a33.2,33.2,0,0,0-3.47-4.63c-1.38-1.54-2.94-3-3.71-4.94-1.16-2.88-.25-6.27,1.57-8.79a25.12,25.12,0,0,1,7.06-6,13,13,0,0,0,3.9-3.28c4.56-6.65-7-7.43-10.94-6.19C463.85,189.75,461.93,196.93,460.66,201.74Z"/><path class="cls-7" d="M363.35,172.92c-1,9.91,3.35,20.38,11.53,26.05a31.71,31.71,0,0,0,13.26,5,41.19,41.19,0,0,0,29.61-6.91c6.5-4.56,11.75-11.39,12.93-19.24.79-5.27-.28-10.65-1.84-15.74-2-6.51-5.36-13.32-11.61-16-4-1.74-8.61-1.48-13-1.19l-12.45.84c-7.94.53-14.13,1.94-19.6,7.94A33.83,33.83,0,0,0,363.35,172.92Z"/><path class="cls-8" d="M361,170.67c-1,9.91,3.35,20.38,11.53,26.05a31.71,31.71,0,0,0,13.26,5,41.19,41.19,0,0,0,29.61-6.91c6.5-4.56,11.75-11.39,12.93-19.24.79-5.27-.28-10.65-1.84-15.74-2-6.51-5.36-13.32-11.61-16-4-1.74-8.61-1.48-13-1.19l-12.45.84c-7.94.53-14.13,1.94-19.6,7.94A33.83,33.83,0,0,0,361,170.67Z"/><path class="cls-9" d="M365.87,175.52c.91,8.51,6,16.75,13.87,20.22s16.69,2,25,.22a25.32,25.32,0,0,0,7.9-2.61c5.63-3.36,7.85-10.32,9.22-16.73,1.18-5.5,2.07-11.21,1-16.72s-4.61-10.84-9.91-12.74c-3.56-1.27-7.46-.9-11.22-.51l-15.41,1.61c-7,.73-12.9,1.16-16.34,7.79A34.69,34.69,0,0,0,365.87,175.52Z"/><path class="cls-10" d="M374.14,175a2.26,2.26,0,0,0,.44.94c.66.75,1.89.58,2.78.11a6,6,0,0,0,3.12-4.48c.34-2.67-1.93-3.69-4.14-2.53C374.34,170.13,373.59,172.91,374.14,175Z"/><path class="cls-10" d="M382,160.56a3.05,3.05,0,0,0,3.21-1.91,3.1,3.1,0,0,0,.05-1.61c-.57-2.61-4.66-4.35-6.48-1.85C377.23,157.29,379.72,160.31,382,160.56Z"/><path class="cls-10" d="M395.39,181.81a5.2,5.2,0,0,0,1.49,3.88,2.56,2.56,0,0,0,2.65.81,2.58,2.58,0,0,0,1.27-2.55,3.88,3.88,0,0,0-1.74-3.27,2.52,2.52,0,0,0-3.38.78Z"/><path class="cls-10" d="M382.58,191a2.75,2.75,0,0,0,3.4-.11,5.71,5.71,0,0,0,1.8-3.15,5.35,5.35,0,0,0,.18-2.35C387.07,180.78,377,186.09,382.58,191Z"/><path class="cls-10" d="M394.64,169.34a11.42,11.42,0,0,0,3.39,1,2.33,2.33,0,0,0,1.51,0,1.59,1.59,0,0,0,.74-1,3,3,0,0,0-.72-2.67,4.67,4.67,0,0,0-2.49-1.36c-.82-.18-3.69-.27-4.3.49C391.8,167,393.7,168.82,394.64,169.34Z"/><path class="cls-10" d="M409.08,171.39c.24.88.91,1.89,1.79,1.67a1.8,1.8,0,0,0,.93-.76,10.19,10.19,0,0,0,2-6.15c0-2.29-2.18-4.19-3.89-2C408.54,165.9,408.53,169.37,409.08,171.39Z"/><path class="cls-10" d="M402.39,151.43a1.41,1.41,0,0,0-2.1.59,2,2,0,0,0,.68,2.28,3.82,3.82,0,0,0,2.39.74,7,7,0,0,0,3.22-.73,2.09,2.09,0,0,0,1.32-1.52,1.64,1.64,0,0,0-1.23-1.55,4.81,4.81,0,0,0-2.11,0l-2.35.32Z"/><path class="cls-10" d="M409.42,187.71a2.07,2.07,0,0,0-.39,1.94,1.49,1.49,0,0,0,1,.71,4,4,0,0,0,3.29-1.11,12.49,12.49,0,0,0,2.85-3.23,4,4,0,0,0,.72-2.11C416.76,178.68,410,186.7,409.42,187.71Z"/><path class="cls-11" d="M369.79,165.3a37.79,37.79,0,0,0-1.33,6.56,19.36,19.36,0,0,0,10.47,18.47,6.94,6.94,0,0,0,3.14.87,3.11,3.11,0,0,0,2.73-1.52c.69-1.35,0-3-.83-4.27a33.19,33.19,0,0,0-3.47-4.63c-1.38-1.54-2.94-3-3.71-4.94-1.16-2.88-.25-6.27,1.57-8.79a25.12,25.12,0,0,1,7.06-6,13,13,0,0,0,3.9-3.28c4.56-6.65-7-7.43-10.94-6.19C373,153.32,371.07,160.49,369.79,165.3Z"/><path class="cls-7" d="M291.51,308c-1,9.91,3.35,20.38,11.53,26.05a31.71,31.71,0,0,0,13.26,5,41.19,41.19,0,0,0,29.61-6.91c6.5-4.56,11.75-11.39,12.93-19.24.79-5.27-.28-10.65-1.84-15.74-2-6.51-5.36-13.32-11.61-16-4-1.74-8.61-1.48-13-1.19l-12.45.84c-7.94.53-14.13,1.94-19.6,7.94A33.83,33.83,0,0,0,291.51,308Z"/><path class="cls-8" d="M289.18,305.8c-1,9.91,3.35,20.38,11.53,26.05a31.71,31.71,0,0,0,13.26,5A41.19,41.19,0,0,0,343.59,330c6.5-4.56,11.75-11.39,12.93-19.24.79-5.27-.28-10.65-1.84-15.74-2-6.51-5.36-13.32-11.61-16-4-1.74-8.61-1.48-13-1.19l-12.45.84c-7.94.53-14.13,1.94-19.6,7.94A33.83,33.83,0,0,0,289.18,305.8Z"/><path class="cls-9" d="M294,310.65c.91,8.51,6,16.75,13.87,20.22s16.69,2,25,.22a25.32,25.32,0,0,0,7.9-2.61c5.63-3.36,7.85-10.32,9.22-16.73,1.18-5.5,2.07-11.21,1-16.72s-4.61-10.84-9.91-12.74c-3.56-1.27-7.46-.9-11.22-.51l-15.41,1.61c-7,.73-12.9,1.16-16.34,7.79A34.69,34.69,0,0,0,294,310.65Z"/><path class="cls-10" d="M302.3,310.15a2.26,2.26,0,0,0,.44.94c.66.75,1.89.58,2.78.11a6,6,0,0,0,3.12-4.48c.34-2.67-1.93-3.69-4.14-2.53C302.5,305.26,301.75,308,302.3,310.15Z"/><path class="cls-10" d="M310.15,295.68a3.05,3.05,0,0,0,3.21-1.91,3.1,3.1,0,0,0,.05-1.61c-.57-2.61-4.66-4.35-6.48-1.85C305.39,292.41,307.88,295.43,310.15,295.68Z"/><path class="cls-10" d="M323.55,316.93a5.2,5.2,0,0,0,1.49,3.88,2.56,2.56,0,0,0,2.65.81,2.58,2.58,0,0,0,1.27-2.55,3.88,3.88,0,0,0-1.74-3.27,2.52,2.52,0,0,0-3.38.78Z"/><path class="cls-10" d="M310.74,326.15a2.75,2.75,0,0,0,3.4-.11,5.71,5.71,0,0,0,1.8-3.15,5.36,5.36,0,0,0,.18-2.35C315.23,315.9,305.18,321.22,310.74,326.15Z"/><path class="cls-10" d="M322.8,304.47a11.42,11.42,0,0,0,3.39,1,2.33,2.33,0,0,0,1.51,0,1.59,1.59,0,0,0,.74-1,3,3,0,0,0-.72-2.67,4.67,4.67,0,0,0-2.49-1.36c-.82-.18-3.69-.27-4.3.49C320,302.12,321.86,303.94,322.8,304.47Z"/><path class="cls-10" d="M337.24,306.51c.24.88.91,1.89,1.79,1.67a1.8,1.8,0,0,0,.93-.75,10.19,10.19,0,0,0,2-6.15c0-2.29-2.18-4.19-3.89-2C336.7,301,336.69,304.49,337.24,306.51Z"/><path class="cls-10" d="M330.55,286.56a1.41,1.41,0,0,0-2.1.59,2,2,0,0,0,.68,2.28,3.82,3.82,0,0,0,2.39.74,7,7,0,0,0,3.22-.73,2.09,2.09,0,0,0,1.32-1.52,1.64,1.64,0,0,0-1.23-1.55,4.81,4.81,0,0,0-2.11,0l-2.35.32Z"/><path class="cls-10" d="M337.58,322.83a2.07,2.07,0,0,0-.39,1.94,1.49,1.49,0,0,0,1,.71,4,4,0,0,0,3.29-1.11,12.5,12.5,0,0,0,2.85-3.23,4,4,0,0,0,.72-2.11C344.92,313.8,338.2,321.83,337.58,322.83Z"/><path class="cls-11" d="M298,300.43a37.81,37.81,0,0,0-1.33,6.56,19.37,19.37,0,0,0,10.47,18.47,6.93,6.93,0,0,0,3.14.87,3.11,3.11,0,0,0,2.73-1.52c.69-1.35,0-3-.83-4.27a33.2,33.2,0,0,0-3.47-4.63c-1.38-1.54-2.94-3-3.71-4.94-1.16-2.88-.25-6.27,1.57-8.79a25.12,25.12,0,0,1,7.06-6,13,13,0,0,0,3.9-3.28c4.56-6.65-7-7.43-10.94-6.19C301.14,288.44,299.23,295.62,298,300.43Z"/><path class="cls-7" d="M363.48,243.79c-1,9.91,3.35,20.38,11.53,26.05a31.71,31.71,0,0,0,13.26,5A41.19,41.19,0,0,0,417.88,268c6.5-4.56,11.75-11.39,12.93-19.24.79-5.27-.28-10.65-1.84-15.74-2-6.51-5.36-13.32-11.61-16-4-1.74-8.61-1.48-13-1.19l-12.45.84c-7.94.53-14.13,1.94-19.6,7.94A33.83,33.83,0,0,0,363.48,243.79Z"/><path class="cls-8" d="M361.15,241.54c-1,9.91,3.35,20.38,11.53,26.05a31.71,31.71,0,0,0,13.26,5,41.19,41.19,0,0,0,29.61-6.91c6.5-4.56,11.75-11.39,12.93-19.24.79-5.27-.28-10.65-1.84-15.74-2-6.51-5.36-13.32-11.61-16-4-1.74-8.61-1.48-13-1.19l-12.45.84c-7.94.53-14.13,1.94-19.6,7.94A33.83,33.83,0,0,0,361.15,241.54Z"/><path class="cls-9" d="M366,246.39c.91,8.51,6,16.75,13.87,20.22s16.69,2,25,.22a25.32,25.32,0,0,0,7.9-2.61c5.63-3.36,7.85-10.32,9.22-16.73,1.18-5.5,2.07-11.21,1-16.72S418.33,219.93,413,218c-3.56-1.27-7.46-.9-11.22-.51l-15.41,1.61c-7,.73-12.9,1.16-16.34,7.79A34.69,34.69,0,0,0,366,246.39Z"/><path class="cls-10" d="M374.26,245.89a2.26,2.26,0,0,0,.44.94c.66.75,1.89.58,2.78.11a6,6,0,0,0,3.11-4.48c.34-2.67-1.93-3.69-4.14-2.53C374.46,241,373.71,243.78,374.26,245.89Z"/><path class="cls-10" d="M382.11,231.42a3.05,3.05,0,0,0,3.21-1.91,3.1,3.1,0,0,0,.05-1.61c-.57-2.61-4.66-4.35-6.48-1.85C377.35,228.16,379.85,231.17,382.11,231.42Z"/><path class="cls-10" d="M395.52,252.68a5.2,5.2,0,0,0,1.49,3.88,2.56,2.56,0,0,0,2.65.81,2.58,2.58,0,0,0,1.27-2.55,3.88,3.88,0,0,0-1.74-3.27,2.52,2.52,0,0,0-3.38.78Z"/><path class="cls-10" d="M382.7,261.89a2.75,2.75,0,0,0,3.4-.11,5.71,5.71,0,0,0,1.8-3.15,5.36,5.36,0,0,0,.18-2.35C387.19,251.65,377.15,257,382.7,261.89Z"/><path class="cls-10" d="M394.77,240.21a11.42,11.42,0,0,0,3.39,1,2.33,2.33,0,0,0,1.51,0,1.59,1.59,0,0,0,.74-1,3,3,0,0,0-.72-2.67,4.67,4.67,0,0,0-2.49-1.36c-.82-.18-3.69-.27-4.3.49C391.92,237.87,393.82,239.69,394.77,240.21Z"/><path class="cls-10" d="M409.2,242.26c.24.88.91,1.89,1.79,1.67a1.8,1.8,0,0,0,.93-.75,10.19,10.19,0,0,0,2-6.15c0-2.29-2.18-4.19-3.89-2C408.67,236.77,408.65,240.24,409.2,242.26Z"/><path class="cls-10" d="M402.52,222.3a1.41,1.41,0,0,0-2.1.59,2,2,0,0,0,.68,2.28,3.82,3.82,0,0,0,2.39.74,7,7,0,0,0,3.22-.73,2.09,2.09,0,0,0,1.32-1.52,1.64,1.64,0,0,0-1.23-1.55,4.81,4.81,0,0,0-2.11,0l-2.35.32Z"/><path class="cls-10" d="M409.54,258.58a2.07,2.07,0,0,0-.39,1.94,1.49,1.49,0,0,0,1,.71,4,4,0,0,0,3.29-1.11,12.5,12.5,0,0,0,2.85-3.23,4,4,0,0,0,.72-2.11C416.89,249.55,410.16,257.57,409.54,258.58Z"/><path class="cls-11" d="M369.92,236.17a37.8,37.8,0,0,0-1.33,6.56,19.36,19.36,0,0,0,10.47,18.47,6.93,6.93,0,0,0,3.14.87,3.11,3.11,0,0,0,2.73-1.52c.69-1.35,0-3-.83-4.27a33.19,33.19,0,0,0-3.47-4.63c-1.38-1.54-2.94-3-3.71-4.94-1.16-2.88-.25-6.27,1.57-8.79a25.12,25.12,0,0,1,7.06-6,13,13,0,0,0,3.9-3.28c4.56-6.65-7-7.43-10.94-6.19C373.1,224.18,371.19,231.36,369.92,236.17Z"/><path class="cls-12" d="M279.44,245.62c-.27,2.16,1.23,4.1,1.87,6.19,1.69,5.49-2.7,10.91-3.51,16.6-.72,5.07,1.44,10.35,0,15.28-1.67,5.85-7.75,9.26-10.79,14.52A13.77,13.77,0,0,0,266.9,312c2.53,4.12,8,6.39,12.53,4.81,3.34-1.16,5.79-4,7.63-7.07a37.05,37.05,0,0,0,5.35-19.09c0-3.09-.32-6.44,1.41-9,1.44-2.15,4-3.24,6.54-3.84a26.68,26.68,0,0,1,10.76-.32c2.74.48,5.52,1.4,8.25.82,3.64-.77,6.2-4,8.09-7.19,1.51-2.55,2.78-5.88,1.1-8.32-2.28-3.3-7.31-1.86-11.3-2.24a11,11,0,0,1-6.36-2.83,3.08,3.08,0,0,1-1.21-2.22,2.72,2.72,0,0,1,1.06-1.85c2.13-1.84,5.29-1.84,8-1.26s5.45,1.66,8.26,1.63a10.67,10.67,0,0,0,8.29-17.24,8.77,8.77,0,0,0-4.29-3.05c-6.88-2.06-13.41,6.19-20.47,4.92-2.8-.51-5.08-2.44-7.47-4a31.26,31.26,0,0,0-13.55-4.86c-1.22-.14-3.63,0-4.37,1.25-1.44,2.34,1.33,2.4,1.66,4.25C287.67,240,280,241,279.44,245.62Z"/><path class="cls-13" d="M256.32,328.6a25.05,25.05,0,0,0-7.73-.4c-2.56.42-5.1,1.89-6.07,4.29a3.53,3.53,0,0,0-.18,2.43c.62,1.82,2.9,2.3,4.78,2.69A29.33,29.33,0,0,1,261.28,345a8.46,8.46,0,0,1,2.22,3c1.61,4.14-2.63,9.18-.38,13,.48.81,1.2,1.46,1.63,2.29a7.06,7.06,0,0,1,.46,3.73,57,57,0,0,1-1.24,8.53,21.55,21.55,0,0,0-.86,6,5.85,5.85,0,0,0,2.88,5,5.34,5.34,0,0,0,5.54-.91,10.31,10.31,0,0,0,3.06-5,24.86,24.86,0,0,0,.9-9.8c-.26-2.81-.86-5.73.09-8.38a7.56,7.56,0,0,1,12.67-2.61c.68.74,1.22,1.61,2,2.28a6.94,6.94,0,0,0,6.76,1,19.69,19.69,0,0,0,6-3.82,6.34,6.34,0,0,0,2.15-2.57c.78-2.21-1.12-4.57-3.3-5.45s-4.62-.8-6.9-1.35a4.81,4.81,0,0,1-2.28-1.09c-1.89-1.84-.53-5.12,1.41-6.91s4.5-3.23,5.27-5.75c1.14-3.73-2.12-6.89-5.42-7.79-3.45-.95-5.7.28-8.85,1.28C276.53,332.29,265,329.89,256.32,328.6Z"/><path class="cls-13" d="M222.26,409.88a43.05,43.05,0,0,0,8.8-1.54l25.12-6.22a6.38,6.38,0,0,1,3-.25,4.34,4.34,0,0,1,2.93,3.77,12.73,12.73,0,0,1-.7,5l-2.14,7.64c-1.06,3.77-2.52,8-6.15,9.49-3.12,1.27-6.68-.05-9.6-1.75s-5.74-3.83-9.08-4.28c-4.1-.56-8.08,1.52-12.19,1.9-7.67.7-14.51-4.43-20.49-9.28-3.48-2.83-8.67-7.42-7.23-12.44C204.56,401.38,212.08,410.24,222.26,409.88Z"/><path class="cls-13" d="M375.69,287.72c-1.63,3.37-.77,7.35,0,11,1.86,8.37,3.28,17.09,1.51,25.48s-7.38,16.45-15.6,18.89c-3.69,1.09-7.6,1-11.44,1.29s-7.84,1-10.81,3.48-4.5,7-2.47,10.27c1.29,2.08,3.66,3.22,5.28,5.06,3.15,3.57,2.85,8.88,3,13.64s1.6,10.38,6.11,11.92c4.93,1.69,10-2.94,11.62-7.88s1.32-10.38,3-15.32c3.12-9.33,14-15.33,23.52-13,4.16,1,7.94,3.35,12.14,4.16,5.26,1,10.66-.43,16-.52,6.63-.12,14.37,1.47,19-3.28-5.63-4.17-12.6-6-18.79-9.32s-12-8.9-12.14-15.91c-.06-4.69,2.53-9.05,5.74-12.47s7.1-6.13,10.51-9.36a46.72,46.72,0,0,0,8.63-11.14c2-3.64,3.55-8.19,1.6-11.88s-6.63-5-10.7-4.39S413.7,281.17,410,283s-7.79,3.33-11.84,2.64C391.3,284.43,380.11,278.6,375.69,287.72Z"/><path class="cls-13" d="M442.07,418.31c-3.23,3.84-8.09,5.91-12.86,7.48a104.83,104.83,0,0,1-25.76,5.06c-6.67.46-13.46.28-19.93,2s-12.78,5.74-15.12,12c-.83,2.23-1,5,.55,6.78,2.28,2.57,6.43,1.53,9.67.36,7-2.55,14.71-4.76,21.93-2.79,6.66,1.82,11.9,6.92,18.22,9.7,3.42,1.51,7.39,2.5,9.56,5.54,2.5,3.5,1.65,8.34,3,12.41,2.29,6.74,10.21,9.93,17.33,10a20,20,0,0,0,10.61-2.43c3.15-1.9,5.55-5.29,5.55-9,0-7-7.69-11.13-11.4-17.06-3-4.85-3.3-11-2-16.61s4.06-10.68,6.78-15.72l10.93-20.24c3.58-6.63,6.75-9.64,13.46-12.67,7.63-3.44,5.42-10.19-1.4-13.72-11.47-5.95-23.26,9-28.66,17.14C448.13,403.32,447.22,412.18,442.07,418.31Z"/><path class="cls-13" d="M443.23,257.72c1.51,2.29,4.53,2.91,7.22,3.49,5.59,1.2,11.78,3.75,13.53,9.2,2,6.38-2.72,14.76,2.13,19.39,4.55,4.34,12.3.13,18.26,2.13,7.44,2.49,8.85,13.15,15.7,17,1.43.79,3.46,1.13,4.5-.13s.18-3.43-.84-4.89c-4.33-6.28-9.52-12.09-12.43-19.14s-3-16,2.22-21.52c4.53-4.8,11.75-5.88,17.13-9.7a7.12,7.12,0,0,0,3.21-4.24c.62-3.49-3.41-6.34-6.94-6s-6.53,2.59-9.44,4.61c-6,4.18-13.52,7.63-20.58,5.59-5.06-1.46-8.93-5.45-12.54-9.29l-7.49-8c-3.84-4.08-11.36-8.23-14.13-.95C440.94,240,440.59,253.72,443.23,257.72Z"/><path class="cls-13" d="M429.42,145.14c1.74,3.27,2.45,7,4.19,10.28,1.54,2.89,3.85,5.31,5.42,8.18a22.22,22.22,0,0,1,1.33,16.93A34.68,34.68,0,0,1,431,195c-3.35,3.26-7.58,7.14-6.44,11.68,1.06,4.24,6.76,5.92,10.72,4.09s6.32-6,7.65-10.17,1.91-8.57,3.66-12.57,4.65-7.5,7.5-10.89a19.67,19.67,0,0,1,5.1-4.77c3.2-1.81,7.09-1.67,10.72-2.25s7.63-2.43,8.47-6c.64-2.7-.84-5.56-3-7.26a17.46,17.46,0,0,0-7.67-3,56.13,56.13,0,0,0-14.72-.78,13.14,13.14,0,0,1-4.76-.14c-2.74-.81-4.46-3.42-6.36-5.56-3.92-4.41-10.76-8.51-16.81-8C425.89,141.56,428.26,143,429.42,145.14Z"/><path class="cls-13" d="M340.58,163.72a26.74,26.74,0,0,1,3,8.11c2.05,8,4.06,16.75.78,24.35-1.14,2.65-2.89,5-3.95,7.7s-1.32,6,.4,8.28c2.44,3.29,7.48,3.06,11.33,1.63s7.56-3.76,11.66-3.57c2.52.11,5,1.19,7.48,1s5.1-2.79,4-5a4.78,4.78,0,0,0-3.24-2.07c-3.76-1-7.89-1-11.21-3-4.16-2.52-6-7.64-6.55-12.47s-.18-9.79-1.34-14.52c-.82-3.36-2.39-6.5-3.17-9.86s-.61-7.24,1.67-9.84,5.65-3.19,8.62-4.58,5.87-4.46,4.84-7.58c-.77-2.33-3.42-3.5-5.87-3.74-6.84-.68-13.41,3.66-20.26,3.14-3.11-.23-6.08-1.46-9.19-1.69a14.61,14.61,0,0,0-8.41,1.95c-5.55,3.25,3.12,9,5.21,12.85C330,161.28,336.54,157.51,340.58,163.72Z"/><path class="cls-13" d="M538.34,422.33c1,2.81,1.53,5.86,3.07,8.44s4.59,4.63,7.45,3.73a7.49,7.49,0,0,0,3.06-2.11,18.24,18.24,0,0,0,4.82-14.89c-.7-5-3.53-9.72-3.58-14.81,0-3.35,1.15-6.59,1.56-9.92s-.19-7.15-2.89-9.13c-2.05,3.68-4.16,7.44-7.29,10.25s-7.54,4.58-11.61,3.5c-2.44-.64-4.54-2.23-7-2.85-6-1.54-15.16,0-20.48,3.18-6.05,3.64-6,7,1.51,7.17C519.61,405.22,533.47,409.11,538.34,422.33Z"/><path class="cls-13" d="M321,498.27c-1.06,2.43-2.34,5-1.95,7.58.62,4.14,5,6.47,8.82,8.15l18.91,8.28c2.5,1.09,5.14,2.21,7.85,1.93s5.43-2.51,5.21-5.23a6.77,6.77,0,0,0-1.93-3.76c-4.36-5-10.88-7.83-14.64-13.26a24.18,24.18,0,0,1-3.79-11.64,39.51,39.51,0,0,1,4.39-21.89c1.87-3.53,4.27-6.78,5.86-10.44,2.56-5.89,2.86-12.47,3.13-18.88.07-1.72.12-3.56-.77-5-1.51-2.53-5-2.93-7.91-2.72-7.25.53-15.1,3.4-22,5.82-7.1,2.51-7.48,6.76-4.21,13.1C325.75,465.33,327.95,482.35,321,498.27Z"/><path class="cls-14" d="M196.48,265.6c-.64,7-.78,14-2.52,20.76-1.45,5.66-4,11-5.71,16.55a61.43,61.43,0,0,0-2.77,17.31c-.07,4.79,1.41,10.77,6.11,11.7,3.21.63,6.41-1.69,7.87-4.62s1.58-6.31,1.67-9.58l.8-28a77,77,0,0,1,1.45-15.2,77,77,0,0,1,4.93-13.43c1.36-3.1,2.76-6.26,5-8.77,5.28-5.82,13.89-6.85,21-10.16a34.23,34.23,0,0,0,19.32-28.56c.09-1.67-.34-3.84-2-4.11a3.14,3.14,0,0,0-1.83.42c-5.86,2.87-8,9.65-12.41,14-5.07,4.93-12.59,6.65-19.06,9C203.69,238.2,197.85,250.73,196.48,265.6Z"/><path class="cls-14" d="M268.37,178.53c1.65-3.28,1.75-7.11,3-10.58,2.09-6.06,7.35-10.54,13-13.5s11.93-4.66,17.87-7.08c3.3-1.35,6.59-3,9-5.62a2.09,2.09,0,0,0,.73-1.92c-.3-.89-1.49-1-2.42-1-6.28.4-12.38,2.14-18.4,4-5.12,1.54-10.39,3.24-14.41,6.77s-6.53,8.86-8.79,13.9c-1.71,3.81-6.36,10.37-6.18,14.6C262,183,266.25,182,268.37,178.53Z"/><path class="cls-14" d="M226.11,453.92c4.4,3.39,6.27,9.11,7.3,14.57.49,2.57.87,5.24,2.21,7.49s4,4,6.51,3.39c3.23-.74,4.66-4.65,4.47-7.95s-1.45-6.52-1.25-9.83c.31-5.29,4.24-9.67,8.53-12.77s9.17-5.44,12.95-9.16c1.54-1.52,2.93-3.39,3.08-5.55s-1.42-4.53-3.58-4.55-3.6,1.94-5,3.55a23.84,23.84,0,0,1-16.16,8.24c-7.8.6-15.91-2.49-23.59,0C212.31,444.32,222.18,450.9,226.11,453.92Z"/><path class="cls-13" d="M336.61,224.3a9,9,0,0,0,5.72,6.41,2,2,0,0,0,1.52-.2,2,2,0,0,0,.71-2.7,2.24,2.24,0,0,0-1.18-.91l-.27-.11.47.2a7,7,0,0,1-1.52-.89l.4.31a7.4,7.4,0,0,1-1.25-1.25l.31.4a7.26,7.26,0,0,1-.93-1.59l.2.47a7,7,0,0,1-.37-1.19,2,2,0,0,0-3.8,1Z"/><path class="cls-13" d="M349.8,225.34l-.88,4.23a2.1,2.1,0,0,0,.2,1.52,2,2,0,0,0,2.7.71,2,2,0,0,0,.91-1.18l.88-4.23a2.1,2.1,0,0,0-.2-1.52,2,2,0,0,0-2.7-.71,2,2,0,0,0-.91,1.18Z"/><path class="cls-13" d="M348,239.72l-.43.84a1.47,1.47,0,0,0-.23.73,2,2,0,0,0,.94,2l.47.2a2,2,0,0,0,1,0l.47-.2a2,2,0,0,0,.71-.71l.43-.84a1.47,1.47,0,0,0,.23-.73,2,2,0,0,0-.94-2l-.47-.2a2,2,0,0,0-1,0l-.47.2a2,2,0,0,0-.71.71Z"/><path class="cls-13" d="M342.4,244.35a31.65,31.65,0,0,0-2.7,7.26,2,2,0,1,0,3.8,1,29.53,29.53,0,0,1,1-3.41q.15-.41.31-.82A3.12,3.12,0,0,0,345,248l-.05.13L345,248q.37-.83.78-1.63a2,2,0,1,0-3.41-2Z"/><path class="cls-13" d="M337.34,268.91l5.94.76a2,2,0,0,0,1.39-.58,2,2,0,0,0,0-2.79l-.4-.31a2,2,0,0,0-1-.27l-5.94-.76a2,2,0,0,0-1.4.58,2,2,0,0,0,0,2.79l.4.31a2,2,0,0,0,1,.27Z"/><path class="cls-13" d="M360.5,270.3l4.67,2.94a2,2,0,0,0,2.7-.71,2,2,0,0,0-.71-2.7l-4.67-2.94a2,2,0,0,0-2.7.71,2,2,0,0,0,.71,2.7Z"/><path class="cls-13" d="M261.65,214.87l.52,4.65a2.14,2.14,0,0,0,.58,1.39,2,2,0,0,0,2.79,0,1.91,1.91,0,0,0,.58-1.39l-.52-4.65a2.14,2.14,0,0,0-.58-1.39,2,2,0,0,0-2.79,0,1.91,1.91,0,0,0-.58,1.39Z"/><path class="cls-13" d="M262.52,231.37l-.46,3.81a2,2,0,0,0,.58,1.39,2,2,0,0,0,2.79,0l.31-.4a2,2,0,0,0,.27-1l.46-3.81a2,2,0,0,0-.58-1.39,2,2,0,0,0-2.79,0l-.31.4a2,2,0,0,0-.27,1Z"/><path class="cls-13" d="M268.94,247.88l.44,5.5a2.11,2.11,0,0,0,.58,1.39,2,2,0,0,0,2.79,0,1.94,1.94,0,0,0,.58-1.39l-.44-5.5a2.11,2.11,0,0,0-.58-1.4,2,2,0,0,0-2.79,0,1.94,1.94,0,0,0-.58,1.4Z"/><path class="cls-13" d="M263.38,200a17.31,17.31,0,0,0,.92,5.18,2.1,2.1,0,0,0,.91,1.18,2,2,0,0,0,2.7-.71,2,2,0,0,0,.2-1.52,15.65,15.65,0,0,1-.72-3l.07.52a16,16,0,0,1-.13-1.67,2.06,2.06,0,0,0-.58-1.4,2,2,0,0,0-3.37,1.4Z"/><path class="cls-13" d="M219.7,330.1l4.2-3.43a2,2,0,0,0,.58-1.39,2,2,0,0,0-.58-1.39,2,2,0,0,0-1.39-.58l-.52.07a2,2,0,0,0-.87.51l-4.2,3.43a2,2,0,0,0-.58,1.39,2,2,0,0,0,.58,1.39,2,2,0,0,0,1.4.58l.52-.07a2,2,0,0,0,.87-.51Z"/><path class="cls-13" d="M241.37,325l3-1.58a2,2,0,0,0,.91-1.18,1.49,1.49,0,0,0,0-.79,1.47,1.47,0,0,0-.23-.73,2,2,0,0,0-1.18-.91,2.14,2.14,0,0,0-1.52.2l-3,1.58a2,2,0,0,0-.91,1.18,1.5,1.5,0,0,0,0,.79,1.47,1.47,0,0,0,.23.73,2,2,0,0,0,1.18.91,2.14,2.14,0,0,0,1.52-.2Z"/><path class="cls-13" d="M232.19,334.83a9.06,9.06,0,0,0,4.28,2.59,2,2,0,0,0,1.52-.2,2,2,0,0,0,.71-2.7,2.06,2.06,0,0,0-1.18-.91,7.39,7.39,0,0,1-.89-.31l.47.2a7.34,7.34,0,0,1-1.58-.92l.4.31A7.31,7.31,0,0,1,235,332a2,2,0,0,0-2.79,0,2,2,0,0,0-.58,1.39,2.14,2.14,0,0,0,.58,1.4Z"/><path class="cls-13" d="M252.06,324.15a8.4,8.4,0,0,0,6.19,1,2,2,0,0,0,1.38-2.43,2,2,0,0,0-2.43-1.38l-.54.1.52-.07a6.56,6.56,0,0,1-1.64,0l.52.07a6.6,6.6,0,0,1-1.66-.45l.47.2a6.63,6.63,0,0,1-.83-.43,2,2,0,0,0-2,3.41Z"/><path class="cls-13" d="M306.3,345.4l1.27,1.27a2,2,0,0,0,2.79,0l.31-.4a2,2,0,0,0,.27-1l-.07-.52a2,2,0,0,0-.51-.87l-1.27-1.27a2,2,0,0,0-2.79,0l-.31.4a2,2,0,0,0-.27,1l.07.52a2,2,0,0,0,.51.87Z"/><path class="cls-13" d="M319.45,348.88l2.54.43a1.5,1.5,0,0,0,.79,0,1.47,1.47,0,0,0,.73-.23,2.21,2.21,0,0,0,.91-1.18,2,2,0,0,0-.2-1.52l-.31-.4a2,2,0,0,0-.87-.51l-2.54-.43a1.49,1.49,0,0,0-.79,0,1.47,1.47,0,0,0-.73.23,2.21,2.21,0,0,0-.91,1.18,2,2,0,0,0,.2,1.52l.31.4a2,2,0,0,0,.87.51Z"/><path class="cls-13" d="M324.22,349.38l-1.65,2.57a1.47,1.47,0,0,0-.23.73,2,2,0,0,0,.94,2,2,2,0,0,0,1.52.2,2.14,2.14,0,0,0,1.18-.91l1.65-2.57a1.47,1.47,0,0,0,.23-.73,2,2,0,0,0-.94-2,2,2,0,0,0-1.52-.2,2.14,2.14,0,0,0-1.18.91Z"/><path class="cls-13" d="M311.24,357.13l-.9,7.19a2,2,0,0,0,.58,1.4,2,2,0,0,0,2.79,0,2.31,2.31,0,0,0,.58-1.4l.9-7.19a2,2,0,0,0-.58-1.39,2,2,0,0,0-2.79,0,2.31,2.31,0,0,0-.58,1.39Z"/><path class="cls-13" d="M324.21,363.76c2.54,0,2.54-3.95,0-3.95s-2.54,3.95,0,3.95Z"/><path class="cls-13" d="M322.33,363.15l.43,1.27a2.21,2.21,0,0,0,.91,1.18,1.47,1.47,0,0,0,.73.23,1.49,1.49,0,0,0,.79,0l.47-.2a2,2,0,0,0,.71-.71l.2-.47a2,2,0,0,0,0-1l-.43-1.27a2.21,2.21,0,0,0-.91-1.18,1.47,1.47,0,0,0-.73-.23,1.49,1.49,0,0,0-.79,0l-.47.2a2,2,0,0,0-.71.71l-.2.47a2,2,0,0,0,0,1Z"/><path class="cls-13" d="M268.51,416.83l.45,3.38a2.2,2.2,0,0,0,.58,1.39,2,2,0,0,0,2.79,0l.31-.4a2,2,0,0,0,.27-1l-.45-3.38a2.2,2.2,0,0,0-.58-1.4,2,2,0,0,0-2.79,0l-.31.4a2,2,0,0,0-.27,1Z"/><path class="cls-13" d="M277.48,427l3.41,1.65a1.47,1.47,0,0,0,.73.23,1.49,1.49,0,0,0,.79,0,2,2,0,0,0,1.18-.91,2,2,0,0,0,.2-1.52,2,2,0,0,0-.91-1.18l-3.41-1.65a1.47,1.47,0,0,0-.73-.23,1.49,1.49,0,0,0-.79,0,2,2,0,0,0-1.18.91,2,2,0,0,0-.2,1.52,2,2,0,0,0,.91,1.18Z"/><path class="cls-13" d="M291,435.79l-2.27,6.3a2,2,0,0,0,1.38,2.43,2,2,0,0,0,2.43-1.38l2.27-6.3a2,2,0,0,0-1.38-2.43,2,2,0,0,0-2.43,1.38Z"/><path class="cls-13" d="M293.6,450a11.43,11.43,0,0,0,4.67,2.66,2,2,0,0,0,1.52-.2,2,2,0,0,0,.71-2.7,2.07,2.07,0,0,0-1.18-.91,9.61,9.61,0,0,1-1.09-.38l.47.2a9.46,9.46,0,0,1-2-1.19l.4.31q-.35-.28-.68-.58a2.06,2.06,0,0,0-1.39-.58,2,2,0,0,0-1.39.58,2,2,0,0,0-.58,1.39,2,2,0,0,0,.58,1.39Z"/><path class="cls-13" d="M310.17,450.89l1.71,3a2,2,0,0,0,1.18.91,1.49,1.49,0,0,0,.79,0,1.47,1.47,0,0,0,.73-.23,2,2,0,0,0,.91-1.18,2.07,2.07,0,0,0-.2-1.52l-1.71-3a2,2,0,0,0-1.18-.91,1.49,1.49,0,0,0-.79,0,1.47,1.47,0,0,0-.73.23,2,2,0,0,0-.91,1.18,2.07,2.07,0,0,0,.2,1.52Z"/><path class="cls-13" d="M346.71,426.64a43.39,43.39,0,0,1,6.88-6.68,2,2,0,0,0,.58-1.4,2,2,0,0,0-.58-1.39,2,2,0,0,0-1.4-.58,2.32,2.32,0,0,0-1.39.58,43.39,43.39,0,0,0-6.88,6.68,2.12,2.12,0,0,0-.58,1.39,2,2,0,0,0,3.37,1.39Z"/><path class="cls-13" d="M359,434.73l3.41-3.79a2.08,2.08,0,0,0,.58-1.39,2,2,0,0,0-.58-1.4,2,2,0,0,0-2.79,0l-3.41,3.79a2.08,2.08,0,0,0-.58,1.39,2,2,0,0,0,.58,1.39,2,2,0,0,0,2.79,0Z"/><path class="cls-13" d="M356.27,447.87l.42.42a2,2,0,0,0,2.79,0l.31-.4a2,2,0,0,0,.27-1l-.07-.52a2,2,0,0,0-.51-.87l-.42-.42a2,2,0,0,0-2.79,0l-.31.4a2,2,0,0,0-.27,1l.07.52a2,2,0,0,0,.51.87Z"/><path class="cls-13" d="M355.5,462.31l1.65,3.83a2,2,0,0,0,1.18.91,2,2,0,0,0,1.52-.2,2,2,0,0,0,.91-1.18l.07-.52a2,2,0,0,0-.27-1l-1.65-3.83a2,2,0,0,0-1.18-.91,2,2,0,0,0-1.52.2,2,2,0,0,0-.91,1.18l-.07.52a2,2,0,0,0,.27,1Z"/><path class="cls-13" d="M370.69,461.93l2.12.42a1.49,1.49,0,0,0,.79,0,1.47,1.47,0,0,0,.73-.23,2.21,2.21,0,0,0,.91-1.18l.07-.52a2,2,0,0,0-1.45-1.9l-2.12-.42a1.49,1.49,0,0,0-.79,0,1.47,1.47,0,0,0-.73.23,2.21,2.21,0,0,0-.91,1.18l-.07.52a2,2,0,0,0,1.45,1.9Z"/><path class="cls-13" d="M307.38,513.6l4.26-1.19a2,2,0,0,0,1.18-.91,2,2,0,0,0-.71-2.7,2,2,0,0,0-1.52-.2l-4.26,1.19a2,2,0,0,0-1.18.91,2,2,0,0,0,.71,2.7,2,2,0,0,0,1.52.2Z"/><path class="cls-13" d="M323.23,519.29l3.85,2.47a2,2,0,0,0,2.7-.71,2,2,0,0,0,.2-1.52,2.14,2.14,0,0,0-.91-1.18l-3.85-2.47a2,2,0,0,0-2.7.71,2,2,0,0,0-.2,1.52,2.14,2.14,0,0,0,.91,1.18Z"/><path class="cls-13" d="M430.64,495.59v5.08a2,2,0,1,0,3.95,0v-5.08a2,2,0,1,0-3.95,0Z"/><path class="cls-13" d="M436.7,505.74l1.69.85a1.47,1.47,0,0,0,.73.23,2,2,0,0,0,2-.94l.2-.47a2,2,0,0,0,0-1l-.2-.47a2,2,0,0,0-.71-.71l-1.69-.85a1.47,1.47,0,0,0-.73-.23,2,2,0,0,0-2,.94l-.2.47a2,2,0,0,0,0,1l.2.47a2,2,0,0,0,.71.71Z"/><path class="cls-13" d="M450.07,500.44a4.05,4.05,0,0,0,.62-.18,7.49,7.49,0,0,0,1-.46,7.32,7.32,0,0,0,.89-.64,4.15,4.15,0,0,0,.49-.45,2,2,0,0,0,0-2.79,2,2,0,0,0-1.39-.58l-.52.07a2,2,0,0,0-.87.51,4.16,4.16,0,0,1-.51.47l.4-.31a4.18,4.18,0,0,1-.9.52l.47-.2a4.14,4.14,0,0,1-.73.23,2.21,2.21,0,0,0-1.18.91,1.47,1.47,0,0,0-.23.73,1.49,1.49,0,0,0,0,.79,2,2,0,0,0,.91,1.18l.47.2a2,2,0,0,0,1,0Z"/><path class="cls-13" d="M418.51,469.47a12.34,12.34,0,0,0,1.78,1.69,14.38,14.38,0,0,0,2.43,1.58,2.1,2.1,0,0,0,1.52.2,2,2,0,0,0,1.18-.91,2,2,0,0,0,.2-1.52,2,2,0,0,0-.91-1.18,12.33,12.33,0,0,1-2-1.27l.4.31a12.32,12.32,0,0,1-1.78-1.69,2,2,0,0,0-3.37,1.39l.07.52a2,2,0,0,0,.51.87Z"/><path class="cls-13" d="M465.49,451.13a4,4,0,0,0-1.28,1.3,3.58,3.58,0,0,0-.48,1.28,4.66,4.66,0,0,0-.09.93,4.77,4.77,0,0,0,.13.92,4.32,4.32,0,0,0,.34.85,3.89,3.89,0,0,0,.55.76,2.19,2.19,0,0,0,1.39.58,2,2,0,0,0,1.39-.58,2,2,0,0,0,.58-1.39l-.07-.52a2,2,0,0,0-.51-.87l-.07-.09.31.4a1.89,1.89,0,0,1-.22-.38l.2.47a2.09,2.09,0,0,1-.14-.49l.07.52a2.29,2.29,0,0,1,0-.59l-.07.52a2.29,2.29,0,0,1,.16-.57l-.2.47a2.11,2.11,0,0,1,.26-.44l-.31.4a1.9,1.9,0,0,1,.31-.31l-.4.31.12-.08a2.08,2.08,0,0,0,.91-1.18,1.49,1.49,0,0,0,0-.79,1.47,1.47,0,0,0-.23-.73,2,2,0,0,0-2.7-.71Z"/><path class="cls-13" d="M471.39,474.33l-1.3,7.19a2.13,2.13,0,0,0,.2,1.52,2,2,0,0,0,3.61-.47l1.3-7.19a2.13,2.13,0,0,0-.2-1.52,2,2,0,0,0-3.61.47Z"/><path class="cls-13" d="M484.43,478.69l1.69-.85a1.9,1.9,0,0,0,.94-2,1.47,1.47,0,0,0-.23-.73l-.31-.4a2,2,0,0,0-.87-.51l-.52-.07a2,2,0,0,0-1,.27l-1.69.85a1.9,1.9,0,0,0-.94,2,1.47,1.47,0,0,0,.23.73l.31.4a2,2,0,0,0,.87.51l.52.07a2,2,0,0,0,1-.27Z"/><path class="cls-13" d="M495.7,478.51h1.69a2,2,0,0,0,2-2l-.07-.52a2,2,0,0,0-.51-.87l-.4-.31a2,2,0,0,0-1-.27H495.7a2,2,0,0,0-2,2l.07.52a2,2,0,0,0,.51.87l.4.31a2,2,0,0,0,1,.27Z"/><path class="cls-13" d="M459.38,383.48l3-2.54a2.2,2.2,0,0,0,.58-1.39,2,2,0,0,0-.58-1.39,2,2,0,0,0-1.39-.58l-.52.07a2,2,0,0,0-.87.51l-3,2.54a2.19,2.19,0,0,0-.58,1.39,2,2,0,0,0,.58,1.39,2,2,0,0,0,1.4.58l.52-.07a2,2,0,0,0,.87-.51Z"/><path class="cls-13" d="M470.49,367.39q.22-.64.48-1.27l-.2.47a19.83,19.83,0,0,1,2.12-3.78,2,2,0,0,0,.2-1.52,2,2,0,0,0-.91-1.18,2,2,0,0,0-1.52-.2,2.24,2.24,0,0,0-1.18.91,21.51,21.51,0,0,0-2.8,5.51,2,2,0,1,0,3.8,1Z"/><path class="cls-13" d="M446.71,371.81l3.8-1.3a2.1,2.1,0,0,0,1.18-.91,2,2,0,0,0-.71-2.7,2,2,0,0,0-1.52-.2l-3.8,1.3a2.1,2.1,0,0,0-1.18.91,2,2,0,0,0,.71,2.7,2,2,0,0,0,1.52.2Z"/><path class="cls-13" d="M456.89,368.57l1.27-.85a1.9,1.9,0,0,0,.94-2,1.47,1.47,0,0,0-.23-.73l-.31-.4a2,2,0,0,0-.87-.51l-.52-.07a2,2,0,0,0-1,.27l-1.27.85a1.9,1.9,0,0,0-.94,2,1.47,1.47,0,0,0,.23.73l.31.4a2,2,0,0,0,.87.51l.52.07a2,2,0,0,0,1-.27Z"/><path class="cls-13" d="M514.42,317.92l6.78-1.66a2,2,0,0,0,1.38-2.43,2,2,0,0,0-2.43-1.38l-6.78,1.66a2,2,0,0,0-1.38,2.43,2,2,0,0,0,2.43,1.38Z"/><path class="cls-13" d="M540,315.21l.11.08-.4-.31a6.68,6.68,0,0,1,1.16,1.17l-.31-.4a6.87,6.87,0,0,1,.86,1.48l-.2-.47a6.64,6.64,0,0,1,.43,1.52,2,2,0,0,0,.91,1.18,2,2,0,0,0,2.7-.71l.2-.47a2,2,0,0,0,0-1,8,8,0,0,0-1.07-2.87,9.37,9.37,0,0,0-1-1.38A9,9,0,0,0,542,311.8a2,2,0,0,0-1.52-.2,2,2,0,0,0-1.18.91,2,2,0,0,0-.2,1.52l.2.47a2,2,0,0,0,.71.71Z"/><path class="cls-13" d="M548.77,329.19v1.69a2,2,0,0,0,2,2l.52-.07a2,2,0,0,0,.87-.51l.31-.4a2,2,0,0,0,.27-1v-1.69a2,2,0,0,0-2-2l-.52.07a2,2,0,0,0-.87.51l-.31.4a2,2,0,0,0-.27,1Z"/><path class="cls-13" d="M556.89,303.46q.2.85.32,1.71l-.07-.52a17.21,17.21,0,0,1,.11,3.37,2,2,0,0,0,3.37,1.39,2.17,2.17,0,0,0,.58-1.39,18.88,18.88,0,0,0-.49-5.61,2,2,0,0,0-2.43-1.38,2,2,0,0,0-1.38,2.43Z"/><path class="cls-13" d="M563.2,323.79l0,.32-.07-.52a11.11,11.11,0,0,1,0,2.87l.07-.52a11.09,11.09,0,0,1-.73,2.67l.2-.47,0,.1a2.17,2.17,0,0,0-.2,1.52,2,2,0,0,0,.91,1.18,2,2,0,0,0,1.52.2,1.9,1.9,0,0,0,1.18-.91,14.67,14.67,0,0,0,.69-1.88,14.1,14.1,0,0,0,.36-2,12.82,12.82,0,0,0-.12-3.61,2,2,0,0,0-.91-1.18,2,2,0,0,0-2.7.71,2.27,2.27,0,0,0-.2,1.52Z"/><path class="cls-13" d="M557.69,350.67l-1.26,5.08a2.06,2.06,0,0,0,.2,1.52,2,2,0,0,0,3.61-.47l1.26-5.08a2.06,2.06,0,0,0-.2-1.52,2,2,0,0,0-3.61.47Z"/><path class="cls-13" d="M557.2,393.55l.52,7.19a2,2,0,0,0,3.95,0l-.52-7.19a2,2,0,1,0-3.95,0Z"/><path class="cls-13" d="M522,233.38a19.65,19.65,0,0,0,7.29-1.4,2.16,2.16,0,0,0,1.18-.91,2,2,0,0,0-.71-2.7,1.91,1.91,0,0,0-1.52-.2,18.35,18.35,0,0,1-4.37,1.17l.52-.07a18.77,18.77,0,0,1-2.39.16,2,2,0,1,0,0,3.95Z"/><path class="cls-13" d="M531.81,221.48l2.53-.88a2.1,2.1,0,0,0,1.18-.91,1.47,1.47,0,0,0,.23-.73,1.49,1.49,0,0,0,0-.79,2,2,0,0,0-.91-1.18,2,2,0,0,0-1.52-.2l-2.53.88a2.1,2.1,0,0,0-1.18.91,1.47,1.47,0,0,0-.23.73,1.5,1.5,0,0,0,0,.79,2,2,0,0,0,.91,1.18,2,2,0,0,0,1.52.2Z"/><path class="cls-13" d="M527.47,203.14a18.67,18.67,0,0,0,5.28,5.06,2,2,0,0,0,2.7-.71,2,2,0,0,0-.71-2.7q-.62-.39-1.21-.84l.4.31a16.37,16.37,0,0,1-2.9-2.89l.31.4-.46-.62a2.12,2.12,0,0,0-1.18-.91,2,2,0,0,0-1.52.2,2,2,0,0,0-.91,1.18,2,2,0,0,0,.2,1.52Z"/><path class="cls-13" d="M543.32,224.28c0,.09,0,.19,0,.28l-.07-.52a6.2,6.2,0,0,1,0,1.56l.07-.52a6.29,6.29,0,0,1-.43,1.58l.2-.47a6.27,6.27,0,0,1-.43.82,2,2,0,0,0,3.41,2,7.52,7.52,0,0,0,1-2.55,9.05,9.05,0,0,0,.17-1.59,9,9,0,0,0-.17-1.62,2,2,0,0,0-.91-1.18,2,2,0,0,0-2.7.71,2.22,2.22,0,0,0-.2,1.52Z"/><path class="cls-13" d="M537.36,233c-.2.6-.5,1.19-.68,1.8.17-.57,0-.06,0,.08l-.15.33q-.2.44-.42.87a27.08,27.08,0,0,1-1.91,3.21,2,2,0,0,0,.71,2.7,2,2,0,0,0,2.7-.71,29,29,0,0,0,3.58-7.23,2,2,0,0,0-1.38-2.43,2,2,0,0,0-2.43,1.38Z"/><path class="cls-13" d="M460.46,146.45a90.75,90.75,0,0,0,10.25,1.87,2,2,0,0,0,2-2,2,2,0,0,0-2-2l-.38,0h-.11l-.4-.06-1.22-.18q-1.17-.18-2.34-.4-2.39-.44-4.74-1a2,2,0,0,0-1,3.8Z"/><path class="cls-13" d="M482.37,162.68l-2.12,5.08a2,2,0,0,0,.2,1.52,2,2,0,0,0,2.7.71l.4-.31a2,2,0,0,0,.51-.87l2.12-5.08a2,2,0,0,0-.2-1.52,2,2,0,0,0-2.7-.71l-.4.31a2,2,0,0,0-.51.87Z"/><path class="cls-15" d="M394.27,252.78c-6.53,2.85-15.15,9.58-19.87,14.91-6.43,7.24-12.66,15.41-13.83,25s4.74,20.69,14.36,21.82c3.51.41,7.09-.5,10.57.08,3.1.52,5.89,2.18,8.95,2.91,8.81,2.11,17.92-4.18,21.95-12.29s4.14-17.55,3.87-26.6-.78-18.36,2.19-26.91a6.33,6.33,0,0,0,.53-2.45C422.45,241.28,399.3,250.58,394.27,252.78Z"/><path class="cls-16" d="M422.45,251.71a6.33,6.33,0,0,0,.53-2.45,3,3,0,0,0-.49-1.53,6,6,0,0,1-.46,2.44c-.89,2.1-2.62,3.71-3.88,5.62-4.42,6.73-2.24,15.69-3.85,23.58-.61,3-1.8,5.91-2.16,9-.38,3.25.16,6.67-1.06,9.7-1.31,3.27-4.41,5.44-7.53,7.08-4.85,2.55-10.7,4.25-15.75,2.12-2.63-1.11-4.94-3.22-7.79-3.42-4-.27-7.21,3.26-11.13,4a8,8,0,0,1-5-.8c2.54,4,6.36,7,11.08,7.51,3.51.41,7.09-.5,10.57.08,3.1.52,5.89,2.18,8.95,2.91,8.81,2.11,17.92-4.18,21.95-12.29s4.14-17.55,3.87-26.6S419.47,260.26,422.45,251.71Z"/><path class="cls-16" d="M382.43,292.09c4.25-12.15,13.14-22,22-31.34a19.35,19.35,0,0,1,3.83-3.35c-.53,1.82-2,3.2-3.3,4.55a82.45,82.45,0,0,0-17,25A35.41,35.41,0,0,0,384.84,298a16.66,16.66,0,0,0,2.66,11c.63.88,1.39,2.07.73,2.93-1,1.29-4.05.45-5.08-.49-1.25-1.15-1.81-3.56-2.16-5.12C379.93,301.64,380.84,296.62,382.43,292.09Z"/><path class="cls-16" d="M404.76,288.7a44,44,0,0,0-12.8,2.39,14.9,14.9,0,0,0-4.16,2c-2.48,1.87-3.53,4.68-4.93,7.31C380.65,289.38,397,285.71,404.76,288.7Z"/><path class="cls-16" d="M402.5,276.94a11.39,11.39,0,0,1,4.46,1c-.37-1.16-1.83-1.48-3-1.61l-7.94-.83a5.22,5.22,0,0,0-3.17.33c-.59.34-1.91,1.58-1,2.29.42.34,2.61-.74,3.16-.86A26.55,26.55,0,0,1,402.5,276.94Z"/><path class="cls-16" d="M375,288.38a19.76,19.76,0,0,0-11.24-1.79c.14-.8,1.14-1.07,1.94-1.1a21.78,21.78,0,0,1,4.82.51c3.33.63,6.76,1.5,9.38,3.65,2.4,2,4.46,5.95,2.9,9-1.63-.22-1.77-4-2.51-5.29A13.29,13.29,0,0,0,375,288.38Z"/><path class="cls-16" d="M388.2,273.77a9.25,9.25,0,0,0-2.07-1.78,13.78,13.78,0,0,0-8.87-2.13.85.85,0,0,1,.53-1,2.47,2.47,0,0,1,1.19-.11,25.42,25.42,0,0,1,5.34.79,12.76,12.76,0,0,1,5.41,3.24c.75.75,3.57,4.91,1.47,5.64C389.91,278.88,388.8,274.49,388.2,273.77Z"/><path class="cls-16" d="M397.39,263.72a8.15,8.15,0,0,0-3.51-2.43l-2-.91c.68-.58,1.71-.15,2.51.27a19.84,19.84,0,0,1,3.44,2,4.42,4.42,0,0,1,1.82,3.37,4.76,4.76,0,0,1-1,2.67C397.64,267.5,398.4,265.17,397.39,263.72Z"/><path class="cls-16" d="M390.33,328.5a8.47,8.47,0,0,0,4,2.77c1.61.38,3.59-.31,4.13-1.88a1.7,1.7,0,0,0,0-1.29c-.52-1.06-2-.85-3.23-.95-2.35-.19-4.12-2.18-5.43-4.14a14.34,14.34,0,0,1-2.44-5.41c-.34-2,.19-6-2.16-7-2.8-1.26-2.87,2.55-2.44,4.15A32.75,32.75,0,0,0,390.33,328.5Z"/><path class="cls-17" d="M386.27,261.67a26.6,26.6,0,0,0-11.68,13.6,9.14,9.14,0,0,0-.61,5.84,5.55,5.55,0,0,0,3.44,3.56,3.85,3.85,0,0,0,2,.18,4.42,4.42,0,0,0,2.66-2.12,8.53,8.53,0,0,0,1.24-5.59c-.15-1.19-.56-2.35-.67-3.54a3.88,3.88,0,0,1,1-3.32c.79-.69,2-.88,2.61-1.74s.46-1.86.81-2.75a5.66,5.66,0,0,1,2.66-2.48,22.34,22.34,0,0,1,5.71-2.67,10.49,10.49,0,0,0,3.79-1.24c1-.74,1.55-2,2.38-2.89,1.83-2.07,4.81-2.59,7.53-3.07s5.71-1.21,7.28-3.48c-1.52-1-3.51-.17-5.24.36-2.22.68-4.56.82-6.81,1.36-3.53.85-5.06,3.37-8,5.1C393.19,258.7,389.55,259.82,386.27,261.67Z"/><path class="cls-15" d="M376.2,320.89c-9.86,2.21-17.89,9.93-22.22,19.06s-5.34,19.52-4.85,29.61a6,6,0,0,0,.68,3,4.17,4.17,0,0,0,3.38,1.7,13.4,13.4,0,0,0,3.87-.64,38.44,38.44,0,0,1,5.39-1.08c4.72-.53,9.49.37,14.24.34a33.28,33.28,0,0,0,22.5-8.68A27.91,27.91,0,0,0,408,342a18.09,18.09,0,0,0-1.49-6.07,14.22,14.22,0,0,0-9.72-7.82c-4.43-1-6.63-1.26-9.76-4.53C384.07,320.44,380.31,320,376.2,320.89Z"/><path class="cls-16" d="M408,342a18.09,18.09,0,0,0-1.49-6.07,14.22,14.22,0,0,0-9.72-7.82c-4.43-1-6.63-1.26-9.76-4.53-3-3.11-6.72-3.58-10.83-2.66a27.58,27.58,0,0,0-6.07,2.14c1.06-.13,2.27-.47,2.67-.5a16.55,16.55,0,0,1,10.12,2.66c1.92,1.28,3.71,3.4,3.22,5.65a2.76,2.76,0,0,0-.15,1.4c.2.63.94.88,1.59,1a13.42,13.42,0,0,0,2.62.2c1.17,0,2.35-.2,3.52-.11,4.29.33,7.63,4.42,8.17,8.69s-1.21,8.55-3.68,12.08a16.72,16.72,0,0,1-4.95,4.92,23.34,23.34,0,0,1-7.55,2.41c-5.52,1.1-11,2.28-16.49,3.63a31.09,31.09,0,0,0-8.6,3.1c-2.29,1.36-4.22,3.27-6.5,4.65a12.4,12.4,0,0,1-2.4,1.13,5.18,5.18,0,0,0,1.47.27,13.4,13.4,0,0,0,3.87-.64,38.44,38.44,0,0,1,5.39-1.08c4.72-.53,9.49.37,14.24.34a33.28,33.28,0,0,0,22.5-8.68A27.91,27.91,0,0,0,408,342Z"/><path class="cls-16" d="M379.06,337.42a36.15,36.15,0,0,0-5.94,4.44,104.53,104.53,0,0,0-12.51,13.59c-2.64,3.35-5.21,6.9-6.28,11-.36,0-.44-.53-.4-.89a13.39,13.39,0,0,1,1.73-4.78c5.76-10.82,14.9-19.45,24.58-27a15.09,15.09,0,0,1,3.77-2.35c2.7-1,5.72-.5,8.56,0a1.48,1.48,0,0,1,.77.31.51.51,0,0,1,0,.74c-1.57,1.24-4.94,1.31-6.91,1.87A32.72,32.72,0,0,0,379.06,337.42Z"/><path class="cls-16" d="M356.09,354.51a7.52,7.52,0,0,1-2.31-2.75,5.34,5.34,0,0,1-.71-3.41c.4.06.45.61.47,1,.07,1.59,1.24,2.9,2.45,3.93a2.76,2.76,0,0,0,1.76.84c.85,0,1.55-.77,2.39-.79a.56.56,0,0,1,.41.13c.52.53-.95,1.76-1.41,1.9A4.23,4.23,0,0,1,356.09,354.51Z"/><path class="cls-16" d="M359.61,341a14.12,14.12,0,0,1-.17-6.42.94.94,0,0,1,.21-.57c.15-.14.45-.14.52.06a17.51,17.51,0,0,0,.33,5.41,5.92,5.92,0,0,0,3.31,4.07c1.78.68,3.78.15,5.55-.55a1.06,1.06,0,0,1,.75-.1.71.71,0,0,1,.29.93c-.94,2.22-3.83,2.33-5.73,1.8A7.5,7.5,0,0,1,359.61,341Z"/><path class="cls-16" d="M371,332.93a4.18,4.18,0,0,1-1.06-1,4.05,4.05,0,0,1-.56-1.65,13.79,13.79,0,0,1-.08-3.91c.18,0,.35.13.37.32a1.48,1.48,0,0,1-.09.54c-.27,1.11.45,2.21,1.16,3.11a13,13,0,0,0,3.87,3.57,2.18,2.18,0,0,0,.77.28,2.86,2.86,0,0,0,1.17-.22,12.16,12.16,0,0,1,3-.57,1.13,1.13,0,0,1,.89.21c.72.73-.66,1.76-1.22,2a2.74,2.74,0,0,1-2.17.1A17.59,17.59,0,0,1,371,332.93Z"/><path class="cls-16" d="M371.71,353.38a29,29,0,0,0,8,4.36c.41.17,1.1.16,1.06-.28a20.92,20.92,0,0,1-6.34-3.5c-2.13-1.72-4-4-4.26-6.77a13.74,13.74,0,0,1,.21-3.29c0,.07-2,1-2.21,1.55a4.1,4.1,0,0,0,.1,2.71A10.93,10.93,0,0,0,371.71,353.38Z"/><path class="cls-16" d="M383.32,345.92c3.09,2.3,7.09,3,10.94,3,.62,0,1.46-.28,1.37-.89-3.4,0-7-.41-9.8-2.29s-4.74-5.48-3.8-8.76a2,2,0,0,0,.12-1.25c-.46-1.14-2.18-.44-2.69.28s-.42,2.3-.27,3.27A10.55,10.55,0,0,0,383.32,345.92Z"/><path class="cls-17" d="M373.41,323.22a9.54,9.54,0,0,0-3,1.29,9.72,9.72,0,0,0-3.69,3.28c-.55,1-.79,2.09-1.38,3a13.55,13.55,0,0,1-3.47,3.19,23,23,0,0,0-6.49,8.73,49.46,49.46,0,0,0-3.11,10.51c-.47,2.32-.85,4.8.07,7a1.08,1.08,0,0,0,.38.53.81.81,0,0,0,1-.3,2.24,2.24,0,0,0,.3-1.11,32.85,32.85,0,0,0,.07-4.67,7.66,7.66,0,0,1,.19-3.06,2.28,2.28,0,0,1,2.34-1.62c.26,0,.5.16.75.2,1.21.21,2.23-1.08,2.3-2.3a10.44,10.44,0,0,0-.84-3.56,3.83,3.83,0,0,1,.28-3.52c1-1.22,2.87-1.07,4.39-.7s3.25.82,4.55-.06a3.42,3.42,0,0,0,1.34-2.9,8.13,8.13,0,0,0-.88-3.19,5.25,5.25,0,0,1-.46-1.26,2.4,2.4,0,0,1,1-2.38,2.32,2.32,0,0,1,2.58.09,11.44,11.44,0,0,1,.9.88,3.85,3.85,0,0,0,6.33-2.62C379,325.91,376.25,322.67,373.41,323.22Z"/><path class="cls-18" d="M393.69,311.38a10,10,0,0,1,4.61-5.43c4.43-2.4,10-1.09,14.47,1.18s8.58,5.45,13.4,6.92c2.44.74,5,1,7.45,1.68a12,12,0,0,1,6.49,3.77,4.28,4.28,0,0,1,1.06,3,5.09,5.09,0,0,1-2.25,3.22c-3.22,2.48-7.17,3.85-10.51,6.15-4.1,2.82-7.2,7-11.51,9.49a22.73,22.73,0,0,1-15.35,2.26c-3.91-.7-7.88-2.35-10.16-5.6-3.15-4.48-2-11.26,2.19-14.82,2.55-2.18,1.75-2.93.6-5.49A8.73,8.73,0,0,1,393.69,311.38Z"/><path class="cls-19" d="M441.15,322.49a4.25,4.25,0,0,0-1-3,4.61,4.61,0,0,1-1,3.14c-1.33,1.52-3.59,1.66-5.59,2a17.93,17.93,0,0,0-5,1.56,52.43,52.43,0,0,0-5.22,3.26,42.27,42.27,0,0,1-24.67,6.66,12.66,12.66,0,0,1-6.9-1.89,6,6,0,0,1-2.11-2.76,10.36,10.36,0,0,0,1.77,6.54c2.28,3.25,6.26,4.9,10.16,5.6a22.73,22.73,0,0,0,15.35-2.26c4.3-2.5,7.4-6.67,11.51-9.49,3.35-2.3,7.3-3.67,10.51-6.15A5.09,5.09,0,0,0,441.15,322.49Z"/><path class="cls-19" d="M398.06,326.13c7.39,1.95,15.27.52,22.5-2a28.37,28.37,0,0,1,7.33-1.92c.6,0,1.34-.11,1.58-.67a14.9,14.9,0,0,0-4.7.33c-8,1.43-16.09,3-24.23,2.72a5.1,5.1,0,0,1-2.38-.49c-1.66-.95-2.12-1.25-2.94-3.92C393.37,323.3,395.09,325.35,398.06,326.13Z"/><path class="cls-19" d="M398.56,323.4a6.18,6.18,0,0,0,1.84-1.75,12.78,12.78,0,0,0,2.26-4.1,6.24,6.24,0,0,0-.28-4.59,5.06,5.06,0,0,1,.82,4.08,12.38,12.38,0,0,1-1.68,3.93q-1,1.62-2.06,3.17a2.93,2.93,0,0,1-1.7,1.39,1.52,1.52,0,0,1-1.47-.61C395,323.15,397.67,323.89,398.56,323.4Z"/><path class="cls-19" d="M413,321.45a8.79,8.79,0,0,0,1-6.89c1.22,2.18.69,4.95-.38,7.2a8.26,8.26,0,0,1-2.26,3,4.33,4.33,0,0,1-2.42,1c-1.25,0-.83-.51,0-.88A9.15,9.15,0,0,0,413,321.45Z"/><path class="cls-19" d="M398.13,330.05a7.64,7.64,0,0,1-2.32,4.24,6.58,6.58,0,0,0,2.57-2.93,12.75,12.75,0,0,0,1-3.81,3.63,3.63,0,0,0-.12-1.9,1.44,1.44,0,0,0-1.26-.92c-.94.09-.53.61-.32,1.17A7.79,7.79,0,0,1,398.13,330.05Z"/><path class="cls-19" d="M409.41,335.58a15.27,15.27,0,0,0,.13-6.4,5.31,5.31,0,0,0-1.27-2.82c-.44-.43-2.34-1.4-2.47-.33-.08.63,1.54,2.19,1.88,2.78A13.18,13.18,0,0,1,409.41,335.58Z"/><path class="cls-20" d="M396.18,314.92a6.15,6.15,0,0,1,1-4.41,5.23,5.23,0,0,1,4.2-1.92,7,7,0,0,1,4.36,1.75,15.67,15.67,0,0,0,1.81,1.53c1.73,1.07,3.94.71,6,.75a14.15,14.15,0,0,1,9.5,4,2.77,2.77,0,0,1,.85,1.26,1.09,1.09,0,0,1-.57,1.29,1.48,1.48,0,0,1-.82,0,8.51,8.51,0,0,1-3-1.36,1.87,1.87,0,0,0-.79-.41c-.76-.1-1.24.78-1.47,1.51s-.62,1.63-1.39,1.63c-1,0-1.22-1.39-.95-2.32s.7-2.07,0-2.78a1.71,1.71,0,0,0-2.27.14c-1.37,1.19-1.64,3.72-3.43,4-1.21.22-2.29-.82-2.88-1.9a11.14,11.14,0,0,0-1.85-3.17c-.91-.83-2.67-.89-3.13.25a4.14,4.14,0,0,0,0,1.74,4.06,4.06,0,0,1-.73,2.48C398,322.57,396.37,316.66,396.18,314.92Z"/></svg>