<svg id="Layer_2" data-name="Layer 2" xmlns="http://www.w3.org/2000/svg" viewBox="0 0 143.34 153.62"><defs><style>.cls-1{fill:#fdfdf6;}</style></defs><title>Icons</title><path class="cls-1" d="M72.07,25.3c7.58,0,15.16-.29,22.72.06,13.69.63,22.9,7.52,26.8,19.78a30.37,30.37,0,0,1,1.54,8.64c.2,14.45.23,28.9.19,43.36,0,18.2-10.23,30.4-29.61,31-16.23.53-32.54.17-48.76-.72a24.69,24.69,0,0,1-23.37-21.7c-1.44-12.9-1.48-26-1.57-39A93.48,93.48,0,0,1,21.85,45.9c2.71-12.16,14-20.28,27.49-20.61,7.57-.19,15.15,0,22.73,0Zm42.37,51.56h-.06c0-7.56.25-15.14-.06-22.69-.52-12.52-7.55-19.68-20.22-20-15-.36-29.93-.28-44.88.07-11.42.26-18.58,6.43-19.54,17.89-1,12.39-.72,24.9-.84,37.37a74.21,74.21,0,0,0,.66,12.15c1.71,10.92,6,15.34,17,17.26a64.56,64.56,0,0,0,11.71.65c13-.12,26.09.17,39.05-.81,10.77-.82,16.8-8,17.18-18.79C114.65,92.28,114.43,84.57,114.43,76.87Z"/><path class="cls-1" d="M98,76.84c0,14.36-11.46,26.21-25.5,26.3-15.21.09-27-11.24-27.06-26s11.43-26.67,26-26.67C86.71,50.43,97.94,61.59,98,76.84ZM71.46,59.24A17.43,17.43,0,0,0,54.09,77a17.65,17.65,0,1,0,35.29-.63C89.38,66.7,81.49,59.14,71.46,59.24Z"/><path class="cls-1" d="M99.64,43a6.29,6.29,0,0,1,5.84,5.9,6,6,0,0,1-6,6.09,6.33,6.33,0,0,1-5.94-5.88A6.18,6.18,0,0,1,99.64,43Z"/></svg>