<svg id="Layer_2" data-name="Layer 2" xmlns="http://www.w3.org/2000/svg" viewBox="0 0 766.67 666.99"><defs><style>.cls-1{fill:#fdc25c;}.cls-2{fill:#fcad56;}.cls-11,.cls-16,.cls-19,.cls-3{fill:#fff;}.cls-3{opacity:0.26;}.cls-4{fill:#bf362b;}.cls-5{fill:#f4d798;}.cls-6{fill:#f4ab69;}.cls-7{fill:#7f211f;}.cls-8{fill:#a12b25;}.cls-9{fill:#ce4829;}.cls-10{fill:#ee7044;}.cls-11{opacity:0.12;}.cls-12{fill:#ff5003;}.cls-13{fill:#f2a688;}.cls-14{fill:#ff740d;}.cls-15{fill:#f22;}.cls-16{opacity:0.33;}.cls-17{fill:#47823d;}.cls-18{fill:#f7b86d;}.cls-19{opacity:0.48;}.cls-20{fill:#e5a45e;}</style></defs><title>Icons</title><path class="cls-1" d="M145.54,230.94c-6.65,17.28-8.56,36-10.41,54.39-2.71,27-5.41,54-6.79,81.13-.91,17.91-1.21,36.09,3,53.51,5.69,23.34,19.44,44.28,37,60.65,10.85,10.09,23.11,18.53,34.22,28.34,9.84,8.7,18.72,18.42,28.25,27.46,35.24,33.41,84.83,43.09,132.82,50.52s88.23-8,134-24.18c34.26-12.09,44.93-29.71,67.22-49.1,26-22.63,41.56-39.16,60.76-67.79,18.24-27.21,12-64,11.94-92.39-.06-26.28,4.41-53.23-3.1-78.41-4.44-14.88-12.83-28.22-19.06-42.44-11.06-25.25-15.66-54-33-75.43-13.16-16.32-32.22-26.56-50.75-36.37-19.35-10.24-38.78-20.5-59.32-28.08C425.16,75.3,372.86,74,324.15,86.09c-46,11.41-98.8,36.22-128.89,74.2C177.58,182.61,156,203.9,145.54,230.94Z"/><path class="cls-2" d="M634.52,275.05c-4.44-14.88-12.83-28.22-19.06-42.44-11.06-25.25-15.66-54-33-75.43-10.59-13.14-25-22.33-39.88-30.53,10.42,6.5,20.11,14,27.79,23.48,17.3,21.46,21.9,50.18,33,75.43C609.6,239.78,618,253.12,622.43,268c7.51,25.18,3,52.13,3.11,78.41.07,28.35,6.3,65.18-11.94,92.39-19.2,28.63-34.75,45.16-60.76,67.79-22.28,19.39-33,37-67.22,49.1-45.79,16.16-86,31.61-134,24.18-34.81-5.39-70.46-12-100.87-27.93,32.79,21.2,73.41,28.86,113,35,48,7.43,88.23-8,134-24.18,34.26-12.09,44.93-29.71,67.22-49.1,26-22.63,41.56-39.16,60.76-67.79,18.24-27.21,12-64,11.94-92.39C637.56,327.18,642,300.23,634.52,275.05Z"/><path class="cls-2" d="M154.86,329.09A269.22,269.22,0,0,1,239.6,157.3c11-10.19,23-19.49,36.14-26.66s27.12-12,41.22-16.65c29-9.55,59-18.13,89.48-16.86,53.18,2.2,100.13,33.57,143.91,63.84-11.81-10.4-28.78-11.81-43.44-17.53s-27-15.69-41-22.43c-42.26-20.26-92.17-8.54-137.45,3.53-16.06,4.28-32.28,8.63-46.89,16.56-18.31,9.95-33.19,25-47.78,39.92-18.73,19.1-37.92,38.89-47.84,63.73-6.48,16.23-8.67,33.87-14.42,50.38-4,11.44-9.69,22.33-12.44,34.13-5.11,21.9.31,44.72,5.72,66.54,6.82,27.53,14.28,56.28,33.34,77.28-15.78-19.74-28.74-37.83-36.16-62.48C154,384.3,152.26,356.34,154.86,329.09Z"/><path class="cls-3" d="M155.39,244.88c-7,30.24-14.09,60.57-17.51,91.42-3.41,30.69-2.94,63,10.51,90.8a28.47,28.47,0,0,0,5.88,8.74,4.26,4.26,0,0,0,3.4,1.45c2.66-.46,2.59-4.3,1.81-6.88-9.82-32.17-22.1-65.46-16.06-98.55,2.34-12.8,7.35-24.93,10.71-37.5,7.43-27.81,7.08-58.57,22.61-82.8,6.7-10.45,16-19,23.73-28.64,8-9.91,14.43-21.11,23.62-29.91,18.69-17.91,46-23.55,67.07-38.58,2.92-2.08,6-5,5.54-8.57-6.86-2.06-14,1.42-20.29,4.91C224.08,140.07,169.56,184,155.39,244.88Z"/><path class="cls-3" d="M402.22,90.69c2.43.33,6-.25,5.74-2.69-.19-1.91-2.68-2.47-4.6-2.53-21.27-.67-42.88-1.31-63.47,4-7.23,1.88-23.23,2.32-27.67,8.92-8.65,12.88,10.62,5.24,15.34,3.12A137.75,137.75,0,0,1,402.22,90.69Z"/><path class="cls-3" d="M428,560.57c28.88-7.37,58.3-15,83.47-30.92,13.6-8.61,25.62-19.46,37.27-30.56,22.64-21.57,44.2-44.35,63.31-69.1,1.21-1.56,2.45-3.25,2.59-5.22s-1.36-4.18-3.32-4a5,5,0,0,0-2.94,1.86c-5.67,6-9.85,13.32-15.12,19.7C577,462,551.36,472.13,535.81,492.28c-5.53,7.17-9.63,15.42-15.71,22.14-11.94,13.18-29.89,18.79-46.94,23.86l-31.28,9.29c-9.69,2.88-19.42,5.77-29.41,7.34-6.22,1-12.53,1.45-18.68,2.78-4.41,1-26.44,11.06-13.47,14.86,5.19,1.52,17.32-4.25,22.62-5.6Z"/><path class="cls-3" d="M607.84,306a212,212,0,0,1,2.7,80c-1.06,6.72-2.45,13.63-.87,20.24.34,1.42,1,3,2.36,3.45s3.16-.64,3.79-2.09a10.08,10.08,0,0,0,.41-4.69,150.11,150.11,0,0,1,1.12-30.7c1-7.29,2.58-14.53,2.85-21.88.63-16.86-5.5-33.56-3.79-50.35.37-3.64.11-11.6-5.82-10.13C604.36,291.4,606.9,301.88,607.84,306Z"/><path class="cls-4" d="M243.3,173.25c-5.64,10.55-9.31,22.13-15.72,32.24-9.66,15.23-24.84,26.08-36,40.25-18.36,23.33-24.48,53.71-30.06,82.87-2.45,12.81-4.91,25.86-3.4,38.81,1.68,14.35,8.13,27.65,12.13,41.53,3.8,13.16,5.51,27.17,12.3,39.07s17.83,20.41,26.32,31,14.54,23.6,24.46,33.12,23.26,15,36.23,20q20,7.61,40.19,14.44c13.86,4.68,27.9,9.11,42.4,11,37.42,4.92,74.76-7.19,110.56-19.13,11.72-3.91,23.62-7.9,33.78-14.93,18.19-12.56,28.8-33.28,44.18-49.17,19.25-19.9,47.32-34.22,54.61-60.93,4.44-16.27-.15-33.58,1.18-50.39,1.4-17.75,9.36-34.59,9.86-52.38.41-14.64-4.26-28.89-8.87-42.78C589.87,245,582,221.64,567.37,202.51,555.47,187,539.62,175,523.68,163.63Q506,151,487.72,139.15c-11.76-7.65-23.88-15.17-37.38-19-12.47-3.52-25.6-3.74-38.55-3.86C356.95,115.8,273.41,116.88,243.3,173.25Z"/><path class="cls-5" d="M267.8,158.56c-8.79,14.8-9.91,33.82-21.29,46.73-13,14.79-36.64,18-47.23,34.66-3.7,5.82-5.36,12.67-6.95,19.38-6.38,26.88-12.79,54-14.08,81.55S181.1,397,194.66,421c7.66,13.59,18.07,25.4,26.91,38.26a192.61,192.61,0,0,1,21,39.93c2.23,5.8,4.29,11.9,8.52,16.45,7.1,7.64,18.64,9.18,29,8.42s20.81-3.33,31.16-2c9,1.15,17.35,5.16,26.09,7.62,22.4,6.3,46.24,2.16,69.13-2,17.15-3.13,34.49-6.32,50.44-13.36,18.58-8.2,34.85-21.46,54.2-27.64,9-2.89,18.65-4.2,27.18-8.35,11.77-5.73,20.34-16.28,28.51-26.51,6.23-7.8,12.67-16,14.45-25.86,1.43-7.93-.34-16-1-24.06-1.83-22.71,5.37-45,10-67.35s6.22-47-5.5-66.52c-2.61-4.36-5.85-8.37-8-13-5.62-12.07-3.15-26.72-8.77-38.79-7.66-16.46-27.32-22.91-41-34.81-14.38-12.48-22.8-31.69-39.53-40.78-7.2-3.91-15.37-5.59-23.4-7.21-12.84-2.6-25.71-5.21-38.75-6.42-18.37-1.71-36.88-.65-55.3.41-20.11,1.16-44.47-1.12-63.82,4.55C296.94,134.68,267.8,146.06,267.8,158.56Z"/><path class="cls-6" d="M300.63,520.16c-10.35-1.32-20.75,1.25-31.16,2a58.22,58.22,0,0,1-9.89-.07c6.28,2.64,13.68,3.16,20.59,2.65,10.41-.76,20.81-3.33,31.16-2l.34,0A61.62,61.62,0,0,0,300.63,520.16Z"/><path class="cls-6" d="M584.82,268.68c-2.62-4.36-5.85-8.37-8-13-5.62-12.07-3.15-26.72-8.77-38.79-7.66-16.46-27.32-22.91-41-34.81-14.38-12.48-22.8-31.69-39.53-40.78-6.49-3.53-13.78-5.24-21-6.73a53.21,53.21,0,0,1,10.33,4.16c16.73,9.09,25.15,28.29,39.53,40.78,13.71,11.9,33.37,18.35,41,34.81,5.62,12.07,3.15,26.72,8.77,38.79,2.15,4.61,5.38,8.62,8,13,11.72,19.54,10.08,44.2,5.5,66.52s-11.79,44.63-10,67.35c.65,8,2.42,16.13,1,24.06-1.78,9.82-8.21,18.06-14.45,25.86-8.17,10.23-16.74,20.78-28.51,26.51-8.53,4.16-18.14,5.46-27.18,8.35-19.35,6.19-35.62,19.44-54.2,27.64-16,7-33.29,10.23-50.44,13.36-20.07,3.66-40.87,7.3-60.79,3.89.78.24,1.57.48,2.36.7,22.4,6.3,46.24,2.16,69.13-2C423.71,525.21,441.05,522,457,515c18.58-8.2,34.85-21.46,54.2-27.64,9-2.89,18.65-4.2,27.18-8.35,11.77-5.73,20.34-16.28,28.51-26.51,6.23-7.8,12.67-16,14.45-25.86,1.43-7.93-.34-16-1-24.06-1.83-22.71,5.37-45,10-67.35S596.54,288.22,584.82,268.68Z"/><path class="cls-7" d="M322.33,167.93c-4.66,8.8-4.63,20.12.79,28.48a31.71,31.71,0,0,0,10.36,9.69,41.19,41.19,0,0,0,30,4.84c7.75-1.76,15.19-6.08,19.26-12.9,2.73-4.58,3.78-10,4.26-15.26.62-6.78.09-14.35-4.66-19.23-3.07-3.14-7.4-4.63-11.57-6L359,153.57c-7.55-2.52-13.81-3.56-21.14-.09A33.83,33.83,0,0,0,322.33,167.93Z"/><path class="cls-8" d="M321,165c-4.66,8.8-4.63,20.12.79,28.48a31.71,31.71,0,0,0,10.36,9.69,41.19,41.19,0,0,0,30,4.84c7.75-1.76,15.19-6.08,19.26-12.9,2.73-4.58,3.78-10,4.26-15.26.62-6.78.09-14.35-4.66-19.23-3.07-3.14-7.4-4.63-11.57-6l-11.83-3.95c-7.55-2.52-13.81-3.56-21.14-.09A33.83,33.83,0,0,0,321,165Z"/><path class="cls-9" d="M323.66,171.3c-2.39,8.22-.75,17.79,5.17,24s14.7,8.14,23,9.68a25.32,25.32,0,0,0,8.3.58c6.49-1,11.17-6.57,14.88-12,3.18-4.64,6.17-9.59,7.23-15.11s-.16-11.78-4.33-15.55c-2.81-2.53-6.56-3.66-10.19-4.72l-14.87-4.36c-6.79-2-12.38-3.82-18.08,1A34.69,34.69,0,0,0,323.66,171.3Z"/><path class="cls-10" d="M331.51,174a2.26,2.26,0,0,0,.05,1c.33.95,1.53,1.26,2.53,1.16a6,6,0,0,0,4.58-3c1.33-2.34-.39-4.15-2.87-3.91C333.55,169.52,331.8,171.81,331.51,174Z"/><path class="cls-10" d="M344.26,163.56A3.05,3.05,0,0,0,348,163a3.1,3.1,0,0,0,.66-1.47c.46-2.63-2.67-5.79-5.29-4.17C341.1,158.73,342.26,162.47,344.26,163.56Z"/><path class="cls-10" d="M348.6,188.31a5.2,5.2,0,0,0-.09,4.16,2.56,2.56,0,0,0,2.15,1.76,2.58,2.58,0,0,0,2.14-1.87,3.88,3.88,0,0,0-.37-3.69,2.52,2.52,0,0,0-3.42-.56Z"/><path class="cls-10" d="M333.25,192a2.75,2.75,0,0,0,3.19,1.19,5.71,5.71,0,0,0,2.86-2.23,5.36,5.36,0,0,0,1.06-2.11C341.29,184.2,330,185.31,333.25,192Z"/><path class="cls-10" d="M352.64,176.49a11.41,11.41,0,0,0,2.75,2.25,2.33,2.33,0,0,0,1.42.53,1.59,1.59,0,0,0,1.07-.66,3,3,0,0,0,.34-2.75,4.67,4.67,0,0,0-1.79-2.2c-.69-.48-3.31-1.65-4.16-1.18C350.89,173.24,352,175.65,352.64,176.49Z"/><path class="cls-10" d="M365.22,183.86c-.11.9.13,2.09,1,2.22a1.8,1.8,0,0,0,1.15-.35,10.19,10.19,0,0,0,4.18-4.93c.85-2.13-.43-4.71-2.84-3.33C366.8,178.58,365.48,181.78,365.22,183.86Z"/><path class="cls-10" d="M366.6,162.86a1.41,1.41,0,0,0-2.17-.25,2,2,0,0,0-.23,2.36,3.82,3.82,0,0,0,1.93,1.59,7,7,0,0,0,3.26.54,2.09,2.09,0,0,0,1.79-.91,1.64,1.64,0,0,0-.55-1.9,4.81,4.81,0,0,0-1.94-.82l-2.3-.59Z"/><path class="cls-10" d="M359.34,199.09c-.56.4-1.15,1-1.1,1.64a1.49,1.49,0,0,0,.67,1,4,4,0,0,0,3.47.22,12.5,12.5,0,0,0,3.87-1.91,4,4,0,0,0,1.46-1.68C369.56,193.52,360.3,198.39,359.34,199.09Z"/><path class="cls-11" d="M331.18,163.33a37.81,37.81,0,0,0-3.72,5.56A19.37,19.37,0,0,0,330.14,190a6.94,6.94,0,0,0,2.57,2,3.11,3.11,0,0,0,3.11-.37c1.15-1,1.1-2.77.85-4.26a33.19,33.19,0,0,0-1.45-5.6c-.69-2-1.58-3.9-1.56-6,0-3.11,2.14-5.9,4.78-7.54a25.12,25.12,0,0,1,8.81-2.88,13,13,0,0,0,4.85-1.55c6.75-4.42-3.7-9.55-7.78-9.88C338.67,153.45,334.18,159.36,331.18,163.33Z"/><path class="cls-7" d="M222.59,286.49c-4.66,8.8-4.63,20.12.79,28.48a31.71,31.71,0,0,0,10.36,9.69,41.19,41.19,0,0,0,30,4.84c7.75-1.76,15.19-6.08,19.26-12.9,2.73-4.58,3.78-10,4.26-15.26.62-6.78.09-14.35-4.66-19.23-3.07-3.14-7.4-4.63-11.57-6l-11.83-3.95c-7.55-2.52-13.81-3.56-21.14-.09A33.82,33.82,0,0,0,222.59,286.49Z"/><path class="cls-8" d="M221.28,283.53c-4.66,8.8-4.63,20.12.79,28.48a31.71,31.71,0,0,0,10.36,9.69,41.19,41.19,0,0,0,30,4.84c7.75-1.76,15.19-6.08,19.26-12.9,2.73-4.58,3.78-10,4.26-15.26.62-6.78.09-14.35-4.66-19.23-3.07-3.14-7.4-4.63-11.57-6l-11.83-3.95c-7.55-2.52-13.81-3.56-21.14-.09A33.83,33.83,0,0,0,221.28,283.53Z"/><path class="cls-9" d="M223.93,289.86c-2.39,8.22-.75,17.79,5.17,24s14.7,8.14,23,9.68a25.32,25.32,0,0,0,8.3.58c6.49-1,11.17-6.57,14.88-12,3.18-4.64,6.17-9.59,7.23-15.11s-.16-11.78-4.33-15.55c-2.81-2.53-6.56-3.66-10.19-4.72l-14.87-4.36c-6.79-2-12.38-3.82-18.08,1A34.69,34.69,0,0,0,223.93,289.86Z"/><path class="cls-10" d="M231.77,292.53a2.26,2.26,0,0,0,.05,1c.33.95,1.53,1.26,2.53,1.16a6,6,0,0,0,4.58-3c1.33-2.34-.39-4.15-2.87-3.91C233.81,288.08,232.06,290.37,231.77,292.53Z"/><path class="cls-10" d="M244.52,282.12a3.05,3.05,0,0,0,3.69-.55,3.1,3.1,0,0,0,.66-1.47c.46-2.63-2.67-5.79-5.29-4.17C241.36,277.29,242.52,281,244.52,282.12Z"/><path class="cls-10" d="M248.87,306.87a5.2,5.2,0,0,0-.09,4.16,2.56,2.56,0,0,0,2.15,1.76,2.58,2.58,0,0,0,2.14-1.87,3.88,3.88,0,0,0-.37-3.69,2.52,2.52,0,0,0-3.42-.56Z"/><path class="cls-10" d="M233.51,310.54a2.75,2.75,0,0,0,3.19,1.19,5.71,5.71,0,0,0,2.86-2.23,5.35,5.35,0,0,0,1.06-2.11C241.55,302.76,230.24,303.86,233.51,310.54Z"/><path class="cls-10" d="M252.9,295a11.41,11.41,0,0,0,2.75,2.25,2.33,2.33,0,0,0,1.42.53,1.59,1.59,0,0,0,1.07-.66,3,3,0,0,0,.34-2.75,4.67,4.67,0,0,0-1.79-2.2c-.69-.48-3.31-1.65-4.16-1.18C251.16,291.8,252.22,294.21,252.9,295Z"/><path class="cls-10" d="M265.48,302.42c-.11.9.13,2.09,1,2.22a1.8,1.8,0,0,0,1.15-.35,10.19,10.19,0,0,0,4.18-4.93c.85-2.13-.43-4.71-2.84-3.33C267.06,297.14,265.74,300.34,265.48,302.42Z"/><path class="cls-10" d="M266.86,281.42a1.41,1.41,0,0,0-2.17-.25,2,2,0,0,0-.23,2.36,3.82,3.82,0,0,0,1.93,1.59,7,7,0,0,0,3.26.54,2.09,2.09,0,0,0,1.79-.91,1.64,1.64,0,0,0-.55-1.9A4.81,4.81,0,0,0,269,282l-2.3-.59Z"/><path class="cls-10" d="M259.6,317.65c-.56.4-1.15,1-1.1,1.64a1.49,1.49,0,0,0,.67,1,4,4,0,0,0,3.47.22,12.49,12.49,0,0,0,3.87-1.91A4,4,0,0,0,268,317C269.82,312.08,260.56,317,259.6,317.65Z"/><path class="cls-11" d="M231.44,281.89a37.8,37.8,0,0,0-3.72,5.56,19.37,19.37,0,0,0,2.68,21.06,6.94,6.94,0,0,0,2.57,2,3.11,3.11,0,0,0,3.11-.37c1.15-1,1.1-2.77.85-4.26a33.18,33.18,0,0,0-1.45-5.6c-.69-2-1.58-3.9-1.56-6,0-3.11,2.14-5.9,4.78-7.54a25.12,25.12,0,0,1,8.81-2.88,13,13,0,0,0,4.85-1.55c6.75-4.42-3.7-9.55-7.78-9.88C238.93,272,234.44,277.92,231.44,281.89Z"/><path class="cls-7" d="M385.28,309.83c-4.66,8.8-4.63,20.12.79,28.48A31.71,31.71,0,0,0,396.43,348a41.19,41.19,0,0,0,30,4.84c7.75-1.76,15.19-6.08,19.26-12.9,2.73-4.58,3.78-10,4.26-15.26.62-6.78.09-14.35-4.66-19.23-3.07-3.14-7.4-4.63-11.57-6l-11.83-3.95c-7.55-2.52-13.81-3.56-21.14-.09A33.82,33.82,0,0,0,385.28,309.83Z"/><path class="cls-8" d="M384,306.87c-4.66,8.8-4.63,20.12.79,28.48A31.71,31.71,0,0,0,395.13,345a41.19,41.19,0,0,0,30,4.84c7.75-1.76,15.19-6.08,19.26-12.9,2.73-4.58,3.78-10,4.26-15.26.62-6.78.09-14.35-4.66-19.23-3.07-3.14-7.4-4.63-11.57-6l-11.83-3.95c-7.55-2.52-13.81-3.56-21.14-.09A33.83,33.83,0,0,0,384,306.87Z"/><path class="cls-9" d="M386.62,313.19c-2.39,8.22-.75,17.79,5.17,24s14.7,8.14,23,9.68a25.32,25.32,0,0,0,8.3.58c6.49-1,11.17-6.57,14.88-12,3.18-4.64,6.17-9.59,7.23-15.11s-.16-11.78-4.33-15.55c-2.81-2.53-6.56-3.66-10.19-4.72l-14.87-4.36c-6.79-2-12.38-3.82-18.08,1A34.69,34.69,0,0,0,386.62,313.19Z"/><path class="cls-10" d="M394.46,315.87a2.26,2.26,0,0,0,.05,1c.33.95,1.53,1.26,2.53,1.16a6,6,0,0,0,4.58-3c1.33-2.34-.39-4.15-2.87-3.91C396.5,311.41,394.75,313.7,394.46,315.87Z"/><path class="cls-10" d="M407.21,305.46a3.05,3.05,0,0,0,3.69-.55,3.1,3.1,0,0,0,.66-1.47c.46-2.63-2.67-5.79-5.29-4.17C404,300.63,405.21,304.37,407.21,305.46Z"/><path class="cls-10" d="M411.56,330.21a5.2,5.2,0,0,0-.09,4.16,2.56,2.56,0,0,0,2.15,1.76,2.58,2.58,0,0,0,2.14-1.87,3.88,3.88,0,0,0-.37-3.69,2.52,2.52,0,0,0-3.42-.56Z"/><path class="cls-10" d="M396.2,333.87a2.75,2.75,0,0,0,3.19,1.19,5.71,5.71,0,0,0,2.86-2.23,5.35,5.35,0,0,0,1.06-2.11C404.24,326.09,392.93,327.2,396.2,333.87Z"/><path class="cls-10" d="M415.59,318.38a11.41,11.41,0,0,0,2.75,2.25,2.33,2.33,0,0,0,1.42.53,1.59,1.59,0,0,0,1.07-.66,3,3,0,0,0,.34-2.75,4.67,4.67,0,0,0-1.79-2.2c-.69-.48-3.31-1.65-4.16-1.18C413.85,315.14,414.92,317.54,415.59,318.38Z"/><path class="cls-10" d="M428.17,325.75c-.11.9.13,2.09,1,2.22a1.8,1.8,0,0,0,1.15-.35,10.19,10.19,0,0,0,4.18-4.93c.85-2.13-.43-4.71-2.84-3.33C429.75,320.47,428.43,323.68,428.17,325.75Z"/><path class="cls-10" d="M429.55,304.75a1.41,1.41,0,0,0-2.17-.25,2,2,0,0,0-.23,2.36,3.82,3.82,0,0,0,1.93,1.59,7,7,0,0,0,3.26.54,2.09,2.09,0,0,0,1.79-.91,1.64,1.64,0,0,0-.55-1.9,4.81,4.81,0,0,0-1.94-.82l-2.3-.59Z"/><path class="cls-10" d="M422.29,341c-.56.4-1.15,1-1.1,1.64a1.49,1.49,0,0,0,.67,1,4,4,0,0,0,3.47.22A12.5,12.5,0,0,0,429.2,342a4,4,0,0,0,1.46-1.68C432.52,335.41,423.25,340.29,422.29,341Z"/><path class="cls-11" d="M394.13,305.22a37.81,37.81,0,0,0-3.72,5.56,19.36,19.36,0,0,0,2.68,21.06,6.94,6.94,0,0,0,2.57,2,3.11,3.11,0,0,0,3.11-.37c1.15-1,1.1-2.77.85-4.26a33.19,33.19,0,0,0-1.45-5.6c-.69-2-1.58-3.9-1.56-6,0-3.11,2.14-5.9,4.78-7.54a25.12,25.12,0,0,1,8.81-2.88,13,13,0,0,0,4.85-1.55c6.75-4.42-3.7-9.55-7.78-9.88C401.62,295.34,397.13,301.26,394.13,305.22Z"/><path class="cls-7" d="M272.27,449c-4.66,8.8-4.63,20.12.79,28.48a31.71,31.71,0,0,0,10.36,9.69,41.19,41.19,0,0,0,30,4.84c7.75-1.76,15.19-6.08,19.26-12.9,2.73-4.58,3.78-10,4.26-15.26.62-6.78.09-14.35-4.66-19.23-3.07-3.14-7.4-4.63-11.57-6L308.9,434.6c-7.55-2.52-13.81-3.56-21.14-.09A33.83,33.83,0,0,0,272.27,449Z"/><path class="cls-8" d="M271,446c-4.66,8.8-4.63,20.12.79,28.48a31.71,31.71,0,0,0,10.36,9.69,41.19,41.19,0,0,0,30,4.84c7.75-1.76,15.19-6.08,19.26-12.9,2.73-4.58,3.78-10,4.26-15.26.62-6.78.09-14.35-4.66-19.23-3.07-3.14-7.4-4.63-11.57-6l-11.83-3.95c-7.55-2.52-13.81-3.56-21.14-.09A33.82,33.82,0,0,0,271,446Z"/><path class="cls-9" d="M273.61,452.32c-2.39,8.22-.75,17.79,5.17,24s14.7,8.14,23,9.68a25.32,25.32,0,0,0,8.3.58c6.49-1,11.17-6.57,14.88-12,3.18-4.64,6.17-9.59,7.23-15.11s-.16-11.78-4.33-15.55c-2.81-2.53-6.56-3.66-10.19-4.72l-14.87-4.36c-6.79-2-12.38-3.82-18.08,1A34.69,34.69,0,0,0,273.61,452.32Z"/><path class="cls-10" d="M281.45,455a2.26,2.26,0,0,0,.05,1c.33.95,1.53,1.26,2.53,1.16a6,6,0,0,0,4.58-3c1.33-2.34-.39-4.14-2.87-3.91C283.5,450.55,281.74,452.84,281.45,455Z"/><path class="cls-10" d="M294.2,444.59a3.05,3.05,0,0,0,3.69-.55,3.1,3.1,0,0,0,.66-1.47c.46-2.63-2.67-5.79-5.29-4.17C291,439.76,292.2,443.5,294.2,444.59Z"/><path class="cls-10" d="M298.55,469.34a5.2,5.2,0,0,0-.09,4.16,2.56,2.56,0,0,0,2.15,1.76,2.58,2.58,0,0,0,2.14-1.87,3.88,3.88,0,0,0-.37-3.69,2.52,2.52,0,0,0-3.42-.56Z"/><path class="cls-10" d="M283.19,473a2.75,2.75,0,0,0,3.19,1.19,5.71,5.71,0,0,0,2.86-2.23,5.35,5.35,0,0,0,1.06-2.11C291.23,465.22,279.92,466.33,283.19,473Z"/><path class="cls-10" d="M302.58,457.52a11.42,11.42,0,0,0,2.75,2.25,2.33,2.33,0,0,0,1.42.53,1.59,1.59,0,0,0,1.07-.66,3,3,0,0,0,.34-2.75,4.67,4.67,0,0,0-1.79-2.2c-.69-.48-3.31-1.65-4.16-1.18C300.84,454.27,301.91,456.67,302.58,457.52Z"/><path class="cls-10" d="M315.16,464.88c-.11.9.13,2.09,1,2.22a1.8,1.8,0,0,0,1.15-.35,10.19,10.19,0,0,0,4.18-4.93c.85-2.13-.43-4.71-2.84-3.33C316.74,459.6,315.42,462.81,315.16,464.88Z"/><path class="cls-10" d="M316.54,443.88a1.41,1.41,0,0,0-2.17-.25,2,2,0,0,0-.23,2.36,3.82,3.82,0,0,0,1.93,1.59,7,7,0,0,0,3.26.54,2.09,2.09,0,0,0,1.79-.91,1.64,1.64,0,0,0-.55-1.9,4.81,4.81,0,0,0-1.94-.82l-2.3-.59Z"/><path class="cls-10" d="M309.29,480.11c-.56.4-1.15,1-1.1,1.64a1.49,1.49,0,0,0,.67,1,4,4,0,0,0,3.47.22,12.5,12.5,0,0,0,3.87-1.91,4,4,0,0,0,1.46-1.68C319.51,474.54,310.24,479.42,309.29,480.11Z"/><path class="cls-11" d="M281.12,444.35a37.79,37.79,0,0,0-3.72,5.56A19.36,19.36,0,0,0,280.08,471a6.93,6.93,0,0,0,2.57,2,3.11,3.11,0,0,0,3.11-.37c1.15-1,1.1-2.77.85-4.26a33.19,33.19,0,0,0-1.45-5.6c-.69-2-1.58-3.9-1.56-6,0-3.11,2.14-5.9,4.78-7.54a25.12,25.12,0,0,1,8.81-2.88A13,13,0,0,0,302,444.8c6.75-4.42-3.7-9.55-7.78-9.88C288.61,434.47,284.12,440.39,281.12,444.35Z"/><path class="cls-7" d="M447.21,431c-4.66,8.8-4.63,20.12.79,28.48a31.71,31.71,0,0,0,10.36,9.69,41.19,41.19,0,0,0,30,4.84c7.75-1.76,15.19-6.08,19.26-12.9,2.73-4.58,3.78-10,4.26-15.26.62-6.78.09-14.35-4.66-19.23-3.07-3.14-7.4-4.63-11.57-6l-11.83-3.95c-7.55-2.52-13.81-3.56-21.14-.09A33.83,33.83,0,0,0,447.21,431Z"/><path class="cls-8" d="M445.9,428.07c-4.66,8.8-4.63,20.12.79,28.48a31.71,31.71,0,0,0,10.36,9.69,41.19,41.19,0,0,0,30,4.84c7.75-1.76,15.19-6.08,19.26-12.9,2.73-4.58,3.78-10,4.26-15.26.62-6.78.09-14.35-4.66-19.23-3.07-3.14-7.4-4.63-11.57-6l-11.83-3.95c-7.55-2.52-13.81-3.56-21.14-.09A33.83,33.83,0,0,0,445.9,428.07Z"/><path class="cls-9" d="M448.54,434.4c-2.39,8.22-.75,17.79,5.17,24s14.7,8.14,23,9.68a25.32,25.32,0,0,0,8.3.58c6.49-1,11.17-6.57,14.88-12,3.18-4.64,6.17-9.59,7.23-15.11S507,429.76,502.83,426c-2.81-2.53-6.56-3.66-10.19-4.72l-14.87-4.36c-6.79-2-12.38-3.82-18.08,1A34.69,34.69,0,0,0,448.54,434.4Z"/><path class="cls-10" d="M456.39,437.07a2.26,2.26,0,0,0,.05,1c.33.95,1.53,1.26,2.53,1.16a6,6,0,0,0,4.58-3c1.33-2.34-.39-4.15-2.87-3.91C458.43,432.62,456.68,434.91,456.39,437.07Z"/><path class="cls-10" d="M469.14,426.66a3.05,3.05,0,0,0,3.69-.55,3.1,3.1,0,0,0,.66-1.47c.46-2.63-2.67-5.79-5.29-4.17C466,421.83,467.14,425.57,469.14,426.66Z"/><path class="cls-10" d="M473.48,451.41a5.2,5.2,0,0,0-.09,4.16,2.56,2.56,0,0,0,2.15,1.76,2.58,2.58,0,0,0,2.14-1.87,3.88,3.88,0,0,0-.37-3.69,2.52,2.52,0,0,0-3.42-.56Z"/><path class="cls-10" d="M458.13,455.08a2.75,2.75,0,0,0,3.19,1.19,5.71,5.71,0,0,0,2.86-2.23,5.35,5.35,0,0,0,1.06-2.11C466.17,447.3,454.86,448.41,458.13,455.08Z"/><path class="cls-10" d="M477.51,439.59a11.42,11.42,0,0,0,2.75,2.25,2.33,2.33,0,0,0,1.42.53,1.59,1.59,0,0,0,1.07-.66,3,3,0,0,0,.34-2.75,4.67,4.67,0,0,0-1.79-2.2c-.69-.48-3.31-1.65-4.16-1.18C475.77,436.34,476.84,438.75,477.51,439.59Z"/><path class="cls-10" d="M490.1,447c-.11.9.13,2.09,1,2.22a1.8,1.8,0,0,0,1.15-.35,10.19,10.19,0,0,0,4.18-4.93c.85-2.13-.43-4.71-2.84-3.33C491.68,441.68,490.35,444.88,490.1,447Z"/><path class="cls-10" d="M491.48,426a1.41,1.41,0,0,0-2.17-.25,2,2,0,0,0-.23,2.36,3.82,3.82,0,0,0,1.93,1.59,7,7,0,0,0,3.26.54,2.09,2.09,0,0,0,1.79-.91,1.64,1.64,0,0,0-.55-1.9,4.81,4.81,0,0,0-1.94-.82l-2.3-.59Z"/><path class="cls-10" d="M484.22,462.19c-.56.4-1.15,1-1.1,1.64a1.49,1.49,0,0,0,.67,1,4,4,0,0,0,3.47.22,12.5,12.5,0,0,0,3.87-1.91,4,4,0,0,0,1.46-1.68C494.44,456.62,485.18,461.49,484.22,462.19Z"/><path class="cls-11" d="M456.05,426.43a37.79,37.79,0,0,0-3.72,5.56A19.37,19.37,0,0,0,455,453.05a6.94,6.94,0,0,0,2.57,2,3.11,3.11,0,0,0,3.11-.37c1.15-1,1.1-2.77.85-4.26a33.19,33.19,0,0,0-1.45-5.6c-.69-2-1.58-3.9-1.56-6,0-3.11,2.14-5.9,4.78-7.54a25.12,25.12,0,0,1,8.81-2.88,13,13,0,0,0,4.85-1.55c6.75-4.42-3.7-9.55-7.78-9.88C463.55,416.55,459.06,422.46,456.05,426.43Z"/><path class="cls-7" d="M508.26,263.45c-4.66,8.8-4.63,20.12.79,28.48a31.71,31.71,0,0,0,10.36,9.69,41.19,41.19,0,0,0,30,4.84c7.75-1.76,15.19-6.08,19.26-12.9,2.73-4.58,3.78-10,4.26-15.26.62-6.78.09-14.35-4.66-19.23-3.07-3.14-7.4-4.63-11.57-6l-11.83-3.95c-7.55-2.52-13.81-3.56-21.14-.09A33.83,33.83,0,0,0,508.26,263.45Z"/><path class="cls-8" d="M507,260.49c-4.66,8.8-4.63,20.12.79,28.48a31.71,31.71,0,0,0,10.36,9.69,41.19,41.19,0,0,0,30,4.84c7.75-1.76,15.19-6.08,19.26-12.9,2.73-4.58,3.78-10,4.26-15.26.62-6.78.09-14.35-4.66-19.23-3.07-3.14-7.4-4.63-11.57-6l-11.83-3.95c-7.55-2.52-13.81-3.56-21.14-.09A33.83,33.83,0,0,0,507,260.49Z"/><path class="cls-9" d="M509.6,266.81c-2.39,8.22-.75,17.79,5.17,24s14.7,8.14,23,9.68a25.32,25.32,0,0,0,8.3.58c6.49-1,11.17-6.57,14.88-12,3.18-4.64,6.17-9.59,7.23-15.11s-.16-11.78-4.33-15.55c-2.81-2.53-6.56-3.66-10.19-4.72l-14.87-4.36c-6.79-2-12.38-3.82-18.08,1A34.69,34.69,0,0,0,509.6,266.81Z"/><path class="cls-10" d="M517.44,269.49a2.26,2.26,0,0,0,.05,1c.33.95,1.53,1.26,2.53,1.16a6,6,0,0,0,4.58-3c1.33-2.34-.39-4.15-2.87-3.91C519.48,265,517.73,267.33,517.44,269.49Z"/><path class="cls-10" d="M530.19,259.08a3.05,3.05,0,0,0,3.69-.55,3.1,3.1,0,0,0,.66-1.47c.46-2.63-2.67-5.79-5.29-4.17C527,254.25,528.19,258,530.19,259.08Z"/><path class="cls-10" d="M534.53,283.83a5.2,5.2,0,0,0-.09,4.16,2.56,2.56,0,0,0,2.15,1.76,2.58,2.58,0,0,0,2.14-1.87,3.88,3.88,0,0,0-.37-3.69,2.52,2.52,0,0,0-3.42-.56Z"/><path class="cls-10" d="M519.18,287.49a2.75,2.75,0,0,0,3.19,1.19,5.72,5.72,0,0,0,2.86-2.23,5.36,5.36,0,0,0,1.06-2.11C527.22,279.71,515.91,280.82,519.18,287.49Z"/><path class="cls-10" d="M538.57,272a11.42,11.42,0,0,0,2.75,2.25,2.33,2.33,0,0,0,1.42.53,1.59,1.59,0,0,0,1.07-.66,3,3,0,0,0,.34-2.75,4.67,4.67,0,0,0-1.79-2.2c-.69-.48-3.31-1.65-4.16-1.18C536.83,268.76,537.89,271.16,538.57,272Z"/><path class="cls-10" d="M551.15,279.37c-.11.9.13,2.09,1,2.22a1.8,1.8,0,0,0,1.15-.35,10.19,10.19,0,0,0,4.18-4.93c.85-2.13-.43-4.71-2.84-3.33C552.73,274.09,551.41,277.3,551.15,279.37Z"/><path class="cls-10" d="M552.53,258.37a1.41,1.41,0,0,0-2.17-.25,2,2,0,0,0-.23,2.36,3.82,3.82,0,0,0,1.93,1.59,7,7,0,0,0,3.26.54,2.09,2.09,0,0,0,1.79-.91,1.64,1.64,0,0,0-.55-1.9,4.81,4.81,0,0,0-1.94-.82l-2.3-.59Z"/><path class="cls-10" d="M545.27,294.6c-.56.4-1.15,1-1.1,1.64a1.49,1.49,0,0,0,.67,1,4,4,0,0,0,3.47.22,12.5,12.5,0,0,0,3.87-1.91,4,4,0,0,0,1.46-1.68C555.49,289,546.23,293.91,545.27,294.6Z"/><path class="cls-11" d="M517.11,258.84a37.81,37.81,0,0,0-3.72,5.56,19.36,19.36,0,0,0,2.68,21.06,6.94,6.94,0,0,0,2.57,2,3.11,3.11,0,0,0,3.11-.37c1.15-1,1.1-2.77.85-4.26a33.19,33.19,0,0,0-1.45-5.6c-.69-2-1.58-3.9-1.56-6,0-3.11,2.14-5.9,4.78-7.54a25.12,25.12,0,0,1,8.81-2.88,13,13,0,0,0,4.85-1.55c6.75-4.42-3.7-9.55-7.78-9.88C524.6,249,520.11,254.88,517.11,258.84Z"/><path class="cls-7" d="M426.39,198.24c-4.66,8.8-4.63,20.12.79,28.48a31.71,31.71,0,0,0,10.36,9.69,41.19,41.19,0,0,0,30,4.84c7.75-1.76,15.19-6.08,19.26-12.9,2.73-4.58,3.78-10,4.26-15.26.62-6.78.09-14.35-4.66-19.23-3.07-3.14-7.4-4.63-11.57-6L463,183.89c-7.55-2.52-13.81-3.56-21.14-.09A33.83,33.83,0,0,0,426.39,198.24Z"/><path class="cls-8" d="M425.08,195.28c-4.66,8.8-4.63,20.12.79,28.48a31.71,31.71,0,0,0,10.36,9.69,41.19,41.19,0,0,0,30,4.84c7.75-1.76,15.19-6.08,19.26-12.9,2.73-4.58,3.78-10,4.26-15.26.62-6.78.09-14.35-4.66-19.23-3.07-3.14-7.4-4.63-11.57-6l-11.83-3.95c-7.55-2.52-13.81-3.56-21.14-.09A33.82,33.82,0,0,0,425.08,195.28Z"/><path class="cls-9" d="M427.73,201.61c-2.39,8.22-.75,17.79,5.17,24s14.7,8.14,23,9.68a25.32,25.32,0,0,0,8.3.58c6.49-1,11.17-6.57,14.88-12,3.18-4.64,6.17-9.59,7.23-15.11S486.19,197,482,193.2c-2.81-2.53-6.56-3.66-10.19-4.72L457,184.12c-6.79-2-12.38-3.82-18.08,1A34.69,34.69,0,0,0,427.73,201.61Z"/><path class="cls-10" d="M435.57,204.29a2.26,2.26,0,0,0,.05,1c.33.95,1.53,1.26,2.53,1.16a6,6,0,0,0,4.58-3c1.33-2.34-.39-4.15-2.87-3.91C437.61,199.83,435.86,202.12,435.57,204.29Z"/><path class="cls-10" d="M448.32,193.87a3.05,3.05,0,0,0,3.69-.55,3.1,3.1,0,0,0,.66-1.47c.46-2.63-2.67-5.79-5.29-4.17C445.16,189,446.32,192.78,448.32,193.87Z"/><path class="cls-10" d="M452.66,218.62a5.2,5.2,0,0,0-.09,4.16,2.56,2.56,0,0,0,2.14,1.76,2.58,2.58,0,0,0,2.14-1.87,3.88,3.88,0,0,0-.37-3.69,2.52,2.52,0,0,0-3.42-.56Z"/><path class="cls-10" d="M437.31,222.29a2.75,2.75,0,0,0,3.19,1.19,5.71,5.71,0,0,0,2.86-2.23,5.36,5.36,0,0,0,1.06-2.11C445.35,214.51,434,215.62,437.31,222.29Z"/><path class="cls-10" d="M456.7,206.8a11.41,11.41,0,0,0,2.75,2.25,2.33,2.33,0,0,0,1.42.53,1.59,1.59,0,0,0,1.07-.66,3,3,0,0,0,.34-2.75,4.67,4.67,0,0,0-1.79-2.2c-.69-.48-3.31-1.65-4.16-1.18C455,203.56,456,206,456.7,206.8Z"/><path class="cls-10" d="M469.28,214.17c-.11.9.13,2.09,1,2.22a1.8,1.8,0,0,0,1.15-.35,10.19,10.19,0,0,0,4.18-4.93c.85-2.13-.43-4.71-2.84-3.33C470.86,208.89,469.54,212.09,469.28,214.17Z"/><path class="cls-10" d="M470.66,193.17a1.41,1.41,0,0,0-2.17-.25,2,2,0,0,0-.23,2.36,3.82,3.82,0,0,0,1.93,1.59,7,7,0,0,0,3.26.54,2.09,2.09,0,0,0,1.79-.91,1.64,1.64,0,0,0-.55-1.9,4.81,4.81,0,0,0-1.94-.82l-2.3-.59Z"/><path class="cls-10" d="M463.4,229.4c-.56.4-1.15,1-1.1,1.64a1.49,1.49,0,0,0,.67,1,4,4,0,0,0,3.47.22,12.5,12.5,0,0,0,3.87-1.91,4,4,0,0,0,1.46-1.68C473.62,223.83,464.36,228.71,463.4,229.4Z"/><path class="cls-11" d="M435.24,193.64a37.79,37.79,0,0,0-3.72,5.56,19.37,19.37,0,0,0,2.68,21.06,6.94,6.94,0,0,0,2.57,2,3.11,3.11,0,0,0,3.11-.37c1.15-1,1.1-2.77.85-4.26a33.18,33.18,0,0,0-1.45-5.6c-.69-2-1.58-3.9-1.56-6,0-3.11,2.14-5.9,4.78-7.54a25.12,25.12,0,0,1,8.81-2.88,13,13,0,0,0,4.85-1.55c6.75-4.42-3.7-9.55-7.78-9.88C442.73,183.76,438.24,189.67,435.24,193.64Z"/><path class="cls-12" d="M280.22,187.58c.4,4.64,1.85,9.3,3.29,13.89a4,4,0,0,0,.48,1.12,2.16,2.16,0,0,0,1.1.78,5.33,5.33,0,0,0,3.86-.41,1.34,1.34,0,0,0,.67-.46,2.84,2.84,0,0,0-.23-2.38c-1.95-4.52-6-7.9-7-12.67-.18-.83.29-5-.76-4.71C280.86,182.9,280.15,186.8,280.22,187.58Z"/><path class="cls-12" d="M308.89,174.29c1.78.3,3.32,2.4,4.5,4.4,1.06,1.79,2,3.65,2.94,5.56a7.19,7.19,0,0,1,.59,1.58,3.57,3.57,0,0,1-.59,2.8,6.14,6.14,0,0,1-1.91,1.54,1.6,1.6,0,0,1-1,.33,2.13,2.13,0,0,1-1.37-1.27,7.7,7.7,0,0,1-.58-2,44.78,44.78,0,0,1-.82-10.21,1.55,1.55,0,0,1,.27-1,.48.48,0,0,1,.75.3Z"/><path class="cls-13" d="M320.4,219.25a4.11,4.11,0,0,0,.87,2.34,1.78,1.78,0,0,0,1.24.44,4.74,4.74,0,0,0,2.58-.67,1.38,1.38,0,0,0,.69-.79,3.16,3.16,0,0,0-.29-1.83,41.52,41.52,0,0,0-4-8c-.75-1.15-4-2.81-3.55-.34a41.93,41.93,0,0,0,1.45,4.17A37.54,37.54,0,0,1,320.4,219.25Z"/><path class="cls-13" d="M302.37,221.12a4.15,4.15,0,0,1,.49.91,4.72,4.72,0,0,1,.18,1.14,14.49,14.49,0,0,0,1.55,5.32,2.83,2.83,0,0,1,.38,1,1.31,1.31,0,0,1-.18.75c-.72,1.29-2.54.93-3.71-.33a11.43,11.43,0,0,1-2.3-4.88,37.55,37.55,0,0,1-.9-4.52c-.13-1,.14-3.4.78-4C300,215.28,301.6,219.95,302.37,221.12Z"/><path class="cls-13" d="M282.6,208c2.15-2.64,6-2.78,9.14-.34l1.06-5.18c-1.43-2.66-3-5.5-5.26-6.83-1.09-.65-2.61-1.43-2.61-2.84,0-.42.61.44.78.13a12.41,12.41,0,0,1,4.69-4.49,30.22,30.22,0,0,1,18.13-4.24,2.71,2.71,0,0,1,2.23,1.06c.86,1.29-.36,1.86-1.49,2.06l2.36,7.58,3.26,1.23a6.65,6.65,0,0,1,8.37-5c3.64,1,7.08,4.83,8.84,9.29.39,1,1,2.27,1.78,2.14a1,1,0,0,0,.6-.48c1.38-2.06.49-5.77-1-8.53a19.17,19.17,0,0,0-7.72-8,10.25,10.25,0,0,0-8.92-.57,21.94,21.94,0,0,0-3.59,2.29c-.36.26-.81.51-1.25.21-.6-.41-.67-1.43-.63-2.2.11-2.26.11-4.85-1.19-6.82-1.59-2.4-4.21-2.59-6.36-2.39a40,40,0,0,0-18.93,6.5,8.24,8.24,0,0,0-2.55,2.44,5.62,5.62,0,0,0-.66,4.1c.68,3.05,3.56,4.89,4.88,7.74a4,4,0,0,1,.43,1.65,1.93,1.93,0,0,1-1.44,1.89,11,11,0,0,1-2.38.11,5.85,5.85,0,0,0-5.11,4.16,12.25,12.25,0,0,0,.49,8.5c.25.61,1.51,3.24,2.25,2.52.25-.24,0-1.4,0-1.81a12.31,12.31,0,0,1,.16-2A8.34,8.34,0,0,1,282.6,208Z"/><path class="cls-12" d="M282.38,228.23a14.08,14.08,0,0,0,2.43,3.81,5.62,5.62,0,0,0,4.41,1.66c3.9-.29,6.43-4.16,8.63-7.8.84.59,1.16,1.92,1.39,3.05.67,3.33,1.76,7.09,4.17,9,2,1.53,4.18,1.34,6.18,1,6.3-1,12.59-2.62,17.54-6.82a10.22,10.22,0,0,0,2.95-3.71,8.21,8.21,0,0,0,.29-5.6c-1.22-3.9-5-5.89-7-9.42,4.56-.21,9.23-.82,12.62-4a8.62,8.62,0,0,0,2.76-5,13.9,13.9,0,0,0-1.64-8.09,27.55,27.55,0,0,0-5-6.58,60.52,60.52,0,0,1,1,9.62,7.71,7.71,0,0,1-.29,2.73A4.39,4.39,0,0,1,331.3,204a17,17,0,0,1-8.24,3.44c-.87.11-1.87.25-2.22,1.21a3.26,3.26,0,0,0-.09,1.48c.26,2,1.37,3.94,2.33,5.8s1.83,4,1.49,5.9c-.42,2.29-2.43,3.05-4.15,3.79-3.63,1.57-6.84,4.17-10.63,5.31a8.72,8.72,0,0,1-6.6-.36,9.29,9.29,0,0,1-4.73-6.68c-.15-1.14,0-2.24-.22-3.38s-.8-2.42-1.69-2.74-1.6.45-2.09,1.25c-1.68,2.75-2.91,6.68-5.88,6.84-1.69.09-3.45-1.14-5.09-2.35a25.48,25.48,0,0,1-3.27-2.78c-.83-.86-1.58-2.49-2.44-3.12A68.12,68.12,0,0,0,282.38,228.23Z"/><path class="cls-14" d="M323.25,183.36a8.7,8.7,0,0,0-9.21,2.75l-2.15-.55s2.42-4.47.26-8.83c-2-4.06-11.69-5.38-27.56,3.34C275,185.35,285,196,285,196l.25,3.43s-5.95-1.15-8.4,2.9-1.17,17.47,7.13,24.44,11.71-7.73,11.71-7.73l2.23,2.28s-.8,8.93,4.55,11.73,21.69-4.26,24.83-9.27-5.17-12.91-5.17-12.91l2.7-2s10.72.07,11.76-8.69S329.34,184.9,323.25,183.36Zm9,16.77c-.86,7.27-11.72,5.1-11.72,5.1l-2.57,4s6.88,6.55,4.28,10.71-16.15,10-20.59,7.69-2.15-11.24-2.15-11.24l-4.83-1.77s-1.47,13.58-8.35,7.8-8.41-15.86-6.37-19.22,9.58-1,9.58-1l-.66-5.91s-10-8.18-2.06-12.56c13.16-7.24,21.83-6.4,22.85-2.77,1.07,3.79.4,5.7,0,6.41h0l3.2,3.34s3.4-5.9,8.45-4.61S333.13,192.85,332.27,200.12Z"/><path class="cls-12" d="M208.46,343.51c.4,4.64,1.85,9.3,3.29,13.89a4,4,0,0,0,.48,1.12,2.16,2.16,0,0,0,1.1.78,5.34,5.34,0,0,0,3.86-.41,1.34,1.34,0,0,0,.67-.46,2.84,2.84,0,0,0-.23-2.38c-1.95-4.52-6-7.9-7-12.67-.18-.83.29-5-.76-4.71C209.1,338.83,208.39,342.73,208.46,343.51Z"/><path class="cls-12" d="M237.14,330.22c1.78.3,3.32,2.4,4.5,4.4,1.06,1.79,2,3.65,2.94,5.56a7.2,7.2,0,0,1,.59,1.58,3.57,3.57,0,0,1-.59,2.8,6.14,6.14,0,0,1-1.91,1.54,1.6,1.6,0,0,1-1,.33,2.13,2.13,0,0,1-1.37-1.27,7.7,7.7,0,0,1-.58-2,44.77,44.77,0,0,1-.82-10.21,1.55,1.55,0,0,1,.27-1,.48.48,0,0,1,.75.3Z"/><path class="cls-13" d="M248.64,375.18a4.11,4.11,0,0,0,.87,2.34,1.78,1.78,0,0,0,1.24.44,4.74,4.74,0,0,0,2.58-.67,1.38,1.38,0,0,0,.69-.79,3.16,3.16,0,0,0-.29-1.83,41.51,41.51,0,0,0-4-8c-.75-1.15-4-2.81-3.55-.34a41.9,41.9,0,0,0,1.45,4.17A37.57,37.57,0,0,1,248.64,375.18Z"/><path class="cls-13" d="M230.61,377.06a4.15,4.15,0,0,1,.49.91,4.72,4.72,0,0,1,.18,1.14,14.49,14.49,0,0,0,1.55,5.32,2.82,2.82,0,0,1,.38,1,1.31,1.31,0,0,1-.18.75c-.72,1.29-2.54.93-3.71-.33A11.43,11.43,0,0,1,227,381a37.53,37.53,0,0,1-.9-4.52c-.13-1,.14-3.4.78-4C228.27,371.21,229.85,375.88,230.61,377.06Z"/><path class="cls-13" d="M210.84,363.89c2.15-2.64,6-2.78,9.14-.34l1.06-5.18c-1.43-2.66-3-5.5-5.26-6.83-1.09-.65-2.61-1.43-2.61-2.84,0-.42.61.44.78.13a12.41,12.41,0,0,1,4.69-4.49,30.22,30.22,0,0,1,18.13-4.24,2.71,2.71,0,0,1,2.23,1.06c.86,1.29-.36,1.86-1.49,2.06l2.36,7.58,3.26,1.23a6.65,6.65,0,0,1,8.37-5c3.64,1,7.08,4.83,8.84,9.29.39,1,1,2.27,1.78,2.14a1,1,0,0,0,.6-.48c1.38-2.06.49-5.77-1-8.53a19.18,19.18,0,0,0-7.72-8,10.25,10.25,0,0,0-8.92-.57,22,22,0,0,0-3.59,2.29c-.36.26-.81.51-1.25.21-.6-.41-.67-1.43-.63-2.2.11-2.26.11-4.85-1.19-6.82-1.59-2.4-4.21-2.59-6.36-2.39a40,40,0,0,0-18.93,6.5A8.24,8.24,0,0,0,210.6,341a5.62,5.62,0,0,0-.66,4.1c.68,3.05,3.56,4.89,4.88,7.74a4,4,0,0,1,.43,1.65,1.93,1.93,0,0,1-1.44,1.89,11,11,0,0,1-2.38.11,5.85,5.85,0,0,0-5.11,4.16,12.25,12.25,0,0,0,.49,8.5c.25.61,1.51,3.24,2.25,2.52.25-.24,0-1.4,0-1.81a12.32,12.32,0,0,1,.16-2A8.34,8.34,0,0,1,210.84,363.89Z"/><path class="cls-12" d="M210.62,384.17a14.08,14.08,0,0,0,2.43,3.81,5.62,5.62,0,0,0,4.41,1.66c3.9-.29,6.43-4.16,8.63-7.81.84.59,1.16,1.92,1.39,3.05.67,3.33,1.76,7.09,4.17,9,2,1.53,4.18,1.34,6.18,1,6.3-1,12.59-2.62,17.54-6.82a10.22,10.22,0,0,0,2.95-3.71,8.21,8.21,0,0,0,.29-5.6c-1.22-3.9-5-5.89-7-9.42,4.56-.21,9.23-.82,12.62-4a8.62,8.62,0,0,0,2.76-5,13.9,13.9,0,0,0-1.64-8.09,27.54,27.54,0,0,0-5-6.58,60.5,60.5,0,0,1,1,9.62,7.71,7.71,0,0,1-.29,2.73,4.39,4.39,0,0,1-1.58,1.93,17,17,0,0,1-8.24,3.44c-.87.11-1.87.25-2.22,1.21a3.26,3.26,0,0,0-.09,1.48c.26,2,1.37,3.94,2.33,5.8s1.83,4,1.49,5.9c-.42,2.29-2.43,3.05-4.15,3.79-3.63,1.57-6.84,4.17-10.63,5.31a8.72,8.72,0,0,1-6.6-.36,9.29,9.29,0,0,1-4.73-6.68c-.15-1.14,0-2.24-.22-3.38s-.8-2.42-1.69-2.74-1.6.45-2.09,1.25c-1.68,2.75-2.91,6.68-5.88,6.84-1.69.09-3.45-1.14-5.09-2.35a25.48,25.48,0,0,1-3.27-2.78c-.83-.86-1.58-2.49-2.44-3.12A68.14,68.14,0,0,0,210.62,384.17Z"/><path class="cls-14" d="M251.49,339.29a8.7,8.7,0,0,0-9.21,2.75l-2.15-.55s2.42-4.47.26-8.83c-2-4.06-11.69-5.38-27.56,3.34-9.59,5.27.43,15.93.43,15.93l.25,3.43s-5.95-1.15-8.4,2.9-1.17,17.47,7.13,24.44S223.94,375,223.94,375l2.23,2.28s-.8,8.93,4.55,11.73,21.69-4.26,24.83-9.27-5.17-12.91-5.17-12.91l2.7-2s10.72.07,11.76-8.69S257.59,340.84,251.49,339.29Zm9,16.77c-.86,7.27-11.72,5.1-11.72,5.1l-2.57,4s6.88,6.55,4.28,10.71-16.15,10-20.59,7.69-2.15-11.24-2.15-11.24l-4.83-1.77s-1.47,13.58-8.35,7.8-8.41-15.86-6.37-19.22,9.58-1,9.58-1l-.66-5.91s-10-8.18-2.06-12.56c13.16-7.24,21.83-6.4,22.85-2.77,1.07,3.79.4,5.7,0,6.41h0l3.2,3.34s3.4-5.9,8.45-4.61S261.37,348.79,260.51,356.06Z"/><path class="cls-12" d="M373,321.34c-3,3.56-5.26,7.89-7.48,12.15a4,4,0,0,0-.45,1.14,2.16,2.16,0,0,0,.23,1.33,5.34,5.34,0,0,0,3,2.43,1.34,1.34,0,0,0,.8.15c.67-.14,1.2-1,1.52-1.85,1.81-4.58,1.34-9.83,4-13.92.46-.71,3.7-3.3,2.79-3.87C376.79,318.48,373.54,320.74,373,321.34Z"/><path class="cls-12" d="M402.73,332.18c1.05,1.47.65,4,.08,6.29-.51,2-1.13,4-1.84,6a7.19,7.19,0,0,1-.7,1.53,3.57,3.57,0,0,1-2.4,1.56,6.14,6.14,0,0,1-2.44-.25,1.6,1.6,0,0,1-1-.48,2.13,2.13,0,0,1-.08-1.87,7.7,7.7,0,0,1,1-1.85,44.78,44.78,0,0,1,6.63-7.81,1.55,1.55,0,0,1,.88-.5.48.48,0,0,1,.32.74Z"/><path class="cls-13" d="M379.13,372.14a4.11,4.11,0,0,0-1,2.27,1.78,1.78,0,0,0,.57,1.19,4.74,4.74,0,0,0,2.3,1.35,1.38,1.38,0,0,0,1-.07,3.16,3.16,0,0,0,1.08-1.5,41.51,41.51,0,0,0,2.76-8.48c.28-1.35-.82-4.78-2.28-2.75a41.92,41.92,0,0,0-1.91,4A37.54,37.54,0,0,1,379.13,372.14Z"/><path class="cls-13" d="M365,360.74a4.15,4.15,0,0,1-.3,1,4.73,4.73,0,0,1-.68.94,14.49,14.49,0,0,0-2.66,4.86,2.83,2.83,0,0,1-.45,1,1.31,1.31,0,0,1-.66.4c-1.42.4-2.45-1.13-2.4-2.85a11.43,11.43,0,0,1,1.82-5.08,37.56,37.56,0,0,1,2.55-3.83c.59-.78,2.5-2.31,3.37-2.28C367.51,354.95,365.33,359.37,365,360.74Z"/><path class="cls-13" d="M360.33,337.46c3.38-.35,6.24,2.29,6.71,6.22l4.41-2.92c.87-2.89,1.74-6,1.1-8.55-.31-1.23-.84-2.86.15-3.85.3-.29.12.74.46.65a12.41,12.41,0,0,1,6.49.13,30.22,30.22,0,0,1,15.83,9.8,2.71,2.71,0,0,1,.83,2.33c-.3,1.52-1.57,1.07-2.51.41l-3.68,7,1.44,3.17a6.65,6.65,0,0,1,9.43,2.4c1.84,3.31,1.6,8.42-.3,12.82-.42,1-.89,2.33-.25,2.77a1,1,0,0,0,.76.08c2.43-.48,4.42-3.74,5.32-6.73a19.17,19.17,0,0,0,.19-11.12,10.25,10.25,0,0,0-5.92-6.7,21.94,21.94,0,0,0-4.16-.91c-.44-.07-.94-.21-1-.74-.14-.71.53-1.48,1.1-2,1.67-1.52,3.5-3.35,4-5.67.57-2.82-1.15-4.81-2.82-6.18a40,40,0,0,0-18-8.76,8.24,8.24,0,0,0-3.53-.07,5.62,5.62,0,0,0-3.36,2.43c-1.68,2.64-.93,6-2,8.93a4,4,0,0,1-.86,1.47,1.93,1.93,0,0,1-2.35.33,11,11,0,0,1-1.76-1.6,5.85,5.85,0,0,0-6.56-.66,12.25,12.25,0,0,0-5.66,6.37c-.25.61-1.22,3.36-.19,3.38.35,0,1-1,1.29-1.28a12.31,12.31,0,0,1,1.54-1.32A8.34,8.34,0,0,1,360.33,337.46Z"/><path class="cls-12" d="M345.86,351.66a14.08,14.08,0,0,0-1,4.42,5.63,5.63,0,0,0,1.95,4.29c3,2.55,7.49,1.59,11.62.56.18,1-.53,2.18-1.17,3.14-1.88,2.83-3.76,6.26-3.39,9.31.31,2.47,2,3.9,3.66,5.09,5.16,3.74,10.76,7,17.24,7.55a10.22,10.22,0,0,0,4.71-.55,8.21,8.21,0,0,0,4.16-3.77c1.89-3.62.63-7.68,1.72-11.58,3.37,3.07,7.11,5.94,11.73,6.1a8.62,8.62,0,0,0,5.49-1.59,13.9,13.9,0,0,0,4.55-6.89,27.54,27.54,0,0,0,1.14-8.16,60.5,60.5,0,0,1-6.1,7.5,7.71,7.71,0,0,1-2.13,1.73,4.39,4.39,0,0,1-2.48.25,17,17,0,0,1-8.26-3.38c-.7-.53-1.5-1.14-2.43-.71a3.26,3.26,0,0,0-1.1,1c-1.26,1.63-1.81,3.76-2.45,5.75s-1.56,4.16-3.11,5.23c-1.91,1.33-3.87.44-5.61-.24-3.68-1.46-7.79-1.88-11.27-3.75a8.72,8.72,0,0,1-4.43-4.92,9.29,9.29,0,0,1,1.37-8.07c.7-.91,1.56-1.62,2.23-2.55s1.14-2.28.74-3.14-1.45-.81-2.36-.59c-3.13.76-6.77,2.68-9,.69-1.26-1.13-1.64-3.25-1.94-5.26a25.49,25.49,0,0,1-.36-4.28c0-1.19.64-2.88.47-3.93A68.12,68.12,0,0,0,345.86,351.66Z"/><path class="cls-14" d="M406.49,348.73a8.7,8.7,0,0,0-8.47-4.56l-1.13-1.9s4.87-1.46,6.42-6.07c1.44-4.3-4.48-12.07-21.88-17.09-10.51-3-10.95,11.59-10.95,11.59l-2.25,2.61s-3.4-5-8-3.88S347.08,341,348,351.77s13.75,2.79,13.75,2.79l0,3.19s-6.88,5.76-5.06,11.52,18.37,12.3,24.13,11,5.46-12.79,5.46-12.79l3.33.49s7.54,7.62,14.47,2.15S409.71,354.13,406.49,348.73ZM401,367c-5.74,4.54-11.9-4.67-11.9-4.67l-4.62,1s.25,9.5-4.52,10.61-18.5-4.31-20-9.09,6.41-9.48,6.41-9.48l-2.17-4.67s-10.63,8.58-11.42-.37,5.24-17.17,9.06-18.11,7.52,6,7.52,6l3.71-4.65s-1.31-12.86,7.41-10.34c14.43,4.17,20,10.89,18.14,14.17-1.92,3.44-3.75,4.32-4.55,4.51h0l-.09,4.63s6.57-1.78,9.25,2.7S406.78,362.43,401,367Z"/><path class="cls-12" d="M443.53,138.69c-3,3.56-5.26,7.89-7.48,12.15a4,4,0,0,0-.45,1.14,2.16,2.16,0,0,0,.23,1.33,5.34,5.34,0,0,0,3,2.43,1.34,1.34,0,0,0,.8.15c.67-.14,1.2-1,1.52-1.85,1.81-4.58,1.34-9.83,4-13.92.46-.71,3.7-3.3,2.79-3.87C447.29,135.83,444,138.09,443.53,138.69Z"/><path class="cls-12" d="M473.22,149.53c1.05,1.47.65,4,.08,6.29-.51,2-1.13,4-1.84,6a7.19,7.19,0,0,1-.7,1.53,3.57,3.57,0,0,1-2.4,1.56,6.14,6.14,0,0,1-2.44-.25,1.6,1.6,0,0,1-1-.48,2.13,2.13,0,0,1-.08-1.87,7.7,7.7,0,0,1,1-1.85,44.78,44.78,0,0,1,6.63-7.81,1.55,1.55,0,0,1,.88-.5.48.48,0,0,1,.32.74Z"/><path class="cls-13" d="M449.63,189.49a4.11,4.11,0,0,0-1,2.27,1.78,1.78,0,0,0,.57,1.19,4.74,4.74,0,0,0,2.3,1.35,1.38,1.38,0,0,0,1-.07,3.16,3.16,0,0,0,1.08-1.5,41.51,41.51,0,0,0,2.76-8.48c.28-1.35-.82-4.78-2.28-2.75a41.92,41.92,0,0,0-1.91,4A37.54,37.54,0,0,1,449.63,189.49Z"/><path class="cls-13" d="M435.53,178.09a4.15,4.15,0,0,1-.3,1,4.71,4.71,0,0,1-.68.94,14.49,14.49,0,0,0-2.66,4.86,2.82,2.82,0,0,1-.45,1,1.31,1.31,0,0,1-.66.4c-1.42.4-2.45-1.13-2.4-2.85a11.43,11.43,0,0,1,1.82-5.08,37.55,37.55,0,0,1,2.55-3.83c.59-.78,2.5-2.31,3.37-2.28C438,172.3,435.82,176.71,435.53,178.09Z"/><path class="cls-13" d="M430.83,154.81c3.38-.35,6.24,2.29,6.71,6.22l4.41-2.92c.87-2.89,1.74-6,1.1-8.55-.31-1.23-.84-2.86.15-3.85.3-.29.12.74.46.65a12.41,12.41,0,0,1,6.49.13,30.22,30.22,0,0,1,15.83,9.8,2.71,2.71,0,0,1,.83,2.33c-.3,1.52-1.57,1.07-2.51.41l-3.68,7,1.44,3.17a6.65,6.65,0,0,1,9.43,2.4c1.84,3.31,1.6,8.42-.3,12.82-.42,1-.89,2.33-.25,2.77a1,1,0,0,0,.76.08c2.43-.48,4.42-3.74,5.32-6.73a19.18,19.18,0,0,0,.19-11.12,10.25,10.25,0,0,0-5.92-6.7,21.94,21.94,0,0,0-4.16-.91c-.44-.07-.94-.21-1-.74-.14-.71.53-1.48,1.1-2,1.67-1.52,3.5-3.35,4-5.67.57-2.82-1.15-4.81-2.82-6.18a40,40,0,0,0-18-8.76,8.25,8.25,0,0,0-3.53-.07,5.62,5.62,0,0,0-3.36,2.43c-1.68,2.64-.93,6-2,8.93a4,4,0,0,1-.86,1.47,1.93,1.93,0,0,1-2.35.33,11,11,0,0,1-1.76-1.6,5.85,5.85,0,0,0-6.56-.66,12.25,12.25,0,0,0-5.66,6.37c-.25.61-1.22,3.36-.19,3.38.35,0,1-1,1.29-1.28a12.3,12.3,0,0,1,1.54-1.32A8.34,8.34,0,0,1,430.83,154.81Z"/><path class="cls-12" d="M416.36,169a14.08,14.08,0,0,0-1,4.42,5.62,5.62,0,0,0,1.95,4.29c3,2.55,7.49,1.59,11.62.56.18,1-.53,2.18-1.17,3.14-1.88,2.83-3.76,6.26-3.39,9.31.31,2.47,2,3.9,3.66,5.09,5.16,3.74,10.76,7,17.24,7.55a10.22,10.22,0,0,0,4.71-.55,8.21,8.21,0,0,0,4.16-3.77c1.89-3.62.63-7.68,1.72-11.58,3.37,3.07,7.11,5.94,11.73,6.1a8.62,8.62,0,0,0,5.49-1.59,13.9,13.9,0,0,0,4.55-6.89,27.55,27.55,0,0,0,1.14-8.16,60.51,60.51,0,0,1-6.1,7.5,7.71,7.71,0,0,1-2.13,1.73,4.39,4.39,0,0,1-2.48.25,17,17,0,0,1-8.26-3.38c-.7-.54-1.5-1.14-2.43-.71a3.26,3.26,0,0,0-1.1,1c-1.26,1.63-1.81,3.76-2.45,5.75s-1.56,4.16-3.11,5.23c-1.91,1.33-3.87.44-5.61-.24-3.68-1.46-7.79-1.88-11.27-3.75a8.72,8.72,0,0,1-4.43-4.91,9.29,9.29,0,0,1,1.37-8.07c.7-.91,1.56-1.62,2.23-2.55s1.14-2.28.74-3.14-1.45-.81-2.36-.59c-3.13.76-6.77,2.68-9,.69-1.26-1.13-1.64-3.25-1.94-5.26a25.46,25.46,0,0,1-.36-4.28c0-1.19.64-2.88.47-3.93A68.13,68.13,0,0,0,416.36,169Z"/><path class="cls-14" d="M477,166.08a8.7,8.7,0,0,0-8.47-4.56l-1.13-1.9s4.87-1.46,6.42-6.07c1.44-4.3-4.48-12.07-21.88-17.09-10.51-3-10.95,11.59-10.95,11.59l-2.25,2.61s-3.4-5-8-3.88-13.16,11.54-12.21,22.34,13.75,2.79,13.75,2.79l0,3.19s-6.88,5.76-5.06,11.52,18.37,12.3,24.13,11,5.46-12.79,5.46-12.79l3.33.49s7.54,7.62,14.47,2.15S480.21,171.48,477,166.08Zm-5.45,18.24c-5.74,4.54-11.9-4.67-11.9-4.67l-4.62,1s.25,9.5-4.52,10.61-18.5-4.31-20-9.09,6.41-9.48,6.41-9.48L434.71,168s-10.63,8.58-11.42-.37,5.24-17.17,9.06-18.11,7.52,6,7.52,6l3.71-4.65S442.28,138,451,140.56c14.43,4.17,20,10.89,18.14,14.17-1.92,3.44-3.75,4.32-4.55,4.51h0l-.09,4.63s6.57-1.78,9.24,2.7S477.28,179.78,471.53,184.32Z"/><path class="cls-12" d="M540.21,302.44c-3,3.56-5.26,7.89-7.48,12.15a4,4,0,0,0-.45,1.14,2.17,2.17,0,0,0,.23,1.33,5.34,5.34,0,0,0,3,2.43,1.34,1.34,0,0,0,.8.15c.67-.14,1.2-1,1.52-1.85,1.81-4.58,1.34-9.83,4-13.92.46-.71,3.7-3.3,2.79-3.87C544,299.59,540.72,301.85,540.21,302.44Z"/><path class="cls-12" d="M569.9,313.28c1.05,1.47.65,4,.08,6.29-.51,2-1.13,4-1.84,6a7.19,7.19,0,0,1-.7,1.53,3.57,3.57,0,0,1-2.4,1.56,6.14,6.14,0,0,1-2.44-.25,1.6,1.6,0,0,1-1-.48,2.13,2.13,0,0,1-.08-1.87,7.7,7.7,0,0,1,1-1.85,44.78,44.78,0,0,1,6.63-7.81,1.55,1.55,0,0,1,.88-.5.48.48,0,0,1,.32.74Z"/><path class="cls-13" d="M546.31,353.24a4.11,4.11,0,0,0-1,2.27,1.78,1.78,0,0,0,.57,1.19,4.74,4.74,0,0,0,2.3,1.35,1.38,1.38,0,0,0,1-.07,3.16,3.16,0,0,0,1.08-1.5A41.52,41.52,0,0,0,553,348c.28-1.35-.82-4.78-2.28-2.75a41.91,41.91,0,0,0-1.91,4A37.54,37.54,0,0,1,546.31,353.24Z"/><path class="cls-13" d="M532.22,341.84a4.15,4.15,0,0,1-.3,1,4.71,4.71,0,0,1-.68.94,14.49,14.49,0,0,0-2.66,4.86,2.82,2.82,0,0,1-.45,1,1.31,1.31,0,0,1-.66.4c-1.42.4-2.45-1.13-2.4-2.85a11.43,11.43,0,0,1,1.82-5.08,37.58,37.58,0,0,1,2.55-3.83c.59-.78,2.5-2.31,3.37-2.28C534.69,336.05,532.51,340.47,532.22,341.84Z"/><path class="cls-13" d="M527.51,318.56c3.38-.35,6.24,2.29,6.71,6.22l4.41-2.92c.87-2.89,1.74-6,1.1-8.55-.31-1.23-.84-2.86.15-3.85.3-.29.12.74.46.65a12.41,12.41,0,0,1,6.49.13,30.22,30.22,0,0,1,15.83,9.8,2.71,2.71,0,0,1,.83,2.33c-.3,1.52-1.57,1.07-2.51.41l-3.68,7,1.44,3.17a6.65,6.65,0,0,1,9.43,2.4c1.84,3.31,1.6,8.42-.3,12.82-.42,1-.89,2.33-.25,2.77a1,1,0,0,0,.76.08c2.43-.48,4.42-3.74,5.32-6.73a19.17,19.17,0,0,0,.19-11.12,10.25,10.25,0,0,0-5.92-6.7,22,22,0,0,0-4.16-.91c-.44-.07-.94-.21-1-.74-.14-.71.53-1.48,1.1-2,1.67-1.52,3.5-3.35,4-5.67.57-2.82-1.15-4.81-2.82-6.18a40,40,0,0,0-18-8.76,8.24,8.24,0,0,0-3.53-.07,5.62,5.62,0,0,0-3.36,2.43c-1.68,2.64-.93,6-2,8.93a4,4,0,0,1-.86,1.47,1.93,1.93,0,0,1-2.35.33,11,11,0,0,1-1.76-1.6,5.85,5.85,0,0,0-6.56-.66,12.25,12.25,0,0,0-5.66,6.37c-.25.61-1.22,3.36-.19,3.38.35,0,1-1,1.29-1.28a12.31,12.31,0,0,1,1.54-1.32A8.34,8.34,0,0,1,527.51,318.56Z"/><path class="cls-12" d="M513,332.76a14.08,14.08,0,0,0-1,4.42,5.62,5.62,0,0,0,1.95,4.29c3,2.55,7.49,1.59,11.62.56.18,1-.53,2.18-1.17,3.14-1.88,2.83-3.76,6.26-3.39,9.31.31,2.47,2,3.9,3.66,5.09,5.16,3.74,10.76,7,17.24,7.55a10.22,10.22,0,0,0,4.71-.55,8.21,8.21,0,0,0,4.16-3.77c1.89-3.62.63-7.68,1.72-11.58,3.37,3.07,7.11,5.94,11.73,6.1a8.62,8.62,0,0,0,5.49-1.59,13.9,13.9,0,0,0,4.55-6.89,27.54,27.54,0,0,0,1.14-8.16,60.5,60.5,0,0,1-6.1,7.5,7.71,7.71,0,0,1-2.13,1.73,4.39,4.39,0,0,1-2.48.25,17,17,0,0,1-8.26-3.38c-.7-.54-1.5-1.14-2.43-.71a3.26,3.26,0,0,0-1.1,1c-1.26,1.63-1.81,3.76-2.45,5.75S549,357,547.42,358c-1.91,1.33-3.87.44-5.61-.24-3.68-1.45-7.79-1.88-11.27-3.75a8.72,8.72,0,0,1-4.43-4.92,9.29,9.29,0,0,1,1.37-8.07c.7-.91,1.56-1.62,2.23-2.55s1.14-2.28.74-3.14-1.45-.81-2.36-.59c-3.13.76-6.77,2.68-9,.69-1.26-1.13-1.64-3.25-1.94-5.26a25.46,25.46,0,0,1-.36-4.28c0-1.19.64-2.88.47-3.93A68.13,68.13,0,0,0,513,332.76Z"/><path class="cls-14" d="M573.67,329.84a8.7,8.7,0,0,0-8.47-4.56l-1.13-1.9s4.87-1.46,6.42-6.07c1.44-4.3-4.48-12.07-21.88-17.09-10.51-3-10.95,11.59-10.95,11.59l-2.25,2.61s-3.4-5-8-3.88-13.16,11.54-12.21,22.34S529,335.67,529,335.67l0,3.19s-6.88,5.76-5.06,11.52,18.37,12.3,24.13,11,5.46-12.79,5.46-12.79l3.33.49s7.54,7.62,14.47,2.15S576.89,335.24,573.67,329.84Zm-5.45,18.24c-5.74,4.54-11.9-4.67-11.9-4.67l-4.62,1s.25,9.5-4.52,10.61-18.5-4.31-20-9.09,6.41-9.48,6.41-9.48l-2.17-4.67s-10.63,8.58-11.42-.37,5.24-17.17,9.06-18.11,7.52,6,7.52,6l3.71-4.65s-1.31-12.86,7.41-10.34c14.43,4.17,20,10.89,18.14,14.17-1.92,3.44-3.75,4.32-4.55,4.51h0l-.09,4.63s6.57-1.78,9.24,2.7S574,343.54,568.22,348.08Z"/><path class="cls-12" d="M350.84,496.31c4.17,2.06,8.92,3.24,13.58,4.38a4,4,0,0,0,1.21.17,2.16,2.16,0,0,0,1.23-.54,5.33,5.33,0,0,0,1.65-3.51,1.35,1.35,0,0,0,0-.81c-.29-.62-1.3-.91-2.16-1-4.87-.68-9.86,1-14.47-.57-.8-.28-4.09-2.81-4.42-1.79C347.17,493.33,350.14,496,350.84,496.31Z"/><path class="cls-12" d="M354.33,464.89c1.18-1.37,3.77-1.59,6.09-1.57,2.08,0,4.18.14,6.28.36a7.2,7.2,0,0,1,1.66.32,3.57,3.57,0,0,1,2.09,2,6.14,6.14,0,0,1,.33,2.43,1.6,1.6,0,0,1-.24,1,2.13,2.13,0,0,1-1.79.52,7.7,7.7,0,0,1-2-.56,44.78,44.78,0,0,1-9.16-4.59c-.31-.21-.63-.45-.7-.74a.48.48,0,0,1,.65-.49Z"/><path class="cls-13" d="M398.74,478.33a4.11,4.11,0,0,0,2.46.47,1.78,1.78,0,0,0,1-.83,4.74,4.74,0,0,0,.76-2.55,1.38,1.38,0,0,0-.32-1,3.16,3.16,0,0,0-1.72-.69A41.51,41.51,0,0,0,392,473c-1.38,0-4.45,1.93-2.13,2.86a41.9,41.9,0,0,0,4.32.92A37.53,37.53,0,0,1,398.74,478.33Z"/><path class="cls-13" d="M391,494.73a4.15,4.15,0,0,1,1,.05,4.72,4.72,0,0,1,1.07.44,14.49,14.49,0,0,0,5.35,1.43,2.83,2.83,0,0,1,1.06.2,1.31,1.31,0,0,1,.55.54c.73,1.29-.52,2.65-2.2,3a11.43,11.43,0,0,1-5.36-.56,37.55,37.55,0,0,1-4.33-1.57c-.9-.39-2.84-1.88-3-2.74C384.8,493.7,389.61,494.78,391,494.73Z"/><path class="cls-13" d="M369.51,504.82c-1.14-3.2.75-6.6,4.45-8l-3.88-3.59c-3-.16-6.27-.27-8.57,1-1.12.6-2.58,1.5-3.78.76-.36-.22.69-.3.52-.6a12.41,12.41,0,0,1-1.41-6.34,30.22,30.22,0,0,1,5.77-17.7,2.71,2.71,0,0,1,2.06-1.36c1.55-.07,1.41,1.27,1,2.34l7.71,1.91,2.74-2.15a6.65,6.65,0,0,1,.1-9.73c2.78-2.57,7.8-3.56,12.52-2.75,1.05.18,2.47.31,2.75-.41a1,1,0,0,0-.1-.76c-1-2.25-4.68-3.41-7.8-3.57a19.18,19.18,0,0,0-10.85,2.45,10.25,10.25,0,0,0-5.1,7.34,21.94,21.94,0,0,0,.1,4.26c0,.44,0,1-.47,1.18-.66.3-1.57-.17-2.21-.6-1.88-1.26-4.09-2.6-6.45-2.51-2.88.12-4.4,2.26-5.34,4.2A40,40,0,0,0,349,489.71a8.24,8.24,0,0,0,.77,3.45,5.62,5.62,0,0,0,3.16,2.69c3,1,6-.52,9.15-.16a4,4,0,0,1,1.63.49,1.93,1.93,0,0,1,.87,2.21,11,11,0,0,1-1.14,2.09,5.85,5.85,0,0,0,.91,6.53,12.25,12.25,0,0,0,7.53,4c.65.1,3.56.39,3.32-.62-.08-.34-1.19-.73-1.55-.95a12.31,12.31,0,0,1-1.65-1.18A8.34,8.34,0,0,1,369.51,504.82Z"/><path class="cls-12" d="M386.74,515.51a14.08,14.08,0,0,0,4.52-.11,5.63,5.63,0,0,0,3.7-2.91c1.77-3.49-.23-7.66-2.21-11.42.94-.42,2.24,0,3.33.39,3.2,1.16,7,2.17,9.85,1.08,2.33-.88,3.31-2.89,4.07-4.76,2.41-5.9,4.28-12.12,3.25-18.54a10.22,10.22,0,0,0-1.65-4.45,8.21,8.21,0,0,0-4.64-3.15c-4-1-7.61,1.21-11.66,1.07,2.18-4,4.08-8.32,3.15-12.85a8.62,8.62,0,0,0-2.85-5,13.9,13.9,0,0,0-7.77-2.79,27.55,27.55,0,0,0-8.19.83,60.51,60.51,0,0,1,8.73,4.15,7.71,7.71,0,0,1,2.19,1.66,4.39,4.39,0,0,1,.83,2.35A17,17,0,0,1,390,470c-.35.8-.75,1.73-.12,2.53a3.26,3.26,0,0,0,1.22.84c1.88.84,4.08.87,6.17,1s4.41.53,5.82,1.78c1.74,1.54,1.35,3.66,1.1,5.51-.54,3.92,0,8-1,11.84a8.72,8.72,0,0,1-3.73,5.47,9.29,9.29,0,0,1-8.17.59c-1.05-.46-1.94-1.13-3-1.56s-2.49-.57-3.22,0-.44,1.6,0,2.43c1.48,2.86,4.21,5.95,2.8,8.57-.8,1.49-2.76,2.37-4.65,3.14a25.49,25.49,0,0,1-4.07,1.36c-1.16.26-3,.06-3.93.48A68.11,68.11,0,0,0,386.74,515.51Z"/><path class="cls-14" d="M369.52,457.31a8.7,8.7,0,0,0-2.42,9.31l-1.58,1.55s-2.57-4.39-7.42-4.8c-4.52-.38-10.66,7.21-11.41,25.31-.46,10.93,13.85,7.88,13.85,7.88l3.06,1.57s-4.07,4.49-1.87,8.69,14.34,10,24.6,6.56-.55-14-.55-14l3.11-.73s7.23,5.31,12.39,2.18,7.59-20.77,4.93-26-13.72-2.27-13.72-2.27l-.31-3.35s5.62-9.13-1.34-14.56S374,452.9,369.52,457.31Zm19,1c5.77,4.5-1.71,12.67-1.71,12.67l2.06,4.26s9.17-2.49,11.38,1.88.2,19-4.09,21.59-10.73-4-10.73-4l-4,3.22s10.86,8.29,2.34,11.18-17.92-1-19.74-4.5,4.06-8.74,4.06-8.74l-5.4-2.5s-12.18,4.32-11.81-4.74c.63-15,5.84-22,9.46-21,3.79,1.05,5.08,2.62,5.46,3.35h0l4.51-1s-3.28-6,.43-9.62S382.76,453.78,388.53,458.28Z"/><path class="cls-15" d="M267.5,392.91c14-1.34,28.17.5,41.87,3.74,7.3,1.73,14.53,3.86,22,4.65,12.62,1.33,25.7-1.21,37.89,2.32,2.54.73,5.17,1.87,6.55,4.12,1.77,2.89.92,6.6,0,9.87-1.65,6-1.43,11.35-3.08,17.32-.39,1.41-4.07,5-8.87,4.71-2.33-.12-12.54,1.54-25.51-11.28-9.88-9.77-31.59-17.26-45-21-6.66-1.84-13.16-4.28-19.93-5.65-18.48-3.75-49.64,16.46-51,10.84C222,407.69,251.29,394.46,267.5,392.91Z"/><path class="cls-16" d="M247.39,401.73c16.55-6.92,35.66-5.8,52.61.06,3.72,1.29,7.43,2.81,11.36,3a2.85,2.85,0,0,0,2.33-.65,2.11,2.11,0,0,0-.46-2.84,6.13,6.13,0,0,0-3-1.12c-8.16-1.54-16.33-3.07-24.54-4.36-7.86-1.23-15.91-2.23-23.74-.83a59.22,59.22,0,0,0-12.25,3.86c-1.09.45-4.33,1.2-4.74,2.46C244.42,403.09,246.32,402.18,247.39,401.73Z"/><path class="cls-16" d="M320.21,406.62a14.09,14.09,0,0,0,2.58.29c4.22.36,7.93,2.88,12,4a5.82,5.82,0,0,0,2.89.2c2.1-.52,3.21-2.8,3.8-4.87a2.35,2.35,0,0,0,.12-1.14,2,2,0,0,0-1.87-1.27,14.69,14.69,0,0,0-4,.6c-4.27.81-8.55-.64-12.79-1-.86-.07-3.59-.71-4.29,0C317.34,404.64,319,406.27,320.21,406.62Z"/><path class="cls-17" d="M380.06,420.93a3,3,0,0,0,2,1.85,3.82,3.82,0,0,0,2-.32,30.59,30.59,0,0,0,5.59-2.71c1.46-.9,2.95-2.08,3.31-3.76-.07.83.78,1.48.9,2.31a2.62,2.62,0,0,1-1.09,2.09,20.07,20.07,0,0,1-9.65,5,3,3,0,0,0-.93.29,3.13,3.13,0,0,0-.8.8,14.64,14.64,0,0,1-6.76,4.7,1.59,1.59,0,0,1-1.56-.07,1.58,1.58,0,0,1-.37-.67,17.13,17.13,0,0,1,.46-12.36c.7-1.62,2-4,4-2.7S379.22,419,380.06,420.93Z"/><path class="cls-15" d="M311.23,296.52c6.55-12.46,15.85-23.3,26.07-33,5.44-5.16,11.19-10,15.94-15.85,8-9.83,13.07-22.16,22.7-30.43,2-1.72,4.39-3.31,7-3.23,3.39.1,6,2.85,8.27,5.39,4.09,4.65,8.71,7.42,12.8,12.06,1,1.09,1.92,6.12-.92,10-1.38,1.89-5.58,11.33-23.41,15.16-13.58,2.91-31.75,17-42.18,26.14-5.19,4.56-10.79,8.66-15.65,13.57C308.62,309.77,308.45,346.91,303,345,298.66,342.68,303.64,310.94,311.23,296.52Z"/><path class="cls-16" d="M307.59,318.17c3.28-17.63,14.69-33,28.88-44,3.11-2.4,6.42-4.68,8.74-7.86a2.85,2.85,0,0,0,.73-2.31,2.11,2.11,0,0,0-2.63-1.18,6.13,6.13,0,0,0-2.56,1.86c-5.76,6-11.52,12-17.09,18.14-5.34,5.9-10.59,12.09-13.7,19.41a59.23,59.23,0,0,0-3.48,12.36c-.22,1.16-1.37,4.27-.54,5.31C307.1,321.4,307.38,319.32,307.59,318.17Z"/><path class="cls-16" d="M351.58,259.94a14.1,14.1,0,0,0,1.65-2c2.61-3.33,6.76-5.05,9.92-7.86a5.82,5.82,0,0,0,1.75-2.3c.72-2-.58-4.21-2-5.85a2.35,2.35,0,0,0-.88-.73,2,2,0,0,0-2.09.87,14.69,14.69,0,0,0-1.69,3.68c-1.67,4-5.22,6.8-7.84,10.15-.53.68-2.56,2.61-2.39,3.56C348.35,261.26,350.61,260.8,351.58,259.94Z"/><path class="cls-17" d="M396.34,217.72a3,3,0,0,0,2.63-.64,3.82,3.82,0,0,0,.85-1.88,30.58,30.58,0,0,0,.8-6.16c0-1.72-.12-3.61-1.33-4.83.66.52,1.66.16,2.42.52a2.62,2.62,0,0,1,1.15,2.05,20.07,20.07,0,0,1-1.11,10.81,3,3,0,0,0-.27.94,3.12,3.12,0,0,0,.23,1.11,14.64,14.64,0,0,1,.23,8.23c-.14.53-.39,1.13-.92,1.27a1.58,1.58,0,0,1-.77-.05,17.13,17.13,0,0,1-10.09-7.15c-1-1.47-2.3-3.88-.06-4.83S394.31,217.39,396.34,217.72Z"/><path class="cls-15" d="M479.46,286.4c8.59,11.15,14.56,24.13,19.09,37.45,2.42,7.1,4.46,14.36,7.76,21.1,5.59,11.4,14.69,21.12,18.18,33.33.73,2.54,1.17,5.37,0,7.74-1.51,3-5.1,4.29-8.35,5.27-5.93,1.78-10.38,4.83-16.3,6.6-1.4.42-6.36-.81-8.71-5-1.14-2-8-9.8-4-27.6,3-13.56-2.18-35.94-6.16-49.24-2-6.62-3.37-13.42-5.81-19.89-6.65-17.65-40.33-33.29-36.28-37.41C442.75,255.72,469.53,273.5,479.46,286.4Z"/><path class="cls-16" d="M461.3,274.06c14.65,10.34,23.87,27.12,27.92,44.59.89,3.83,1.58,7.79,3.5,11.22a2.85,2.85,0,0,0,1.79,1.63,2.11,2.11,0,0,0,2.17-1.9,6.13,6.13,0,0,0-.63-3.1c-3-7.73-6.08-15.46-9.35-23.1-3.14-7.31-6.57-14.66-11.92-20.55a59.22,59.22,0,0,0-9.78-8.32c-1-.68-3.31-3-4.6-2.71C458.57,272.27,460.35,273.39,461.3,274.06Z"/><path class="cls-16" d="M495.87,338.33a14.09,14.09,0,0,0,1.13,2.34c1.94,3.77,1.77,8.25,3,12.3a5.82,5.82,0,0,0,1.36,2.55c1.55,1.5,4.07,1.23,6.15.63a2.35,2.35,0,0,0,1-.5,2,2,0,0,0,.08-2.26,14.69,14.69,0,0,0-2.64-3.07c-3-3.19-4-7.58-6-11.36-.4-.77-1.31-3.42-2.24-3.65C496,334.85,495.5,337.1,495.87,338.33Z"/><path class="cls-17" d="M515.57,396.63a3,3,0,0,0-.52,2.66,3.82,3.82,0,0,0,1.35,1.56,30.59,30.59,0,0,0,5.27,3.29c1.54.76,3.33,1.39,4.94.81-.75.38-.84,1.45-1.48,2a2.62,2.62,0,0,1-2.35.19,20.07,20.07,0,0,1-9.36-5.52,3,3,0,0,0-.74-.64,3.13,3.13,0,0,0-1.11-.25,14.64,14.64,0,0,1-7.57-3.23c-.42-.35-.86-.82-.77-1.36a1.57,1.57,0,0,1,.37-.67,17.13,17.13,0,0,1,10.71-6.18c1.74-.27,4.48-.47,4.42,2C518.68,393.51,516.72,394.92,515.57,396.63Z"/><path class="cls-18" d="M292.66,285.77c1.69,7.72.44,15.78-1.45,23.45-1.27,5.15-2.88,10.35-6,14.65-2.33,3.22-5.43,5.85-7.59,9.19-.63,1-1.19,2.22-.69,3.27a3,3,0,0,0,2,1.44c3.16.86,6.58-.68,8.84-3s3.59-5.45,4.88-8.46l10-23.47a29,29,0,0,0,2.28-6.88c1.13-7.29-3.26-15.34.28-21.82,2.23-4.07,6.87-6,10.94-8.27a68.2,68.2,0,0,0,12.51-9c3.17-2.83,6.23-6,7.78-10s1.28-8.89-1.66-12c-3.35,5-7.53,9.55-12.91,12.17s-12.11,3-17.18-.2c-3.74-2.35-6.24-6.33-10-8.58s-10.1-1.47-10.88,2.87c-.63,3.51,1,6.33-1.09,9.7-1.53,2.5-4.28,4-6.77,5.42-2.12,1.18-9.91,3.36-9.82,6.52.13,4.42,12.58,5.34,15.55,7.05C287.51,273.12,291.26,279.4,292.66,285.77Z"/><path class="cls-18" d="M489.11,185.87c1,2.73,3.39,4.66,5.34,6.82a25.44,25.44,0,0,1,6.48,17.71c-.16,4.84-1.71,9.52-3.41,14.06s-3.65,9.21-6.62,13.13c-7.95,10.5-21.79,14.37-34.74,16.76-2.11.39-4.76,1.37-4.71,3.51.06,2.36,3.21,3,5.57,3.19a38.68,38.68,0,0,1,28.32,15.77c1.83,2.55,3.41,5.38,5.91,7.28s6.35,2.53,8.66.4c1.77-1.63,2.09-4.36,1.56-6.71s-1.74-4.47-2.65-6.7c-3.36-8.25-1.57-19.16,6-23.8,8-4.91,19.7-1.64,26.78-7.86a11.51,11.51,0,0,0,4-9.29,9.76,9.76,0,0,0-5.68-8.17c-4.7-2-10.76.16-14.8-3-3.28-2.53-3.58-7.26-4-11.38A66.86,66.86,0,0,0,508,192.73a26.33,26.33,0,0,0-5.41-9.94C498.72,178.77,485.62,176.32,489.11,185.87Z"/><path class="cls-18" d="M411.37,244c.31,2.07,1,4.31,0,6.14a7.37,7.37,0,0,1-3.43,2.69,152,152,0,0,1-16.82,7.07c-3.46,1.22-7,2.34-10,4.47s-5.35,5.53-5.19,9.2a4.49,4.49,0,0,0,1.93,3.8,4.18,4.18,0,0,0,2.08.47c3.43,0,6.25-2.56,9.4-3.91s8-.55,8.34,2.86c.12,1.18-.37,2.37-.21,3.54.46,3.3,5,3.75,8.31,3.53,19.31-1.27,40.19,5.75,50.91,21.86,1.26,1.9,2.92,4.18,5.18,3.88,1.54-.21,2.65-1.62,3.23-3.07,1.76-4.42,0-9.61-3.16-13.17s-7.47-5.83-11.69-8L425.6,272.61c-2.11-1.09-4.3-2.26-5.64-4.22-3.12-4.58-.1-10.86,3.65-14.94,1.54-1.68,3.28-3.36,3.82-5.57.74-3.1-1.1-6.17-2.86-8.83a18.16,18.16,0,0,0-4.34-5.07c-1.83-1.29-4.35-1.84-6.32-.77C411.55,234.48,411,241.57,411.37,244Z"/><path class="cls-18" d="M344.73,297.27c-2.7,2-4.58,4.91-6.26,7.83a101.06,101.06,0,0,0-10.4,25.74c-1.9,7.57-3.26,16-9.14,21.11A16.41,16.41,0,0,1,306,355.78c-3.84-.55-7.37-2.45-11.19-3.12s-8.48.39-10,4,.7,8.44-1.77,11.54c-1.45,1.82-4.11,2.35-5.51,4.21-2.27,3,.36,7.64,3.92,8.93s7.47.42,11.23,0a48.64,48.64,0,0,1,18.56,1.38c1.75.48,4,.89,5-.58,1.43-2-1.21-4.42-3.48-5.4s-5.05-3.06-3.93-5.26a3.92,3.92,0,0,1,1.32-1.34c7.75-5.43,20.1-2,24,6.63a13.32,13.32,0,0,0,2,3.77c2.13,2.31,5.81,1.95,8.9,1.4,1.47-.26,3.21-.76,3.62-2.19a3.66,3.66,0,0,0-.8-2.9c-3.82-5.76-10.94-9.2-13.27-15.7-1.65-4.58-.48-9.73,1.52-14.17s4.78-8.51,6.59-13c1.91-4.78,2.74-10.09,5.74-14.28s9.42-6.66,13.31-3.28c1.08.94,1.84,2.23,3,3,2.18,1.45,5.24.79,7.27-.87s3.22-4.09,4.28-6.48q2.24-5,4-10.26c1-3,1.67-6.95-.9-8.81-2.28-1.66-5.57-.37-7.65,1.54s-3.68,4.42-6.2,5.71c-4.21,2.15-7-.5-10-2.81C352.07,294.72,349,294.08,344.73,297.27Z"/><path class="cls-18" d="M451.18,356.51c-4.12,1.15-8.48.79-12.75,1s-8.82,1.3-11.65,4.5c-4.5,5.08-2.89,13.27-6.32,19.12-2.62,4.46-7.66,6.78-12.26,9.15-2.67,1.37-5.66,3.53-5.38,6.52.32,3.31,4.38,4.74,7.69,4.82a28.58,28.58,0,0,0,18.64-6.42c5.74-4.71,10.78-12.16,18.2-11.68,4.87.32,8.66,4.1,12.74,6.78s10.22,4,13.32.29c2.37-2.88,1.57-7.21,0-10.59s-3.84-6.6-4.1-10.32c-.36-5.2,3.24-9.75,4.78-14.73a18.89,18.89,0,0,0-1.7-15.16c-1.81-2.84-5.65-6-8.33-2.72-1.73,2.13-.76,7.2-1.77,9.82C460.49,351.6,455.95,355.18,451.18,356.51Z"/><path class="cls-18" d="M424.22,479.57c.66,9.2-6.48,16.85-12.7,23.66a6.75,6.75,0,0,0-1.64,2.44c-.89,2.88,2.56,5.59,5.55,5.22s5.36-2.63,7.49-4.77c6.77-6.81,13.91-13.87,23.08-16.71,9.45-2.93,19.66-.93,29.51-1.86,2.29-.21,5.27-1.56,4.69-3.79-.33-1.28-1.75-1.93-3-2.27-5.42-1.45-11.15-.6-16.77-.67s-11.76-1.4-15.15-5.88c-5.13-6.79-3.42-22.46-16.26-20.06C417.14,457.11,423.69,472.21,424.22,479.57Z"/><path class="cls-18" d="M516,422.71c3.84,3.89,4.82,9.78,4.63,15.24s-1.32,10.9-.89,16.35c.2,2.49,1,5.31,3.26,6.36,2,.92,4.32.1,6.24-.94a27.91,27.91,0,0,0,14-19.73c.81-5,.27-10.24,2.12-14.93,1.43-3.61,4.15-6.54,6.22-9.82a40.86,40.86,0,0,0,5.5-15.9c.7-4.69.76-9.79-1.77-13.8s-8.43-6.15-12.2-3.28c-3.19,2.42-3.56,7.06-3.07,11s1.51,8.12.12,11.88c-1.45,3.91-5.32,6.52-9.35,7.55a33.62,33.62,0,0,1-10.52.59c-2-.13-6-1.59-7.75-1.09C505.87,414.08,513.52,420.22,516,422.71Z"/><path class="cls-18" d="M235.13,419.37c-4,2.4-7,7.07-5.89,11.57s5.3,7,8.35,10.32c5,5.45,6.92,13.07,8,20.42s1.54,14.92,4.45,21.75,9,12.94,16.4,13.31c2.38.12,5-.51,6.39-2.46,2.44-3.45-.47-8-3.11-11.34-6.68-8.38-12.41-18.06-13.33-28.74s4.06-22.41,13.86-26.74c4.9-2.17,10.53-2.37,15.29-4.83a5.5,5.5,0,0,0,2.46-2.1c1.5-2.8-1.92-6-5.1-6.07s-6.07,1.74-9.16,2.46c-10.32,2.41-4.87-11.41-12.6-7.29-3.68,2-6,4.39-10.25,5.43C245.53,416.37,240,416.43,235.13,419.37Z"/><path class="cls-18" d="M306.27,499.31a211,211,0,0,0-35.39,10.38c-1.21.47-2.56,1.11-2.93,2.35-.73,2.43,2.73,3.9,5.26,3.73,7.29-.5,13.82-4.66,21-6.19,6.28-1.34,12.79-.61,19.16.12,12.61,1.45,25.53,3,36.85,8.73,2.49,1.26,5.71,2.65,7.8.8s1-5.51-1-7.51c-5.41-5.35-15.43-5.67-18.45-12.65-1.22-2.82-.88-6-.52-9.1.61-5.17,1.5-10.41,1.77-15.61-4.07,4.67-4.39,11.58-8.95,15.91C324.45,496.29,314.45,497.68,306.27,499.31Z"/><path class="cls-19" d="M204.66,247.37c-2.25,6.1-1.57,12.83-1.33,19.33a96.74,96.74,0,0,1-2.42,27c-2.77,11.15-8.08,21.51-11.47,32.49s-4.72,23.33.35,33.64c.31.63.74,1.32,1.43,1.42a2.13,2.13,0,0,0,1.72-.89c3.33-3.59,4.44-8.71,4.64-13.6s-.39-9.81.14-14.67c1.3-12,9.11-22.19,13-33.62,3-8.72,3.58-18,5.39-27s5.12-18.24,12.08-24.26c4.91-4.23,11.34-6.61,15.63-11.47a6.85,6.85,0,0,0,1.87-3.47,5.28,5.28,0,0,0-3-5.12c-6.82-3.5-14.57,2.78-20.42,5.69C214.85,236.45,207.79,238.86,204.66,247.37Z"/><path class="cls-19" d="M269,176.87a39.38,39.38,0,0,1-4.53,10.41c-1.05,1.7-2.29,3.53-2,5.5.39,2.6,3.5,4.12,6.07,3.56s4.56-2.63,5.94-4.87c3.58-5.79,4.08-13,6.86-19.19a44.93,44.93,0,0,1,6.13-9.53c3.55-4.46,7.66-8.78,13-10.74,2.51-.92,5.19-1.28,7.78-2,6.92-1.85,13-6,19.75-8.38,22.12-7.7,47.43,5.11,69.62-2.39,1.38-.47,2.91-1.21,3.23-2.63.56-2.55-3-3.78-5.62-3.84-21.37-.5-42.72,1.3-64.09,2.08-9.06.33-18.22.49-27,2.68a59.56,59.56,0,0,0-23.81,12.74C271.94,157.51,271.65,167,269,176.87Z"/><path class="cls-20" d="M383.57,152.84l6.48,5.84a2,2,0,0,0,2.79-2.79L386.36,150a2,2,0,0,0-2.79,2.79Z"/><path class="cls-20" d="M408.61,143.38l-.82,4.87a2.14,2.14,0,0,0,.2,1.52,2,2,0,0,0,2.7.71,1.92,1.92,0,0,0,.91-1.18l.82-4.87a2.14,2.14,0,0,0-.2-1.52,2,2,0,0,0-2.7-.71,1.92,1.92,0,0,0-.91,1.18Z"/><path class="cls-20" d="M406.43,164.78l-3.68,10.74a2,2,0,0,0,1.38,2.43,2,2,0,0,0,2.43-1.38l3.68-10.74a2,2,0,0,0-1.38-2.43,2,2,0,0,0-2.43,1.38Z"/><path class="cls-20" d="M397,184.69l-2.09,7.52a2,2,0,0,0,3.8,1l2.09-7.52a2,2,0,1,0-3.8-1Z"/><path class="cls-20" d="M413.66,196.48l-1.22,5.33a2.08,2.08,0,0,0,.2,1.52,2,2,0,0,0,3.61-.47l1.22-5.33a2.08,2.08,0,0,0-.2-1.52,2,2,0,0,0-3.61.47Z"/><path class="cls-20" d="M359.24,221.46a9,9,0,0,0,5.82-1.33A2.07,2.07,0,0,0,366,219a2,2,0,0,0-2.9-2.23,7.52,7.52,0,0,1-1.08.56l.47-.2a7.58,7.58,0,0,1-1.8.49l.52-.07a7.41,7.41,0,0,1-1.94,0,2,2,0,0,0-1.39.58,2,2,0,0,0,0,2.79l.4.31a2,2,0,0,0,1,.27Z"/><path class="cls-20" d="M346.06,236.11l.56,4.28a2.2,2.2,0,0,0,.58,1.39,2,2,0,0,0,2.79,0,1.89,1.89,0,0,0,.58-1.39l-.56-4.28a2.2,2.2,0,0,0-.58-1.39,2,2,0,0,0-2.79,0,1.89,1.89,0,0,0-.58,1.39Z"/><path class="cls-20" d="M300.74,202.81l1.61,2.68a2.05,2.05,0,0,0,1.18.91,1.49,1.49,0,0,0,.79,0,1.47,1.47,0,0,0,.73-.23A2,2,0,0,0,306,205a2,2,0,0,0-.2-1.52l-1.61-2.68a2.05,2.05,0,0,0-1.18-.91,1.49,1.49,0,0,0-.79,0,1.47,1.47,0,0,0-.73.23,2,2,0,0,0-.91,1.18,2,2,0,0,0,.2,1.52Z"/><path class="cls-20" d="M304.29,214.14l.55,4.29a2.2,2.2,0,0,0,.58,1.4,2,2,0,0,0,2.79,0,1.89,1.89,0,0,0,.58-1.4l-.55-4.29a2.19,2.19,0,0,0-.58-1.39,2,2,0,0,0-2.79,0,1.89,1.89,0,0,0-.58,1.39Z"/><path class="cls-20" d="M260.25,218.43l-.54,4.82a2,2,0,0,0,.58,1.39,2,2,0,0,0,2.79,0l.31-.4a2,2,0,0,0,.27-1l.54-4.82a2,2,0,0,0-.58-1.4,2,2,0,0,0-2.79,0l-.31.4a2,2,0,0,0-.27,1Z"/><path class="cls-20" d="M265.18,234.5a6.95,6.95,0,0,0,1.47,2.75,5.16,5.16,0,0,0,.78.78,7.33,7.33,0,0,0,1.31.89,2.1,2.1,0,0,0,1.52.2,2,2,0,0,0,1.18-.91,2,2,0,0,0,.2-1.52,2,2,0,0,0-.91-1.18,5.15,5.15,0,0,1-.83-.52l.4.31a5.32,5.32,0,0,1-.93-.93l.31.4a5.28,5.28,0,0,1-.66-1.14l.2.47a5.2,5.2,0,0,1-.22-.65,2,2,0,0,0-.91-1.18,2,2,0,0,0-2.7.71,2.07,2.07,0,0,0-.2,1.52Z"/><path class="cls-20" d="M245.55,255l4.83-2.68a2,2,0,0,0,.71-2.7,2,2,0,0,0-2.7-.71l-4.83,2.68a2,2,0,0,0-.71,2.7,2,2,0,0,0,2.7.71Z"/><path class="cls-20" d="M254.72,238.53l3.75-.57a2,2,0,0,0,1.18-.91,2,2,0,0,0-.71-2.7l-.47-.2a2,2,0,0,0-1,0l-3.75.57a2,2,0,0,0-1.18.91,2,2,0,0,0,.71,2.7l.47.2a2,2,0,0,0,1,0Z"/><path class="cls-20" d="M220.58,268.28q0,.42-.1.84l.07-.52a26,26,0,0,1-1.41,5.62,2,2,0,0,0,.2,1.52,2,2,0,0,0,2.7.71,2.24,2.24,0,0,0,.91-1.18,27.87,27.87,0,0,0,1.58-7,2,2,0,0,0-.58-1.39,2,2,0,0,0-2.79,0,2.25,2.25,0,0,0-.58,1.39Z"/><path class="cls-20" d="M189,376.54a30.85,30.85,0,0,0,.62,8.56,2,2,0,0,0,2.43,1.38,2,2,0,0,0,1.38-2.43,16.63,16.63,0,0,1-.35-2c0,.52,0,0,0-.09s0-.31-.05-.46q-.05-.5-.08-1a28.94,28.94,0,0,1,0-4,2,2,0,0,0-2-2,2,2,0,0,0-2,2Z"/><path class="cls-20" d="M200.08,382.84l2,3.81a2,2,0,0,0,2.7.71,2,2,0,0,0,.91-1.18,2.13,2.13,0,0,0-.2-1.52l-2-3.81a2,2,0,0,0-2.7-.71,2,2,0,0,0-.91,1.18,2.13,2.13,0,0,0,.2,1.52Z"/><path class="cls-20" d="M201.56,409.7l2.09,2.72a1.9,1.9,0,0,0,2,.94,1.47,1.47,0,0,0,.73-.23,2,2,0,0,0,.91-1.18l.07-.52a2,2,0,0,0-.27-1L205,407.71a1.9,1.9,0,0,0-2-.94,1.47,1.47,0,0,0-.73.23,2,2,0,0,0-.91,1.18l-.07.52a2,2,0,0,0,.27,1Z"/><path class="cls-20" d="M222,422.46c2.54,0,2.54-3.95,0-3.95s-2.54,3.95,0,3.95Z"/><path class="cls-20" d="M224.38,441.39l2.78,10.15a2,2,0,0,0,3.8-1l-2.78-10.15a2,2,0,0,0-3.8,1Z"/><path class="cls-20" d="M296,424.92a9,9,0,0,0,8.94-.65,2.13,2.13,0,0,0,.91-1.18,2,2,0,0,0-2.9-2.23,6.82,6.82,0,0,1-.73.46l-.29.15-.2.09.17-.08a8.26,8.26,0,0,1-1.56.4l.52-.07a7.49,7.49,0,0,1-1.93,0l.52.07a7.16,7.16,0,0,1-.95-.2l-.41-.13c-.07,0-.38-.15-.07,0s0,0-.06,0a2.13,2.13,0,0,0-1.52-.2,2,2,0,0,0-.47,3.61Z"/><path class="cls-20" d="M281.28,409.48a4.82,4.82,0,0,0,1.21.9,5.15,5.15,0,0,0,1.43.52,5.3,5.3,0,0,0,1.51.1,4.72,4.72,0,0,0,1.94-.54,2,2,0,0,0,.91-1.18,2,2,0,0,0-.2-1.52,2,2,0,0,0-1.18-.91l-.52-.07a2,2,0,0,0-1,.27l-.1,0,.47-.2a3.27,3.27,0,0,1-.82.22l.52-.07a3.55,3.55,0,0,1-.9,0l.52.07a3.6,3.6,0,0,1-.87-.24l.47.2a3.41,3.41,0,0,1-.69-.4l.4.31a3.39,3.39,0,0,1-.32-.28,2,2,0,0,0-1.39-.58,2,2,0,0,0-1.39.58,2,2,0,0,0-.58,1.39,2.06,2.06,0,0,0,.58,1.4Z"/><path class="cls-20" d="M267.8,378.65a67.26,67.26,0,0,1,4.12-11.86,2,2,0,0,0-.71-2.7,2,2,0,0,0-2.7.71A71.77,71.77,0,0,0,264,377.6a2,2,0,0,0,3.8,1Z"/><path class="cls-20" d="M276.07,356.77l2.75-2.06a1.9,1.9,0,0,0,.94-2,1.47,1.47,0,0,0-.23-.73,2,2,0,0,0-1.18-.91l-.52-.07a2,2,0,0,0-1,.27l-2.75,2.06a1.9,1.9,0,0,0-.94,2,1.47,1.47,0,0,0,.23.73,2,2,0,0,0,1.18.91l.52.07a2,2,0,0,0,1-.27Z"/><path class="cls-20" d="M326.05,392.26a11.08,11.08,0,0,0,8-.95,2,2,0,0,0,.71-2.7,2,2,0,0,0-2.7-.71c-.23.12-.46.23-.69.33l.47-.2a9.29,9.29,0,0,1-2.33.64l.52-.07a9.34,9.34,0,0,1-2.41,0l.52.07a9.51,9.51,0,0,1-1.08-.22,2,2,0,0,0-1,3.8Z"/><path class="cls-20" d="M321.1,379.14a10.52,10.52,0,0,0,4.42,4.53,2.08,2.08,0,0,0,1.52.2,2,2,0,0,0,1.18-.91,2,2,0,0,0-.71-2.7,8.79,8.79,0,0,1-1.21-.78l.4.31a8.88,8.88,0,0,1-1.57-1.57l.31.4a8.76,8.76,0,0,1-.92-1.48,2,2,0,0,0-1.18-.91,2,2,0,0,0-1.52.2,2,2,0,0,0-.91,1.18,2.19,2.19,0,0,0,.2,1.52Z"/><path class="cls-20" d="M352.33,393.29l4.8,2.19a2.14,2.14,0,0,0,1.52.2,2,2,0,0,0,1.18-.91,2,2,0,0,0,.2-1.52,1.92,1.92,0,0,0-.91-1.18l-4.8-2.19a2.14,2.14,0,0,0-1.52-.2,2,2,0,0,0-1.18.91,2,2,0,0,0-.2,1.52,1.92,1.92,0,0,0,.91,1.18Z"/><path class="cls-20" d="M382.73,396.37a2.5,2.5,0,0,1,0-.29l-.07.52a2.5,2.5,0,0,1,.17-.62l-.2.47a2.66,2.66,0,0,1,.33-.55l-.31.4a2.61,2.61,0,0,1,.46-.45l-.4.31a2.42,2.42,0,0,1,.5-.29l-.47.2h0a2.21,2.21,0,0,0,1.18-.91,1.47,1.47,0,0,0,.23-.73,1.49,1.49,0,0,0,0-.79,2,2,0,0,0-.91-1.18l-.47-.2a2,2,0,0,0-1,0,5.8,5.8,0,0,0-.79.36,6.09,6.09,0,0,0-.66.49,4.31,4.31,0,0,0-.8.93,4.38,4.38,0,0,0-.51,1.1,2.37,2.37,0,0,0-.09.36,5.91,5.91,0,0,0-.1.88,2,2,0,0,0,2,2,2,2,0,0,0,1.39-.58,2.07,2.07,0,0,0,.58-1.4Z"/><path class="cls-20" d="M387.76,409.28l5.36,3.76a2,2,0,0,0,2.9-2.23,2.22,2.22,0,0,0-.91-1.18l-5.36-3.76a2,2,0,0,0-2.9,2.23,2.22,2.22,0,0,0,.91,1.18Z"/><path class="cls-20" d="M410.86,421.56v4.82a2,2,0,0,0,.58,1.39,2,2,0,0,0,3.37-1.39v-4.82a2,2,0,0,0-.58-1.39,2,2,0,0,0-3.37,1.39Z"/><path class="cls-20" d="M330.33,436.82l5.41,2a2,2,0,0,0,1.52-.2,2,2,0,0,0,.71-2.7,2.23,2.23,0,0,0-1.18-.91l-5.41-2a2,2,0,0,0-2.23,2.9,2.23,2.23,0,0,0,1.18.91Z"/><path class="cls-20" d="M345,446.76l-2.16,9.11a2,2,0,1,0,3.8,1l2.16-9.11a2,2,0,0,0-3.8-1Z"/><path class="cls-20" d="M342.84,471.72l1.61,1.61a2,2,0,0,0,2.79,0l.31-.4a2,2,0,0,0,.27-1l-.07-.52a2,2,0,0,0-.51-.87l-1.61-1.61a2,2,0,0,0-2.79,0l-.31.4a2,2,0,0,0-.27,1l.07.52a2,2,0,0,0,.51.87Z"/><path class="cls-20" d="M368.67,447.61q1.18-1,2.4-2l.59-.47.17-.14.17-.13,1.28-1q2.51-1.85,5.16-3.5a2,2,0,0,0-2-3.41,88.72,88.72,0,0,0-10.58,7.81,2,2,0,0,0,0,2.79,2,2,0,0,0,2.79,0Z"/><path class="cls-20" d="M402.68,448.53a14.16,14.16,0,0,0,5.35,2.23,2.12,2.12,0,0,0,1.52-.2,2,2,0,0,0,.71-2.7,1.94,1.94,0,0,0-1.18-.91,13,13,0,0,1-2.59-.77l.47.2a13,13,0,0,1-2.29-1.26,2,2,0,0,0-2.9,2.23,2.2,2.2,0,0,0,.91,1.18Z"/><path class="cls-20" d="M434,439.55a34.55,34.55,0,0,0,5.79-7.83,2,2,0,0,0-3.41-2,32.66,32.66,0,0,1-2.43,3.86l-.31.42c-.22.29.18-.23,0,0l-.16.21q-.35.43-.7.86-.76.89-1.59,1.73a2,2,0,0,0,2.79,2.79Z"/><path class="cls-20" d="M431.41,416a51.82,51.82,0,0,1,3.17-4.75l.2-.26c.18-.24-.19.24,0,0l.46-.58q.44-.55.9-1.09.94-1.11,1.94-2.16a2,2,0,0,0-2.79-2.79A54.17,54.17,0,0,0,428,414a2,2,0,0,0,3.41,2Z"/><path class="cls-20" d="M412.36,378.05l3.78-7.49a2,2,0,0,0-3.41-2L409,376.06a2,2,0,1,0,3.41,2Z"/><path class="cls-20" d="M357.63,286.86h5.9a2,2,0,1,0,0-3.95h-5.9a2,2,0,1,0,0,3.95Z"/><path class="cls-20" d="M387.66,291.59a7.83,7.83,0,0,0,1.35.17,7.62,7.62,0,0,0,1.33-.12,6.35,6.35,0,0,0,2.07-.73,2,2,0,0,0,.71-2.7,2,2,0,0,0-1.18-.91,2.11,2.11,0,0,0-1.52.2l-.45.22.47-.2a4.93,4.93,0,0,1-1.17.32l.52-.07a4.9,4.9,0,0,1-1.27,0l.52.07-.33-.06a2.1,2.1,0,0,0-1.52.2,2,2,0,0,0-.71,2.7,2,2,0,0,0,1.18.91Z"/><path class="cls-20" d="M432.66,257.39c2.54,0,2.54-3.95,0-3.95s-2.54,3.95,0,3.95Z"/><path class="cls-20" d="M448.22,255.67a11.7,11.7,0,0,0,5.89-.43,2.11,2.11,0,0,0,1.18-.91,2,2,0,0,0-.71-2.7,2,2,0,0,0-1.52-.2,9.89,9.89,0,0,1-2,.48l.52-.07a9.85,9.85,0,0,1-2.54,0l.52.07-.35-.05a2.14,2.14,0,0,0-1.52.2,2,2,0,0,0-.71,2.7,1.92,1.92,0,0,0,1.18.91Z"/><path class="cls-20" d="M535.2,221.13l2,4.87a2.17,2.17,0,0,0,.91,1.18,2,2,0,0,0,2.7-.71A1.9,1.9,0,0,0,541,225l-2-4.87a2.18,2.18,0,0,0-.91-1.18,2,2,0,0,0-2.7.71,1.9,1.9,0,0,0-.2,1.52Z"/><path class="cls-20" d="M517.63,203.4l1.13,3.19a2.11,2.11,0,0,0,.91,1.18,2,2,0,0,0,2.7-.71,2,2,0,0,0,.2-1.52l-1.13-3.19a2.11,2.11,0,0,0-.91-1.18,2,2,0,0,0-2.7.71,2,2,0,0,0-.2,1.52Z"/><path class="cls-20" d="M539.32,205.94c2.54,0,2.54-3.95,0-3.95s-2.54,3.95,0,3.95Z"/><path class="cls-20" d="M539.93,206.74l1.61,1.07a1.47,1.47,0,0,0,.73.23,2,2,0,0,0,2-.94l.2-.47a2,2,0,0,0,0-1l-.2-.47a2,2,0,0,0-.71-.71l-1.61-1.07a1.47,1.47,0,0,0-.73-.23,2,2,0,0,0-2,.94l-.2.47a2,2,0,0,0,0,1l.2.47a2,2,0,0,0,.71.71Z"/><path class="cls-20" d="M500.84,302.58l.92,8.59a2.14,2.14,0,0,0,.58,1.4,2,2,0,0,0,3.37-1.4l-.92-8.59a2.14,2.14,0,0,0-.58-1.39,2,2,0,0,0-3.37,1.39Z"/><path class="cls-20" d="M511.74,309l-1.56,3.77a2,2,0,0,0,.2,1.52,2,2,0,0,0,2.7.71l.4-.31a2,2,0,0,0,.51-.87l1.56-3.77a2,2,0,0,0-.2-1.52,2,2,0,0,0-2.7-.71l-.4.31a2,2,0,0,0-.51.87Z"/><path class="cls-20" d="M533.88,376.62a13.26,13.26,0,0,0-1.28,3.92,14.43,14.43,0,0,0,0,4.55,2,2,0,0,0,.91,1.18,2,2,0,0,0,2.7-.71,2.27,2.27,0,0,0,.2-1.52l-.05-.36.07.52a11.77,11.77,0,0,1,0-3l-.07.52a11.82,11.82,0,0,1,.38-1.77q.12-.41.28-.8l.09-.23q-.18.43-.06.14l.21-.44a2,2,0,1,0-3.41-2Z"/><path class="cls-20" d="M553.79,371.54h3.75a2,2,0,0,0,1.39-.58,2,2,0,0,0,0-2.79,2,2,0,0,0-1.39-.58h-3.75a2,2,0,0,0-1.39.58,2,2,0,0,0,0,2.79,2,2,0,0,0,1.39.58Z"/><path class="cls-20" d="M566.37,400.67l-2.59,10.21a2,2,0,0,0,3.8,1l2.59-10.21a2,2,0,1,0-3.8-1Z"/><path class="cls-20" d="M556.58,428.09a34.67,34.67,0,0,0-9,12.77,2,2,0,0,0,1.38,2.43,2,2,0,0,0,2.43-1.38l.07-.17.16-.36q.18-.41.38-.81.39-.81.83-1.59a32.37,32.37,0,0,1,1.91-3l.47-.64c.38-.51-.11.13.12-.15l.25-.31q.56-.7,1.16-1.37a32.77,32.77,0,0,1,2.62-2.59,2,2,0,0,0,0-2.79,2,2,0,0,0-2.79,0Z"/><path class="cls-20" d="M478.77,405.67a18.94,18.94,0,0,0,7,2.62,2.15,2.15,0,0,0,1.52-.2,2,2,0,0,0,.71-2.7,1.91,1.91,0,0,0-1.18-.91,17.71,17.71,0,0,1-4.07-1.16l.47.2a17.92,17.92,0,0,1-2.44-1.27,2,2,0,0,0-2.7.71,2,2,0,0,0,.71,2.7Z"/><path class="cls-20" d="M512.19,461.75l-2.86,6.89a2,2,0,0,0,.2,1.52,2,2,0,0,0,2.7.71,2.33,2.33,0,0,0,.91-1.18L516,462.8a2,2,0,0,0-.2-1.52,2,2,0,0,0-2.7-.71,2.33,2.33,0,0,0-.91,1.18Z"/><path class="cls-20" d="M482.15,487.12l-3.72,4.32a2.1,2.1,0,0,0-.58,1.39,2,2,0,0,0,.58,1.39,2,2,0,0,0,1.39.58,2,2,0,0,0,1.39-.58l3.72-4.32a2.1,2.1,0,0,0,.58-1.39,2,2,0,0,0-.58-1.39,2,2,0,0,0-1.39-.58,2,2,0,0,0-1.39.58Z"/><path class="cls-20" d="M440.2,502.19a10.37,10.37,0,0,0,9.46-1.32,2.14,2.14,0,0,0,.91-1.18,2,2,0,0,0-.2-1.52,2,2,0,0,0-2.7-.71,8.47,8.47,0,0,1-.83.55l-.44.23-.23.11.13-.05c-.06,0-.39.15-.47.17l-.48.14-.49.12a2.41,2.41,0,0,0-.49.09l.15,0-.25,0-.5,0c-.33,0-.66,0-1,0s-.17,0,.15,0l-.25,0-.49-.1a8.45,8.45,0,0,1-1-.29,2,2,0,0,0-2.43,1.38,2,2,0,0,0,1.38,2.43Z"/><path class="cls-20" d="M389.25,524.79a21.24,21.24,0,0,0,10.12-2.36,2,2,0,0,0,.71-2.7,2,2,0,0,0-2.7-.71c-.34.17-.68.34-1,.49s-.2.09,0,0l-.3.12-.46.17a19,19,0,0,1-2.19.64q-.56.13-1.12.22c-.16,0-.32.06-.48.07l-.29,0a19.39,19.39,0,0,1-2.28.08,2,2,0,0,0,0,3.95Z"/></svg>