<svg id="Layer_2" data-name="Layer 2" xmlns="http://www.w3.org/2000/svg" viewBox="0 0 143.34 153.62"><defs><style>.cls-1{fill:#fdfdf6;}</style></defs><title>Icons</title><path class="cls-1" d="M47.51,80.13V63.92H59.22c1-11.86.05-24.33,11.81-31.42C78.58,28,87.16,28.44,95.81,29V45.4a81.46,81.46,0,0,0-8.58,0c-6.51.71-9.24,3.84-9.4,10.35-.2,8-.2,8,7.72,8H95.83V80.08c-4.64,0-9.22.18-13.77-.06-3.3-.18-4.43.75-4.37,4.26.22,13.46.09,26.92.09,40.7H60.31c-.09-1.66-.25-3.28-.27-4.91-.13-11.8-.39-23.6-.25-35.39,0-3.85-1.29-5-4.87-4.59A73.54,73.54,0,0,1,47.51,80.13Z"/></svg>