<svg id="Layer_2" data-name="Layer 2" xmlns="http://www.w3.org/2000/svg" viewBox="0 0 766.67 666.99"><defs><style>.cls-1{fill:#fdc25c;}.cls-2{fill:#fcad56;}.cls-10,.cls-13,.cls-16,.cls-3{fill:#fff;}.cls-3{opacity:0.26;}.cls-4{fill:#bf362b;}.cls-5{fill:#ed190f;}.cls-6{fill:#f22;}.cls-7{fill:#ff5c68;}.cls-8{fill:#f59a37;}.cls-9{fill:#e8bd85;}.cls-10{opacity:0.23;}.cls-11{fill:#479941;}.cls-12{fill:#328432;}.cls-13{opacity:0.08;}.cls-14{fill:#54b24d;}.cls-15{fill:#4d9e46;}.cls-16{opacity:0.18;}.cls-17{fill:#e23c33;}.cls-18{fill:#e5a45e;}.cls-19{fill:#ffab5f;}.cls-20{fill:none;}</style></defs><title>Icons</title><path class="cls-1" d="M145.54,230.94c-6.65,17.28-8.56,36-10.41,54.39-2.71,27-5.41,54-6.79,81.13-.91,17.91-1.21,36.09,3,53.51,5.69,23.34,19.44,44.28,37,60.65,10.85,10.09,23.11,18.53,34.22,28.34,9.84,8.7,18.72,18.42,28.25,27.46,35.24,33.41,84.83,43.09,132.82,50.52s88.23-8,134-24.18c34.26-12.09,44.93-29.71,67.22-49.1,26-22.63,41.56-39.16,60.76-67.79,18.24-27.21,12-64,11.94-92.39-.06-26.28,4.41-53.23-3.1-78.41-4.44-14.88-12.83-28.22-19.06-42.44-11.06-25.25-15.66-54-33-75.43-13.16-16.32-32.22-26.56-50.75-36.37-19.35-10.24-38.78-20.5-59.32-28.08C425.16,75.3,372.86,74,324.15,86.09c-46,11.41-98.8,36.22-128.89,74.2C177.58,182.61,156,203.9,145.54,230.94Z"/><path class="cls-2" d="M634.52,275.05c-4.44-14.88-12.83-28.22-19.06-42.44-11.06-25.25-15.66-54-33-75.43-10.59-13.14-25-22.33-39.88-30.53,10.42,6.5,20.11,14,27.79,23.48,17.3,21.46,21.9,50.18,33,75.43C609.6,239.78,618,253.12,622.43,268c7.51,25.18,3,52.13,3.1,78.41.07,28.35,6.3,65.18-11.94,92.39-19.2,28.63-34.75,45.16-60.76,67.79-22.28,19.39-33,37-67.22,49.1-45.79,16.16-86,31.61-134,24.18-34.81-5.39-70.46-12-100.87-27.93,32.79,21.2,73.42,28.86,113,35,48,7.43,88.23-8,134-24.18,34.26-12.09,44.93-29.71,67.22-49.1,26-22.63,41.56-39.16,60.76-67.79,18.24-27.21,12-64,11.94-92.39C637.56,327.18,642,300.23,634.52,275.05Z"/><path class="cls-2" d="M154.86,329.09A269.22,269.22,0,0,1,239.6,157.3c11-10.19,23-19.49,36.14-26.66s27.12-12,41.22-16.65c29-9.55,59-18.13,89.48-16.86,53.18,2.2,100.13,33.57,143.91,63.83-11.81-10.4-28.78-11.81-43.44-17.53s-27-15.69-41-22.43c-42.26-20.26-92.17-8.54-137.45,3.53-16.06,4.28-32.28,8.63-46.89,16.56-18.31,9.95-33.19,25-47.78,39.92-18.73,19.1-37.92,38.89-47.84,63.73-6.48,16.23-8.67,33.87-14.42,50.38-4,11.44-9.69,22.33-12.44,34.13-5.11,21.9.31,44.72,5.72,66.54,6.82,27.53,14.28,56.28,33.34,77.28-15.78-19.74-28.74-37.83-36.16-62.48C154,384.3,152.26,356.34,154.86,329.09Z"/><path class="cls-3" d="M155.39,244.88c-7,30.24-14.08,60.57-17.51,91.42-3.41,30.69-2.94,63,10.51,90.8a28.47,28.47,0,0,0,5.88,8.74,4.26,4.26,0,0,0,3.4,1.45c2.66-.46,2.59-4.3,1.81-6.88-9.82-32.17-22.1-65.46-16.06-98.55,2.34-12.8,7.35-24.93,10.71-37.5,7.43-27.81,7.08-58.57,22.61-82.8,6.7-10.45,16-19,23.73-28.64,8-9.91,14.43-21.11,23.62-29.91,18.69-17.91,46-23.55,67.07-38.58,2.92-2.08,6-5,5.54-8.57-6.86-2.06-14,1.42-20.29,4.91C224.08,140.07,169.56,184,155.39,244.88Z"/><path class="cls-3" d="M402.22,90.69c2.43.33,6-.25,5.74-2.69-.19-1.91-2.68-2.47-4.6-2.53-21.27-.67-42.88-1.31-63.47,4-7.23,1.88-23.23,2.32-27.67,8.92-8.65,12.88,10.62,5.24,15.34,3.12A137.75,137.75,0,0,1,402.22,90.69Z"/><path class="cls-3" d="M428,560.57c28.88-7.37,58.3-15,83.47-30.92,13.6-8.61,25.62-19.46,37.27-30.56,22.64-21.57,44.2-44.35,63.31-69.1,1.21-1.56,2.45-3.25,2.59-5.22s-1.36-4.18-3.32-4a5,5,0,0,0-2.94,1.86c-5.67,6-9.85,13.32-15.12,19.7C577,462,551.36,472.13,535.81,492.28c-5.53,7.17-9.63,15.42-15.71,22.14-11.94,13.18-29.89,18.79-46.94,23.86l-31.28,9.29c-9.69,2.88-19.42,5.77-29.41,7.34-6.22,1-12.53,1.45-18.68,2.78-4.41,1-26.44,11.06-13.47,14.86,5.19,1.52,17.32-4.25,22.62-5.6Z"/><path class="cls-3" d="M607.84,306a212,212,0,0,1,2.7,80c-1.06,6.72-2.45,13.63-.87,20.24.34,1.42,1,3,2.36,3.45s3.16-.64,3.79-2.09a10.08,10.08,0,0,0,.41-4.69,150.09,150.09,0,0,1,1.12-30.7c1-7.29,2.58-14.53,2.85-21.88.63-16.86-5.5-33.56-3.79-50.35.37-3.64.11-11.6-5.82-10.13C604.36,291.4,606.9,301.88,607.84,306Z"/><path class="cls-4" d="M243.3,173.25c-5.64,10.55-9.31,22.13-15.72,32.24-9.66,15.23-24.84,26.08-36,40.25-18.36,23.33-24.48,53.71-30.06,82.87-2.45,12.81-4.91,25.86-3.4,38.81,1.68,14.35,8.13,27.65,12.13,41.53,3.8,13.16,5.51,27.17,12.3,39.07s17.83,20.41,26.32,31,14.54,23.6,24.46,33.12,23.26,15,36.23,20q20,7.61,40.19,14.44c13.86,4.68,27.9,9.11,42.4,11,37.42,4.91,74.76-7.19,110.56-19.13,11.72-3.91,23.62-7.9,33.78-14.93,18.19-12.56,28.8-33.28,44.18-49.17,19.25-19.9,47.32-34.22,54.61-60.93,4.44-16.27-.15-33.58,1.18-50.39,1.4-17.75,9.36-34.59,9.86-52.38.41-14.64-4.26-28.89-8.87-42.78C589.87,245,582,221.64,567.37,202.51,555.47,187,539.62,175,523.68,163.63Q506,151,487.72,139.15c-11.76-7.65-23.88-15.17-37.38-19-12.47-3.52-25.6-3.74-38.55-3.86C356.95,115.8,273.41,116.88,243.3,173.25Z"/><path class="cls-5" d="M196.4,306.38a59.2,59.2,0,0,0-4.24,16.71,60.88,60.88,0,0,0-.11,17.79,29.78,29.78,0,0,0,7.47,15.85,34.52,34.52,0,0,0,8.58,6.16c10,5.42,21.65,8.26,32.91,6.69s22.09-7.84,28.1-17.66c4.3-7,6-15.48,5.73-23.75s-2.42-16.38-5.34-24.09a24.83,24.83,0,0,0-3.29-6.46,18.71,18.71,0,0,0-6.77-5.2,43.76,43.76,0,0,0-15.3-3.77,84,84,0,0,0-29.43,2.62C205.95,293.66,200.29,297.68,196.4,306.38Z"/><path class="cls-6" d="M198.16,308.3A54.8,54.8,0,0,0,194.11,324a56.17,56.17,0,0,0-.11,16.7,27.76,27.76,0,0,0,7.14,14.88,33,33,0,0,0,8.2,5.79c9.61,5.09,20.7,7.75,31.47,6.28s21.12-7.36,26.87-16.58c4.11-6.59,5.74-14.54,5.48-22.3a69.52,69.52,0,0,0-5.11-22.63,23.17,23.17,0,0,0-3.15-6.07,17.86,17.86,0,0,0-6.48-4.88,42.46,42.46,0,0,0-14.63-3.54,81.74,81.74,0,0,0-28.14,2.46C207.29,296.35,201.89,300.13,198.16,308.3Z"/><path class="cls-7" d="M197.21,334.06a28.2,28.2,0,0,0,2.66,11.8c4.27,8.4,13.84,12.53,22.84,15.31,5.39,1.66,11,3.09,16.61,2.58,6.07-.55,11.76-3.36,16.6-7.07,5.8-4.44,10.68-10.5,12.2-17.64a34.38,34.38,0,0,0,.26-10.83,68.71,68.71,0,0,0-2.59-12.64c-1.89-6.18-5.09-12.55-10.92-15.33a28.21,28.21,0,0,0-8.55-2.05c-9.61-1.27-19.52-2.5-28.89,0-8,2.13-11.74,4.94-15.29,12.36A50.57,50.57,0,0,0,197.21,334.06Z"/><path class="cls-6" d="M261.89,313.13a31.41,31.41,0,0,0-6.36-9.31,17,17,0,0,0-10.16-4.88,11.61,11.61,0,0,0-10.18,4.21c-2.35,3.16-2.45,7.34-2.46,11.23v4a6.49,6.49,0,0,1-.4,2.7,2.41,2.41,0,0,1-2,1.46,2.32,2.32,0,0,1-1.61-.3,5.88,5.88,0,0,1-1.94-3,46.34,46.34,0,0,0-4-7.83c-1.12-1.77-2.5-3.56-4.51-4.26-2.82-1-5.95.56-8,2.65a22.61,22.61,0,0,0-4.43,6.85,43.66,43.66,0,0,0-3.16,25.24c.24,1.34.63,2.81,1.79,3.57a4.83,4.83,0,0,0,4,.14c6.63-2,11.14-8.26,17.67-10.6a2.86,2.86,0,0,1,2.11-.14,2,2,0,0,1,1,2.05,5.12,5.12,0,0,1-1,2.18c-2.69,3.8-6.17,7-8.55,11-.89,1.49-1.62,3.33-.87,4.89.66,1.36,2.23,2,3.7,2.52a40.63,40.63,0,0,0,16.09,1.82c4.39-.39,8.87-1.58,12.2-4.39s5.24-7.48,3.78-11.52c-1.1-3-3.82-5.23-6.42-7.25a52.34,52.34,0,0,0-5.46-3.88c-1.49-.88-3.22-1.8-3.62-3.45a3.64,3.64,0,0,1,2.23-3.89,7.66,7.66,0,0,1,4.86-.24c1.61.36,3.15,1,4.77,1.32a25.76,25.76,0,0,0,5.1.41,10.15,10.15,0,0,0,4.39-.65,6.55,6.55,0,0,0,3.41-5.9A15.58,15.58,0,0,0,261.89,313.13Z"/><path class="cls-7" d="M223.11,323.76c-1.24-1.42-1.79-3.43-3.34-4.51a4.73,4.73,0,0,0-4.26-.43,7.77,7.77,0,0,0-3.44,2.71,11.76,11.76,0,0,0-1.29,11.72,3.91,3.91,0,0,0,1.12,1.56,3.57,3.57,0,0,0,2.27.57c2.15-.07,4.15-1.08,6.18-1.79a22.31,22.31,0,0,1,8.47-1.19,4,4,0,0,1,1.94.47,4.31,4.31,0,0,1,1.31,1.66,8.1,8.1,0,0,1,1.41,4.59c-.18,1.68-1.36,3.06-2.16,4.55s-1.15,3.56.11,4.7a4.67,4.67,0,0,0,2.46.9,36.69,36.69,0,0,0,10,.7c2-.23,4.32-1.09,4.87-3.05a4.55,4.55,0,0,0-1.08-3.87c-2.13-2.75-5.67-4-8.15-6.44a13.14,13.14,0,0,1-2.87-4.33,8.25,8.25,0,0,1-.66-5,6.74,6.74,0,0,1,3.18-4.11,10.86,10.86,0,0,1,5.09-1.38c1.82-.08,3.84.1,5.25-1.05a4.5,4.5,0,0,0,1-5,11.12,11.12,0,0,0-3.26-4.25,19.88,19.88,0,0,0-4.68-3.32c-1.34-.64-3.05-1-4.21-.06a4.67,4.67,0,0,0-1.31,2.47q-1.31,4.55-2.29,9.2a8.11,8.11,0,0,1-1.22,3.32C231.19,326.21,225.71,326.71,223.11,323.76Z"/><path class="cls-8" d="M207.48,338.68a10,10,0,0,0-2.2,1.1,3.35,3.35,0,0,0-1.38,2,.66.66,0,0,0,0,.44.7.7,0,0,0,.67.26c1.86-.06,3.38-1.47,4.66-2.82.34-.36.69-.87.44-1.29s-.88-.35-1.33-.15-.93.48-1.39.31Z"/><path class="cls-8" d="M206,334c-.36.18-.78.22-1.14.4a.88.88,0,0,0-.56,1c.12.36.54.51.92.58a9.65,9.65,0,0,0,3.3.06,2.3,2.3,0,0,0,1.25-.49.93.93,0,0,0,.18-1.22,1.34,1.34,0,0,0-.84-.37,13.85,13.85,0,0,0-3.5-.13Z"/><path class="cls-8" d="M203.82,329.3a.19.19,0,0,0-.26.1,3.35,3.35,0,0,0,2.48,1,2.38,2.38,0,0,0,1.44-.25.94.94,0,0,0,.34-1.27,1.23,1.23,0,0,0-.53-.35,5.38,5.38,0,0,0-3.52-.19.89.89,0,0,0-.54.33c-.11.19,0,.49.18.52Z"/><path class="cls-8" d="M212.83,315.72a3,3,0,0,0,.81,1.06.87.87,0,0,0,1.14,0,1,1,0,0,0,.18-.65,8.62,8.62,0,0,0-1-3.7c-.33-.7-1.56-2-2.07-.72C211.45,312.78,212.36,314.82,212.83,315.72Z"/><path class="cls-8" d="M212.32,318.53c.26.09.6.14.76-.09a.6.6,0,0,0,.08-.41,3.07,3.07,0,0,0-1-1.87,9.13,9.13,0,0,0-1.75-1.25c-.38-.23-1.16-.43-1.48.06s.16,1,.42,1.34A6,6,0,0,0,212.32,318.53Z"/><path class="cls-8" d="M210.38,321.25a1,1,0,0,0,.84-.38,1,1,0,0,0-.13-1,3.86,3.86,0,0,0-3-1.39c-.47,0-1.47-.06-1.69.51s.46,1,.84,1.26A4.49,4.49,0,0,0,210.38,321.25Z"/><path class="cls-8" d="M204.91,324c-.05.23.15.44.34.58a4.21,4.21,0,0,0,3,.59c.47-.07,1-.26,1.13-.72a.93.93,0,0,0-.52-1,2.34,2.34,0,0,0-1.19-.19C207.08,323.3,205.11,323.17,204.91,324Z"/><path class="cls-8" d="M224,353.11a1.46,1.46,0,0,0,.06,1.49,1.34,1.34,0,0,0,1.66,0,5,5,0,0,0,2-3.23c.34-1.54-.91-1.52-1.82-.79A6.16,6.16,0,0,0,224,353.11Z"/><path class="cls-8" d="M231.14,351.08a3.49,3.49,0,0,0-.7,1.86c-.14.82-.28,1.65-.33,2.48a2.4,2.4,0,0,0,.13,1.16.93.93,0,0,0,.94.58,1.23,1.23,0,0,0,.8-.77,8.57,8.57,0,0,0,.54-4.11,2,2,0,0,0-.18-.87C232.14,351,231.48,350.72,231.14,351.08Z"/><path class="cls-8" d="M235.64,356.55a2.19,2.19,0,0,0,.84,1.53.7.7,0,0,0,.42.11.77.77,0,0,0,.54-.43,3.09,3.09,0,0,0,.27-1.6c0-.83-.18-3.79-1.45-3.76C234.79,352.45,235.48,355.76,235.64,356.55Z"/><path class="cls-8" d="M240.37,355.75a2.86,2.86,0,0,0,1.18,2.09.44.44,0,0,0,.26.07c.16,0,.26-.17.33-.31a4.65,4.65,0,0,0,.07-3.49c-.2-.59-1-2.12-1.82-1.45C239.76,353.16,240.24,355.08,240.37,355.75Z"/><path class="cls-8" d="M243.88,354.13a3.87,3.87,0,0,0,2,1.81.35.35,0,0,0,.25,0,.31.31,0,0,0,.15-.18,1.69,1.69,0,0,0-.17-1.24c-.28-.64-1.64-3.72-2.56-3.6C242.39,351.09,243.64,353.72,243.88,354.13Z"/><path class="cls-8" d="M247.11,352.48a4.27,4.27,0,0,0,1.87,1.18.94.94,0,0,0,1.06-.32.76.76,0,0,0-.08-.74,2,2,0,0,0-.57-.53,14.7,14.7,0,0,0-2-1.16C245.85,350.14,246.45,351.86,247.11,352.48Z"/><path class="cls-8" d="M251.63,350.31a2.74,2.74,0,0,0,.94-.05.94.94,0,0,0,.35-1.7,2.57,2.57,0,0,0-1.13-.49,3.59,3.59,0,0,0-1.63-.08c-.85.2-1.55.93-.8,1.63A3.8,3.8,0,0,0,251.63,350.31Z"/><path class="cls-8" d="M253.33,345.71a2,2,0,0,0,.44-.74,1,1,0,0,0,.1-.49c-.06-.4-.54-.57-.94-.59-1-.06-3.06.48-2.83,1.88S252.63,346.37,253.33,345.71Z"/><path class="cls-8" d="M240.59,301.85a8.09,8.09,0,0,0-.62,2.35,1.43,1.43,0,0,0,.39,1.36,1,1,0,0,0,1,0,2.21,2.21,0,0,0,.74-.77,2.51,2.51,0,0,0,.46-1.95,2.32,2.32,0,0,0-.27-.59,1.6,1.6,0,0,0-.57-.61C241.47,301.48,240.73,301.51,240.59,301.85Z"/><path class="cls-8" d="M245.1,306.64a.86.86,0,0,0,0,.75c.22.31.7.21,1,.06a10.48,10.48,0,0,0,2.5-1.49,4.72,4.72,0,0,0,1.77-2.44c.13-.55-1-1.13-1.44-1.22-.68-.14-1.09.27-1.58.72A8.27,8.27,0,0,0,245.1,306.64Z"/><path class="cls-8" d="M249.17,307.91a3.59,3.59,0,0,0-1.51,2.24.39.39,0,0,0,0,.24.41.41,0,0,0,.38.14,6.76,6.76,0,0,0,2.59-.72,6.83,6.83,0,0,0,2.83-1.93,1.12,1.12,0,0,0,.28-.67c0-.8-1.34-1.06-2-.94A7.09,7.09,0,0,0,249.17,307.91Z"/><path class="cls-8" d="M257.08,323.64a2.35,2.35,0,0,0,.83.14.8.8,0,0,0,.68-.42.91.91,0,0,0,0-.7,3.72,3.72,0,0,0-1.16-1.34,11.12,11.12,0,0,0-2.51-1.69c-1.16-.51-4.48-.79-3.24,1.35C252.69,322.8,255.24,323.1,257.08,323.64Z"/><path class="cls-8" d="M255,317.62a5.8,5.8,0,0,0,3-.81c.4-.23.82-.65.64-1.07a.9.9,0,0,0-.48-.41,5.56,5.56,0,0,0-2-.44,10.28,10.28,0,0,0-3.38.39c-.25.07-1.3.34-1.3.69s.6.46.79.59A5.21,5.21,0,0,0,255,317.62Z"/><path class="cls-8" d="M252.38,313.28a7.51,7.51,0,0,0,3.77-2.19c.18-.21.33-.53.17-.75a.61.61,0,0,0-.32-.19,3.9,3.9,0,0,0-2.62.17,5.08,5.08,0,0,0-2.26,1.87C250.42,313.29,251.37,313.58,252.38,313.28Z"/><path class="cls-5" d="M318,180.34A59.2,59.2,0,0,0,313.76,197a60.88,60.88,0,0,0-.11,17.79,29.78,29.78,0,0,0,7.47,15.85,34.52,34.52,0,0,0,8.58,6.16c10,5.42,21.64,8.26,32.91,6.69s22.09-7.84,28.1-17.66c4.3-7,6-15.48,5.73-23.75S394,185.75,391.09,178a24.83,24.83,0,0,0-3.29-6.46,18.71,18.71,0,0,0-6.77-5.2,43.76,43.76,0,0,0-15.3-3.77,84,84,0,0,0-29.43,2.62C327.54,167.62,321.89,171.64,318,180.34Z"/><path class="cls-6" d="M319.76,182.25a54.8,54.8,0,0,0-4.05,15.69,56.17,56.17,0,0,0-.11,16.7,27.76,27.76,0,0,0,7.14,14.88,33,33,0,0,0,8.2,5.79c9.61,5.09,20.7,7.75,31.47,6.28s21.12-7.36,26.87-16.58c4.11-6.59,5.74-14.54,5.48-22.3a69.52,69.52,0,0,0-5.11-22.63,23.16,23.16,0,0,0-3.15-6.07,17.86,17.86,0,0,0-6.48-4.88,42.46,42.46,0,0,0-14.63-3.54,81.74,81.74,0,0,0-28.14,2.46C328.89,170.31,323.48,174.08,319.76,182.25Z"/><path class="cls-7" d="M318.81,208a28.2,28.2,0,0,0,2.66,11.8c4.27,8.4,13.84,12.53,22.84,15.31,5.39,1.66,11,3.09,16.61,2.58,6.07-.55,11.76-3.36,16.6-7.07,5.8-4.44,10.68-10.5,12.2-17.64a34.38,34.38,0,0,0,.26-10.83,68.69,68.69,0,0,0-2.59-12.64c-1.89-6.18-5.09-12.55-10.92-15.33a28.2,28.2,0,0,0-8.55-2.05c-9.61-1.27-19.52-2.5-28.89,0-8,2.13-11.74,4.94-15.29,12.36A50.57,50.57,0,0,0,318.81,208Z"/><path class="cls-6" d="M383.48,187.09a31.4,31.4,0,0,0-6.36-9.31A17,17,0,0,0,367,172.9a11.61,11.61,0,0,0-10.18,4.21c-2.35,3.16-2.45,7.34-2.46,11.23v4a6.49,6.49,0,0,1-.4,2.7,2.41,2.41,0,0,1-2,1.46,2.32,2.32,0,0,1-1.61-.3,5.88,5.88,0,0,1-1.94-3,46.34,46.34,0,0,0-4-7.83c-1.12-1.77-2.5-3.56-4.51-4.26-2.82-1-5.95.56-8,2.65a22.61,22.61,0,0,0-4.43,6.85,43.66,43.66,0,0,0-3.16,25.24c.24,1.34.63,2.81,1.79,3.57a4.83,4.83,0,0,0,4,.14c6.63-2,11.14-8.26,17.67-10.6a2.86,2.86,0,0,1,2.11-.14,2,2,0,0,1,1,2.05,5.12,5.12,0,0,1-1,2.18c-2.69,3.79-6.17,7-8.55,11-.89,1.49-1.62,3.33-.87,4.89.66,1.36,2.23,2,3.7,2.52a40.63,40.63,0,0,0,16.09,1.82c4.39-.39,8.87-1.58,12.2-4.39s5.24-7.48,3.78-11.52c-1.1-3-3.82-5.23-6.42-7.25a52.37,52.37,0,0,0-5.46-3.88c-1.49-.88-3.22-1.8-3.62-3.45a3.64,3.64,0,0,1,2.23-3.89,7.66,7.66,0,0,1,4.86-.24c1.61.36,3.15,1,4.77,1.32a25.76,25.76,0,0,0,5.1.41,10.15,10.15,0,0,0,4.39-.65,6.55,6.55,0,0,0,3.41-5.9A15.58,15.58,0,0,0,383.48,187.09Z"/><path class="cls-7" d="M344.71,197.71c-1.24-1.42-1.79-3.43-3.34-4.51a4.73,4.73,0,0,0-4.26-.43,7.77,7.77,0,0,0-3.44,2.71,11.76,11.76,0,0,0-1.29,11.72,3.9,3.9,0,0,0,1.12,1.56,3.57,3.57,0,0,0,2.27.57c2.15-.07,4.15-1.08,6.18-1.79a22.31,22.31,0,0,1,8.47-1.19,4,4,0,0,1,1.94.47,4.31,4.31,0,0,1,1.31,1.66,8.1,8.1,0,0,1,1.41,4.59c-.18,1.68-1.36,3.06-2.16,4.55s-1.15,3.56.11,4.7a4.67,4.67,0,0,0,2.46.9,36.7,36.7,0,0,0,10,.7c2-.23,4.32-1.09,4.87-3.05a4.55,4.55,0,0,0-1.08-3.87c-2.13-2.75-5.67-4-8.15-6.44a13.14,13.14,0,0,1-2.87-4.33,8.25,8.25,0,0,1-.66-5,6.74,6.74,0,0,1,3.18-4.11,10.86,10.86,0,0,1,5.09-1.38c1.82-.08,3.84.1,5.25-1a4.5,4.5,0,0,0,1-5,11.12,11.12,0,0,0-3.26-4.25,19.88,19.88,0,0,0-4.68-3.32c-1.34-.64-3.05-1-4.21-.06a4.67,4.67,0,0,0-1.31,2.47q-1.31,4.55-2.3,9.2a8.11,8.11,0,0,1-1.22,3.32C352.79,200.17,347.3,200.67,344.71,197.71Z"/><path class="cls-8" d="M329.07,212.63a10,10,0,0,0-2.2,1.1,3.35,3.35,0,0,0-1.38,2,.66.66,0,0,0,0,.44.7.7,0,0,0,.67.26c1.86-.06,3.38-1.47,4.66-2.82.34-.36.69-.87.44-1.29s-.88-.35-1.33-.15-.93.48-1.39.31Z"/><path class="cls-8" d="M327.63,207.93c-.36.18-.78.22-1.14.4a.88.88,0,0,0-.56,1c.12.36.54.51.92.58a9.65,9.65,0,0,0,3.3.06,2.3,2.3,0,0,0,1.25-.49.93.93,0,0,0,.18-1.22,1.33,1.33,0,0,0-.84-.37,13.85,13.85,0,0,0-3.5-.13Z"/><path class="cls-8" d="M325.42,203.26a.19.19,0,0,0-.26.1,3.35,3.35,0,0,0,2.48,1,2.38,2.38,0,0,0,1.44-.25.94.94,0,0,0,.34-1.27,1.23,1.23,0,0,0-.53-.35,5.38,5.38,0,0,0-3.52-.19.89.89,0,0,0-.54.33c-.11.19,0,.49.18.52Z"/><path class="cls-8" d="M334.42,189.67a3,3,0,0,0,.81,1.06.87.87,0,0,0,1.14,0,1,1,0,0,0,.18-.65,8.62,8.62,0,0,0-1-3.7c-.33-.7-1.56-2-2.07-.72C333,186.73,334,188.78,334.42,189.67Z"/><path class="cls-8" d="M333.91,192.49c.26.09.6.14.76-.08a.6.6,0,0,0,.08-.41,3.07,3.07,0,0,0-1-1.87,9.13,9.13,0,0,0-1.75-1.25c-.38-.23-1.16-.43-1.48.06s.16,1,.42,1.34A6,6,0,0,0,333.91,192.49Z"/><path class="cls-8" d="M332,195.21a1,1,0,0,0,.84-.38,1,1,0,0,0-.13-1,3.86,3.86,0,0,0-3-1.39c-.47,0-1.47-.06-1.69.51s.46,1,.84,1.26A4.49,4.49,0,0,0,332,195.21Z"/><path class="cls-8" d="M326.51,198c-.05.23.15.44.34.58a4.21,4.21,0,0,0,3,.59c.47-.07,1-.26,1.13-.72a.93.93,0,0,0-.52-1,2.33,2.33,0,0,0-1.19-.19C328.67,197.26,326.7,197.12,326.51,198Z"/><path class="cls-8" d="M345.59,227.06a1.46,1.46,0,0,0,.06,1.49,1.34,1.34,0,0,0,1.66,0,5,5,0,0,0,2-3.23c.34-1.54-.91-1.52-1.82-.79A6.16,6.16,0,0,0,345.59,227.06Z"/><path class="cls-8" d="M352.74,225a3.49,3.49,0,0,0-.7,1.86c-.14.82-.28,1.65-.33,2.48a2.39,2.39,0,0,0,.13,1.16.93.93,0,0,0,.94.58,1.23,1.23,0,0,0,.8-.77,8.57,8.57,0,0,0,.54-4.11,2,2,0,0,0-.18-.87C353.73,225,353.08,224.67,352.74,225Z"/><path class="cls-8" d="M357.24,230.5a2.19,2.19,0,0,0,.84,1.53.7.7,0,0,0,.42.11.77.77,0,0,0,.54-.43,3.09,3.09,0,0,0,.27-1.6c0-.83-.18-3.79-1.45-3.76C356.39,226.4,357.08,229.72,357.24,230.5Z"/><path class="cls-8" d="M362,229.71a2.86,2.86,0,0,0,1.18,2.09.44.44,0,0,0,.26.07c.16,0,.26-.17.33-.31a4.65,4.65,0,0,0,.07-3.49c-.2-.59-1-2.12-1.82-1.45C361.36,227.12,361.84,229,362,229.71Z"/><path class="cls-8" d="M365.47,228.09a3.87,3.87,0,0,0,2,1.81.35.35,0,0,0,.25,0,.31.31,0,0,0,.15-.18,1.69,1.69,0,0,0-.17-1.24c-.28-.64-1.64-3.72-2.56-3.6C364,225,365.24,227.68,365.47,228.09Z"/><path class="cls-8" d="M368.71,226.44a4.27,4.27,0,0,0,1.87,1.18.94.94,0,0,0,1.06-.32.76.76,0,0,0-.08-.74A2,2,0,0,0,371,226a14.69,14.69,0,0,0-2-1.16C367.44,224.1,368,225.82,368.71,226.44Z"/><path class="cls-8" d="M373.22,224.26a2.73,2.73,0,0,0,.94-.05.94.94,0,0,0,.35-1.7,2.57,2.57,0,0,0-1.13-.49,3.6,3.6,0,0,0-1.63-.08c-.85.2-1.55.93-.8,1.63A3.8,3.8,0,0,0,373.22,224.26Z"/><path class="cls-8" d="M374.92,219.66a2,2,0,0,0,.44-.74,1,1,0,0,0,.1-.49c-.06-.4-.54-.57-.94-.59-1-.06-3.06.48-2.83,1.89S374.22,220.32,374.92,219.66Z"/><path class="cls-8" d="M362.18,175.8a8.08,8.08,0,0,0-.62,2.35,1.43,1.43,0,0,0,.39,1.36,1,1,0,0,0,1,0,2.21,2.21,0,0,0,.74-.77,2.51,2.51,0,0,0,.46-1.95,2.32,2.32,0,0,0-.27-.59,1.6,1.6,0,0,0-.57-.61C363.06,175.44,362.33,175.47,362.18,175.8Z"/><path class="cls-8" d="M366.7,180.6a.85.85,0,0,0,0,.75c.22.31.7.21,1,.06a10.48,10.48,0,0,0,2.5-1.49,4.72,4.72,0,0,0,1.77-2.44c.13-.55-1-1.13-1.44-1.22-.68-.14-1.09.27-1.58.72A8.27,8.27,0,0,0,366.7,180.6Z"/><path class="cls-8" d="M370.76,181.87a3.6,3.6,0,0,0-1.51,2.24.39.39,0,0,0,0,.24.41.41,0,0,0,.38.14,6.76,6.76,0,0,0,2.59-.72,6.83,6.83,0,0,0,2.83-1.93,1.12,1.12,0,0,0,.28-.67c0-.8-1.34-1.06-2-.94A7.09,7.09,0,0,0,370.76,181.87Z"/><path class="cls-8" d="M378.67,197.59a2.35,2.35,0,0,0,.83.14.8.8,0,0,0,.68-.42.91.91,0,0,0,0-.7,3.72,3.72,0,0,0-1.16-1.34,11.12,11.12,0,0,0-2.51-1.69c-1.16-.51-4.48-.79-3.24,1.35C374.28,196.75,376.83,197.05,378.67,197.59Z"/><path class="cls-8" d="M376.6,191.57a5.8,5.8,0,0,0,3-.81c.4-.23.82-.65.64-1.07a.9.9,0,0,0-.48-.41,5.56,5.56,0,0,0-2-.44,10.28,10.28,0,0,0-3.38.39c-.25.07-1.3.34-1.3.69s.6.46.79.59A5.21,5.21,0,0,0,376.6,191.57Z"/><path class="cls-8" d="M374,187.24a7.51,7.51,0,0,0,3.77-2.19c.18-.21.33-.53.17-.75a.61.61,0,0,0-.32-.19,3.89,3.89,0,0,0-2.62.17,5.08,5.08,0,0,0-2.26,1.87C372,187.25,373,187.53,374,187.24Z"/><path class="cls-5" d="M500.4,255.86a59.2,59.2,0,0,0-4.24,16.71,60.88,60.88,0,0,0-.11,17.79,29.78,29.78,0,0,0,7.47,15.85,34.53,34.53,0,0,0,8.58,6.16c10,5.42,21.64,8.26,32.91,6.69s22.09-7.84,28.1-17.66c4.3-7,6-15.48,5.73-23.75s-2.42-16.38-5.34-24.09a24.83,24.83,0,0,0-3.29-6.46,18.71,18.71,0,0,0-6.77-5.2,43.76,43.76,0,0,0-15.3-3.77,84,84,0,0,0-29.43,2.62C510,243.14,504.3,247.16,500.4,255.86Z"/><path class="cls-6" d="M502.17,257.78a54.81,54.81,0,0,0-4.05,15.69,56.17,56.17,0,0,0-.11,16.7,27.76,27.76,0,0,0,7.14,14.89,33,33,0,0,0,8.2,5.79c9.61,5.09,20.7,7.75,31.47,6.28s21.12-7.36,26.87-16.58c4.11-6.59,5.74-14.54,5.48-22.3a69.53,69.53,0,0,0-5.11-22.63,23.17,23.17,0,0,0-3.15-6.07,17.85,17.85,0,0,0-6.48-4.88,42.46,42.46,0,0,0-14.63-3.54,81.74,81.74,0,0,0-28.14,2.46C511.3,245.83,505.89,249.61,502.17,257.78Z"/><path class="cls-7" d="M501.22,283.54a28.2,28.2,0,0,0,2.66,11.8c4.27,8.4,13.84,12.53,22.84,15.31,5.39,1.66,11,3.09,16.61,2.58,6.07-.55,11.76-3.36,16.6-7.07,5.8-4.44,10.68-10.5,12.2-17.64a34.38,34.38,0,0,0,.26-10.83A68.71,68.71,0,0,0,569.79,265c-1.89-6.18-5.09-12.55-10.92-15.33a28.2,28.2,0,0,0-8.55-2.05c-9.61-1.27-19.52-2.5-28.89,0-8,2.13-11.74,4.94-15.29,12.36A50.57,50.57,0,0,0,501.22,283.54Z"/><path class="cls-6" d="M565.9,262.61a31.41,31.41,0,0,0-6.36-9.31,17,17,0,0,0-10.16-4.88,11.61,11.61,0,0,0-10.18,4.21c-2.35,3.16-2.45,7.34-2.46,11.23q0,2,0,4a6.48,6.48,0,0,1-.4,2.7,2.41,2.41,0,0,1-2,1.46,2.32,2.32,0,0,1-1.61-.3,5.88,5.88,0,0,1-1.94-3,46.34,46.34,0,0,0-4-7.83c-1.12-1.77-2.5-3.56-4.51-4.26-2.82-1-5.95.56-8,2.65a22.61,22.61,0,0,0-4.43,6.85,43.66,43.66,0,0,0-3.16,25.24c.24,1.34.63,2.81,1.79,3.57a4.83,4.83,0,0,0,4,.14c6.63-2,11.14-8.26,17.67-10.6a2.86,2.86,0,0,1,2.11-.14,2,2,0,0,1,1,2.05,5.12,5.12,0,0,1-1,2.18c-2.69,3.79-6.17,7-8.55,11-.89,1.49-1.62,3.33-.87,4.89.66,1.36,2.23,2,3.7,2.52a40.63,40.63,0,0,0,16.09,1.82c4.39-.39,8.87-1.58,12.2-4.39S560,297,558.55,293c-1.1-3-3.82-5.23-6.42-7.25a52.38,52.38,0,0,0-5.46-3.88c-1.49-.88-3.22-1.8-3.62-3.45a3.64,3.64,0,0,1,2.23-3.89,7.66,7.66,0,0,1,4.86-.24c1.61.36,3.15,1,4.77,1.32a25.75,25.75,0,0,0,5.1.41,10.15,10.15,0,0,0,4.39-.65,6.55,6.55,0,0,0,3.41-5.9A15.58,15.58,0,0,0,565.9,262.61Z"/><path class="cls-7" d="M527.12,273.23c-1.24-1.42-1.79-3.43-3.34-4.51a4.73,4.73,0,0,0-4.26-.43,7.77,7.77,0,0,0-3.44,2.71,11.76,11.76,0,0,0-1.29,11.72,3.91,3.91,0,0,0,1.12,1.56,3.57,3.57,0,0,0,2.27.57c2.15-.07,4.15-1.08,6.18-1.79a22.31,22.31,0,0,1,8.47-1.19,4,4,0,0,1,1.94.47,4.31,4.31,0,0,1,1.31,1.66,8.1,8.1,0,0,1,1.41,4.59c-.18,1.68-1.36,3.06-2.16,4.55s-1.15,3.57.11,4.7a4.67,4.67,0,0,0,2.46.9,36.69,36.69,0,0,0,10,.7c2-.23,4.32-1.09,4.87-3.05a4.55,4.55,0,0,0-1.08-3.87c-2.13-2.75-5.67-4-8.15-6.44a13.13,13.13,0,0,1-2.87-4.33,8.25,8.25,0,0,1-.66-5,6.74,6.74,0,0,1,3.18-4.11,10.86,10.86,0,0,1,5.09-1.38c1.82-.08,3.84.1,5.25-1a4.5,4.5,0,0,0,1-5,11.12,11.12,0,0,0-3.26-4.25,19.88,19.88,0,0,0-4.68-3.32c-1.34-.64-3.05-1-4.21-.06a4.67,4.67,0,0,0-1.31,2.47q-1.31,4.55-2.29,9.2a8.11,8.11,0,0,1-1.22,3.32C535.2,275.69,529.71,276.19,527.12,273.23Z"/><path class="cls-8" d="M511.48,288.16a10,10,0,0,0-2.2,1.1,3.35,3.35,0,0,0-1.38,2,.66.66,0,0,0,0,.44.7.7,0,0,0,.67.26c1.86-.06,3.38-1.47,4.66-2.82.34-.36.69-.87.44-1.29s-.88-.35-1.33-.15-.93.48-1.39.31Z"/><path class="cls-8" d="M510,283.45c-.36.18-.78.22-1.14.4a.88.88,0,0,0-.56,1c.12.36.54.51.92.58a9.65,9.65,0,0,0,3.3.06,2.29,2.29,0,0,0,1.25-.49.93.93,0,0,0,.18-1.22,1.33,1.33,0,0,0-.84-.37,13.84,13.84,0,0,0-3.5-.13Z"/><path class="cls-8" d="M507.83,278.78a.19.19,0,0,0-.26.1,3.35,3.35,0,0,0,2.48,1,2.38,2.38,0,0,0,1.44-.25.94.94,0,0,0,.34-1.27,1.23,1.23,0,0,0-.53-.35,5.38,5.38,0,0,0-3.52-.19.89.89,0,0,0-.54.33c-.11.19,0,.49.18.52Z"/><path class="cls-8" d="M516.84,265.19a3,3,0,0,0,.81,1.06.87.87,0,0,0,1.14,0,1,1,0,0,0,.18-.65,8.62,8.62,0,0,0-1-3.7c-.33-.7-1.56-2-2.07-.72C515.46,262.25,516.37,264.3,516.84,265.19Z"/><path class="cls-8" d="M516.33,268c.26.09.6.14.76-.09a.6.6,0,0,0,.08-.41,3.07,3.07,0,0,0-1-1.87,9.13,9.13,0,0,0-1.75-1.25c-.38-.23-1.16-.43-1.48.06s.16,1,.42,1.34A6,6,0,0,0,516.33,268Z"/><path class="cls-8" d="M514.38,270.73a1,1,0,0,0,.84-.38,1,1,0,0,0-.13-1,3.86,3.86,0,0,0-3-1.39c-.47,0-1.47-.06-1.69.51s.46,1,.84,1.26A4.49,4.49,0,0,0,514.38,270.73Z"/><path class="cls-8" d="M508.92,273.5c-.05.23.15.44.34.58a4.21,4.21,0,0,0,3,.59c.47-.07,1-.26,1.13-.72a.93.93,0,0,0-.52-1,2.34,2.34,0,0,0-1.19-.19C511.08,272.78,509.11,272.65,508.92,273.5Z"/><path class="cls-8" d="M528,302.58a1.46,1.46,0,0,0,.06,1.49,1.34,1.34,0,0,0,1.66,0,5,5,0,0,0,2-3.23c.34-1.54-.91-1.52-1.82-.79A6.16,6.16,0,0,0,528,302.58Z"/><path class="cls-8" d="M535.15,300.56a3.49,3.49,0,0,0-.7,1.86c-.14.82-.28,1.65-.33,2.48a2.4,2.4,0,0,0,.13,1.16.93.93,0,0,0,.94.58,1.23,1.23,0,0,0,.8-.77,8.57,8.57,0,0,0,.54-4.11,2,2,0,0,0-.18-.87C536.15,300.51,535.49,300.19,535.15,300.56Z"/><path class="cls-8" d="M539.65,306a2.19,2.19,0,0,0,.84,1.53.7.7,0,0,0,.42.11.77.77,0,0,0,.54-.43,3.09,3.09,0,0,0,.27-1.6c0-.83-.18-3.79-1.45-3.76C538.8,301.92,539.49,305.24,539.65,306Z"/><path class="cls-8" d="M544.38,305.23a2.87,2.87,0,0,0,1.18,2.09.44.44,0,0,0,.26.07c.16,0,.26-.17.33-.31a4.65,4.65,0,0,0,.07-3.49c-.2-.59-1-2.12-1.82-1.45C543.77,302.64,544.25,304.56,544.38,305.23Z"/><path class="cls-8" d="M547.88,303.61a3.87,3.87,0,0,0,2,1.81.35.35,0,0,0,.25,0,.31.31,0,0,0,.15-.18,1.69,1.69,0,0,0-.17-1.24c-.28-.64-1.64-3.72-2.56-3.6C546.39,300.57,547.65,303.2,547.88,303.61Z"/><path class="cls-8" d="M551.12,302a4.27,4.27,0,0,0,1.87,1.18.94.94,0,0,0,1.06-.32.76.76,0,0,0-.08-.74,2,2,0,0,0-.57-.53,14.7,14.7,0,0,0-2-1.16C549.85,299.62,550.46,301.34,551.12,302Z"/><path class="cls-8" d="M555.64,299.79a2.73,2.73,0,0,0,.94-.05.94.94,0,0,0,.35-1.7,2.57,2.57,0,0,0-1.13-.49,3.6,3.6,0,0,0-1.63-.08c-.85.2-1.55.93-.8,1.63A3.8,3.8,0,0,0,555.64,299.79Z"/><path class="cls-8" d="M557.33,295.18a2,2,0,0,0,.44-.74,1,1,0,0,0,.1-.49c-.06-.4-.54-.57-.94-.59-1-.06-3.06.48-2.83,1.89S556.63,295.85,557.33,295.18Z"/><path class="cls-8" d="M544.59,251.32a8.09,8.09,0,0,0-.62,2.35,1.43,1.43,0,0,0,.39,1.36,1,1,0,0,0,1,0,2.21,2.21,0,0,0,.74-.77,2.51,2.51,0,0,0,.46-1.95,2.31,2.31,0,0,0-.27-.59,1.6,1.6,0,0,0-.57-.61C545.48,251,544.74,251,544.59,251.32Z"/><path class="cls-8" d="M549.11,256.12a.85.85,0,0,0,0,.75c.22.31.7.21,1,.06a10.48,10.48,0,0,0,2.5-1.49,4.72,4.72,0,0,0,1.77-2.44c.13-.55-1-1.13-1.44-1.22-.68-.14-1.09.27-1.58.72A8.27,8.27,0,0,0,549.11,256.12Z"/><path class="cls-8" d="M553.17,257.39a3.59,3.59,0,0,0-1.51,2.24.39.39,0,0,0,0,.24.41.41,0,0,0,.38.14,6.76,6.76,0,0,0,2.59-.72,6.83,6.83,0,0,0,2.83-1.93,1.12,1.12,0,0,0,.28-.67c0-.8-1.34-1.06-2-.94A7.09,7.09,0,0,0,553.17,257.39Z"/><path class="cls-8" d="M561.08,273.11a2.35,2.35,0,0,0,.83.14.8.8,0,0,0,.68-.42.91.91,0,0,0,0-.7,3.72,3.72,0,0,0-1.16-1.34,11.11,11.11,0,0,0-2.51-1.69c-1.16-.51-4.48-.79-3.24,1.35C556.69,272.27,559.24,272.58,561.08,273.11Z"/><path class="cls-8" d="M559,267.09a5.8,5.8,0,0,0,3-.81c.4-.23.82-.65.64-1.07a.9.9,0,0,0-.48-.41,5.56,5.56,0,0,0-2-.44,10.28,10.28,0,0,0-3.38.39c-.25.07-1.3.34-1.3.69s.6.46.79.59A5.21,5.21,0,0,0,559,267.09Z"/><path class="cls-8" d="M556.38,262.76a7.51,7.51,0,0,0,3.77-2.19c.18-.21.33-.53.17-.75a.61.61,0,0,0-.32-.19,3.9,3.9,0,0,0-2.62.17,5.08,5.08,0,0,0-2.26,1.87C554.43,262.77,555.38,263.06,556.38,262.76Z"/><path class="cls-5" d="M358,329.42a59.2,59.2,0,0,0-4.24,16.71,60.88,60.88,0,0,0-.11,17.79,29.78,29.78,0,0,0,7.47,15.85,34.52,34.52,0,0,0,8.58,6.16c10,5.42,21.64,8.26,32.91,6.69s22.09-7.84,28.1-17.66c4.3-7,6-15.48,5.73-23.75s-2.42-16.38-5.34-24.09a24.84,24.84,0,0,0-3.29-6.46,18.71,18.71,0,0,0-6.77-5.2,43.76,43.76,0,0,0-15.3-3.77,84,84,0,0,0-29.43,2.62C367.58,316.69,361.93,320.72,358,329.42Z"/><path class="cls-6" d="M359.8,331.33A54.8,54.8,0,0,0,355.75,347a56.17,56.17,0,0,0-.11,16.7,27.76,27.76,0,0,0,7.14,14.89,33,33,0,0,0,8.2,5.79c9.61,5.09,20.7,7.75,31.47,6.28s21.12-7.36,26.87-16.58c4.11-6.59,5.74-14.54,5.48-22.3a69.53,69.53,0,0,0-5.11-22.63,23.17,23.17,0,0,0-3.15-6.07,17.86,17.86,0,0,0-6.48-4.88,42.46,42.46,0,0,0-14.63-3.54,81.74,81.74,0,0,0-28.14,2.46C368.93,319.38,363.52,323.16,359.8,331.33Z"/><path class="cls-7" d="M358.85,357.1a28.2,28.2,0,0,0,2.66,11.8c4.27,8.4,13.84,12.53,22.84,15.31,5.39,1.66,11,3.09,16.61,2.58,6.07-.55,11.76-3.36,16.6-7.07,5.8-4.44,10.68-10.5,12.2-17.64a34.38,34.38,0,0,0,.26-10.83,68.71,68.71,0,0,0-2.59-12.64c-1.89-6.18-5.09-12.55-10.92-15.33a28.2,28.2,0,0,0-8.55-2.05c-9.61-1.27-19.52-2.5-28.89,0-8,2.13-11.74,4.94-15.29,12.36A50.57,50.57,0,0,0,358.85,357.1Z"/><path class="cls-6" d="M423.53,336.16a31.41,31.41,0,0,0-6.36-9.31A17,17,0,0,0,407,322a11.61,11.61,0,0,0-10.18,4.21c-2.35,3.16-2.45,7.34-2.46,11.23v4a6.49,6.49,0,0,1-.4,2.7,2.41,2.41,0,0,1-2,1.46,2.32,2.32,0,0,1-1.61-.3,5.88,5.88,0,0,1-1.94-3,46.34,46.34,0,0,0-4-7.83c-1.12-1.77-2.5-3.56-4.51-4.26-2.82-1-5.95.56-8,2.64a22.61,22.61,0,0,0-4.43,6.85A43.66,43.66,0,0,0,364.34,365c.24,1.34.63,2.81,1.79,3.57a4.83,4.83,0,0,0,4,.14c6.63-2,11.14-8.26,17.67-10.6a2.86,2.86,0,0,1,2.11-.14,2,2,0,0,1,1,2.05,5.12,5.12,0,0,1-1,2.18c-2.69,3.79-6.17,7-8.55,11-.89,1.49-1.62,3.33-.87,4.89.66,1.36,2.23,2,3.7,2.52a40.63,40.63,0,0,0,16.09,1.82c4.39-.39,8.87-1.58,12.2-4.39s5.24-7.48,3.78-11.52c-1.1-3-3.82-5.23-6.42-7.25a52.4,52.4,0,0,0-5.46-3.88c-1.49-.88-3.22-1.8-3.62-3.45a3.64,3.64,0,0,1,2.23-3.89,7.66,7.66,0,0,1,4.86-.24c1.61.36,3.15,1,4.77,1.32a25.75,25.75,0,0,0,5.1.41,10.15,10.15,0,0,0,4.39-.65,6.55,6.55,0,0,0,3.41-5.9A15.58,15.58,0,0,0,423.53,336.16Z"/><path class="cls-7" d="M384.75,346.79c-1.24-1.42-1.79-3.43-3.34-4.51a4.73,4.73,0,0,0-4.26-.43,7.77,7.77,0,0,0-3.44,2.71,11.76,11.76,0,0,0-1.29,11.72,3.91,3.91,0,0,0,1.12,1.56,3.57,3.57,0,0,0,2.27.57c2.15-.07,4.15-1.08,6.18-1.79a22.31,22.31,0,0,1,8.47-1.19,4,4,0,0,1,1.94.47,4.31,4.31,0,0,1,1.31,1.66,8.1,8.1,0,0,1,1.41,4.59c-.18,1.68-1.36,3.06-2.16,4.55s-1.15,3.57.11,4.7a4.67,4.67,0,0,0,2.46.9,36.7,36.7,0,0,0,10,.7c2-.23,4.32-1.09,4.87-3.05a4.55,4.55,0,0,0-1.08-3.87c-2.13-2.75-5.67-4-8.15-6.44a13.14,13.14,0,0,1-2.87-4.33,8.25,8.25,0,0,1-.66-5,6.74,6.74,0,0,1,3.18-4.11,10.86,10.86,0,0,1,5.09-1.38c1.82-.08,3.84.1,5.25-1.05a4.5,4.5,0,0,0,1-5,11.12,11.12,0,0,0-3.26-4.25,19.88,19.88,0,0,0-4.68-3.32c-1.34-.64-3.05-1-4.21-.06a4.67,4.67,0,0,0-1.31,2.47q-1.31,4.55-2.3,9.2a8.11,8.11,0,0,1-1.22,3.32C392.83,349.24,387.34,349.75,384.75,346.79Z"/><path class="cls-8" d="M369.11,361.71a10,10,0,0,0-2.2,1.1,3.35,3.35,0,0,0-1.38,2,.66.66,0,0,0,0,.44.7.7,0,0,0,.67.26c1.86-.06,3.38-1.47,4.66-2.82.34-.36.69-.87.44-1.29s-.88-.35-1.33-.15-.93.48-1.39.31Z"/><path class="cls-8" d="M367.68,357c-.36.18-.78.22-1.14.4a.88.88,0,0,0-.56,1c.12.36.54.51.92.58a9.65,9.65,0,0,0,3.3.06,2.3,2.3,0,0,0,1.25-.49.93.93,0,0,0,.18-1.22,1.33,1.33,0,0,0-.84-.37,13.84,13.84,0,0,0-3.5-.13Z"/><path class="cls-8" d="M365.46,352.34a.19.19,0,0,0-.26.1,3.35,3.35,0,0,0,2.48,1,2.38,2.38,0,0,0,1.44-.25.94.94,0,0,0,.34-1.27,1.22,1.22,0,0,0-.53-.35,5.37,5.37,0,0,0-3.52-.19.89.89,0,0,0-.54.33c-.11.19,0,.49.18.52Z"/><path class="cls-8" d="M374.47,338.75a3,3,0,0,0,.81,1.06.87.87,0,0,0,1.14,0,1,1,0,0,0,.18-.65,8.62,8.62,0,0,0-1-3.7c-.33-.7-1.56-2-2.07-.72C373.09,335.81,374,337.85,374.47,338.75Z"/><path class="cls-8" d="M374,341.57c.26.09.6.14.76-.09a.6.6,0,0,0,.08-.41,3.07,3.07,0,0,0-1-1.87,9.13,9.13,0,0,0-1.75-1.25c-.38-.23-1.16-.43-1.48.06s.16,1,.42,1.34A6,6,0,0,0,374,341.57Z"/><path class="cls-8" d="M372,344.28a1,1,0,0,0,.84-.38,1,1,0,0,0-.13-1,3.86,3.86,0,0,0-3-1.39c-.47,0-1.47-.06-1.69.51s.46,1,.84,1.26A4.49,4.49,0,0,0,372,344.28Z"/><path class="cls-8" d="M366.55,347.06c-.05.23.15.44.34.58a4.21,4.21,0,0,0,3,.59c.47-.07,1-.26,1.13-.72a.93.93,0,0,0-.52-1,2.33,2.33,0,0,0-1.19-.19C368.71,346.34,366.74,346.2,366.55,347.06Z"/><path class="cls-8" d="M385.63,376.14a1.46,1.46,0,0,0,.06,1.49,1.34,1.34,0,0,0,1.66,0,5,5,0,0,0,2-3.23c.34-1.54-.91-1.52-1.82-.79A6.16,6.16,0,0,0,385.63,376.14Z"/><path class="cls-8" d="M392.78,374.11a3.49,3.49,0,0,0-.7,1.86c-.14.82-.28,1.65-.33,2.48a2.39,2.39,0,0,0,.13,1.16.93.93,0,0,0,.94.58,1.23,1.23,0,0,0,.8-.77,8.57,8.57,0,0,0,.54-4.11,2,2,0,0,0-.18-.87C393.78,374.07,393.12,373.75,392.78,374.11Z"/><path class="cls-8" d="M397.28,379.58a2.19,2.19,0,0,0,.84,1.53.7.7,0,0,0,.42.11.77.77,0,0,0,.54-.43,3.09,3.09,0,0,0,.27-1.6c0-.83-.18-3.79-1.45-3.76C396.43,375.48,397.12,378.8,397.28,379.58Z"/><path class="cls-8" d="M402,378.79a2.87,2.87,0,0,0,1.18,2.09.44.44,0,0,0,.26.07c.16,0,.26-.17.33-.31a4.65,4.65,0,0,0,.07-3.49c-.2-.59-1-2.12-1.82-1.45C401.4,376.19,401.88,378.11,402,378.79Z"/><path class="cls-8" d="M405.51,377.17a3.87,3.87,0,0,0,2,1.81.35.35,0,0,0,.25,0,.31.31,0,0,0,.15-.18,1.69,1.69,0,0,0-.17-1.24c-.28-.64-1.64-3.72-2.56-3.6C404,374.12,405.28,376.75,405.51,377.17Z"/><path class="cls-8" d="M408.75,375.51a4.27,4.27,0,0,0,1.87,1.18.94.94,0,0,0,1.06-.32.76.76,0,0,0-.08-.74,2,2,0,0,0-.57-.53,14.72,14.72,0,0,0-2-1.16C407.48,373.18,408.09,374.9,408.75,375.51Z"/><path class="cls-8" d="M413.27,373.34a2.73,2.73,0,0,0,.94-.05.94.94,0,0,0,.35-1.7,2.57,2.57,0,0,0-1.13-.49,3.6,3.6,0,0,0-1.63-.08c-.85.2-1.55.93-.8,1.63A3.8,3.8,0,0,0,413.27,373.34Z"/><path class="cls-8" d="M415,368.74a2,2,0,0,0,.44-.74,1,1,0,0,0,.1-.49c-.06-.4-.54-.57-.94-.59-1-.06-3.06.48-2.83,1.89S414.26,369.4,415,368.74Z"/><path class="cls-8" d="M402.22,324.88a8.08,8.08,0,0,0-.62,2.35,1.43,1.43,0,0,0,.39,1.36,1,1,0,0,0,1,0,2.21,2.21,0,0,0,.74-.77,2.51,2.51,0,0,0,.46-1.95,2.32,2.32,0,0,0-.27-.59,1.6,1.6,0,0,0-.57-.61C403.11,324.52,402.37,324.54,402.22,324.88Z"/><path class="cls-8" d="M406.74,329.68a.85.85,0,0,0,0,.75c.22.31.7.21,1,.06a10.48,10.48,0,0,0,2.5-1.49,4.72,4.72,0,0,0,1.77-2.44c.13-.55-1-1.13-1.44-1.22-.68-.14-1.09.27-1.58.72A8.28,8.28,0,0,0,406.74,329.68Z"/><path class="cls-8" d="M410.8,330.94a3.6,3.6,0,0,0-1.51,2.24.39.39,0,0,0,0,.24.41.41,0,0,0,.38.14,6.76,6.76,0,0,0,2.59-.72,6.83,6.83,0,0,0,2.83-1.93,1.12,1.12,0,0,0,.28-.67c0-.8-1.34-1.06-2-.94A7.09,7.09,0,0,0,410.8,330.94Z"/><path class="cls-8" d="M418.71,346.67a2.35,2.35,0,0,0,.83.14.8.8,0,0,0,.68-.42.91.91,0,0,0,0-.7,3.72,3.72,0,0,0-1.16-1.34,11.12,11.12,0,0,0-2.51-1.69c-1.16-.51-4.48-.79-3.24,1.35C414.32,345.83,416.87,346.13,418.71,346.67Z"/><path class="cls-8" d="M416.64,340.65a5.8,5.8,0,0,0,3-.81c.4-.23.82-.65.64-1.07a.9.9,0,0,0-.48-.41,5.56,5.56,0,0,0-2-.44,10.28,10.28,0,0,0-3.38.39c-.25.07-1.3.34-1.3.69s.6.46.79.59A5.21,5.21,0,0,0,416.64,340.65Z"/><path class="cls-8" d="M414,336.31a7.51,7.51,0,0,0,3.77-2.19c.18-.21.33-.53.17-.75a.61.61,0,0,0-.32-.19,3.9,3.9,0,0,0-2.62.17,5.08,5.08,0,0,0-2.26,1.87C412.06,336.32,413,336.61,414,336.31Z"/><path class="cls-5" d="M480.61,370.26A59.2,59.2,0,0,0,476.37,387a60.88,60.88,0,0,0-.11,17.79,29.78,29.78,0,0,0,7.47,15.85,34.52,34.52,0,0,0,8.58,6.16c10,5.42,21.64,8.26,32.91,6.69s22.09-7.84,28.1-17.66c4.3-7,6-15.48,5.73-23.75s-2.42-16.38-5.34-24.09a24.83,24.83,0,0,0-3.29-6.46,18.71,18.71,0,0,0-6.77-5.2,43.76,43.76,0,0,0-15.3-3.77,84,84,0,0,0-29.43,2.62C490.15,357.53,484.5,361.56,480.61,370.26Z"/><path class="cls-6" d="M482.37,372.17a54.8,54.8,0,0,0-4.05,15.69,56.18,56.18,0,0,0-.11,16.7,27.76,27.76,0,0,0,7.14,14.88,33,33,0,0,0,8.2,5.79c9.61,5.09,20.7,7.75,31.47,6.28s21.12-7.36,26.87-16.59c4.11-6.59,5.74-14.54,5.48-22.3A69.52,69.52,0,0,0,552.27,370a23.16,23.16,0,0,0-3.15-6.07,17.86,17.86,0,0,0-6.48-4.88A42.46,42.46,0,0,0,528,355.52,81.74,81.74,0,0,0,499.87,358C491.5,360.22,486.1,364,482.37,372.17Z"/><path class="cls-7" d="M481.42,397.94a28.2,28.2,0,0,0,2.66,11.8c4.27,8.4,13.84,12.53,22.84,15.31,5.39,1.66,11,3.09,16.61,2.58,6.07-.55,11.76-3.36,16.6-7.07,5.8-4.44,10.68-10.5,12.2-17.64a34.38,34.38,0,0,0,.26-10.83A68.68,68.68,0,0,0,550,379.44c-1.89-6.18-5.09-12.55-10.92-15.33a28.2,28.2,0,0,0-8.55-2.05c-9.61-1.27-19.52-2.5-28.89,0-8,2.13-11.74,4.94-15.29,12.36A50.57,50.57,0,0,0,481.42,397.94Z"/><path class="cls-6" d="M546.1,377a31.4,31.4,0,0,0-6.36-9.31,17,17,0,0,0-10.16-4.88A11.61,11.61,0,0,0,519.4,367c-2.35,3.16-2.45,7.34-2.46,11.23q0,2,0,4a6.49,6.49,0,0,1-.4,2.7,2.41,2.41,0,0,1-2,1.46,2.33,2.33,0,0,1-1.61-.3,5.88,5.88,0,0,1-1.94-3,46.35,46.35,0,0,0-4-7.83c-1.12-1.77-2.5-3.56-4.51-4.26-2.82-1-5.95.56-8,2.65a22.61,22.61,0,0,0-4.43,6.85,43.66,43.66,0,0,0-3.16,25.24c.24,1.34.63,2.81,1.79,3.57a4.83,4.83,0,0,0,4,.14c6.63-2,11.14-8.26,17.67-10.6a2.86,2.86,0,0,1,2.11-.14,2,2,0,0,1,1,2.05,5.12,5.12,0,0,1-1,2.18c-2.69,3.79-6.17,7-8.55,11-.89,1.49-1.62,3.33-.87,4.89.66,1.36,2.23,2,3.7,2.52a40.63,40.63,0,0,0,16.09,1.82c4.39-.39,8.87-1.58,12.2-4.39s5.24-7.48,3.78-11.52c-1.1-3-3.82-5.23-6.42-7.25a52.36,52.36,0,0,0-5.46-3.88c-1.49-.88-3.22-1.8-3.62-3.45a3.64,3.64,0,0,1,2.23-3.89,7.66,7.66,0,0,1,4.86-.24c1.61.36,3.15,1,4.77,1.32a25.76,25.76,0,0,0,5.1.41,10.15,10.15,0,0,0,4.39-.65,6.55,6.55,0,0,0,3.41-5.9A15.58,15.58,0,0,0,546.1,377Z"/><path class="cls-7" d="M507.32,387.63c-1.24-1.42-1.79-3.43-3.34-4.51a4.73,4.73,0,0,0-4.26-.43,7.77,7.77,0,0,0-3.44,2.71A11.76,11.76,0,0,0,495,397.12a3.91,3.91,0,0,0,1.12,1.56,3.57,3.57,0,0,0,2.27.57c2.15-.07,4.15-1.08,6.18-1.79a22.31,22.31,0,0,1,8.47-1.19,4,4,0,0,1,1.94.47,4.31,4.31,0,0,1,1.31,1.66,8.1,8.1,0,0,1,1.41,4.59c-.18,1.68-1.36,3.06-2.16,4.55s-1.15,3.57.11,4.7a4.68,4.68,0,0,0,2.46.9,36.7,36.7,0,0,0,10,.7c2-.23,4.32-1.09,4.87-3.05a4.55,4.55,0,0,0-1.08-3.87c-2.13-2.75-5.67-4-8.15-6.44a13.13,13.13,0,0,1-2.87-4.33,8.25,8.25,0,0,1-.66-5,6.74,6.74,0,0,1,3.18-4.11,10.86,10.86,0,0,1,5.09-1.38c1.82-.08,3.84.1,5.25-1a4.5,4.5,0,0,0,1-5,11.12,11.12,0,0,0-3.26-4.26,19.88,19.88,0,0,0-4.68-3.32c-1.34-.64-3.05-1-4.21-.06a4.67,4.67,0,0,0-1.31,2.47Q520,379,519,383.67a8.11,8.11,0,0,1-1.22,3.32C515.4,390.08,509.91,390.59,507.32,387.63Z"/><path class="cls-8" d="M491.69,402.55a10,10,0,0,0-2.2,1.1,3.35,3.35,0,0,0-1.38,2,.66.66,0,0,0,0,.44.7.7,0,0,0,.67.26c1.86-.06,3.38-1.47,4.66-2.82.34-.36.69-.87.44-1.29s-.88-.35-1.33-.15-.93.48-1.39.31Z"/><path class="cls-8" d="M490.25,397.84c-.36.18-.78.22-1.14.4a.88.88,0,0,0-.56,1c.12.36.54.51.92.58a9.65,9.65,0,0,0,3.3.06,2.3,2.3,0,0,0,1.25-.49.93.93,0,0,0,.18-1.22,1.33,1.33,0,0,0-.84-.37,13.85,13.85,0,0,0-3.5-.13Z"/><path class="cls-8" d="M488,393.17a.19.19,0,0,0-.26.1,3.35,3.35,0,0,0,2.48,1,2.38,2.38,0,0,0,1.44-.25.94.94,0,0,0,.34-1.27,1.23,1.23,0,0,0-.53-.35,5.38,5.38,0,0,0-3.52-.19.89.89,0,0,0-.54.33c-.11.19,0,.49.18.52Z"/><path class="cls-8" d="M497,379.59a3,3,0,0,0,.81,1.06.87.87,0,0,0,1.14,0,1,1,0,0,0,.18-.65,8.62,8.62,0,0,0-1-3.7c-.33-.7-1.56-2-2.07-.72C495.66,376.65,496.57,378.69,497,379.59Z"/><path class="cls-8" d="M496.53,382.41c.26.09.6.14.76-.09a.6.6,0,0,0,.08-.41,3.07,3.07,0,0,0-1-1.87,9.13,9.13,0,0,0-1.75-1.25c-.38-.23-1.16-.43-1.48.06s.16,1,.42,1.34A6,6,0,0,0,496.53,382.41Z"/><path class="cls-8" d="M494.58,385.12a1,1,0,0,0,.84-.38,1,1,0,0,0-.13-1,3.86,3.86,0,0,0-3-1.39c-.47,0-1.47-.06-1.69.51s.46,1,.84,1.26A4.49,4.49,0,0,0,494.58,385.12Z"/><path class="cls-8" d="M489.12,387.9c-.05.23.15.44.34.58a4.21,4.21,0,0,0,3,.59c.47-.07,1-.26,1.13-.72a.93.93,0,0,0-.52-1,2.34,2.34,0,0,0-1.19-.19C491.28,387.18,489.31,387,489.12,387.9Z"/><path class="cls-8" d="M508.2,417a1.46,1.46,0,0,0,.06,1.49,1.34,1.34,0,0,0,1.66,0,5,5,0,0,0,2-3.23c.34-1.54-.91-1.52-1.82-.79A6.16,6.16,0,0,0,508.2,417Z"/><path class="cls-8" d="M515.35,415a3.49,3.49,0,0,0-.7,1.86c-.14.82-.28,1.65-.33,2.48a2.39,2.39,0,0,0,.13,1.16.93.93,0,0,0,.94.58,1.23,1.23,0,0,0,.8-.77,8.57,8.57,0,0,0,.54-4.11,2,2,0,0,0-.18-.87C516.35,414.91,515.69,414.59,515.35,415Z"/><path class="cls-8" d="M519.85,420.42a2.19,2.19,0,0,0,.84,1.53.7.7,0,0,0,.42.11.77.77,0,0,0,.54-.43,3.09,3.09,0,0,0,.27-1.6c0-.83-.18-3.79-1.45-3.76C519,416.32,519.69,419.64,519.85,420.42Z"/><path class="cls-8" d="M524.58,419.63a2.87,2.87,0,0,0,1.18,2.09.45.45,0,0,0,.26.07c.16,0,.26-.17.33-.31a4.65,4.65,0,0,0,.07-3.49c-.2-.59-1-2.12-1.82-1.45C524,417,524.45,419,524.58,419.63Z"/><path class="cls-8" d="M528.08,418a3.87,3.87,0,0,0,2,1.81.35.35,0,0,0,.25,0,.31.31,0,0,0,.15-.18,1.69,1.69,0,0,0-.17-1.24c-.28-.64-1.64-3.72-2.56-3.6C526.59,415,527.85,417.59,528.08,418Z"/><path class="cls-8" d="M531.32,416.35a4.27,4.27,0,0,0,1.87,1.18.94.94,0,0,0,1.06-.32.76.76,0,0,0-.08-.74,2,2,0,0,0-.57-.53,14.69,14.69,0,0,0-2-1.16C530.06,414,530.66,415.74,531.32,416.35Z"/><path class="cls-8" d="M535.84,414.18a2.74,2.74,0,0,0,.94-.05.94.94,0,0,0,.35-1.7,2.57,2.57,0,0,0-1.13-.49,3.59,3.59,0,0,0-1.63-.08c-.85.2-1.55.93-.8,1.63A3.8,3.8,0,0,0,535.84,414.18Z"/><path class="cls-8" d="M537.53,409.58a2,2,0,0,0,.44-.74,1,1,0,0,0,.1-.49c-.06-.4-.54-.57-.94-.59-1-.06-3.06.48-2.83,1.89S536.83,410.24,537.53,409.58Z"/><path class="cls-8" d="M524.79,365.72a8.08,8.08,0,0,0-.62,2.35,1.43,1.43,0,0,0,.39,1.36,1,1,0,0,0,1,0,2.21,2.21,0,0,0,.74-.77,2.51,2.51,0,0,0,.46-1.95,2.31,2.31,0,0,0-.27-.59,1.6,1.6,0,0,0-.57-.61C525.68,365.36,524.94,365.38,524.79,365.72Z"/><path class="cls-8" d="M529.31,370.52a.85.85,0,0,0,0,.75c.22.31.7.21,1,.06a10.47,10.47,0,0,0,2.5-1.49,4.72,4.72,0,0,0,1.77-2.44c.13-.55-1-1.13-1.44-1.22-.68-.14-1.09.27-1.58.72A8.27,8.27,0,0,0,529.31,370.52Z"/><path class="cls-8" d="M533.37,371.78a3.59,3.59,0,0,0-1.51,2.24.39.39,0,0,0,0,.24.41.41,0,0,0,.38.14,6.76,6.76,0,0,0,2.59-.72,6.83,6.83,0,0,0,2.83-1.93,1.12,1.12,0,0,0,.28-.67c0-.8-1.34-1.06-2-.94A7.09,7.09,0,0,0,533.37,371.78Z"/><path class="cls-8" d="M541.29,387.51a2.35,2.35,0,0,0,.83.14.8.8,0,0,0,.68-.42.91.91,0,0,0,0-.7,3.73,3.73,0,0,0-1.16-1.34,11.12,11.12,0,0,0-2.51-1.69c-1.16-.51-4.48-.79-3.24,1.35C536.9,386.67,539.45,387,541.29,387.51Z"/><path class="cls-8" d="M539.21,381.49a5.8,5.8,0,0,0,3-.81c.4-.23.82-.65.64-1.07a.9.9,0,0,0-.48-.41,5.56,5.56,0,0,0-2-.44,10.28,10.28,0,0,0-3.38.39c-.25.07-1.3.34-1.3.69s.6.46.79.59A5.21,5.21,0,0,0,539.21,381.49Z"/><path class="cls-8" d="M536.59,377.15a7.51,7.51,0,0,0,3.77-2.19c.18-.21.33-.53.17-.75a.61.61,0,0,0-.32-.19,3.9,3.9,0,0,0-2.62.17,5.08,5.08,0,0,0-2.26,1.87C534.63,377.16,535.58,377.45,536.59,377.15Z"/><path class="cls-5" d="M308.66,461.32A59.2,59.2,0,0,0,304.42,478a60.88,60.88,0,0,0-.11,17.79,29.78,29.78,0,0,0,7.47,15.85,34.52,34.52,0,0,0,8.58,6.16c10,5.42,21.64,8.26,32.91,6.69s22.09-7.84,28.1-17.66c4.3-7,6-15.48,5.73-23.75s-2.41-16.38-5.34-24.09a24.83,24.83,0,0,0-3.29-6.46,18.71,18.71,0,0,0-6.77-5.2,43.76,43.76,0,0,0-15.3-3.77A84,84,0,0,0,327,446.22C318.2,448.6,312.55,452.63,308.66,461.32Z"/><path class="cls-6" d="M310.42,463.24a54.8,54.8,0,0,0-4.05,15.69,56.17,56.17,0,0,0-.11,16.7,27.76,27.76,0,0,0,7.14,14.89,33,33,0,0,0,8.2,5.79c9.61,5.09,20.7,7.75,31.47,6.28s21.12-7.36,26.87-16.59c4.11-6.59,5.74-14.54,5.48-22.3a69.52,69.52,0,0,0-5.11-22.63,23.17,23.17,0,0,0-3.15-6.07,17.86,17.86,0,0,0-6.48-4.88,42.46,42.46,0,0,0-14.63-3.54,81.73,81.73,0,0,0-28.14,2.46C319.55,451.29,314.14,455.07,310.42,463.24Z"/><path class="cls-7" d="M309.47,489a28.2,28.2,0,0,0,2.66,11.8c4.27,8.4,13.84,12.53,22.84,15.31,5.39,1.66,11,3.09,16.61,2.58,6.07-.55,11.76-3.36,16.6-7.07,5.8-4.44,10.68-10.5,12.2-17.64a34.38,34.38,0,0,0,.26-10.83A68.69,68.69,0,0,0,378,470.51c-1.89-6.18-5.09-12.55-10.92-15.33a28.21,28.21,0,0,0-8.55-2.05c-9.61-1.27-19.52-2.5-28.89,0-8,2.13-11.74,4.94-15.29,12.36A50.57,50.57,0,0,0,309.47,489Z"/><path class="cls-6" d="M374.15,468.07a31.4,31.4,0,0,0-6.36-9.31,17,17,0,0,0-10.16-4.88,11.61,11.61,0,0,0-10.18,4.21c-2.35,3.16-2.45,7.34-2.46,11.23q0,2,0,4a6.49,6.49,0,0,1-.4,2.7,2.41,2.41,0,0,1-2,1.46,2.32,2.32,0,0,1-1.61-.3,5.88,5.88,0,0,1-1.94-3,46.34,46.34,0,0,0-4-7.83c-1.12-1.77-2.5-3.56-4.51-4.26-2.82-1-5.95.56-8,2.65a22.61,22.61,0,0,0-4.43,6.85A43.66,43.66,0,0,0,315,496.87c.24,1.34.63,2.81,1.79,3.57a4.83,4.83,0,0,0,4,.14c6.63-2,11.14-8.26,17.67-10.6a2.86,2.86,0,0,1,2.11-.14,2,2,0,0,1,1,2.05,5.12,5.12,0,0,1-1,2.18c-2.69,3.79-6.17,7-8.55,11-.89,1.49-1.62,3.33-.87,4.89.66,1.36,2.23,2,3.7,2.52a40.63,40.63,0,0,0,16.09,1.82c4.39-.39,8.87-1.58,12.2-4.39s5.24-7.48,3.79-11.52c-1.1-3-3.82-5.23-6.42-7.25a52.4,52.4,0,0,0-5.46-3.88c-1.49-.88-3.22-1.8-3.62-3.45a3.64,3.64,0,0,1,2.23-3.89,7.66,7.66,0,0,1,4.86-.24c1.61.36,3.15,1,4.77,1.32a25.76,25.76,0,0,0,5.1.41,10.15,10.15,0,0,0,4.39-.65,6.55,6.55,0,0,0,3.41-5.9A15.58,15.58,0,0,0,374.15,468.07Z"/><path class="cls-7" d="M335.37,478.7c-1.24-1.42-1.79-3.43-3.34-4.51a4.72,4.72,0,0,0-4.26-.43,7.76,7.76,0,0,0-3.44,2.71A11.76,11.76,0,0,0,323,488.19a3.91,3.91,0,0,0,1.12,1.56,3.57,3.57,0,0,0,2.27.57c2.15-.07,4.15-1.08,6.18-1.79a22.31,22.31,0,0,1,8.47-1.19,4,4,0,0,1,1.94.47,4.3,4.3,0,0,1,1.31,1.66,8.1,8.1,0,0,1,1.41,4.59c-.18,1.68-1.36,3.06-2.16,4.55s-1.15,3.57.11,4.7a4.67,4.67,0,0,0,2.46.9,36.69,36.69,0,0,0,10,.7c2-.23,4.32-1.09,4.87-3.05a4.55,4.55,0,0,0-1.08-3.87c-2.13-2.75-5.67-4-8.15-6.44a13.14,13.14,0,0,1-2.87-4.33,8.25,8.25,0,0,1-.66-5,6.74,6.74,0,0,1,3.18-4.11,10.86,10.86,0,0,1,5.09-1.38c1.82-.08,3.84.1,5.25-1a4.5,4.5,0,0,0,1-5,11.12,11.12,0,0,0-3.26-4.26,19.88,19.88,0,0,0-4.68-3.32c-1.34-.64-3.05-1-4.21-.06a4.67,4.67,0,0,0-1.31,2.47q-1.31,4.55-2.29,9.2a8.11,8.11,0,0,1-1.22,3.32C343.45,481.15,338,481.65,335.37,478.7Z"/><path class="cls-8" d="M319.74,493.62a10,10,0,0,0-2.2,1.1,3.35,3.35,0,0,0-1.38,2,.66.66,0,0,0,0,.44.7.7,0,0,0,.67.26c1.86-.06,3.38-1.47,4.66-2.82.34-.36.69-.87.44-1.29s-.88-.35-1.33-.15-.93.48-1.39.31Z"/><path class="cls-8" d="M318.3,488.91c-.36.18-.78.22-1.14.4a.88.88,0,0,0-.56,1c.12.36.54.51.92.58a9.65,9.65,0,0,0,3.3.06,2.29,2.29,0,0,0,1.25-.49.93.93,0,0,0,.18-1.22,1.33,1.33,0,0,0-.84-.37,13.84,13.84,0,0,0-3.5-.13Z"/><path class="cls-8" d="M316.08,484.24a.19.19,0,0,0-.26.1,3.35,3.35,0,0,0,2.48,1,2.38,2.38,0,0,0,1.44-.25.94.94,0,0,0,.34-1.27,1.23,1.23,0,0,0-.53-.35,5.38,5.38,0,0,0-3.52-.19.89.89,0,0,0-.54.33c-.11.19,0,.49.18.52Z"/><path class="cls-8" d="M325.09,470.66a3,3,0,0,0,.81,1.06.87.87,0,0,0,1.14,0,1,1,0,0,0,.18-.65,8.62,8.62,0,0,0-1-3.7c-.33-.7-1.56-2-2.07-.72C323.71,467.72,324.62,469.76,325.09,470.66Z"/><path class="cls-8" d="M324.58,473.47c.26.09.6.14.76-.08a.6.6,0,0,0,.08-.41,3.07,3.07,0,0,0-1-1.87,9.13,9.13,0,0,0-1.75-1.25c-.38-.23-1.16-.43-1.48.06s.16,1,.42,1.34A6,6,0,0,0,324.58,473.47Z"/><path class="cls-8" d="M322.63,476.19a1,1,0,0,0,.84-.38,1,1,0,0,0-.13-1,3.86,3.86,0,0,0-3-1.39c-.47,0-1.47-.06-1.69.51s.46,1,.84,1.26A4.49,4.49,0,0,0,322.63,476.19Z"/><path class="cls-8" d="M317.17,479c-.05.23.15.44.34.58a4.21,4.21,0,0,0,3,.59c.47-.07,1-.26,1.13-.72a.93.93,0,0,0-.52-1,2.34,2.34,0,0,0-1.19-.19C319.33,478.25,317.36,478.11,317.17,479Z"/><path class="cls-8" d="M336.25,508a1.46,1.46,0,0,0,.06,1.49,1.34,1.34,0,0,0,1.66,0,5,5,0,0,0,2-3.23c.34-1.54-.91-1.52-1.82-.79A6.16,6.16,0,0,0,336.25,508Z"/><path class="cls-8" d="M343.4,506a3.49,3.49,0,0,0-.7,1.86c-.14.82-.28,1.65-.33,2.48a2.39,2.39,0,0,0,.13,1.16.93.93,0,0,0,.94.58,1.23,1.23,0,0,0,.8-.77,8.57,8.57,0,0,0,.54-4.11,2,2,0,0,0-.18-.87C344.4,506,343.74,505.66,343.4,506Z"/><path class="cls-8" d="M347.9,511.49a2.19,2.19,0,0,0,.84,1.53.7.7,0,0,0,.42.11.77.77,0,0,0,.54-.43,3.09,3.09,0,0,0,.27-1.6c0-.83-.18-3.79-1.45-3.76C347.05,507.39,347.74,510.7,347.9,511.49Z"/><path class="cls-8" d="M352.63,510.69a2.87,2.87,0,0,0,1.18,2.09.44.44,0,0,0,.26.07c.16,0,.26-.17.33-.31a4.65,4.65,0,0,0,.07-3.49c-.2-.59-1-2.12-1.82-1.45C352,508.1,352.5,510,352.63,510.69Z"/><path class="cls-8" d="M356.13,509.08a3.87,3.87,0,0,0,2,1.81.35.35,0,0,0,.25,0,.31.31,0,0,0,.15-.18,1.69,1.69,0,0,0-.17-1.24c-.28-.64-1.64-3.72-2.56-3.6C354.64,506,355.9,508.66,356.13,509.08Z"/><path class="cls-8" d="M359.37,507.42a4.27,4.27,0,0,0,1.87,1.18.94.94,0,0,0,1.06-.32.76.76,0,0,0-.08-.74,2,2,0,0,0-.57-.53,14.69,14.69,0,0,0-2-1.16C358.1,505.09,358.71,506.8,359.37,507.42Z"/><path class="cls-8" d="M363.89,505.25a2.73,2.73,0,0,0,.94-.05.94.94,0,0,0,.35-1.7A2.56,2.56,0,0,0,364,503a3.59,3.59,0,0,0-1.63-.08c-.85.2-1.55.93-.8,1.63A3.8,3.8,0,0,0,363.89,505.25Z"/><path class="cls-8" d="M365.58,500.65a2,2,0,0,0,.44-.74,1,1,0,0,0,.1-.49c-.06-.4-.54-.57-.94-.59-1-.06-3.06.48-2.83,1.89S364.88,501.31,365.58,500.65Z"/><path class="cls-8" d="M352.84,456.79a8.09,8.09,0,0,0-.62,2.35,1.43,1.43,0,0,0,.39,1.36,1,1,0,0,0,1,0,2.21,2.21,0,0,0,.74-.77,2.51,2.51,0,0,0,.46-1.95,2.32,2.32,0,0,0-.27-.59,1.6,1.6,0,0,0-.57-.61C353.73,456.43,353,456.45,352.84,456.79Z"/><path class="cls-8" d="M357.36,461.58a.85.85,0,0,0,0,.75c.22.31.7.21,1,.06a10.47,10.47,0,0,0,2.5-1.49,4.72,4.72,0,0,0,1.77-2.44c.13-.55-1-1.13-1.44-1.22-.68-.14-1.09.27-1.58.72A8.27,8.27,0,0,0,357.36,461.58Z"/><path class="cls-8" d="M361.42,462.85a3.6,3.6,0,0,0-1.51,2.24.39.39,0,0,0,0,.24.41.41,0,0,0,.38.14,6.76,6.76,0,0,0,2.59-.72,6.83,6.83,0,0,0,2.83-1.93,1.12,1.12,0,0,0,.28-.67c0-.8-1.34-1.06-2-.94A7.09,7.09,0,0,0,361.42,462.85Z"/><path class="cls-8" d="M369.33,478.58a2.35,2.35,0,0,0,.83.14.8.8,0,0,0,.68-.42.91.91,0,0,0,0-.7,3.72,3.72,0,0,0-1.16-1.34,11.12,11.12,0,0,0-2.51-1.69c-1.16-.51-4.48-.79-3.24,1.35C364.94,477.74,367.49,478,369.33,478.58Z"/><path class="cls-8" d="M367.26,472.56a5.79,5.79,0,0,0,3-.81c.4-.23.82-.65.64-1.07a.9.9,0,0,0-.48-.41,5.56,5.56,0,0,0-2-.44,10.28,10.28,0,0,0-3.38.39c-.25.07-1.3.34-1.3.69s.6.46.79.59A5.21,5.21,0,0,0,367.26,472.56Z"/><path class="cls-8" d="M364.63,468.22A7.51,7.51,0,0,0,368.4,466c.18-.21.33-.53.17-.75a.61.61,0,0,0-.32-.19,3.89,3.89,0,0,0-2.62.17,5.08,5.08,0,0,0-2.26,1.87C362.68,468.23,363.63,468.52,364.63,468.22Z"/><path class="cls-9" d="M219.62,391.72c-2.2,4.18-2.23,9.14-3.67,13.64-1.3,4.07-3.73,7.73-4.84,11.85-1.89,7.05.31,14.53,3.08,21.28a127,127,0,0,0,22.18,35.71c4,4.49,8.33,8.77,13.62,11.57s11.67,4,17.36,2.12c14.67-4.82,17.25-25.61,30.21-34,6.06-3.92,14.57-5.37,17.5-12,2.61-5.85-.72-12.44-3.19-18.34A69.7,69.7,0,0,1,307.26,407c-1.21-8.15-1.84-18-9-22-4-2.25-9-1.84-13.56-2.24-9.12-.8-17.63-5-26.68-6.31C245.9,374.67,225.91,379.8,219.62,391.72Z"/><path class="cls-9" d="M388.57,436.64c1.2,2.94,3,5.62,4.17,8.56,4.73,11.67-.29,25.53,4.25,37.27,3.44,8.88,11.94,15,21,18s18.75,3.15,28.27,3.33c8.3.16,17,.24,24.46-3.31,11.73-5.55,17.88-18.61,21.19-31.16,1.11-4.23,2-8.75.65-12.91-1.74-5.35-6.74-8.88-9.93-13.52-6-8.71-5.22-20.69-10.91-29.61-7.64-12-24-14.45-38.22-13.54C414.42,401,376.84,407.82,388.57,436.64Z"/><path class="cls-9" d="M232.73,250.85a18.34,18.34,0,0,0,1.1,7.63,19.75,19.75,0,0,0,4.31,5.89A74.46,74.46,0,0,0,254,276.74c4,2.34,8.39,4.41,11.24,8.09,1.71,2.21,2.74,4.85,4.09,7.3,7,12.77,23.71,19.28,37.54,14.65,3.87-1.3,7.47-3.34,11.39-4.5,5.33-1.59,11.08-1.49,16.34-3.31a23.57,23.57,0,0,0,7.53-40.29c-8.28-7-21-8-27.67-16.56-4.19-5.34-5.06-12.46-6.39-19.12s-3.73-13.81-9.56-17.3c-3.47-2.07-7.66-2.51-11.7-2.56C258.2,202.85,233.52,220.38,232.73,250.85Z"/><path class="cls-9" d="M284.37,332.65c.38.89.57,1.87,1,2.72,1.34,2.49,4.54,3.35,7.36,3.24a16.48,16.48,0,0,0,13.8-8.61A15,15,0,0,0,305,314a3.51,3.51,0,0,0-1.75-1.31c-1.71-.42-3,1.38-4.47,2.42-5.8,4.19-12.59-4-18.1.45C273.45,321.37,282.22,327.6,284.37,332.65Z"/><path class="cls-9" d="M392.32,242.17c-6.27,5.58-14.81,9-18.81,16.42-5.7,10.5.07,24.91-6.76,34.7-2,2.93-5.28,6-4.14,9.39s5.82,3.9,9.44,3.48c10-1.14,19.73-4,29.71-5.28s20.63-.85,29.36,4.14c7.21,4.12,12.45,10.94,19,16.09s15.74,8.6,23,4.65c5.47-3,8.33-9.37,8.76-15.57s-1.16-12.34-2.55-18.4c-2.63-11.4-4.32-24.38,2.45-33.92,2.35-3.31,5.56-5.93,7.9-9.24,8.24-11.63,3.09-28.93-7.79-38.14s-25.71-12.08-39.9-13.38c-8.08-.74-16.5-1-24,2C398.59,206.85,406.41,229.65,392.32,242.17Z"/><path class="cls-9" d="M357.36,146.78c4.25-.38,8.41-1.58,12.66-1.91,13.36-1,26.91,7.55,31.66,20.09,2.33,6.16,3.18,13.71,8.74,17.26,4.75,3,10.92,1.74,16.48.78a104.48,104.48,0,0,1,21.21-1.45c6.93.23,14.39,1,20.3-2.59,8.2-5,9.66-17.25,5-25.65s-13.84-13.42-23.09-16-19-3.32-28.32-5.54c-7.81-1.86-15.34-4.77-23.16-6.59a85.64,85.64,0,0,0-46.06,2.2c-5.29,1.76-11.33,3.45-10.85,10C342.47,145.06,350.93,147.35,357.36,146.78Z"/><path class="cls-9" d="M566.4,358.38c6.3,3,14.17-1.2,17.58-7.31s3.52-13.45,3.56-20.45q0-7.13.07-14.25c0-3.32-.75-7.64-4-8.17-2.13-.34-4,1.25-5.7,2.63-6.79,5.6-15,9-23.49,11.23-4,1-18.51.94-19,5.77-.59,5.41,11,10.69,14.36,13C556.5,345.34,559.15,354.89,566.4,358.38Z"/><path class="cls-9" d="M267.51,162c-3,5.39-5,11.31-6.88,17.18-.9,2.77-1.74,6.06,0,8.39,1.25,1.66,3.44,2.27,5.46,2.75,5.44,1.3,11,2.49,16.59,1.72s11.07-3.89,13.23-9.05c2.92-7-.89-15.76,3-22.24,1.79-3,5.16-5.47,4.81-8.91a6,6,0,0,0-3.6-4.56,13.22,13.22,0,0,0-6-.92C282.21,146.67,273.48,151.33,267.51,162Z"/><path class="cls-10" d="M260,214.83c-6.38,3.33-12.74,7.34-16.64,13.39s-4.71,14.62-.16,20.21c2.38,2.92,5.88,4.7,9.38,6.11,3,1.21,6.16,2.26,8.61,4.37a21.35,21.35,0,0,1,5,7.38c3.61,7.72,6.17,16.37,12.51,22.06a22.66,22.66,0,0,0,10.44,5.29,13.5,13.5,0,0,0,8.28-.55,7.56,7.56,0,0,0,4.63-6.5c0-4.33-4.27-7.2-7.89-9.56a109,109,0,0,1-15.68-12.59c-2.87-2.73-5.75-5.79-6.6-9.65s1.19-8.63,5.09-9.32c4.65-.82,8.48,4.19,13.19,4.5,2.73.17,5.33-1.3,7.31-3.2a6.77,6.77,0,0,0,2.15-3.4c.48-2.42-1.24-4.73-3.19-6.24s-4.25-2.63-5.78-4.56a8.29,8.29,0,0,1-.75-8.93c1.23-2.23,3.53-4,3.87-6.49.72-5.35-7.29-8.19-11.45-8.58C274.59,207.84,266.7,211.34,260,214.83Z"/><path class="cls-10" d="M385.43,293.38c3.6-1.73,5.37-5.74,7.35-9.21,3.61-6.34,9.8-12.17,17.09-11.81,4.27.21,8.15,2.52,12.35,3.26a17.36,17.36,0,0,0,13.07-3,10.42,10.42,0,0,0,4.24-5.71c1-4.2-1.75-8.37-4.84-11.4s-6.76-5.76-8.34-9.79c-1.76-4.47-.43-9.76,2.53-13.54s7.34-6.23,11.88-7.83c4.77-1.67,11.21-1.91,13.7,2.48,2.05,3.62.13,8.27,1.27,12.27,1,3.66,4.66,6.23,8.44,6.73A16.41,16.41,0,0,0,475,243a14.42,14.42,0,0,0,5.78-6.42,13.33,13.33,0,0,0,0-9.14c-3-9-12.2-14.36-21-18.07-6.79-2.87-13.94-5.31-21.31-5.26s-15,3-19.27,9c-3.51,5-4.23,11.43-4.61,17.54-.16,2.66-.33,5.48-1.83,7.68-1.87,2.76-5.3,3.87-8.39,5.1-7.94,3.16-15.59,8.87-17.85,17.12-.79,2.89-.88,6-1.91,8.79-1.82,5-6.43,8.84-7.46,14.08-.72,3.67-.75,6.37-3.49,9C376.27,294.26,382.59,294.75,385.43,293.38Z"/><path class="cls-10" d="M295.93,391.9a9.46,9.46,0,0,0-4.49-1.62c-5.27-.82-10.65-.61-16-1.17-7.65-.81-15.1-3.23-22.78-3.62s-16.16,1.75-20.59,8c-2.79,4-3.57,8.93-5.15,13.5-2.77,8-8.21,15.64-7.29,24.07.68,6.23,4.75,11.5,8.66,16.4l15.26,19.1c2,2.51,4.18,5.15,7.22,6.21s7.13-.22,7.88-3.35a7,7,0,0,0-.55-4.12c-2.19-5.6-7-9.68-11.34-13.84s-8.61-9.11-9.14-15.1c-.31-3.55,1.19-7.62,4.54-8.83,1.66-.6,3.49-.41,5.26-.47a15.77,15.77,0,0,0,12.45-6.52,12.47,12.47,0,0,0,.25-13.72c-1.22-1.77-3-3.39-3.08-5.54a5,5,0,0,1,3.15-4.33,14.54,14.54,0,0,1,5.55-.94c4.5-.16,9.12-.27,13.37,1.22s8.11,4.94,8.77,9.39c.28,1.92,0,4.05,1.16,5.62,1.83,2.52,6.15,1.56,7.92-1C299.66,407.37,299.91,395,295.93,391.9Z"/><path class="cls-10" d="M415.07,413.1c-4,1.23-8,2.67-11.38,5.19s-6,6.33-6.13,10.51c-.3,6.94,5.75,12.46,7.63,19.15,2.7,9.6-3.52,20.18-.28,29.61,2.49,7.25,10.08,11.71,17.63,13a35,35,0,0,0,15.6-.87c2.45-.71,5.24-2.27,5.21-4.82s-2.91-4.05-5.43-4.23-5.14.41-7.52-.42c-3-1-4.81-4-6.35-6.72-1.1-2-2.2-4-2.26-6.27-.14-6,6.82-9.64,8.89-15.27a10.26,10.26,0,0,0-1.77-10c-1.44-1.7-3.46-2.94-4.51-4.9-2-3.76.4-8.53,3.8-11.11,6.92-5.26,17.91-4,23.49,2.64.7.83,1.52,1.83,2.61,1.72a2.63,2.63,0,0,0,1.44-.78c4.74-4.36,3.08-12.77-1.73-17C442.65,402.41,427.51,409.28,415.07,413.1Z"/><path class="cls-10" d="M352.78,134.31a2.73,2.73,0,0,0-1.17,1.75,2.4,2.4,0,0,0,1.39,2c4.69,2.79,10.53-.66,16-.83a21.67,21.67,0,0,1,6.44,1A61.73,61.73,0,0,1,403,154.6c2.84,2.92,5.45,6.18,8.94,8.28s8.23,2.8,11.53.41a5.79,5.79,0,0,0,2.38-3.56c.57-3.24-2.33-6-5.26-7.54s-6.32-2.51-8.3-5.14c3.12-2.58,7.52-2.93,11.56-2.56s8.06,1.33,12.09.93c2.68-.27,5.95-2.51,4.74-4.92a4.24,4.24,0,0,0-2.58-1.83c-4.49-1.54-9.36-1.3-14.07-1.79-9.17-1-17.78-4.7-26.54-7.56C383.18,124.65,365.09,123.91,352.78,134.31Z"/><path class="cls-11" d="M402.54,223.68c-7.06-.95-17.92.35-24.72,2.46C368.57,229,359,232.76,353,240.37s-6.67,20.15,1,26.1c2.79,2.17,6.32,3.24,9,5.54,2.38,2,3.91,4.92,6.15,7.13,6.44,6.37,17.49,5.71,25.14.86s12.63-12.87,17.09-20.75,8.84-16.11,15.82-21.89a6.33,6.33,0,0,0,1.72-1.82C432.6,228.44,408,224.41,402.54,223.68Z"/><path class="cls-12" d="M427.2,237.36a6.33,6.33,0,0,0,1.72-1.82,3,3,0,0,0,.37-1.56,6,6,0,0,1-1.66,1.85c-1.85,1.33-4.17,1.82-6.23,2.8-7.27,3.47-10,12.25-15.51,18.17-2.09,2.26-4.6,4.13-6.5,6.55-2,2.58-3.32,5.79-5.94,7.75-2.81,2.11-6.6,2.37-10.11,2.15-5.47-.33-11.36-1.91-14.57-6.35-1.68-2.31-2.55-5.32-4.89-7-3.26-2.29-7.86-.95-11.59-2.36a8,8,0,0,1-3.89-3.29c.1,4.74,1.84,9.25,5.59,12.17,2.79,2.17,6.32,3.24,9,5.54,2.38,2,3.91,4.92,6.15,7.13,6.44,6.37,17.49,5.71,25.14.86s12.63-12.87,17.09-20.75S420.22,243.13,427.2,237.36Z"/><path class="cls-12" d="M372,251.17c9.93-8.19,22.66-12,35.09-15.39a19.35,19.35,0,0,1,5-.88c-1.39,1.28-3.34,1.72-5.17,2.18a82.45,82.45,0,0,0-27.47,12.58A35.41,35.41,0,0,0,371,257.5a16.66,16.66,0,0,0-3.45,10.82c.08,1.08.11,2.49-.9,2.89-1.51.59-3.7-1.72-4.09-3-.48-1.63.3-4,.81-5.5C365,258,368.34,254.22,372,251.17Z"/><path class="cls-12" d="M392.9,259.84a44,44,0,0,0-12.18-4.58,14.9,14.9,0,0,0-4.61-.41c-3.09.32-5.44,2.17-8,3.7C371.93,247.93,387.78,253.25,392.9,259.84Z"/><path class="cls-12" d="M397.06,248.61a11.39,11.39,0,0,1,3.32,3.13c.29-1.19-.8-2.22-1.77-3L392.26,244a5.22,5.22,0,0,0-2.88-1.36c-.69,0-2.45.37-2.08,1.41.18.51,2.61.72,3.15.9A26.55,26.55,0,0,1,397.06,248.61Z"/><path class="cls-12" d="M367.58,244.12a19.76,19.76,0,0,0-8.68-7.35c.53-.61,1.53-.33,2.23.07a21.78,21.78,0,0,1,3.86,2.93c2.52,2.27,5,4.79,6.13,8,1,2.92.74,7.4-2.18,9.19-1.28-1,.58-4.37.6-5.83A13.29,13.29,0,0,0,367.58,244.12Z"/><path class="cls-12" d="M386.47,238.49a9.25,9.25,0,0,0-.85-2.6,13.78,13.78,0,0,0-6.48-6.42.85.85,0,0,1,1-.56,2.47,2.47,0,0,1,1.08.53,25.43,25.43,0,0,1,4.16,3.44,12.76,12.76,0,0,1,3,5.57c.25,1,.51,6.05-1.67,5.58C385.29,243.75,386.61,239.42,386.47,238.49Z"/><path class="cls-12" d="M399.54,234.65a8.15,8.15,0,0,0-1.74-3.89l-1.23-1.8c.88-.15,1.54.76,2,1.53a19.86,19.86,0,0,1,1.92,3.47,4.42,4.42,0,0,1-.19,3.83,4.76,4.76,0,0,1-2.22,1.78C397.8,238,399.65,236.42,399.54,234.65Z"/><path class="cls-12" d="M359.95,286.4a8.47,8.47,0,0,0,2,4.46c1.18,1.16,3.23,1.59,4.5.53a1.7,1.7,0,0,0,.65-1.11c.1-1.18-1.31-1.79-2.27-2.48-1.91-1.38-2.39-4-2.5-6.35a14.34,14.34,0,0,1,.72-5.89c.74-1.89,3.25-5,1.79-7.13-1.74-2.52-3.77.7-4.24,2.28A32.75,32.75,0,0,0,359.95,286.4Z"/><path class="cls-13" d="M391.09,227.14a26.61,26.61,0,0,0-17,5.58,9.14,9.14,0,0,0-3.55,4.68,5.55,5.55,0,0,0,1.1,4.82,3.85,3.85,0,0,0,1.63,1.2,4.42,4.42,0,0,0,3.37-.43,8.53,8.53,0,0,0,4-4.14c.49-1.1.74-2.3,1.26-3.38a3.88,3.88,0,0,1,2.6-2.3c1-.18,2.16.27,3.13-.13s1.36-1.35,2.12-1.93a5.66,5.66,0,0,1,3.56-.75,22.34,22.34,0,0,1,6.27.67,10.49,10.49,0,0,0,3.88.9c1.25-.11,2.34-.87,3.54-1.24,2.64-.82,5.45.27,8,1.27s5.51,1.92,8,.8c-.78-1.64-2.91-2-4.67-2.41-2.25-.57-4.33-1.66-6.53-2.37-3.46-1.1-6.07.26-9.47.23C398.55,228.18,394.86,227.26,391.09,227.14Z"/><path class="cls-11" d="M351.8,272.57c-9.58-3.22-20.45-.77-28.88,4.79s-14.68,13.92-19.48,22.81a6,6,0,0,0-.95,2.88,4.17,4.17,0,0,0,2,3.2,13.4,13.4,0,0,0,3.64,1.46,38.42,38.42,0,0,1,5.17,1.87c4.31,2,7.92,5.23,12,7.67A33.28,33.28,0,0,0,349,321.49a27.91,27.91,0,0,0,19-14.41,18.09,18.09,0,0,0,1.87-6,14.22,14.22,0,0,0-4.26-11.72c-3.29-3.13-5-4.51-6-8.93C358.76,276.26,355.8,273.92,351.8,272.57Z"/><path class="cls-12" d="M368.05,307.06a18.09,18.09,0,0,0,1.87-6,14.22,14.22,0,0,0-4.26-11.72c-3.29-3.13-5-4.51-6-8.93-.92-4.2-3.89-6.54-7.89-7.89a27.59,27.59,0,0,0-6.31-1.31c1,.44,2.19.77,2.54,1a16.55,16.55,0,0,1,7.28,7.52c1,2.09,1.41,4.82-.17,6.5a2.75,2.75,0,0,0-.86,1.12c-.15.64.35,1.24.85,1.68a13.43,13.43,0,0,0,2.14,1.53c1,.59,2.11,1,3.07,1.73,3.5,2.51,4.24,7.74,2.49,11.67s-5.47,6.68-9.4,8.43a16.73,16.73,0,0,1-6.78,1.65,23.34,23.34,0,0,1-7.7-1.85c-5.29-1.92-10.61-3.76-16-5.44a31.1,31.1,0,0,0-9-1.81c-2.66,0-5.3.61-8,.61a12.39,12.39,0,0,1-2.64-.27,5.18,5.18,0,0,0,1.11,1,13.4,13.4,0,0,0,3.64,1.46,38.43,38.43,0,0,1,5.17,1.87c4.31,2,7.92,5.23,12,7.67A33.28,33.28,0,0,0,349,321.47,27.91,27.91,0,0,0,368.05,307.06Z"/><path class="cls-12" d="M345.69,288.2a36.15,36.15,0,0,0-7.38.71,104.54,104.54,0,0,0-17.74,5.14c-4,1.5-8,3.2-11.08,6.17-.28-.23-.1-.68.12-1a13.39,13.39,0,0,1,4-3.19c10.53-6.27,22.82-8.91,35-10.33a15.09,15.09,0,0,1,4.44-.06c2.84.52,5.15,2.54,7.29,4.47a1.48,1.48,0,0,1,.5.66.51.51,0,0,1-.35.65c-2,.24-4.9-1.44-6.88-2A32.72,32.72,0,0,0,345.69,288.2Z"/><path class="cls-12" d="M317.18,290.91a7.53,7.53,0,0,1-.55-3.54,5.34,5.34,0,0,1,1.16-3.29c.32.26.07.76-.12,1.11-.76,1.4-.44,3.12.06,4.63a2.76,2.76,0,0,0,1.07,1.63c.74.42,1.72.14,2.45.57a.56.56,0,0,1,.29.32c.17.72-1.72,1-2.19.9C318.39,293,317.55,291.74,317.18,290.91Z"/><path class="cls-12" d="M327.18,281.22a14.13,14.13,0,0,1,3.19-5.58.94.94,0,0,1,.48-.38c.2,0,.46.11.42.32a17.51,17.51,0,0,0-2.52,4.8,5.92,5.92,0,0,0,.73,5.2c1.17,1.51,3.15,2.08,5,2.41a1.06,1.06,0,0,1,.69.31.71.71,0,0,1-.23.95c-2,1.41-4.48,0-5.83-1.43A7.49,7.49,0,0,1,327.18,281.22Z"/><path class="cls-12" d="M341.14,280.19a4.18,4.18,0,0,1-.39-1.4,4.05,4.05,0,0,1,.37-1.7,13.79,13.79,0,0,1,2-3.39.34.34,0,0,1,.16.46,1.48,1.48,0,0,1-.36.42c-.81.81-.76,2.12-.62,3.26a13,13,0,0,0,1.47,5.06,2.19,2.19,0,0,0,.52.64,2.86,2.86,0,0,0,1.12.42,12.16,12.16,0,0,1,2.86,1.07,1.13,1.13,0,0,1,.65.65c.24,1-1.48,1.17-2.1,1.11a2.74,2.74,0,0,1-1.91-1A17.59,17.59,0,0,1,341.14,280.19Z"/><path class="cls-12" d="M331.12,298a29,29,0,0,0,4.55,7.85c.26.36.85.7,1.05.31a20.92,20.92,0,0,1-3.6-6.28c-.93-2.58-1.32-5.53-.13-8a13.73,13.73,0,0,1,1.89-2.7c0,.06-2.2-.15-2.69.18a4.1,4.1,0,0,0-1.32,2.37A10.93,10.93,0,0,0,331.12,298Z"/><path class="cls-12" d="M344.92,297.68c1.45,3.57,4.49,6.28,7.81,8.23.53.31,1.39.52,1.63-.05-2.94-1.72-5.74-4-7.19-7s-1.21-7.15,1.29-9.46a2,2,0,0,0,.75-1c.2-1.21-1.64-1.5-2.45-1.15s-1.55,1.75-1.92,2.65A10.55,10.55,0,0,0,344.92,297.68Z"/><path class="cls-13" d="M348.21,273.13a9.54,9.54,0,0,0-3.21-.44,9.72,9.72,0,0,0-4.86.89c-1,.54-1.76,1.37-2.75,1.89a13.55,13.55,0,0,1-4.61.93,23,23,0,0,0-10.07,4.11,49.47,49.47,0,0,0-8.11,7.38c-1.6,1.74-3.21,3.67-3.55,6a1.08,1.08,0,0,0,.05.66.81.81,0,0,0,1,.27,2.24,2.24,0,0,0,.84-.8,32.84,32.84,0,0,0,2.48-4,7.66,7.66,0,0,1,1.75-2.52,2.28,2.28,0,0,1,2.84-.17c.19.17.34.39.54.56.92.81,2.47.23,3.16-.78a10.44,10.44,0,0,0,1.12-3.48,3.83,3.83,0,0,1,2.06-2.87c1.47-.53,3,.57,4.12,1.67s2.36,2.38,3.93,2.31a3.42,3.42,0,0,0,2.65-1.79,8.12,8.12,0,0,0,.9-3.18,5.25,5.25,0,0,1,.26-1.31,2.4,2.4,0,0,1,2.12-1.49,2.32,2.32,0,0,1,2.16,1.41,11.43,11.43,0,0,1,.31,1.22,3.85,3.85,0,0,0,6.77,1C351.62,278.34,350.92,274.12,348.21,273.13Z"/><path class="cls-14" d="M371.68,273.5a10,10,0,0,1,6.76-2.26c5,.24,9.1,4.23,11.77,8.51s4.52,9.11,7.88,12.86c1.7,1.9,3.74,3.46,5.5,5.29a12,12,0,0,1,3.6,6.59,4.28,4.28,0,0,1-.65,3.12,5.09,5.09,0,0,1-3.59,1.59c-4,.46-8.12-.42-12.18-.18-5,.29-9.78,2.24-14.76,2.16a22.73,22.73,0,0,1-14.31-6c-3-2.62-5.52-6.09-5.79-10.05-.38-5.46,4.14-10.65,9.55-11.54,3.3-.54,3-1.6,3.35-4.39A8.73,8.73,0,0,1,371.68,273.5Z"/><path class="cls-15" d="M406.52,307.59a4.25,4.25,0,0,0,.66-3.08,4.61,4.61,0,0,1-2.5,2.16c-1.93.61-3.93-.45-5.81-1.2a17.93,17.93,0,0,0-5.09-1.25,52.44,52.44,0,0,0-6.16.09,42.27,42.27,0,0,1-24.55-7.08,12.66,12.66,0,0,1-4.93-5.19,6,6,0,0,1-.37-3.46,10.36,10.36,0,0,0-1.88,6.51c.27,4,2.81,7.43,5.79,10.05a22.73,22.73,0,0,0,14.31,6c5,.09,9.79-1.87,14.76-2.16,4.06-.24,8.14.64,12.18.18A5.09,5.09,0,0,0,406.52,307.59Z"/><path class="cls-15" d="M367.78,288.38c5.31,5.49,12.79,8.36,20.26,10a28.37,28.37,0,0,1,7.26,2.15c.54.28,1.21.6,1.7.25a14.9,14.9,0,0,0-4.19-2.15c-7.6-2.93-15.32-5.77-22.13-10.23a5.1,5.1,0,0,1-1.78-1.66c-.93-1.67-1.17-2.16-.49-4.88C365.23,283.53,365.64,286.17,367.78,288.38Z"/><path class="cls-15" d="M369.62,286.31a6.18,6.18,0,0,0,2.48-.54,12.78,12.78,0,0,0,4.06-2.33,6.24,6.24,0,0,0,2.13-4.07,5.06,5.06,0,0,1-1.41,3.92,12.37,12.37,0,0,1-3.47,2.49q-1.67.89-3.4,1.64a2.93,2.93,0,0,1-2.17.31,1.52,1.52,0,0,1-.94-1.28C366.75,284.27,368.61,286.26,369.62,286.31Z"/><path class="cls-15" d="M383,292.13a8.79,8.79,0,0,0,4.43-5.38c-.08,2.5-2,4.59-4.06,6a8.27,8.27,0,0,1-3.51,1.44,4.33,4.33,0,0,1-2.57-.43c-1.09-.62-.45-.87.44-.77A9.15,9.15,0,0,0,383,292.13Z"/><path class="cls-15" d="M365.81,291.78a7.64,7.64,0,0,1-4.18,2.43,6.58,6.58,0,0,0,3.72-1.18,12.75,12.75,0,0,0,2.84-2.73,3.63,3.63,0,0,0,.88-1.69,1.44,1.44,0,0,0-.61-1.44c-.85-.41-.77.24-.88.84A7.79,7.79,0,0,1,365.81,291.78Z"/><path class="cls-15" d="M372.59,302.35a15.27,15.27,0,0,0,3.43-5.4,5.31,5.31,0,0,0,.37-3.07c-.15-.6-1.28-2.4-1.94-1.56-.39.5.18,2.68.17,3.35A13.18,13.18,0,0,1,372.59,302.35Z"/><path class="cls-16" d="M372,277.82a6.15,6.15,0,0,1,3.17-3.24,5.23,5.23,0,0,1,4.59.53,7,7,0,0,1,2.82,3.76,15.67,15.67,0,0,0,.75,2.25c.92,1.82,3,2.65,4.73,3.73a14.15,14.15,0,0,1,6.07,8.31,2.77,2.77,0,0,1,.07,1.52,1.09,1.09,0,0,1-1.15.81,1.48,1.48,0,0,1-.7-.44,8.51,8.51,0,0,1-1.9-2.74,1.88,1.88,0,0,0-.46-.76c-.6-.48-1.47,0-2,.53s-1.37,1.07-2,.68c-.84-.5-.32-1.82.4-2.48s1.67-1.41,1.46-2.36a1.71,1.71,0,0,0-2-1.05c-1.79.31-3.33,2.33-5,1.68-1.15-.44-1.54-1.89-1.47-3.12a11.14,11.14,0,0,0,.06-3.67c-.34-1.18-1.82-2.15-2.81-1.41a4.13,4.13,0,0,0-.95,1.47,4.06,4.06,0,0,1-1.91,1.74C369.61,285.33,371.25,279.4,372,277.82Z"/><path class="cls-11" d="M522.82,332.32c-1.54-5.37-5.9-12.77-9.56-17-5-5.75-10.69-11.44-18-13.34s-16.59,1.56-18.46,8.93c-.68,2.69-.34,5.57-1.15,8.22-.72,2.36-2.3,4.36-3.19,6.66-2.55,6.64,1.41,14.37,7.3,18.34s13.23,5,20.3,5.75,14.37,1.28,20.72,4.48a5,5,0,0,0,1.85.66C528.87,355.43,524,336.46,522.82,332.32Z"/><path class="cls-12" d="M520.75,354.36a5,5,0,0,0,1.85.66,2.37,2.37,0,0,0,1.24-.23,4.72,4.72,0,0,1-1.85-.61c-1.54-.91-2.62-2.42-4-3.59-4.79-4.13-12-3.36-18-5.42-2.28-.79-4.42-2-6.76-2.6s-5.21-.56-7.44-1.83c-2.41-1.36-3.78-4-4.74-6.59-1.48-4-2.21-8.77,0-12.48,1.14-1.93,3-3.51,3.46-5.71.62-3.07-1.8-6-2-9.07a6.26,6.26,0,0,1,1.14-3.83,12.09,12.09,0,0,0-7,7.85c-.68,2.69-.34,5.57-1.15,8.22-.72,2.36-2.3,4.36-3.19,6.66-2.55,6.64,1.41,14.37,7.3,18.34s13.23,5,20.3,5.75S514.4,351.16,520.75,354.36Z"/><path class="cls-12" d="M493.44,319.06c9,4.56,15.79,12.5,22.12,20.38a15.19,15.19,0,0,1,2.21,3.33,9,9,0,0,1-3.2-3,64.73,64.73,0,0,0-17.7-15.79,27.8,27.8,0,0,0-8.31-3.62,13.08,13.08,0,0,0-8.86.93c-.75.4-1.76.87-2.36.26-.9-.9.07-3.2.9-3.9,1-.85,3-1,4.21-1.15A20.73,20.73,0,0,1,493.44,319.06Z"/><path class="cls-12" d="M493.78,336.78a34.53,34.53,0,0,0-.54-10.2,11.7,11.7,0,0,0-1.16-3.45c-1.2-2.12-3.28-3.23-5.18-4.59C495.73,318,496.91,331,493.78,336.78Z"/><path class="cls-12" d="M503.16,336.23a8.94,8.94,0,0,1-1.2,3.37c.94-.17,1.34-1.27,1.57-2.2l1.47-6.09a4.1,4.1,0,0,0,.07-2.5c-.21-.5-1-1.65-1.67-1.05-.31.29.31,2.11.34,2.55A20.84,20.84,0,0,1,503.16,336.23Z"/><path class="cls-12" d="M497.1,313.62a15.51,15.51,0,0,0,2.55-8.56c.6.19.72,1,.66,1.63a17.08,17.08,0,0,1-.89,3.7c-.84,2.53-1.87,5.1-3.81,6.93-1.77,1.67-5.09,2.86-7.3,1.33.34-1.24,3.32-1,4.38-1.41A10.43,10.43,0,0,0,497.1,313.62Z"/><path class="cls-12" d="M507.1,325.43a7.26,7.26,0,0,0,1.6-1.43,10.81,10.81,0,0,0,2.57-6.69.67.67,0,0,1,.7.51,1.94,1.94,0,0,1,0,.94,20,20,0,0,1-1.16,4.07,10,10,0,0,1-3.08,3.88c-.66.5-4.19,2.27-4.54.56C502.95,326.24,506.48,325.83,507.1,325.43Z"/><path class="cls-12" d="M514,333.62a6.4,6.4,0,0,0,2.25-2.48l.91-1.45c.38.59-.06,1.35-.47,1.92a15.59,15.59,0,0,1-1.89,2.47,3.47,3.47,0,0,1-2.81,1.07,3.73,3.73,0,0,1-2-1C511,333.43,512.75,334.26,514,333.62Z"/><path class="cls-12" d="M464.29,321.46a6.65,6.65,0,0,0-2.57,2.86,2.75,2.75,0,0,0,1,3.4,1.33,1.33,0,0,0,1,.12c.88-.3.87-1.51,1.07-2.41.39-1.81,2.12-3,3.78-3.8a11.26,11.26,0,0,1,4.46-1.34c1.59-.06,4.62.76,5.69-1,1.27-2-1.69-2.49-3-2.33A25.71,25.71,0,0,0,464.29,321.46Z"/><path class="cls-13" d="M516.72,325.18a20.89,20.89,0,0,0-9.38-10.49,7.18,7.18,0,0,0-4.48-1.08,4.36,4.36,0,0,0-3.12,2.31,3,3,0,0,0-.35,1.55,3.47,3.47,0,0,0,1.37,2.29A6.7,6.7,0,0,0,505,321.3c.94,0,1.88-.19,2.83-.16a3,3,0,0,1,2.48,1.14c.46.69.48,1.64,1.08,2.21s1.4.55,2.06.92a4.44,4.44,0,0,1,1.66,2.32,17.54,17.54,0,0,1,1.49,4.72,8.23,8.23,0,0,0,.58,3.08,14,14,0,0,0,2,2.15c1.42,1.64,1.52,4,1.61,6.18s.35,4.57,2,6c.93-1.08.5-2.71.26-4.12-.3-1.8-.17-3.63-.36-5.44-.3-2.84-2.1-4.28-3.15-6.74C518.32,330.87,517.82,327.92,516.72,325.18Z"/><path class="cls-11" d="M436,411.67c-5.9-2.06-15.47-2.85-21.69-2.23-8.46.84-17.34,2.38-23.82,7.88s-9.28,16.16-3.75,22.62c2,2.35,4.87,3.9,6.77,6.35,1.69,2.18,2.5,4.92,4,7.21,4.42,6.61,14,8,21.47,5.16s13.12-8.84,18.35-14.84,10.44-12.3,17.45-16a5.56,5.56,0,0,0,1.8-1.26C461,421.05,440.52,413.25,436,411.67Z"/><path class="cls-12" d="M454.77,427.77a5.55,5.55,0,0,0,1.8-1.26,2.65,2.65,0,0,0,.59-1.28,5.28,5.28,0,0,1-1.75,1.3c-1.83.82-3.9.83-5.85,1.31-6.86,1.71-10.79,8.77-16.53,12.9-2.19,1.58-4.68,2.74-6.74,4.49s-3.87,4.39-6.47,5.62c-2.79,1.32-6.09.88-9.07.07-4.64-1.25-9.43-3.64-11.41-8-1-2.29-1.26-5-3-6.84-2.4-2.54-6.59-2.2-9.55-4.07a7,7,0,0,1-2.76-3.51,13.52,13.52,0,0,0,2.67,11.45c2,2.35,4.87,3.9,6.77,6.35,1.69,2.18,2.5,4.92,4,7.21,4.41,6.61,14,8,21.47,5.16s13.12-8.84,18.35-14.84S447.75,431.51,454.77,427.77Z"/><path class="cls-12" d="M404.91,429.95c10-5.3,21.6-6.37,32.88-7.06a17,17,0,0,1,4.47.12,10.06,10.06,0,0,1-4.83,1,72.38,72.38,0,0,0-25.84,6,31.08,31.08,0,0,0-8.66,5.25,14.63,14.63,0,0,0-4.87,8.7c-.12.95-.34,2.16-1.28,2.32-1.4.24-2.88-2.13-3-3.34-.12-1.48,1-3.37,1.66-4.59C397.61,434.61,401.19,431.92,404.91,429.95Z"/><path class="cls-12" d="M421.32,441.07a38.61,38.61,0,0,0-9.67-6.09,13.08,13.08,0,0,0-3.9-1.17c-2.71-.27-5.06.91-7.53,1.77C405.38,427.14,418.08,434.5,421.32,441.07Z"/><path class="cls-12" d="M426.87,432.15a10,10,0,0,1,2.31,3.27c.46-1-.3-2-1-2.85l-4.62-5.27a4.58,4.58,0,0,0-2.24-1.67c-.59-.13-2.17-.12-2,.85.07.47,2.12,1.08,2.55,1.33A23.3,23.3,0,0,1,426.87,432.15Z"/><path class="cls-12" d="M402.31,423.1a17.34,17.34,0,0,0-6.17-7.85c.57-.43,1.37,0,1.91.45a19.12,19.12,0,0,1,2.8,3.2c1.77,2.39,3.46,5,3.87,7.94.38,2.69-.67,6.49-3.49,7.52-.92-1.11,1.26-3.65,1.54-4.91A11.67,11.67,0,0,0,402.31,423.1Z"/><path class="cls-12" d="M419.55,421.58a8.12,8.12,0,0,0-.28-2.38,12.09,12.09,0,0,0-4.45-6.66.74.74,0,0,1,.92-.31,2.17,2.17,0,0,1,.83.64,22.32,22.32,0,0,1,3,3.69,11.2,11.2,0,0,1,1.56,5.31c0,.93-.63,5.29-2.41,4.51C417.6,425.89,419.51,422.4,419.55,421.58Z"/><path class="cls-12" d="M431.46,420.58a7.15,7.15,0,0,0-.81-3.66l-.74-1.77c.79,0,1.19.93,1.46,1.67a17.43,17.43,0,0,1,1,3.32,3.88,3.88,0,0,1-.84,3.26,4.17,4.17,0,0,1-2.22,1.14C429.37,423.17,431.25,422.12,431.46,420.58Z"/><path class="cls-12" d="M388.31,458.12a7.43,7.43,0,0,0,.95,4.19,3.08,3.08,0,0,0,3.78,1.25,1.49,1.49,0,0,0,.76-.84c.3-1-.81-1.77-1.52-2.53-1.4-1.52-1.35-3.86-1-5.9a12.59,12.59,0,0,1,1.65-4.94c1-1.49,3.68-3.73,2.79-5.81-1.05-2.48-3.37-.06-4,1.22A28.75,28.75,0,0,0,388.31,458.12Z"/><path class="cls-13" d="M425.52,412.63a23.35,23.35,0,0,0-15.64,1.8,8,8,0,0,0-3.88,3.4,4.88,4.88,0,0,0,.1,4.34,3.38,3.38,0,0,0,1.19,1.32,3.88,3.88,0,0,0,3,.22,7.49,7.49,0,0,0,4.13-2.87c.61-.86,1-1.85,1.68-2.69a3.4,3.4,0,0,1,2.64-1.52c.92,0,1.81.62,2.72.44s1.4-.92,2.17-1.29a5,5,0,0,1,3.19,0,19.61,19.61,0,0,1,5.27,1.68,9.2,9.2,0,0,0,3.18,1.46,15.68,15.68,0,0,0,3.26-.44c2.42-.24,4.64,1.19,6.68,2.51s4.4,2.62,6.77,2.1c-.38-1.55-2.16-2.2-3.59-2.9-1.83-.89-3.43-2.19-5.2-3.18-2.79-1.56-5.26-.85-8.19-1.47C431.75,414.84,428.73,413.39,425.52,412.63Z"/><path class="cls-11" d="M241.33,359.06c-9.58-3.22-20.45-.77-28.88,4.79S197.77,377.77,193,386.66a6,6,0,0,0-.95,2.88,4.17,4.17,0,0,0,2,3.2,13.39,13.39,0,0,0,3.64,1.46,38.43,38.43,0,0,1,5.17,1.87c4.31,2,7.92,5.23,12,7.67A33.28,33.28,0,0,0,238.58,408a27.91,27.91,0,0,0,19-14.41,18.09,18.09,0,0,0,1.87-6,14.22,14.22,0,0,0-4.26-11.72c-3.29-3.13-5-4.51-6-8.93C248.29,362.75,245.33,360.4,241.33,359.06Z"/><path class="cls-12" d="M257.58,393.54a18.09,18.09,0,0,0,1.87-6,14.22,14.22,0,0,0-4.26-11.72c-3.29-3.13-5-4.51-6-8.93-.92-4.2-3.89-6.54-7.89-7.89a27.59,27.59,0,0,0-6.31-1.31c1,.44,2.19.77,2.54,1a16.55,16.55,0,0,1,7.28,7.52c1,2.09,1.41,4.82-.17,6.5a2.75,2.75,0,0,0-.86,1.12c-.15.64.35,1.24.85,1.68a13.43,13.43,0,0,0,2.14,1.53c1,.59,2.11,1,3.07,1.73,3.5,2.51,4.24,7.74,2.49,11.67s-5.47,6.68-9.4,8.43a16.73,16.73,0,0,1-6.78,1.65,23.34,23.34,0,0,1-7.7-1.85c-5.29-1.92-10.61-3.76-16-5.44a31.1,31.1,0,0,0-9-1.81c-2.66,0-5.3.61-8,.61a12.39,12.39,0,0,1-2.64-.27,5.18,5.18,0,0,0,1.11,1,13.39,13.39,0,0,0,3.64,1.46,38.43,38.43,0,0,1,5.17,1.87c4.31,2,7.92,5.23,12,7.67A33.28,33.28,0,0,0,238.55,408,27.91,27.91,0,0,0,257.58,393.54Z"/><path class="cls-12" d="M235.22,374.69a36.15,36.15,0,0,0-7.38.71,104.54,104.54,0,0,0-17.74,5.14c-4,1.5-8,3.2-11.08,6.17-.28-.23-.1-.68.12-1a13.39,13.39,0,0,1,4-3.19c10.53-6.27,22.82-8.91,35-10.33a15.09,15.09,0,0,1,4.44-.06c2.84.52,5.15,2.54,7.29,4.47a1.48,1.48,0,0,1,.5.66.51.51,0,0,1-.35.65c-2,.24-4.9-1.44-6.88-2A32.72,32.72,0,0,0,235.22,374.69Z"/><path class="cls-12" d="M206.72,377.39a7.53,7.53,0,0,1-.55-3.54,5.34,5.34,0,0,1,1.16-3.29c.32.26.07.76-.12,1.11-.76,1.4-.44,3.12.06,4.63a2.76,2.76,0,0,0,1.07,1.63c.74.42,1.72.14,2.45.57a.56.56,0,0,1,.29.32c.17.72-1.72,1-2.19.9C207.92,379.49,207.09,378.22,206.72,377.39Z"/><path class="cls-12" d="M216.71,367.7a14.13,14.13,0,0,1,3.19-5.58.94.94,0,0,1,.48-.38c.2,0,.46.11.42.32a17.52,17.52,0,0,0-2.52,4.8A5.92,5.92,0,0,0,219,372c1.17,1.51,3.15,2.08,5,2.41a1.06,1.06,0,0,1,.69.31.71.71,0,0,1-.23.95c-2,1.41-4.48,0-5.83-1.43A7.5,7.5,0,0,1,216.71,367.7Z"/><path class="cls-12" d="M230.67,366.67a4.18,4.18,0,0,1-.39-1.4,4.05,4.05,0,0,1,.37-1.7,13.78,13.78,0,0,1,2-3.39.34.34,0,0,1,.16.46,1.48,1.48,0,0,1-.36.42c-.81.81-.76,2.12-.62,3.26a13,13,0,0,0,1.46,5.06,2.18,2.18,0,0,0,.52.64,2.86,2.86,0,0,0,1.12.42,12.16,12.16,0,0,1,2.86,1.07,1.13,1.13,0,0,1,.65.65c.24,1-1.48,1.17-2.1,1.11a2.74,2.74,0,0,1-1.91-1A17.59,17.59,0,0,1,230.67,366.67Z"/><path class="cls-12" d="M220.66,384.52a29,29,0,0,0,4.55,7.85c.26.36.85.7,1.05.31a20.92,20.92,0,0,1-3.6-6.28c-.93-2.58-1.32-5.53-.13-8a13.74,13.74,0,0,1,1.89-2.7c0,.06-2.2-.15-2.69.18a4.1,4.1,0,0,0-1.32,2.37A10.93,10.93,0,0,0,220.66,384.52Z"/><path class="cls-12" d="M234.46,384.16c1.45,3.57,4.49,6.28,7.81,8.23.53.31,1.39.52,1.63-.05-2.94-1.72-5.74-4-7.19-7s-1.21-7.15,1.29-9.46a2,2,0,0,0,.75-1c.2-1.21-1.64-1.5-2.45-1.15s-1.55,1.75-1.92,2.65A10.55,10.55,0,0,0,234.46,384.16Z"/><path class="cls-13" d="M237.74,359.61a9.54,9.54,0,0,0-3.21-.44,9.72,9.72,0,0,0-4.86.89c-1,.54-1.76,1.37-2.75,1.89a13.55,13.55,0,0,1-4.61.93A23,23,0,0,0,212.23,367a49.47,49.47,0,0,0-8.11,7.38c-1.6,1.74-3.21,3.67-3.55,6a1.08,1.08,0,0,0,.05.66.81.81,0,0,0,1,.27,2.24,2.24,0,0,0,.84-.8,32.83,32.83,0,0,0,2.48-4,7.66,7.66,0,0,1,1.75-2.52,2.28,2.28,0,0,1,2.84-.17c.19.17.34.39.54.56.92.81,2.47.23,3.16-.78a10.44,10.44,0,0,0,1.12-3.48,3.83,3.83,0,0,1,2.06-2.87c1.47-.53,3,.57,4.12,1.67s2.36,2.38,3.93,2.31a3.42,3.42,0,0,0,2.65-1.79,8.12,8.12,0,0,0,.9-3.18,5.25,5.25,0,0,1,.26-1.31,2.4,2.4,0,0,1,2.12-1.49,2.32,2.32,0,0,1,2.16,1.41,11.43,11.43,0,0,1,.31,1.22,3.85,3.85,0,0,0,6.77,1C241.16,364.82,240.46,360.61,237.74,359.61Z"/><path class="cls-14" d="M439.62,183.23a10,10,0,0,1,1-7.06c2.45-4.4,7.84-6.26,12.86-6.75s10.17,0,15-1.33c2.45-.68,4.76-1.81,7.19-2.57a12,12,0,0,1,7.5-.29,4.28,4.28,0,0,1,2.5,2,5.09,5.09,0,0,1-.18,3.92c-1.39,3.82-4,7.09-5.59,10.82-2,4.58-2.34,9.75-4.64,14.17a22.73,22.73,0,0,1-11.76,10.13c-3.67,1.5-7.91,2.23-11.58.71-5.06-2.1-7.69-8.45-6.08-13.69,1-3.2-.09-3.41-2.44-5A8.73,8.73,0,0,1,439.62,183.23Z"/><path class="cls-15" d="M485.66,167.21a4.25,4.25,0,0,0-2.47-2,4.61,4.61,0,0,1,.82,3.2c-.31,2-2.15,3.32-3.66,4.67a17.92,17.92,0,0,0-3.39,4,52.41,52.41,0,0,0-2.67,5.55A42.27,42.27,0,0,1,457,201.5a12.66,12.66,0,0,1-6.84,2.1,6,6,0,0,1-3.26-1.2,10.36,10.36,0,0,0,5,4.58c3.67,1.52,7.91.79,11.58-.71a22.73,22.73,0,0,0,11.76-10.13c2.3-4.42,2.69-9.59,4.64-14.17,1.6-3.74,4.2-7,5.59-10.82A5.09,5.09,0,0,0,485.66,167.21Z"/><path class="cls-15" d="M451.21,193.35c7.28-2.31,13.18-7.73,18-13.69a28.38,28.38,0,0,1,5.16-5.54c.49-.35,1.07-.81,1-1.41a14.9,14.9,0,0,0-3.8,2.79c-6,5.5-12,11.14-19,15.26a5.1,5.1,0,0,1-2.28.86c-1.91.08-2.46.08-4.59-1.74C445.73,193.47,448.28,194.28,451.21,193.35Z"/><path class="cls-15" d="M450.17,190.78a6.18,6.18,0,0,0,.62-2.47,12.78,12.78,0,0,0-.28-4.67,6.24,6.24,0,0,0-2.69-3.72,5.06,5.06,0,0,1,2.88,3,12.37,12.37,0,0,1,.68,4.22q.05,1.89,0,3.78a2.93,2.93,0,0,1-.69,2.08,1.52,1.52,0,0,1-1.57.27C447.07,192.45,449.67,191.66,450.17,190.78Z"/><path class="cls-15" d="M461.35,181.39a8.79,8.79,0,0,0-2.84-6.36c2.2,1.19,3.23,3.81,3.53,6.29a8.26,8.26,0,0,1-.28,3.78,4.33,4.33,0,0,1-1.53,2.11c-1,.7-1,0-.49-.74A9.15,9.15,0,0,0,461.35,181.39Z"/><path class="cls-15" d="M453.37,196.62a7.64,7.64,0,0,1,.31,4.83,6.58,6.58,0,0,0,.6-3.85,12.75,12.75,0,0,0-1.18-3.76,3.63,3.63,0,0,0-1.12-1.54,1.44,1.44,0,0,0-1.56-.1c-.75.58-.13.8.36,1.16A7.79,7.79,0,0,1,453.37,196.62Z"/><path class="cls-15" d="M465.86,195.26a15.27,15.27,0,0,0-3.31-5.48,5.31,5.31,0,0,0-2.58-1.7c-.6-.13-2.72.07-2.26,1,.27.57,2.48,1,3.07,1.34A13.18,13.18,0,0,1,465.86,195.26Z"/><path class="cls-16" d="M443.62,184.88a6.15,6.15,0,0,1-1.49-4.28,5.23,5.23,0,0,1,2.52-3.87,7,7,0,0,1,4.62-.85,15.67,15.67,0,0,0,2.34.33c2,0,3.71-1.51,5.45-2.57a14.15,14.15,0,0,1,10.15-1.73,2.77,2.77,0,0,1,1.39.61,1.09,1.09,0,0,1,.21,1.39,1.48,1.48,0,0,1-.7.43,8.51,8.51,0,0,1-3.3.48,1.87,1.87,0,0,0-.88.08c-.7.32-.64,1.32-.43,2.06s.35,1.71-.3,2.12c-.82.52-1.77-.52-2-1.46s-.52-2.12-1.47-2.36a1.71,1.71,0,0,0-1.84,1.33c-.52,1.74.6,4-.73,5.25-.9.83-2.37.54-3.45-.07a11.14,11.14,0,0,0-3.26-1.69c-1.21-.22-2.73.67-2.51,1.88a4.13,4.13,0,0,0,.89,1.5,4.06,4.06,0,0,1,.71,2.48C449.29,190.35,444.71,186.25,443.62,184.88Z"/><path class="cls-14" d="M437.63,511.11A10,10,0,0,0,434,505c-3.95-3.13-9.64-2.78-14.46-1.32s-9.39,3.9-14.39,4.52c-2.53.31-5.09.15-7.63.38a12,12,0,0,0-7,2.6,4.28,4.28,0,0,0-1.56,2.78,5.09,5.09,0,0,0,1.66,3.56c2.74,3,6.4,5,9.31,7.86,3.56,3.48,5.9,8.12,9.71,11.32a22.73,22.73,0,0,0,14.74,4.86c4,0,8.17-1,11-3.77,3.87-3.87,3.87-10.75.38-15-2.13-2.58-1.22-3.19.35-5.51A8.73,8.73,0,0,0,437.63,511.11Z"/><path class="cls-15" d="M389,513.93a4.25,4.25,0,0,1,1.53-2.76,4.61,4.61,0,0,0,.46,3.27c1,1.73,3.26,2.25,5.17,2.91a17.93,17.93,0,0,1,4.66,2.4,52.45,52.45,0,0,1,4.59,4.11,42.27,42.27,0,0,0,23.17,10.79,12.66,12.66,0,0,0,7.12-.68,6,6,0,0,0,2.55-2.36,10.36,10.36,0,0,1-2.86,6.14c-2.81,2.81-7,3.75-11,3.77a22.73,22.73,0,0,1-14.74-4.86c-3.81-3.2-6.15-7.84-9.71-11.32-2.9-2.84-6.56-4.86-9.31-7.86A5.09,5.09,0,0,1,389,513.93Z"/><path class="cls-15" d="M430.8,524.9c-7.61.65-15.14-2.1-21.84-5.78a28.38,28.38,0,0,0-6.89-3.15c-.59-.14-1.3-.34-1.44-.93a14.9,14.9,0,0,1,4.58,1.13c7.65,2.79,15.34,5.71,23.41,6.83a5.1,5.1,0,0,0,2.43-.08c1.79-.65,2.3-.86,3.57-3.36C435.91,522.91,433.86,524.64,430.8,524.9Z"/><path class="cls-15" d="M430.78,522.12a6.18,6.18,0,0,1-1.52-2,12.78,12.78,0,0,1-1.53-4.43,6.24,6.24,0,0,1,1.06-4.47,5.06,5.06,0,0,0-1.51,3.88,12.37,12.37,0,0,0,1,4.16q.67,1.77,1.49,3.47a2.93,2.93,0,0,0,1.43,1.66,1.52,1.52,0,0,0,1.55-.35C434.28,522.48,431.57,522.75,430.78,522.12Z"/><path class="cls-15" d="M416.86,517.72a8.79,8.79,0,0,1,.19-7c-1.58,1.94-1.53,4.75-.86,7.16a8.27,8.27,0,0,0,1.7,3.39,4.33,4.33,0,0,0,2.22,1.36c1.23.25.91-.36.17-.87A9.15,9.15,0,0,1,416.86,517.72Z"/><path class="cls-15" d="M430.06,528.75a7.64,7.64,0,0,0,1.56,4.58,6.58,6.58,0,0,1-2-3.33,12.75,12.75,0,0,1-.35-3.93,3.63,3.63,0,0,1,.44-1.85,1.44,1.44,0,0,1,1.4-.69c.92.25.42.69.11,1.21A7.79,7.79,0,0,0,430.06,528.75Z"/><path class="cls-15" d="M418,532.27a15.27,15.27,0,0,1,1-6.33,5.31,5.31,0,0,1,1.73-2.56c.5-.35,2.54-1,2.49.1,0,.63-1.9,1.9-2.32,2.42A13.18,13.18,0,0,0,418,532.27Z"/><path class="cls-16" d="M434.57,514.17a6.15,6.15,0,0,0-.26-4.52A5.23,5.23,0,0,0,430.5,507a7,7,0,0,0-4.6,1,15.67,15.67,0,0,1-2,1.2c-1.89.76-4,0-6-.29a14.15,14.15,0,0,0-10,2.28,2.77,2.77,0,0,0-1.05,1.1,1.09,1.09,0,0,0,.34,1.37,1.48,1.48,0,0,0,.81.13,8.51,8.51,0,0,0,3.23-.82,1.87,1.87,0,0,1,.85-.27c.77,0,1.09,1,1.19,1.74s.33,1.71,1.09,1.84c1,.17,1.44-1.16,1.33-2.13s-.33-2.16.45-2.74a1.71,1.71,0,0,1,2.21.53c1.15,1.41,1,3.94,2.68,4.57,1.15.42,2.4-.41,3.16-1.38a11.14,11.14,0,0,1,2.36-2.8c1-.66,2.78-.42,3,.78a4.13,4.13,0,0,1-.25,1.73,4.06,4.06,0,0,0,.29,2.57C431.43,521.39,434.09,515.85,434.57,514.17Z"/><path class="cls-17" d="M212.8,239.38c-3,2.28-6.41,4.08-9.46,6.33a38.67,38.67,0,0,0-13,17c-2.94,7.6-3.4,16-6,23.68-2.81,8.33-8,15.68-10.81,24-2.43,7.25-2.93,15-3.15,22.64-.36,12.65.19,26,6.86,36.78a6.31,6.31,0,0,0,3,2.91c2.68.92,5.41-1.88,5.67-4.7s-1.06-5.5-2.08-8.14c-4.6-12-3.14-25.28-1.61-38,.95-7.87,1.93-15.88,5.1-23.14s8.92-13.82,16.54-16c5-1.44,10.31-.93,15.51-.79,2.38.06,4.86,0,7-1.07s3.69-3.57,3-5.85c-.5-1.66-2-2.78-3.29-3.94a22,22,0,0,1-7-13.55,13.22,13.22,0,0,1,.85-7.11,21.67,21.67,0,0,1,3.81-5.09A73.59,73.59,0,0,0,242,200.85a2.57,2.57,0,0,0-.71-2.36c-.95-.64-2.19.19-3,1-5,5.42-5.27,12.8-8.93,18.94C224.87,226.12,220,233.94,212.8,239.38Z"/><path class="cls-17" d="M278.33,362.2c-.92,4.21,3.49,7.8,7.72,8.62s8.7.06,12.81,1.32c7.63,2.34,11.54,10.61,14.28,18.11s5.88,15.87,13.11,19.26c3.29,1.54,7.33,2,9.62,4.82s2,7.37,4.28,10.31c2,2.47,5.39,3.25,8.54,3.16a21.43,21.43,0,0,0,14.37-6.19c3.2-3.19,5.28-8.49,2.64-12.15-1.71-2.37-4.8-3.22-7.63-3.94-4.54-1.15-9.14-2.39-13.17-4.78s-7.49-6.11-8.54-10.68c-1.11-4.82.56-9.83,2.48-14.39s4.17-9.18,4.25-14.13-2.76-10.38-7.61-11.37c-7.22-1.46-14.13,7.24-21,4.66-2.32-.86-4-2.87-6.23-4-5.76-2.95-11-1.08-15.81,2C288.38,355.34,279.49,356.88,278.33,362.2Z"/><path class="cls-17" d="M487.29,184.45a8.41,8.41,0,0,0-1.15,2.87c-.4,3,2.35,5.37,4.7,7.28,6.43,5.25,12.2,12.58,11.79,20.87-.14,2.92-1.05,5.86-.42,8.7a8.59,8.59,0,0,0,11.28,5.76c3.63-1.57,5.69-5.5,9-7.59,5.52-3.43,12.7-1,18.54,1.81a8.81,8.81,0,0,0,4.44,1.28c3.05-.25,4.9-3.74,4.76-6.8-.31-6.49-6.56-11.06-12.65-13.33s-12.85-3.39-17.82-7.57c-7.76-6.51-8.65-17.45-14-25.55C497.07,158.86,491.55,176.7,487.29,184.45Z"/><path class="cls-3" d="M187.06,284.89a124.34,124.34,0,0,0-12.19,67.33c2-1.13,2.28-3.89,2.33-6.21a200.12,200.12,0,0,1,6.17-44.93c1.28-5,2.85-10.14,6.28-14,2.89-3.26,7-5.45,9.26-9.14,2.77-4.45,2.58-10.46,6-14.4,1.51-1.73,3.61-2.9,5-4.73,2.25-2.93,2.33-7,4.25-10.17,2.3-3.78,8.57-7,7.66-12-6.68,3.89-16.09,9.9-20.76,16.35C194.56,262,192,274.83,187.06,284.89Z"/><path class="cls-17" d="M274.32,149.31c4.63-4.64,11-7.21,17.5-8.22s13.09-.56,19.6.11c4.62.48,9.63,1,13.62-1.41,3.36-2,5.29-5.72,6.87-9.3-2.16-2.86-6.59-1.68-10-.55-9.24,3.07-19.11,3.62-28.65,5.58-6.43,1.32-12.93,3.39-18.4,7.12-1.77,1.21-6.19,3.9-6.08,6.44C269,153,272.52,151.11,274.32,149.31Z"/><path class="cls-18" d="M307.92,263.28a16.39,16.39,0,0,0,5.71.59,1.91,1.91,0,0,0,1.27-.52,1.79,1.79,0,0,0-1.27-3.06,15.11,15.11,0,0,1-3.19-.09l.48.06a15.33,15.33,0,0,1-2.05-.43,1.79,1.79,0,1,0-1,3.45Z"/><path class="cls-18" d="M321.67,259.45l1.41,2.19a1.89,1.89,0,0,0,1.07.82,1.36,1.36,0,0,0,.71,0,1.33,1.33,0,0,0,.67-.21,1.79,1.79,0,0,0,.64-2.45l-1.41-2.19a1.89,1.89,0,0,0-1.07-.82,1.36,1.36,0,0,0-.71,0,1.33,1.33,0,0,0-.67.21,1.79,1.79,0,0,0-.64,2.45Z"/><path class="cls-18" d="M311.84,271.73v2.48a1.85,1.85,0,0,0,.52,1.27,2,2,0,0,0,1.27.52,1.81,1.81,0,0,0,1.27-.52,1.86,1.86,0,0,0,.52-1.27v-2.48a1.85,1.85,0,0,0-.52-1.27,2,2,0,0,0-1.27-.52,1.81,1.81,0,0,0-1.27.52,1.86,1.86,0,0,0-.52,1.27Z"/><path class="cls-18" d="M299.58,264.7a1.79,1.79,0,0,0,0-3.58,1.79,1.79,0,0,0,0,3.58Z"/><path class="cls-18" d="M298,264.1q.16.32.29.64l-.18-.43a12.08,12.08,0,0,1,.82,3l-.06-.48,0,.21a2,2,0,0,0,.52,1.27,1.79,1.79,0,0,0,2.53,0,1.72,1.72,0,0,0,.52-1.27,13.19,13.19,0,0,0-1.38-4.75,1.81,1.81,0,0,0-1.07-.82,1.83,1.83,0,0,0-1.38.18,1.81,1.81,0,0,0-.82,1.07,2,2,0,0,0,.18,1.38Z"/><path class="cls-18" d="M252,268.31,253.4,270a1.84,1.84,0,0,0,2.53,0l.28-.36a1.78,1.78,0,0,0,.24-.9l-.06-.48a1.79,1.79,0,0,0-.46-.79l-1.38-1.65a1.84,1.84,0,0,0-2.53,0l-.28.36a1.78,1.78,0,0,0-.24.9l.06.48a1.79,1.79,0,0,0,.46.79Z"/><path class="cls-18" d="M275.83,291.49a11,11,0,0,0,3.19,4.67,1.92,1.92,0,0,0,1.27.52,1.82,1.82,0,0,0,1.27-.52,1.8,1.8,0,0,0,.52-1.27,1.76,1.76,0,0,0-.52-1.27,9.32,9.32,0,0,1-1.4-1.45l.28.36a9.34,9.34,0,0,1-1.17-2l.18.43-.16-.41a1.92,1.92,0,0,0-.82-1.07,1.79,1.79,0,0,0-2.45.64,1.76,1.76,0,0,0-.18,1.38Z"/><path class="cls-18" d="M287.8,262.46l2.2.83a1.36,1.36,0,0,0,.71,0,1.33,1.33,0,0,0,.67-.21,2,2,0,0,0,.82-1.07,1.81,1.81,0,0,0-.18-1.38l-.28-.36a1.79,1.79,0,0,0-.79-.46l-2.2-.83a1.36,1.36,0,0,0-.71,0,1.33,1.33,0,0,0-.67.21,2,2,0,0,0-.82,1.07,1.81,1.81,0,0,0,.18,1.38l.28.36a1.79,1.79,0,0,0,.79.46Z"/><path class="cls-18" d="M300.33,228.13a11.33,11.33,0,0,0,2.94,4.37,1.88,1.88,0,0,0,1.27.52,1.82,1.82,0,0,0,1.27-.52,1.79,1.79,0,0,0,0-2.53,9.85,9.85,0,0,1-1.17-1.26l.28.36a9.8,9.8,0,0,1-1.23-2.1l.18.43-.09-.22a2,2,0,0,0-.82-1.07,1.79,1.79,0,0,0-2.45.64,1.74,1.74,0,0,0-.18,1.38Z"/><path class="cls-18" d="M256.86,450l.34,0-.48-.06a22.9,22.9,0,0,1,2.94.6q.72.2,1.43.45l.65.24.32.13c.1,0,.61.26.11,0a2,2,0,0,0,1.38.18,1.83,1.83,0,0,0,1.07-.82,1.81,1.81,0,0,0,.18-1.38,1.72,1.72,0,0,0-.82-1.07,23.31,23.31,0,0,0-7.12-1.92,1.78,1.78,0,0,0-1.27.52,1.79,1.79,0,0,0,0,2.53,2.09,2.09,0,0,0,1.27.52Z"/><path class="cls-18" d="M265.72,458.93l1.77.89a1.33,1.33,0,0,0,.67.21,1.84,1.84,0,0,0,1.78-.85l.18-.43a1.8,1.8,0,0,0,0-1l-.18-.43a1.8,1.8,0,0,0-.64-.64l-1.77-.89a1.34,1.34,0,0,0-.67-.21,1.84,1.84,0,0,0-1.78.85l-.18.43a1.8,1.8,0,0,0,0,1l.18.43a1.8,1.8,0,0,0,.64.64Z"/><path class="cls-18" d="M258.64,482.23a1.79,1.79,0,0,0,0-3.58,1.79,1.79,0,0,0,0,3.58Z"/><path class="cls-18" d="M257.31,481.77l3.55,3.53a1.85,1.85,0,0,0,1.27.52,1.82,1.82,0,0,0,1.27-.52,1.8,1.8,0,0,0,.52-1.27,1.86,1.86,0,0,0-.52-1.27l-3.55-3.53a1.85,1.85,0,0,0-1.27-.52,1.82,1.82,0,0,0-1.27.52,1.8,1.8,0,0,0-.52,1.27,1.86,1.86,0,0,0,.52,1.27Z"/><path class="cls-18" d="M275.44,475.09l2.66-3.1a1.91,1.91,0,0,0,.52-1.27,1.82,1.82,0,0,0-.52-1.27,1.8,1.8,0,0,0-1.27-.52,1.77,1.77,0,0,0-1.27.52l-2.66,3.1a1.91,1.91,0,0,0-.52,1.27,1.82,1.82,0,0,0,.52,1.27,1.8,1.8,0,0,0,1.27.52,1.77,1.77,0,0,0,1.27-.52Z"/><path class="cls-18" d="M256.8,436.08l2.66-2.66a1.85,1.85,0,0,0,.52-1.27,1.82,1.82,0,0,0-.52-1.27,1.8,1.8,0,0,0-1.27-.52,1.87,1.87,0,0,0-1.27.52l-2.66,2.66a1.85,1.85,0,0,0-.52,1.27,1.82,1.82,0,0,0,.52,1.27,1.8,1.8,0,0,0,1.27.52,1.87,1.87,0,0,0,1.27-.52Z"/><path class="cls-18" d="M266.55,415.8l.93-3.53a1.86,1.86,0,0,0-.18-1.38,1.79,1.79,0,0,0-2.45-.64,1.85,1.85,0,0,0-.82,1.07l-.93,3.53a1.86,1.86,0,0,0,.18,1.38,1.79,1.79,0,0,0,2.45.64,1.85,1.85,0,0,0,.82-1.07Z"/><path class="cls-18" d="M272.42,410.4a12.25,12.25,0,0,1,1.6,1.69l-.28-.36a12.19,12.19,0,0,1,1.58,2.7,1.79,1.79,0,0,0,1.07.82,1.83,1.83,0,0,0,1.38-.18,1.81,1.81,0,0,0,.82-1.07l.06-.48a1.78,1.78,0,0,0-.24-.9,13.24,13.24,0,0,0-3.46-4.75,1.9,1.9,0,0,0-1.27-.52,1.82,1.82,0,0,0-1.27.52,1.8,1.8,0,0,0-.52,1.27,1.78,1.78,0,0,0,.52,1.27Z"/><path class="cls-18" d="M281.2,445.83a19,19,0,0,0,8,.94,1.93,1.93,0,0,0,1.27-.52,1.79,1.79,0,0,0-1.27-3.06,17.71,17.71,0,0,1-3.74,0c-.09,0-.54,0-.07,0a3.79,3.79,0,0,1-.48-.08l-.88-.18a17.9,17.9,0,0,1-1.87-.54,1.8,1.8,0,0,0-2.2,1.25,1.83,1.83,0,0,0,1.25,2.2Z"/><path class="cls-18" d="M304.27,438.82a1.79,1.79,0,0,0,0-3.58,1.79,1.79,0,0,0,0,3.58Z"/><path class="cls-18" d="M306.32,437.08l1.7-4a1.33,1.33,0,0,0,.21-.67,1.36,1.36,0,0,0,0-.71,1.83,1.83,0,0,0-.82-1.07,1.81,1.81,0,0,0-1.38-.18,1.72,1.72,0,0,0-1.07.82l-1.7,4a1.33,1.33,0,0,0-.21.67,1.36,1.36,0,0,0,0,.71,1.83,1.83,0,0,0,.82,1.07,1.81,1.81,0,0,0,1.38.18,1.72,1.72,0,0,0,1.07-.82Z"/><path class="cls-18" d="M305.5,414.46l.92-4.42a1.9,1.9,0,0,0-.18-1.38,1.79,1.79,0,0,0-2.45-.64,1.78,1.78,0,0,0-.82,1.07l-.92,4.42a1.9,1.9,0,0,0,.18,1.38,1.79,1.79,0,0,0,2.45.64,1.79,1.79,0,0,0,.82-1.07Z"/><path class="cls-18" d="M440.32,466.65a13,13,0,0,0,11,3.52,1.8,1.8,0,0,0,1.25-2.2,1.85,1.85,0,0,0-2.2-1.25c.15,0,.26,0,0,0l-.29,0-.58,0a10.76,10.76,0,0,1-1.23,0l-.29,0c-.27,0,.31.06,0,0l-.57-.11a11.19,11.19,0,0,1-1.19-.32l-.55-.2c-.18-.07-.11,0,0,0l-.26-.12a11,11,0,0,1-1-.54l-.49-.31-.3-.21s-.28-.21-.11-.08l-.1-.09-.22-.19-.48-.45a1.79,1.79,0,0,0-2.53,2.53Z"/><path class="cls-18" d="M453.61,496.85l7.5-2.75a1.79,1.79,0,0,0-1-3.45l-7.5,2.75a1.79,1.79,0,1,0,1,3.45Z"/><path class="cls-18" d="M471.23,493.86l3.74-6.78a1.79,1.79,0,0,0-3.09-1.81L468.14,492a1.79,1.79,0,1,0,3.09,1.81Z"/><path class="cls-18" d="M467.22,483l4.4-4a1.8,1.8,0,0,0,0-2.53,1.83,1.83,0,0,0-2.53,0l-4.4,4a1.8,1.8,0,0,0,0,2.53,1.83,1.83,0,0,0,2.53,0Z"/><path class="cls-18" d="M484.09,474.28l2.21-7.09a1.81,1.81,0,0,0-1.25-2.2,1.83,1.83,0,0,0-2.2,1.25l-2.21,7.09a1.81,1.81,0,0,0,1.25,2.2,1.83,1.83,0,0,0,2.2-1.25Z"/><path class="cls-18" d="M477.89,456.48l-.83-3.12a1.85,1.85,0,0,0-.82-1.07,1.79,1.79,0,0,0-2.45.64,1.88,1.88,0,0,0-.18,1.38l.83,3.12a1.85,1.85,0,0,0,.82,1.07,1.79,1.79,0,0,0,2.45-.64,1.88,1.88,0,0,0,.18-1.38Z"/><path class="cls-18" d="M469.94,425.53a1.79,1.79,0,0,0,0-3.58,1.79,1.79,0,0,0,0,3.58Z"/><path class="cls-18" d="M468.37,424.66a5,5,0,0,1,.55,1l-.18-.43a5.12,5.12,0,0,1,.35,1.29L469,426a5,5,0,0,1,0,1.28,1.78,1.78,0,0,0,.52,1.27,1.79,1.79,0,0,0,2.53,0l.28-.36a1.78,1.78,0,0,0,.24-.9,6.22,6.22,0,0,0-.17-2.33,7.52,7.52,0,0,0-.47-1.25,4.86,4.86,0,0,0-.5-.85,2,2,0,0,0-1.07-.82,1.83,1.83,0,0,0-1.38.18,1.81,1.81,0,0,0-.82,1.07,1.75,1.75,0,0,0,.18,1.38Z"/><path class="cls-18" d="M552.78,331.62a1.79,1.79,0,0,0,0-3.58,1.79,1.79,0,0,0,0,3.58Z"/><path class="cls-18" d="M553.25,331.54l5.77-1.73a1.79,1.79,0,0,0-1-3.45l-5.77,1.73a1.79,1.79,0,0,0,1,3.45Z"/><path class="cls-18" d="M542.07,332.35l4.53,3.4a1.8,1.8,0,0,0,1.38.18,1.83,1.83,0,0,0,1.07-.82,1.81,1.81,0,0,0,.18-1.38l-.18-.43a1.8,1.8,0,0,0-.64-.64l-4.53-3.4a1.8,1.8,0,0,0-1.38-.18,1.83,1.83,0,0,0-1.07.82,1.81,1.81,0,0,0-.18,1.38l.18.43a1.8,1.8,0,0,0,.64.64Z"/><path class="cls-18" d="M555.48,342.19a11.54,11.54,0,0,1,2,2l-.28-.36a11.77,11.77,0,0,1,.71,1,1.87,1.87,0,0,0,1.07.82,1.83,1.83,0,0,0,1.38-.18,1.81,1.81,0,0,0,.82-1.07,1.84,1.84,0,0,0-.18-1.38,12.81,12.81,0,0,0-3-3.41,2,2,0,0,0-1.27-.52,1.82,1.82,0,0,0-1.27.52,1.8,1.8,0,0,0-.52,1.27,1.72,1.72,0,0,0,.52,1.27Z"/><path class="cls-18" d="M567,353.85l3.1,0a1.85,1.85,0,0,0,1.27-.52,1.79,1.79,0,0,0,0-2.53,1.85,1.85,0,0,0-1.27-.52l-3.1,0a1.85,1.85,0,0,0-1.27.52,1.79,1.79,0,0,0,0,2.53,1.85,1.85,0,0,0,1.27.52Z"/><path class="cls-18" d="M566.53,339.8a19,19,0,0,1,3.63-2l-.43.18q.83-.35,1.69-.62a1.79,1.79,0,0,0-1-3.45,20.41,20.41,0,0,0-5.74,2.83,1.93,1.93,0,0,0-.82,1.07,1.79,1.79,0,0,0,2.63,2Z"/><path class="cls-18" d="M574.08,347.35l3.11-1.75a1.79,1.79,0,0,0,.64-2.45,1.81,1.81,0,0,0-1.07-.82,1.9,1.9,0,0,0-1.38.18l-3.12,1.75a1.79,1.79,0,0,0-.64,2.45,1.81,1.81,0,0,0,1.07.82,1.9,1.9,0,0,0,1.38-.18Z"/><path class="cls-18" d="M582.49,338.25a14.46,14.46,0,0,1,.12-1.8l-.06.48a14.13,14.13,0,0,1,1-3.58l-.18.43.17-.39a1.94,1.94,0,0,0,.18-1.38,1.79,1.79,0,0,0-3.27-.43,16,16,0,0,0-1.52,6.68,1.79,1.79,0,1,0,3.58,0Z"/><path class="cls-18" d="M430,289.13a13.56,13.56,0,0,0,9.33-.29,2,2,0,0,0,1.07-.82,1.83,1.83,0,0,0,.18-1.38,1.81,1.81,0,0,0-2.2-1.25,12,12,0,0,1-2,.63l-.58.11-.11,0a6,6,0,0,1-1,.08q-.52,0-1,0l-.44,0-.29,0h0a3.44,3.44,0,0,1-1-.2c-.33-.08-.66-.18-1-.29a1.8,1.8,0,0,0-2.2,1.25,1.83,1.83,0,0,0,1.25,2.2Z"/><path class="cls-18" d="M455.29,287.68a6.5,6.5,0,0,1,1.57.44l-.43-.18a6.52,6.52,0,0,1,1.4.82l-.36-.28.12.1a2,2,0,0,0,1.27.52,1.82,1.82,0,0,0,1.27-.52,1.8,1.8,0,0,0,.52-1.27,1.74,1.74,0,0,0-.52-1.27,8.13,8.13,0,0,0-3.88-1.82,1.36,1.36,0,0,0-.71,0,1.33,1.33,0,0,0-.67.21,1.79,1.79,0,0,0-.64,2.45,1.72,1.72,0,0,0,1.07.82Z"/><path class="cls-18" d="M459.76,296.13l-.7,4.9a2,2,0,0,0,.18,1.38,1.79,1.79,0,0,0,2.45.64,1.72,1.72,0,0,0,.82-1.07l.7-4.9a2,2,0,0,0-.18-1.38,1.79,1.79,0,0,0-2.45-.64,1.72,1.72,0,0,0-.82,1.07Z"/><path class="cls-18" d="M451.78,305l.49,4.42a2,2,0,0,0,.52,1.27,1.79,1.79,0,0,0,2.53,0,1.73,1.73,0,0,0,.52-1.27l-.49-4.42a2,2,0,0,0-.52-1.27,1.79,1.79,0,0,0-2.53,0,1.73,1.73,0,0,0-.52,1.27Z"/><path class="cls-18" d="M407.07,290.56a9.07,9.07,0,0,0,5.73,1.66,1.89,1.89,0,0,0,1.27-.52,1.79,1.79,0,0,0-1.27-3.06,7.68,7.68,0,0,1-1.46-.06l.48.06a7.8,7.8,0,0,1-1.88-.52l.43.18a7.64,7.64,0,0,1-1.48-.84,1.8,1.8,0,0,0-1.38-.18,1.83,1.83,0,0,0-1.07.82,1.81,1.81,0,0,0-.18,1.38,2.05,2.05,0,0,0,.82,1.07Z"/><path class="cls-18" d="M431,299.69l4,3.58a1.88,1.88,0,0,0,1.27.52,1.82,1.82,0,0,0,1.27-.52,1.79,1.79,0,0,0,0-2.53l-4-3.58a1.88,1.88,0,0,0-1.27-.52,1.82,1.82,0,0,0-1.27.52,1.79,1.79,0,0,0,0,2.53Z"/><path class="cls-18" d="M472.88,310l1.74-2.68a1.33,1.33,0,0,0,.21-.67,1.36,1.36,0,0,0,0-.71,1.83,1.83,0,0,0-.82-1.07,1.81,1.81,0,0,0-1.38-.18,2,2,0,0,0-1.07.82l-1.74,2.68a1.33,1.33,0,0,0-.21.67,1.36,1.36,0,0,0,0,.71,1.83,1.83,0,0,0,.82,1.07,1.81,1.81,0,0,0,1.38.18,2,2,0,0,0,1.07-.82Z"/><path class="cls-18" d="M471.29,289.08v-5.76a1.79,1.79,0,1,0-3.58,0v5.76a1.79,1.79,0,0,0,3.58,0Z"/><path class="cls-18" d="M464.64,270.91v-5.76a1.79,1.79,0,1,0-3.58,0v5.76a1.79,1.79,0,1,0,3.58,0Z"/><path class="cls-18" d="M448.76,254.53c0-.11,0-.21,0-.31l-.06.48a3.48,3.48,0,0,1,.23-.82l-.18.43a3.74,3.74,0,0,1,.48-.81l-.28.36a3.79,3.79,0,0,1,.64-.64l-.36.28a3.56,3.56,0,0,1,.73-.43l-.43.18a3.45,3.45,0,0,1,.47-.16,1.79,1.79,0,0,0,1.25-2.2,1.81,1.81,0,0,0-.82-1.07,1.89,1.89,0,0,0-1.38-.18,5.05,5.05,0,0,0-2.6,1.65,6.65,6.65,0,0,0-.57.79,6.41,6.41,0,0,0-.41.89,4.87,4.87,0,0,0-.3,1.57,1.79,1.79,0,0,0,3.06,1.27,1.93,1.93,0,0,0,.52-1.27Z"/><path class="cls-18" d="M473,257.13a15.06,15.06,0,0,1,2.5-2.47l-.36.28q.48-.37,1-.7a1.89,1.89,0,0,0,.82-1.07,1.83,1.83,0,0,0-.18-1.38,1.79,1.79,0,0,0-2.45-.64,16.46,16.46,0,0,0-3.85,3.45,2,2,0,0,0-.52,1.27,1.82,1.82,0,0,0,.52,1.27,1.8,1.8,0,0,0,1.27.52,1.74,1.74,0,0,0,1.27-.52Z"/><path class="cls-19" d="M303.38,251h5.76a1.79,1.79,0,1,0,0-3.58h-5.76a1.79,1.79,0,0,0,0,3.58Z"/><path class="cls-19" d="M314.9,255.87a1.79,1.79,0,0,0,0-3.58,1.79,1.79,0,0,0,0,3.58Z"/><path class="cls-19" d="M316.44,255l2.32-3.93a1.85,1.85,0,0,0,.18-1.38,1.79,1.79,0,0,0-3.27-.43l-2.32,3.93a1.85,1.85,0,0,0-.18,1.38,1.79,1.79,0,0,0,3.27.43Z"/><path class="cls-19" d="M307.19,284.69l2.18-4a1.88,1.88,0,0,0,.18-1.38,1.79,1.79,0,0,0-3.27-.43l-2.18,4a1.88,1.88,0,0,0-.18,1.38,1.79,1.79,0,0,0,3.27.43Z"/><path class="cls-19" d="M303.76,295.22l1.77-1.77a1.84,1.84,0,0,0,0-2.53,1.8,1.8,0,0,0-1.27-.52l-.48.06a1.79,1.79,0,0,0-.79.46l-1.77,1.77a1.84,1.84,0,0,0,0,2.53,1.8,1.8,0,0,0,1.27.52l.48-.06a1.79,1.79,0,0,0,.79-.46Z"/><path class="cls-19" d="M338.84,264.2l1.33-.45a2,2,0,0,0,1.07-.82,1.33,1.33,0,0,0,.21-.67,1.36,1.36,0,0,0,0-.71l-.18-.43a1.8,1.8,0,0,0-.64-.64l-.43-.18a1.8,1.8,0,0,0-1,0l-1.33.45a2,2,0,0,0-1.07.82,1.33,1.33,0,0,0-.21.67,1.36,1.36,0,0,0,0,.71l.18.43a1.8,1.8,0,0,0,.64.64l.43.18a1.8,1.8,0,0,0,1,0Z"/><path class="cls-19" d="M275,420.64l.53,6.64a1.79,1.79,0,1,0,3.58,0l-.53-6.64a1.79,1.79,0,1,0-3.58,0Z"/><path class="cls-19" d="M271.59,430.84l1.37,3.53a2,2,0,0,0,.82,1.07,1.79,1.79,0,0,0,2.45-.64,1.75,1.75,0,0,0,.18-1.38L275,429.89a2,2,0,0,0-.82-1.07,1.79,1.79,0,0,0-2.45.64,1.75,1.75,0,0,0-.18,1.38Z"/><path class="cls-19" d="M236.89,472.27l4,3a1.8,1.8,0,0,0,1.38.18,1.83,1.83,0,0,0,1.07-.82,1.81,1.81,0,0,0,.18-1.38l-.18-.43a1.8,1.8,0,0,0-.64-.64l-4-3a1.8,1.8,0,0,0-1.38-.18,1.83,1.83,0,0,0-1.07.82,1.81,1.81,0,0,0-.18,1.38l.18.43a1.8,1.8,0,0,0,.64.64Z"/><path class="cls-19" d="M249.72,482.05,251,483a1.33,1.33,0,0,0,.67.21,1.84,1.84,0,0,0,1.78-.85l.18-.43a1.8,1.8,0,0,0,0-1l-.18-.43a1.8,1.8,0,0,0-.64-.64l-1.32-.91a1.33,1.33,0,0,0-.67-.21,1.84,1.84,0,0,0-1.78.85l-.18.43a1.8,1.8,0,0,0,0,1l.18.43a1.8,1.8,0,0,0,.64.64Z"/><path class="cls-19" d="M259.48,472.94A6.18,6.18,0,0,0,261,473a6.45,6.45,0,0,0,1.54-.32,6.31,6.31,0,0,0,2.58-1.68,1.89,1.89,0,0,0,.52-1.27,1.82,1.82,0,0,0-.52-1.27,1.79,1.79,0,0,0-2.53,0,4.52,4.52,0,0,1-.62.58l.36-.28a4.71,4.71,0,0,1-1,.57l.43-.18a4.77,4.77,0,0,1-1.11.3l.48-.06a4.49,4.49,0,0,1-1.15,0l.48.06h-.06a1.36,1.36,0,0,0-.71,0,1.33,1.33,0,0,0-.67.21,1.79,1.79,0,0,0-.64,2.45,1.72,1.72,0,0,0,1.07.82Z"/><path class="cls-19" d="M438.35,284.52a33.14,33.14,0,0,1,3.31-3.5q.88-.8,1.81-1.54c.08-.07.34-.22,0,0l.2-.15.5-.37,1-.71a1.79,1.79,0,0,0-1.81-3.09,34.71,34.71,0,0,0-7.55,6.82,1.93,1.93,0,0,0-.52,1.27,1.79,1.79,0,0,0,3.06,1.27Z"/><path class="cls-19" d="M443.81,296.35l3.94-2.3a1.85,1.85,0,0,0,.82-1.07,1.79,1.79,0,0,0-2.63-2l-3.94,2.3a1.85,1.85,0,0,0-.82,1.07,1.79,1.79,0,0,0,2.63,2Z"/><path class="cls-19" d="M443.35,307.44l1.33.88a1.33,1.33,0,0,0,.67.21,1.84,1.84,0,0,0,1.78-.85l.18-.43a1.8,1.8,0,0,0,0-1l-.18-.43a1.8,1.8,0,0,0-.64-.64l-1.33-.88a1.33,1.33,0,0,0-.67-.21,1.84,1.84,0,0,0-1.78.85l-.18.43a1.8,1.8,0,0,0,0,1l.18.43a1.8,1.8,0,0,0,.64.64Z"/><path class="cls-19" d="M419.86,290a3,3,0,0,1,.13.54l-.06-.48a3.15,3.15,0,0,1,0,.83l.06-.48a3.26,3.26,0,0,1-.22.8l.18-.43a3.14,3.14,0,0,1-.37.63l.28-.36a3,3,0,0,1-.31.34,1.79,1.79,0,0,0,0,2.53,1.8,1.8,0,0,0,1.27.52,1.91,1.91,0,0,0,1.27-.52,3.12,3.12,0,0,0,.31-.34,5.79,5.79,0,0,0,.5-.69,6.35,6.35,0,0,0,.35-.78,3.22,3.22,0,0,0,.14-.44,4.9,4.9,0,0,0,.15-1.3,4.56,4.56,0,0,0-.22-1.33,1.9,1.9,0,0,0-.82-1.07,1.79,1.79,0,0,0-2.45.64,1.79,1.79,0,0,0-.18,1.38Z"/><path class="cls-19" d="M411.91,279.76h-3.54a1.85,1.85,0,0,0-1.27.52,1.79,1.79,0,0,0,0,2.53,1.86,1.86,0,0,0,1.27.52h3.54a1.85,1.85,0,0,0,1.27-.52,1.79,1.79,0,0,0,0-2.53,1.86,1.86,0,0,0-1.27-.52Z"/><path class="cls-19" d="M480.11,251.14l5.34-3.05a1.79,1.79,0,1,0-1.81-3.09L478.3,248a1.79,1.79,0,1,0,1.81,3.09Z"/><path class="cls-19" d="M570.08,328.85l5.77-.79a1.78,1.78,0,0,0,1.07-.82,1.79,1.79,0,0,0-.64-2.45l-.43-.18a1.8,1.8,0,0,0-1,0l-5.77.79a1.78,1.78,0,0,0-1.07.82,1.79,1.79,0,0,0,.64,2.45l.43.18a1.8,1.8,0,0,0,1,0Z"/><path class="cls-19" d="M566.43,347a30.85,30.85,0,0,1,2.48,4.54,1.79,1.79,0,0,0,1.07.82,1.83,1.83,0,0,0,1.38-.18,1.81,1.81,0,0,0,.82-1.07l.06-.48a1.78,1.78,0,0,0-.24-.9,30.85,30.85,0,0,0-2.48-4.54,1.9,1.9,0,0,0-1.07-.82,1.83,1.83,0,0,0-1.38.18,1.79,1.79,0,0,0-.64,2.45Z"/><path class="cls-19" d="M579.82,351.75l1.33-.89a1.72,1.72,0,0,0,.85-1.78,1.33,1.33,0,0,0-.21-.67l-.28-.36a1.79,1.79,0,0,0-.79-.46l-.48-.06a1.78,1.78,0,0,0-.9.24l-1.33.89a1.72,1.72,0,0,0-.85,1.78,1.33,1.33,0,0,0,.21.67l.28.36a1.79,1.79,0,0,0,.79.46l.48.06a1.78,1.78,0,0,0,.9-.24Z"/><path class="cls-19" d="M457.56,450.8a10,10,0,0,0,2.71,4.31,1.88,1.88,0,0,0,1.27.52,1.82,1.82,0,0,0,1.27-.52,1.79,1.79,0,0,0,0-2.53,8.33,8.33,0,0,1-.94-1l.28.36a8.33,8.33,0,0,1-1.05-1.79l.18.43q-.15-.35-.26-.71a1.89,1.89,0,0,0-.82-1.07,1.79,1.79,0,0,0-2.63,2Z"/><path class="cls-19" d="M464.76,465l1.79,2.64a1.91,1.91,0,0,0,1.07.82,1.36,1.36,0,0,0,.71,0,1.33,1.33,0,0,0,.67-.21,1.81,1.81,0,0,0,.82-1.07,1.79,1.79,0,0,0-.18-1.38l-1.79-2.64a1.91,1.91,0,0,0-1.07-.82,1.36,1.36,0,0,0-.71,0,1.33,1.33,0,0,0-.67.21,1.81,1.81,0,0,0-.82,1.07,1.79,1.79,0,0,0,.18,1.38Z"/><path class="cls-19" d="M474,440.12l.3-.05-.48.06a4.38,4.38,0,0,1,1.09,0l-.48-.06a4.6,4.6,0,0,1,1.12.3l-.43-.18a4.48,4.48,0,0,1,1,.58l-.36-.28a4.38,4.38,0,0,1,.49.46,1.8,1.8,0,0,0,2.53,0,1.83,1.83,0,0,0,0-2.53,6.06,6.06,0,0,0-5.74-1.74,1.79,1.79,0,0,0-.43,3.27,2,2,0,0,0,1.38.18Z"/><path class="cls-19" d="M485.14,453.36a24.26,24.26,0,0,0-2.76,8.93,1.79,1.79,0,0,0,1.79,1.79,1.84,1.84,0,0,0,1.79-1.79c0-.09.06-.72,0-.24,0-.14,0-.28.07-.43q.08-.5.18-1,.21-1,.53-2,.15-.48.32-1l.18-.47s.22-.54.13-.32.12-.27.14-.31l.21-.45c.16-.32.32-.64.49-1a1.79,1.79,0,0,0-3.09-1.81Z"/><path class="cls-19" d="M459.14,477.68l-1.93,5.85a1.8,1.8,0,0,0,1.25,2.2,1.83,1.83,0,0,0,2.2-1.25l1.93-5.85a1.8,1.8,0,0,0-1.25-2.2,1.83,1.83,0,0,0-2.2,1.25Z"/><path class="cls-19" d="M445.55,493.53l5.26,2.33a2,2,0,0,0,1.38.18,1.83,1.83,0,0,0,1.07-.82,1.81,1.81,0,0,0,.18-1.38,1.74,1.74,0,0,0-.82-1.07l-5.26-2.33a2,2,0,0,0-1.38-.18,1.79,1.79,0,0,0-1.25,2.2,1.74,1.74,0,0,0,.82,1.07Z"/><path class="cls-19" d="M410.56,494.4a14.39,14.39,0,0,0,8.44,2.43,1.79,1.79,0,1,0,0-3.58c-.34,0-.69,0-1,0a3.24,3.24,0,0,1-.9-.08h.09l-.25,0-.51-.1q-.44-.09-.87-.22t-.86-.28c-.16-.06-.33-.11-.48-.19.46.22-.07,0-.16-.08a12.79,12.79,0,0,1-1.67-1,1.8,1.8,0,0,0-2.45.64,1.83,1.83,0,0,0,.64,2.45Z"/><path class="cls-19" d="M428.27,407.27a18.51,18.51,0,0,0,10.25-1.44,1.8,1.8,0,0,0,.64-2.45,1.84,1.84,0,0,0-2.45-.64l-.29.13q.27-.12,0,0L436,403q-.52.19-1.06.34a19.07,19.07,0,0,1-2,.43c.41-.07-.11,0-.16,0l-.55,0q-.52,0-1,0t-1.11,0l-.48,0c-.07,0-.74-.09-.31,0a2,2,0,0,0-1.38.18,1.79,1.79,0,0,0,.43,3.27Z"/><rect class="cls-20" width="766.67" height="666.99"/></svg>