<svg id="Layer_2" data-name="Layer 2" xmlns="http://www.w3.org/2000/svg" viewBox="0 0 143.34 153.62"><defs><style>.cls-1{fill:#fefeeb;}</style></defs><title>Icons</title><g id="kdDA54"><path class="cls-1" d="M59.7,93.29,44.36,108.67c-1.82,1.83-3.64,3.66-5.48,5.47s-3.63,1.9-5,.46-1.23-3.28.53-5Q44.66,99.22,55,88.9a2.06,2.06,0,0,0,.16-.26C49.21,80.87,47,72.12,49.06,62.46A30.42,30.42,0,0,1,61.62,43.61c12.26-8.81,29.91-7,40.37,4.2A31.12,31.12,0,0,1,59.7,93.29ZM104,69.14A24.65,24.65,0,0,0,54.69,69c-.18,13.47,11.06,24.77,24.7,24.81A24.7,24.7,0,0,0,104,69.14Z"/></g></svg>