<svg id="Layer_2" data-name="Layer 2" xmlns="http://www.w3.org/2000/svg" viewBox="0 0 143.34 153.62"><defs><style>.cls-1{fill:#fdfdf6;}</style></defs><title>Icons</title><g id="q26YVw"><path class="cls-1" d="M71.62,47.7h33.19a12.39,12.39,0,0,1,12.47,10.87,11.31,11.31,0,0,1,.1,1.54q0,16.7,0,33.4a12.35,12.35,0,0,1-9.42,12,12.14,12.14,0,0,1-3,.36H38.31a12.38,12.38,0,0,1-12.2-10.36A12,12,0,0,1,26,93.6q0-16.8,0-33.61A12.31,12.31,0,0,1,36.18,47.9a14.75,14.75,0,0,1,2.46-.19ZM34,100.59c.21.13.35.22.49.3a8.08,8.08,0,0,0,3.76.93h66.8a8,8,0,0,0,3.85-1c.11-.06.22-.14.39-.26l-29.76-22L79,78.9l-2.73,2a8,8,0,0,1-9.3,0l-2.86-2.11c-.37-.27-.37-.27-.75,0l-.17.12L34.5,100.21Zm1.35-48.23.52.4,18,13.31q7.74,5.73,15.49,11.46a3.94,3.94,0,0,0,1.17.61,3.69,3.69,0,0,0,3.42-.56l33.62-24.9.35-.29s-.06-.08-.09-.1l-.24-.1a8.44,8.44,0,0,0-2.68-.41H38.42c-.21,0-.41,0-.62,0A7.54,7.54,0,0,0,35.36,52.36ZM83,76,112.2,97.6c.1-.16.18-.27.24-.39a7.89,7.89,0,0,0,.86-3.52q0-16.88,0-33.76a7.94,7.94,0,0,0-1.57-4.71,3.85,3.85,0,0,0-.29-.32ZM31.85,54.88c-.27.41-.53.76-.75,1.15A8.53,8.53,0,0,0,30,60.38q0,16.41,0,32.83c0,.24,0,.48,0,.72a8,8,0,0,0,.86,3.31,3.66,3.66,0,0,0,.24.36L60.34,76Z"/></g></svg>